M48
; DRILL file {KiCad 9.0.6} date 2025-11-22T23:37:45-0500
; FORMAT={-:-/ absolute / metric / decimal}
; #@! TF.CreationDate,2025-11-22T23:37:45-05:00
; #@! TF.GenerationSoftware,Kicad,Pcbnew,9.0.6
; #@! TF.FileFunction,Plated,1,2,PTH
FMAT,2
METRIC
; #@! TA.AperFunction,Plated,PTH,ViaDrill
T1C0.300
; #@! TA.AperFunction,Plated,PTH,ComponentDrill
T2C0.600
; #@! TA.AperFunction,Plated,PTH,ComponentDrill
T3C1.000
%
G90
G05
T1
X87.9Y-72.7
X88.2Y-98.5
X88.3Y-87.7
X88.5Y-69.4
X88.8Y-85.7
X89.0Y-63.7
X90.003Y-83.297
X90.3Y-94.4
X90.67Y-82.8
X91.27Y-80.369
X91.4Y-91.3
X91.5Y-99.1
X91.9Y-71.5
X92.1Y-78.7
X92.2Y-81.7
X92.37Y-75.177
X92.97Y-82.906
X93.1Y-84.0
X93.8Y-72.7
X94.0Y-87.3
X94.4Y-71.6
X94.5Y-83.938
X94.5Y-84.938
X94.5Y-85.938
X94.6Y-75.2
X94.626Y-86.987
X94.8Y-82.5
X95.4Y-100.1
X95.41Y-87.036
X95.5Y-83.938
X95.5Y-84.938
X95.5Y-85.938
X95.8Y-65.8
X95.9Y-77.9
X95.9Y-80.583
X96.5Y-83.938
X96.5Y-84.938
X96.5Y-85.938
X96.544Y-87.037
X96.8Y-95.4
X96.9Y-82.5
X97.3Y-73.9
X97.435Y-86.908
X98.035Y-86.184
X98.1Y-84.706
X99.366Y-77.559
X99.5Y-78.8
X99.8Y-94.1
X100.1Y-75.0
X100.225Y-73.8
X100.331Y-82.337
X100.8Y-103.7
X100.923Y-82.875
X101.4Y-77.0
X101.4Y-78.1
X101.4Y-80.6
X101.576Y-83.337
X101.7Y-88.4
X101.8Y-56.4
X101.8Y-58.7
X101.9Y-90.5
X101.9Y-99.1
X102.5Y-63.3
X102.6Y-88.3
X102.6Y-90.3
X102.7Y-86.3
X103.5Y-75.4
T3
X86.61Y-56.37
X86.61Y-58.91
X86.61Y-61.45
X86.61Y-63.99
X86.61Y-66.53
X86.61Y-69.07
X86.61Y-71.61
X86.61Y-74.15
X86.61Y-76.69
X86.61Y-79.23
X86.61Y-81.77
X86.61Y-84.31
X86.61Y-86.85
X86.61Y-89.39
X86.61Y-91.93
X86.61Y-94.47
X86.61Y-97.01
X86.61Y-99.55
X86.61Y-102.09
X86.61Y-104.63
X92.96Y-104.39
X95.5Y-104.39
X98.04Y-104.39
X104.39Y-56.37
X104.39Y-58.91
X104.39Y-61.45
X104.39Y-63.99
X104.39Y-66.53
X104.39Y-69.07
X104.39Y-71.61
X104.39Y-74.15
X104.39Y-76.69
X104.39Y-79.23
X104.39Y-81.77
X104.39Y-84.31
X104.39Y-86.85
X104.39Y-89.39
X104.39Y-91.93
X104.39Y-94.47
X104.39Y-97.01
X104.39Y-99.55
X104.39Y-102.09
X104.39Y-104.63
T2
G00X91.18Y-56.75
M15
G01X91.18Y-56.15
M16
G05
G00X91.18Y-61.18
M15
G01X91.18Y-60.08
M16
G05
G00X99.82Y-56.75
M15
G01X99.82Y-56.15
M16
G05
G00X99.82Y-61.18
M15
G01X99.82Y-60.08
M16
G05
M30
