%TF.GenerationSoftware,KiCad,Pcbnew,9.0.6*%
%TF.CreationDate,2025-11-22T23:37:21-05:00*%
%TF.ProjectId,DEVBOARD,44455642-4f41-4524-942e-6b696361645f,rev?*%
%TF.SameCoordinates,Original*%
%TF.FileFunction,Copper,L2,Bot*%
%TF.FilePolarity,Positive*%
%FSLAX46Y46*%
G04 Gerber Fmt 4.6, Leading zero omitted, Abs format (unit mm)*
G04 Created by KiCad (PCBNEW 9.0.6) date 2025-11-22 23:37:21*
%MOMM*%
%LPD*%
G01*
G04 APERTURE LIST*
%TA.AperFunction,HeatsinkPad*%
%ADD10O,1.000000X2.100000*%
%TD*%
%TA.AperFunction,HeatsinkPad*%
%ADD11O,1.000000X1.600000*%
%TD*%
%TA.AperFunction,ComponentPad*%
%ADD12R,1.700000X1.700000*%
%TD*%
%TA.AperFunction,ComponentPad*%
%ADD13C,1.700000*%
%TD*%
%TA.AperFunction,ViaPad*%
%ADD14C,0.600000*%
%TD*%
%TA.AperFunction,Conductor*%
%ADD15C,0.200000*%
%TD*%
G04 APERTURE END LIST*
D10*
%TO.P,J1,S1,SHIELD*%
%TO.N,GND*%
X99820000Y-60630000D03*
D11*
X99820000Y-56450000D03*
D10*
X91180000Y-60630000D03*
D11*
X91180000Y-56450000D03*
%TD*%
D12*
%TO.P,J2,1,Pin_1*%
%TO.N,GPIO0*%
X86610000Y-56370000D03*
D13*
%TO.P,J2,2,Pin_2*%
%TO.N,GPIO1*%
X86610000Y-58910000D03*
%TO.P,J2,3,Pin_3*%
%TO.N,GND*%
X86610000Y-61450000D03*
%TO.P,J2,4,Pin_4*%
%TO.N,GPIO2*%
X86610000Y-63990000D03*
%TO.P,J2,5,Pin_5*%
%TO.N,GPIO3*%
X86610000Y-66530000D03*
%TO.P,J2,6,Pin_6*%
%TO.N,GPIO4*%
X86610000Y-69070000D03*
%TO.P,J2,7,Pin_7*%
%TO.N,GPIO5*%
X86610000Y-71610000D03*
%TO.P,J2,8,Pin_8*%
%TO.N,GND*%
X86610000Y-74150000D03*
%TO.P,J2,9,Pin_9*%
%TO.N,GPIO6*%
X86610000Y-76690000D03*
%TO.P,J2,10,Pin_10*%
%TO.N,GPIO7*%
X86610000Y-79230000D03*
%TO.P,J2,11,Pin_11*%
%TO.N,GPIO8*%
X86610000Y-81770000D03*
%TO.P,J2,12,Pin_12*%
%TO.N,GPIO9*%
X86610000Y-84310000D03*
%TO.P,J2,13,Pin_13*%
%TO.N,GND*%
X86610000Y-86850000D03*
%TO.P,J2,14,Pin_14*%
%TO.N,GPIO10*%
X86610000Y-89390000D03*
%TO.P,J2,15,Pin_15*%
%TO.N,GPIO11*%
X86610000Y-91930000D03*
%TO.P,J2,16,Pin_16*%
%TO.N,GPIO12*%
X86610000Y-94470000D03*
%TO.P,J2,17,Pin_17*%
%TO.N,GPIO13*%
X86610000Y-97010000D03*
%TO.P,J2,18,Pin_18*%
%TO.N,GND*%
X86610000Y-99550000D03*
%TO.P,J2,19,Pin_19*%
%TO.N,GPIO14*%
X86610000Y-102090000D03*
%TO.P,J2,20,Pin_20*%
%TO.N,GPIO15*%
X86610000Y-104630000D03*
%TD*%
D12*
%TO.P,J3,1,Pin_1*%
%TO.N,VBUS*%
X104390000Y-56370000D03*
D13*
%TO.P,J3,2,Pin_2*%
%TO.N,GPIO29_ADC3*%
X104390000Y-58910000D03*
%TO.P,J3,3,Pin_3*%
%TO.N,GND*%
X104390000Y-61450000D03*
%TO.P,J3,4,Pin_4*%
%TO.N,GPIO28_ADC2*%
X104390000Y-63990000D03*
%TO.P,J3,5,Pin_5*%
%TO.N,+3V3*%
X104390000Y-66530000D03*
%TO.P,J3,6,Pin_6*%
%TO.N,GPIO27_ADC1*%
X104390000Y-69070000D03*
%TO.P,J3,7,Pin_7*%
%TO.N,GPIO26_ADC0*%
X104390000Y-71610000D03*
%TO.P,J3,8,Pin_8*%
%TO.N,GND*%
X104390000Y-74150000D03*
%TO.P,J3,9,Pin_9*%
%TO.N,GPIO24*%
X104390000Y-76690000D03*
%TO.P,J3,10,Pin_10*%
%TO.N,GPIO23*%
X104390000Y-79230000D03*
%TO.P,J3,11,Pin_11*%
%TO.N,RUN*%
X104390000Y-81770000D03*
%TO.P,J3,12,Pin_12*%
%TO.N,GPIO22*%
X104390000Y-84310000D03*
%TO.P,J3,13,Pin_13*%
%TO.N,GND*%
X104390000Y-86850000D03*
%TO.P,J3,14,Pin_14*%
%TO.N,GPIO21*%
X104390000Y-89390000D03*
%TO.P,J3,15,Pin_15*%
%TO.N,GPIO20*%
X104390000Y-91930000D03*
%TO.P,J3,16,Pin_16*%
%TO.N,GPIO19*%
X104390000Y-94470000D03*
%TO.P,J3,17,Pin_17*%
%TO.N,GPIO18*%
X104390000Y-97010000D03*
%TO.P,J3,18,Pin_18*%
%TO.N,GND*%
X104390000Y-99550000D03*
%TO.P,J3,19,Pin_19*%
%TO.N,GPIO17*%
X104390000Y-102090000D03*
%TO.P,J3,20,Pin_20*%
%TO.N,GPIO16*%
X104390000Y-104630000D03*
%TD*%
D12*
%TO.P,J4,1,Pin_1*%
%TO.N,SWCLK*%
X92960000Y-104390000D03*
D13*
%TO.P,J4,2,Pin_2*%
%TO.N,GND*%
X95500000Y-104390000D03*
%TO.P,J4,3,Pin_3*%
%TO.N,SWD*%
X98040000Y-104390000D03*
%TD*%
D14*
%TO.N,GND*%
X101900000Y-90500000D03*
X96500000Y-83937500D03*
X88200000Y-98500000D03*
X91500000Y-99100000D03*
X100100000Y-75000000D03*
X94500000Y-83937500D03*
X94400000Y-71600000D03*
X96500000Y-84937500D03*
X101400000Y-77000000D03*
X94000000Y-87300000D03*
X95500000Y-83937500D03*
X101700000Y-88400000D03*
X92370279Y-75177211D03*
X91900000Y-71500000D03*
X94500000Y-85937500D03*
X92100000Y-78700000D03*
X88300000Y-87700000D03*
X95500000Y-84937500D03*
X87900000Y-72700000D03*
X91270178Y-80368705D03*
X96500000Y-85937500D03*
X102700000Y-86300000D03*
X96800000Y-95400000D03*
X92200000Y-81700000D03*
X99500000Y-78800000D03*
X88800000Y-85700000D03*
X95400000Y-100100000D03*
X95500000Y-85937500D03*
X95800000Y-65800000D03*
X101800000Y-56400000D03*
X89000000Y-63700000D03*
X101400000Y-78100000D03*
X101800000Y-58700000D03*
X101400000Y-80600000D03*
X103500000Y-75400000D03*
X101900000Y-99100000D03*
X91400000Y-91300000D03*
X94600000Y-75200000D03*
X94500000Y-84937500D03*
X102500000Y-63300000D03*
X100800000Y-103700000D03*
%TO.N,+3V3*%
X95900000Y-77900000D03*
X95900000Y-80582730D03*
X97300000Y-73900000D03*
X99366048Y-77559257D03*
%TO.N,+1V1*%
X96900000Y-82500000D03*
X94626101Y-86986949D03*
X94800000Y-82500000D03*
%TO.N,VBUS*%
X88500000Y-69400000D03*
X90300000Y-94400000D03*
%TO.N,GPIO2*%
X90003000Y-83297000D03*
%TO.N,GPIO1*%
X90670178Y-82800000D03*
%TO.N,GPIO0*%
X92970279Y-82906431D03*
%TO.N,GPIO3*%
X93100000Y-84000000D03*
%TO.N,GPIO28_ADC2*%
X100923250Y-82874609D03*
%TO.N,GPIO29_ADC3*%
X100330692Y-82337135D03*
%TO.N,RUN*%
X97435213Y-86908488D03*
%TO.N,GPIO21*%
X98035213Y-86183837D03*
%TO.N,GPIO27_ADC1*%
X101575735Y-83337500D03*
%TO.N,SWD*%
X96544290Y-87037500D03*
%TO.N,SWCLK*%
X95410079Y-87036500D03*
%TO.N,QSPI_SS*%
X100225000Y-73800000D03*
X93800000Y-72700000D03*
%TO.N,GPIO25*%
X98100000Y-84705770D03*
X102600000Y-88300000D03*
X99800000Y-94100000D03*
X102600000Y-90300000D03*
%TD*%
D15*
%TO.N,GND*%
X92855327Y-83500000D02*
X94062500Y-83500000D01*
X91270178Y-80368705D02*
X91270178Y-79529822D01*
X92200000Y-81700000D02*
X92200000Y-82844673D01*
X92370279Y-75177211D02*
X92370279Y-78429721D01*
X94062500Y-83500000D02*
X94500000Y-83937500D01*
X91270178Y-79529822D02*
X92100000Y-78700000D01*
X92370279Y-78429721D02*
X92100000Y-78700000D01*
X92200000Y-82844673D02*
X92855327Y-83500000D01*
%TO.N,+3V3*%
X95900000Y-80582730D02*
X95900000Y-77900000D01*
X98859257Y-77559257D02*
X97300000Y-76000000D01*
X99366048Y-77559257D02*
X98859257Y-77559257D01*
X97300000Y-76000000D02*
X97300000Y-73900000D01*
%TO.N,+1V1*%
X95076550Y-86536500D02*
X96963500Y-86536500D01*
X97100000Y-86400000D02*
X97100000Y-82700000D01*
X94626101Y-86986949D02*
X95076550Y-86536500D01*
X97100000Y-82700000D02*
X96900000Y-82500000D01*
X96963500Y-86536500D02*
X97100000Y-86400000D01*
X94800000Y-82500000D02*
X96900000Y-82500000D01*
%TO.N,VBUS*%
X90199000Y-91192479D02*
X90199000Y-91607521D01*
X89810438Y-84301000D02*
X90400000Y-84890562D01*
X90400000Y-94300000D02*
X90300000Y-94400000D01*
X89775322Y-84301000D02*
X89810438Y-84301000D01*
X89299000Y-83727199D02*
X89299000Y-83824678D01*
X89299000Y-70199000D02*
X89299000Y-82866801D01*
X90400000Y-90991479D02*
X90199000Y-91192479D01*
X90199000Y-91607521D02*
X90400000Y-91808521D01*
X89299000Y-83824678D02*
X89775322Y-84301000D01*
X90400000Y-91808521D02*
X90400000Y-94300000D01*
X90400000Y-84890562D02*
X90400000Y-90991479D01*
X89201000Y-82964801D02*
X89201000Y-83629199D01*
X89201000Y-83629199D02*
X89299000Y-83727199D01*
X89299000Y-82866801D02*
X89201000Y-82964801D01*
X88500000Y-69400000D02*
X89299000Y-70199000D01*
%TO.N,GPIO2*%
X90003000Y-67383000D02*
X86610000Y-63990000D01*
X90003000Y-83297000D02*
X90003000Y-67383000D01*
%TO.N,GPIO1*%
X90670178Y-82800000D02*
X90670178Y-62970178D01*
X90670178Y-62970178D02*
X86610000Y-58910000D01*
%TO.N,GPIO0*%
X87761000Y-59461000D02*
X87761000Y-57521000D01*
X92970279Y-64670279D02*
X87761000Y-59461000D01*
X87761000Y-57521000D02*
X86610000Y-56370000D01*
X92970279Y-82906431D02*
X92970279Y-64670279D01*
%TO.N,GPIO3*%
X89502000Y-83504521D02*
X89502000Y-83089479D01*
X89502000Y-83089479D02*
X89600000Y-82991479D01*
X93100000Y-84000000D02*
X89900000Y-84000000D01*
X89600000Y-69520000D02*
X86610000Y-66530000D01*
X89900000Y-84000000D02*
X89600000Y-83700000D01*
X89600000Y-83700000D02*
X89600000Y-83602521D01*
X89600000Y-83602521D02*
X89502000Y-83504521D01*
X89600000Y-82991479D02*
X89600000Y-69520000D01*
%TO.N,GPIO28_ADC2*%
X102300000Y-76500000D02*
X102000000Y-76200000D01*
X102300000Y-81497858D02*
X102300000Y-76500000D01*
X102000000Y-66380000D02*
X104390000Y-63990000D01*
X100923250Y-82874609D02*
X102300000Y-81497858D01*
X102000000Y-76200000D02*
X102000000Y-66380000D01*
%TO.N,GPIO29_ADC3*%
X101999000Y-76799000D02*
X101999000Y-81001000D01*
X101999000Y-81001000D02*
X101700000Y-81300000D01*
X101600000Y-61700000D02*
X101600000Y-76400000D01*
X101367827Y-81300000D02*
X100330692Y-82337135D01*
X104390000Y-58910000D02*
X101600000Y-61700000D01*
X101700000Y-81300000D02*
X101367827Y-81300000D01*
X101600000Y-76400000D02*
X101999000Y-76799000D01*
%TO.N,RUN*%
X97435213Y-86908488D02*
X97500000Y-86843701D01*
X97761500Y-83938500D02*
X102221500Y-83938500D01*
X97500000Y-84200000D02*
X97761500Y-83938500D01*
X97500000Y-86843701D02*
X97500000Y-84200000D01*
X102221500Y-83938500D02*
X104390000Y-81770000D01*
%TO.N,GPIO21*%
X98035213Y-89015213D02*
X98410000Y-89390000D01*
X98410000Y-89390000D02*
X104390000Y-89390000D01*
X98035213Y-86183837D02*
X98035213Y-89015213D01*
%TO.N,GPIO27_ADC1*%
X102301000Y-71199000D02*
X104390000Y-69110000D01*
X102301000Y-76075322D02*
X102301000Y-71199000D01*
X102601000Y-76375322D02*
X102301000Y-76075322D01*
X102601000Y-81622537D02*
X102601000Y-76375322D01*
X101575735Y-83337500D02*
X102200000Y-82713235D01*
X102200000Y-82023537D02*
X102601000Y-81622537D01*
X104390000Y-69110000D02*
X104390000Y-69070000D01*
X102200000Y-82713235D02*
X102200000Y-82023537D01*
%TO.N,SWD*%
X96200000Y-87381790D02*
X96200000Y-89200000D01*
X96544290Y-87037500D02*
X96200000Y-87381790D01*
X98040000Y-91040000D02*
X98040000Y-104390000D01*
X96200000Y-89200000D02*
X98040000Y-91040000D01*
%TO.N,SWCLK*%
X95410079Y-87354420D02*
X92960000Y-89804499D01*
X95410079Y-87036500D02*
X95410079Y-87354420D01*
X92960000Y-89804499D02*
X92960000Y-104390000D01*
%TO.N,QSPI_SS*%
X100225000Y-73800000D02*
X99125000Y-72700000D01*
X94000000Y-72700000D02*
X93800000Y-72700000D01*
X99125000Y-72700000D02*
X94000000Y-72700000D01*
%TO.N,GPIO25*%
X98100000Y-84705770D02*
X100494230Y-87100000D01*
X102600000Y-87700000D02*
X102600000Y-88300000D01*
X100494230Y-87100000D02*
X102000000Y-87100000D01*
X102600000Y-91300000D02*
X99800000Y-94100000D01*
X102600000Y-90300000D02*
X102600000Y-91300000D01*
X102000000Y-87100000D02*
X102600000Y-87700000D01*
%TD*%
%TA.AperFunction,Conductor*%
%TO.N,GND*%
G36*
X90547016Y-55520185D02*
G01*
X90592771Y-55572989D01*
X90602715Y-55642147D01*
X90583079Y-55693391D01*
X90515362Y-55794735D01*
X90515357Y-55794745D01*
X90458822Y-55931232D01*
X90458820Y-55931240D01*
X90430000Y-56076126D01*
X90430000Y-56200000D01*
X90880000Y-56200000D01*
X90880000Y-56700000D01*
X90430000Y-56700000D01*
X90430000Y-56823873D01*
X90458820Y-56968759D01*
X90458822Y-56968767D01*
X90515357Y-57105254D01*
X90515362Y-57105264D01*
X90597436Y-57228096D01*
X90597439Y-57228100D01*
X90701899Y-57332560D01*
X90701907Y-57332566D01*
X90824739Y-57414640D01*
X90824743Y-57414642D01*
X90929999Y-57458240D01*
X90930000Y-57458240D01*
X90930000Y-56916988D01*
X90939940Y-56934205D01*
X90995795Y-56990060D01*
X91064204Y-57029556D01*
X91140504Y-57050000D01*
X91219496Y-57050000D01*
X91295796Y-57029556D01*
X91364205Y-56990060D01*
X91420060Y-56934205D01*
X91430000Y-56916988D01*
X91430000Y-57458240D01*
X91535256Y-57414642D01*
X91535260Y-57414640D01*
X91658092Y-57332566D01*
X91658100Y-57332560D01*
X91762560Y-57228100D01*
X91762563Y-57228096D01*
X91844637Y-57105264D01*
X91844642Y-57105254D01*
X91901177Y-56968767D01*
X91901179Y-56968759D01*
X91929999Y-56823873D01*
X91930000Y-56823871D01*
X91930000Y-56700000D01*
X91480000Y-56700000D01*
X91480000Y-56200000D01*
X91930000Y-56200000D01*
X91930000Y-56076128D01*
X91929999Y-56076126D01*
X91901179Y-55931240D01*
X91901177Y-55931232D01*
X91844642Y-55794745D01*
X91844637Y-55794735D01*
X91776921Y-55693391D01*
X91756043Y-55626713D01*
X91774528Y-55559333D01*
X91826506Y-55512643D01*
X91880023Y-55500500D01*
X99119977Y-55500500D01*
X99187016Y-55520185D01*
X99232771Y-55572989D01*
X99242715Y-55642147D01*
X99223079Y-55693391D01*
X99155362Y-55794735D01*
X99155357Y-55794745D01*
X99098822Y-55931232D01*
X99098820Y-55931240D01*
X99070000Y-56076126D01*
X99070000Y-56200000D01*
X99520000Y-56200000D01*
X99520000Y-56700000D01*
X99070000Y-56700000D01*
X99070000Y-56823873D01*
X99098820Y-56968759D01*
X99098822Y-56968767D01*
X99155357Y-57105254D01*
X99155362Y-57105264D01*
X99237436Y-57228096D01*
X99237439Y-57228100D01*
X99341899Y-57332560D01*
X99341907Y-57332566D01*
X99464739Y-57414640D01*
X99464743Y-57414642D01*
X99569999Y-57458240D01*
X99570000Y-57458240D01*
X99570000Y-56916988D01*
X99579940Y-56934205D01*
X99635795Y-56990060D01*
X99704204Y-57029556D01*
X99780504Y-57050000D01*
X99859496Y-57050000D01*
X99935796Y-57029556D01*
X100004205Y-56990060D01*
X100060060Y-56934205D01*
X100070000Y-56916988D01*
X100070000Y-57458240D01*
X100175256Y-57414642D01*
X100175260Y-57414640D01*
X100298092Y-57332566D01*
X100298100Y-57332560D01*
X100402560Y-57228100D01*
X100402563Y-57228096D01*
X100484637Y-57105264D01*
X100484642Y-57105254D01*
X100541177Y-56968767D01*
X100541179Y-56968759D01*
X100569999Y-56823873D01*
X100570000Y-56823871D01*
X100570000Y-56700000D01*
X100120000Y-56700000D01*
X100120000Y-56200000D01*
X100570000Y-56200000D01*
X100570000Y-56076128D01*
X100569999Y-56076126D01*
X100541179Y-55931240D01*
X100541177Y-55931232D01*
X100484642Y-55794745D01*
X100484637Y-55794735D01*
X100416921Y-55693391D01*
X100396043Y-55626713D01*
X100414528Y-55559333D01*
X100466506Y-55512643D01*
X100520023Y-55500500D01*
X103115500Y-55500500D01*
X103182539Y-55520185D01*
X103228294Y-55572989D01*
X103239500Y-55624500D01*
X103239500Y-57264856D01*
X103239502Y-57264882D01*
X103242413Y-57289987D01*
X103242415Y-57289991D01*
X103287793Y-57392764D01*
X103287794Y-57392765D01*
X103367235Y-57472206D01*
X103470009Y-57517585D01*
X103495135Y-57520500D01*
X104232873Y-57520499D01*
X104299910Y-57540183D01*
X104345665Y-57592987D01*
X104355609Y-57662146D01*
X104326584Y-57725702D01*
X104267806Y-57763476D01*
X104252270Y-57766972D01*
X104120589Y-57787829D01*
X103948363Y-57843787D01*
X103948360Y-57843788D01*
X103787002Y-57926006D01*
X103640505Y-58032441D01*
X103640500Y-58032445D01*
X103512445Y-58160500D01*
X103512441Y-58160505D01*
X103406006Y-58307002D01*
X103323788Y-58468360D01*
X103323787Y-58468363D01*
X103267829Y-58640589D01*
X103239500Y-58819448D01*
X103239500Y-59000551D01*
X103267829Y-59179410D01*
X103314575Y-59323281D01*
X103316570Y-59393122D01*
X103284325Y-59449280D01*
X101279522Y-61454084D01*
X101279518Y-61454090D01*
X101226792Y-61545412D01*
X101226793Y-61545413D01*
X101199500Y-61647273D01*
X101199500Y-76452726D01*
X101226793Y-76554589D01*
X101252693Y-76599448D01*
X101279520Y-76645913D01*
X101279522Y-76645915D01*
X101562181Y-76928574D01*
X101595666Y-76989897D01*
X101598500Y-77016255D01*
X101598500Y-80775500D01*
X101578815Y-80842539D01*
X101526011Y-80888294D01*
X101474500Y-80899500D01*
X101315100Y-80899500D01*
X101213240Y-80926793D01*
X101213239Y-80926793D01*
X101213237Y-80926794D01*
X101213234Y-80926795D01*
X101170541Y-80951445D01*
X101170540Y-80951446D01*
X101146227Y-80965483D01*
X101121915Y-80979519D01*
X101121912Y-80979521D01*
X100401118Y-81700316D01*
X100339795Y-81733801D01*
X100313437Y-81736635D01*
X100251635Y-81736635D01*
X100098908Y-81777558D01*
X100098901Y-81777561D01*
X99961982Y-81856610D01*
X99961974Y-81856616D01*
X99850173Y-81968417D01*
X99850167Y-81968425D01*
X99771118Y-82105344D01*
X99771115Y-82105351D01*
X99730192Y-82258078D01*
X99730192Y-82416192D01*
X99762754Y-82537713D01*
X99771115Y-82568918D01*
X99771118Y-82568925D01*
X99850167Y-82705844D01*
X99850171Y-82705849D01*
X99850172Y-82705851D01*
X99961976Y-82817655D01*
X99961978Y-82817656D01*
X99961982Y-82817659D01*
X100068328Y-82879057D01*
X100098908Y-82896712D01*
X100251635Y-82937635D01*
X100251637Y-82937635D01*
X100254470Y-82938394D01*
X100314131Y-82974759D01*
X100342152Y-83026075D01*
X100363673Y-83106394D01*
X100363676Y-83106399D01*
X100442725Y-83243318D01*
X100442731Y-83243326D01*
X100525724Y-83326319D01*
X100559209Y-83387642D01*
X100554225Y-83457334D01*
X100512353Y-83513267D01*
X100446889Y-83537684D01*
X100438043Y-83538000D01*
X97708771Y-83538000D01*
X97656592Y-83551981D01*
X97586742Y-83550317D01*
X97528880Y-83511154D01*
X97501377Y-83446925D01*
X97500500Y-83432206D01*
X97500500Y-82764699D01*
X97500500Y-82752730D01*
X97500501Y-82752727D01*
X97500501Y-82647273D01*
X97496253Y-82631423D01*
X97495798Y-82617111D01*
X97499961Y-82601056D01*
X97499961Y-82587182D01*
X97499439Y-82587114D01*
X97499961Y-82583142D01*
X97499962Y-82581064D01*
X97500500Y-82579057D01*
X97500500Y-82420943D01*
X97459577Y-82268216D01*
X97414090Y-82189429D01*
X97380524Y-82131290D01*
X97380518Y-82131282D01*
X97268717Y-82019481D01*
X97268709Y-82019475D01*
X97131790Y-81940426D01*
X97131786Y-81940424D01*
X97131784Y-81940423D01*
X96979057Y-81899500D01*
X96820943Y-81899500D01*
X96668216Y-81940423D01*
X96668209Y-81940426D01*
X96531290Y-82019475D01*
X96531282Y-82019481D01*
X96487583Y-82063181D01*
X96426260Y-82096666D01*
X96399902Y-82099500D01*
X95300098Y-82099500D01*
X95233059Y-82079815D01*
X95212417Y-82063181D01*
X95168717Y-82019481D01*
X95168709Y-82019475D01*
X95031790Y-81940426D01*
X95031786Y-81940424D01*
X95031784Y-81940423D01*
X94879057Y-81899500D01*
X94720943Y-81899500D01*
X94568216Y-81940423D01*
X94568209Y-81940426D01*
X94431290Y-82019475D01*
X94431282Y-82019481D01*
X94319481Y-82131282D01*
X94319475Y-82131290D01*
X94240426Y-82268209D01*
X94240423Y-82268216D01*
X94199500Y-82420943D01*
X94199500Y-82579057D01*
X94236334Y-82716521D01*
X94240423Y-82731783D01*
X94240426Y-82731790D01*
X94319475Y-82868709D01*
X94319479Y-82868714D01*
X94319480Y-82868716D01*
X94431284Y-82980520D01*
X94431286Y-82980521D01*
X94431290Y-82980524D01*
X94520087Y-83031790D01*
X94568216Y-83059577D01*
X94720943Y-83100500D01*
X94720945Y-83100500D01*
X94879055Y-83100500D01*
X94879057Y-83100500D01*
X95031784Y-83059577D01*
X95168716Y-82980520D01*
X95212417Y-82936819D01*
X95273740Y-82903334D01*
X95300098Y-82900500D01*
X96399902Y-82900500D01*
X96466941Y-82920185D01*
X96471710Y-82923408D01*
X96480208Y-82929444D01*
X96531284Y-82980520D01*
X96642554Y-83044761D01*
X96647308Y-83048138D01*
X96665469Y-83071176D01*
X96685715Y-83092409D01*
X96687274Y-83098836D01*
X96690563Y-83103008D01*
X96692071Y-83118610D01*
X96699500Y-83149230D01*
X96699500Y-86012000D01*
X96679815Y-86079039D01*
X96627011Y-86124794D01*
X96575500Y-86136000D01*
X95023823Y-86136000D01*
X94921960Y-86163293D01*
X94830637Y-86216020D01*
X94830634Y-86216022D01*
X94696527Y-86350130D01*
X94635204Y-86383615D01*
X94608846Y-86386449D01*
X94547044Y-86386449D01*
X94394317Y-86427372D01*
X94394310Y-86427375D01*
X94257391Y-86506424D01*
X94257383Y-86506430D01*
X94145582Y-86618231D01*
X94145576Y-86618239D01*
X94066527Y-86755158D01*
X94066524Y-86755165D01*
X94025601Y-86907892D01*
X94025601Y-87066005D01*
X94066524Y-87218732D01*
X94066527Y-87218739D01*
X94145576Y-87355658D01*
X94145580Y-87355663D01*
X94145581Y-87355665D01*
X94257385Y-87467469D01*
X94257387Y-87467470D01*
X94257391Y-87467473D01*
X94363394Y-87528673D01*
X94394317Y-87546526D01*
X94394324Y-87546528D01*
X94401824Y-87549635D01*
X94400824Y-87552048D01*
X94449422Y-87581674D01*
X94479948Y-87644522D01*
X94471650Y-87713897D01*
X94445345Y-87752760D01*
X92639522Y-89558583D01*
X92639518Y-89558589D01*
X92586792Y-89649911D01*
X92586793Y-89649912D01*
X92559500Y-89751772D01*
X92559500Y-103115500D01*
X92539815Y-103182539D01*
X92487011Y-103228294D01*
X92435500Y-103239500D01*
X92065143Y-103239500D01*
X92065117Y-103239502D01*
X92040012Y-103242413D01*
X92040008Y-103242415D01*
X91937235Y-103287793D01*
X91857794Y-103367234D01*
X91812415Y-103470006D01*
X91812415Y-103470008D01*
X91809500Y-103495131D01*
X91809500Y-105284856D01*
X91809502Y-105284882D01*
X91812413Y-105309986D01*
X91812414Y-105309990D01*
X91812415Y-105309991D01*
X91819225Y-105325414D01*
X91828297Y-105394690D01*
X91798475Y-105457876D01*
X91739226Y-105494907D01*
X91705791Y-105499500D01*
X87643733Y-105499500D01*
X87576694Y-105479815D01*
X87530939Y-105427011D01*
X87520995Y-105357853D01*
X87543414Y-105302615D01*
X87568887Y-105267554D01*
X87593996Y-105232994D01*
X87676211Y-105071639D01*
X87732171Y-104899409D01*
X87749484Y-104790099D01*
X87760500Y-104720551D01*
X87760500Y-104539448D01*
X87736829Y-104390001D01*
X87732171Y-104360591D01*
X87704191Y-104274476D01*
X87676212Y-104188363D01*
X87676211Y-104188360D01*
X87622523Y-104082993D01*
X87593996Y-104027006D01*
X87567038Y-103989901D01*
X87487558Y-103880505D01*
X87487554Y-103880500D01*
X87359499Y-103752445D01*
X87359494Y-103752441D01*
X87212997Y-103646006D01*
X87212996Y-103646005D01*
X87212994Y-103646004D01*
X87161300Y-103619664D01*
X87051639Y-103563788D01*
X87051636Y-103563787D01*
X86879410Y-103507829D01*
X86719321Y-103482473D01*
X86656186Y-103452544D01*
X86619255Y-103393232D01*
X86620253Y-103323370D01*
X86658863Y-103265137D01*
X86719321Y-103237527D01*
X86789425Y-103226422D01*
X86879409Y-103212171D01*
X87051639Y-103156211D01*
X87212994Y-103073996D01*
X87359501Y-102967553D01*
X87487553Y-102839501D01*
X87593996Y-102692994D01*
X87676211Y-102531639D01*
X87732171Y-102359409D01*
X87746765Y-102267259D01*
X87760500Y-102180551D01*
X87760500Y-101999448D01*
X87744019Y-101895397D01*
X87732171Y-101820591D01*
X87676211Y-101648361D01*
X87676211Y-101648360D01*
X87647740Y-101592484D01*
X87593996Y-101487006D01*
X87531401Y-101400851D01*
X87487558Y-101340505D01*
X87487554Y-101340500D01*
X87359499Y-101212445D01*
X87359494Y-101212441D01*
X87212997Y-101106006D01*
X87212996Y-101106005D01*
X87212994Y-101106004D01*
X87161300Y-101079664D01*
X87051639Y-101023788D01*
X87051636Y-101023787D01*
X86879410Y-100967829D01*
X86700551Y-100939500D01*
X86700546Y-100939500D01*
X86519454Y-100939500D01*
X86519449Y-100939500D01*
X86340589Y-100967829D01*
X86168363Y-101023787D01*
X86168360Y-101023788D01*
X86007002Y-101106006D01*
X85860505Y-101212441D01*
X85860500Y-101212445D01*
X85732445Y-101340500D01*
X85732441Y-101340505D01*
X85724818Y-101350998D01*
X85669488Y-101393664D01*
X85599875Y-101399643D01*
X85538080Y-101367037D01*
X85503723Y-101306199D01*
X85500500Y-101278113D01*
X85500500Y-100253247D01*
X85520185Y-100186208D01*
X85572989Y-100140453D01*
X85634231Y-100129629D01*
X85673710Y-100132736D01*
X86127037Y-99679409D01*
X86144075Y-99742993D01*
X86209901Y-99857007D01*
X86302993Y-99950099D01*
X86417007Y-100015925D01*
X86480589Y-100032962D01*
X86027261Y-100486289D01*
X86027262Y-100486290D01*
X86033471Y-100490801D01*
X86187742Y-100569408D01*
X86352415Y-100622914D01*
X86523429Y-100650000D01*
X86696571Y-100650000D01*
X86867584Y-100622914D01*
X87032257Y-100569408D01*
X87186525Y-100490803D01*
X87192736Y-100486289D01*
X87192737Y-100486289D01*
X86739410Y-100032962D01*
X86802993Y-100015925D01*
X86917007Y-99950099D01*
X87010099Y-99857007D01*
X87075925Y-99742993D01*
X87092962Y-99679410D01*
X87546289Y-100132737D01*
X87546289Y-100132736D01*
X87550803Y-100126525D01*
X87629408Y-99972257D01*
X87682914Y-99807584D01*
X87710000Y-99636571D01*
X87710000Y-99463428D01*
X87682914Y-99292415D01*
X87629408Y-99127742D01*
X87550801Y-98973471D01*
X87546290Y-98967262D01*
X87546289Y-98967261D01*
X87092962Y-99420589D01*
X87075925Y-99357007D01*
X87010099Y-99242993D01*
X86917007Y-99149901D01*
X86802993Y-99084075D01*
X86739409Y-99067037D01*
X87192737Y-98613709D01*
X87186525Y-98609196D01*
X87032259Y-98530592D01*
X86867584Y-98477085D01*
X86696571Y-98450000D01*
X86523429Y-98450000D01*
X86352415Y-98477085D01*
X86187740Y-98530592D01*
X86033480Y-98609193D01*
X86033463Y-98609203D01*
X86027261Y-98613708D01*
X86027261Y-98613709D01*
X86480590Y-99067037D01*
X86417007Y-99084075D01*
X86302993Y-99149901D01*
X86209901Y-99242993D01*
X86144075Y-99357007D01*
X86127037Y-99420590D01*
X85673709Y-98967261D01*
X85634235Y-98970370D01*
X85620622Y-98967511D01*
X85606853Y-98969491D01*
X85587104Y-98960472D01*
X85565857Y-98956010D01*
X85555950Y-98946244D01*
X85543297Y-98940466D01*
X85531559Y-98922201D01*
X85516098Y-98906961D01*
X85512270Y-98892187D01*
X85505523Y-98881688D01*
X85500500Y-98846753D01*
X85500500Y-97821886D01*
X85520185Y-97754847D01*
X85572989Y-97709092D01*
X85642147Y-97699148D01*
X85705703Y-97728173D01*
X85724821Y-97749004D01*
X85732446Y-97759500D01*
X85860500Y-97887554D01*
X85860505Y-97887558D01*
X85988287Y-97980396D01*
X86007006Y-97993996D01*
X86112484Y-98047740D01*
X86168360Y-98076211D01*
X86168363Y-98076212D01*
X86254476Y-98104191D01*
X86340591Y-98132171D01*
X86423429Y-98145291D01*
X86519449Y-98160500D01*
X86519454Y-98160500D01*
X86700551Y-98160500D01*
X86787259Y-98146765D01*
X86879409Y-98132171D01*
X87051639Y-98076211D01*
X87212994Y-97993996D01*
X87359501Y-97887553D01*
X87487553Y-97759501D01*
X87593996Y-97612994D01*
X87676211Y-97451639D01*
X87732171Y-97279409D01*
X87746765Y-97187259D01*
X87760500Y-97100551D01*
X87760500Y-96919448D01*
X87744019Y-96815397D01*
X87732171Y-96740591D01*
X87676211Y-96568361D01*
X87676211Y-96568360D01*
X87647740Y-96512484D01*
X87593996Y-96407006D01*
X87531401Y-96320851D01*
X87487558Y-96260505D01*
X87487554Y-96260500D01*
X87359499Y-96132445D01*
X87359494Y-96132441D01*
X87212997Y-96026006D01*
X87212996Y-96026005D01*
X87212994Y-96026004D01*
X87161300Y-95999664D01*
X87051639Y-95943788D01*
X87051636Y-95943787D01*
X86879410Y-95887829D01*
X86719321Y-95862473D01*
X86656186Y-95832544D01*
X86619255Y-95773232D01*
X86620253Y-95703370D01*
X86658863Y-95645137D01*
X86719321Y-95617527D01*
X86789425Y-95606422D01*
X86879409Y-95592171D01*
X87051639Y-95536211D01*
X87212994Y-95453996D01*
X87359501Y-95347553D01*
X87487553Y-95219501D01*
X87593996Y-95072994D01*
X87676211Y-94911639D01*
X87732171Y-94739409D01*
X87757336Y-94580524D01*
X87760500Y-94560551D01*
X87760500Y-94379448D01*
X87744019Y-94275397D01*
X87732171Y-94200591D01*
X87704191Y-94114476D01*
X87676212Y-94028363D01*
X87676211Y-94028360D01*
X87620730Y-93919475D01*
X87593996Y-93867006D01*
X87531401Y-93780851D01*
X87487558Y-93720505D01*
X87487554Y-93720500D01*
X87359499Y-93592445D01*
X87359494Y-93592441D01*
X87212997Y-93486006D01*
X87212996Y-93486005D01*
X87212994Y-93486004D01*
X87161300Y-93459664D01*
X87051639Y-93403788D01*
X87051636Y-93403787D01*
X86879410Y-93347829D01*
X86719321Y-93322473D01*
X86656186Y-93292544D01*
X86619255Y-93233232D01*
X86620253Y-93163370D01*
X86658863Y-93105137D01*
X86719321Y-93077527D01*
X86789425Y-93066422D01*
X86879409Y-93052171D01*
X87051639Y-92996211D01*
X87212994Y-92913996D01*
X87359501Y-92807553D01*
X87487553Y-92679501D01*
X87593996Y-92532994D01*
X87676211Y-92371639D01*
X87732171Y-92199409D01*
X87759672Y-92025776D01*
X87760500Y-92020551D01*
X87760500Y-91839448D01*
X87744019Y-91735397D01*
X87732171Y-91660591D01*
X87694911Y-91545915D01*
X87676212Y-91488363D01*
X87676211Y-91488360D01*
X87644619Y-91426358D01*
X87593996Y-91327006D01*
X87531401Y-91240851D01*
X87487558Y-91180505D01*
X87487554Y-91180500D01*
X87359499Y-91052445D01*
X87359494Y-91052441D01*
X87212997Y-90946006D01*
X87212996Y-90946005D01*
X87212994Y-90946004D01*
X87161300Y-90919664D01*
X87051639Y-90863788D01*
X87051636Y-90863787D01*
X86879410Y-90807829D01*
X86719321Y-90782473D01*
X86656186Y-90752544D01*
X86619255Y-90693232D01*
X86620253Y-90623370D01*
X86658863Y-90565137D01*
X86719321Y-90537527D01*
X86789425Y-90526422D01*
X86879409Y-90512171D01*
X87051639Y-90456211D01*
X87212994Y-90373996D01*
X87359501Y-90267553D01*
X87487553Y-90139501D01*
X87593996Y-89992994D01*
X87676211Y-89831639D01*
X87732171Y-89659409D01*
X87748140Y-89558583D01*
X87760500Y-89480551D01*
X87760500Y-89299448D01*
X87736397Y-89147273D01*
X87732171Y-89120591D01*
X87685462Y-88976832D01*
X87676212Y-88948363D01*
X87676211Y-88948360D01*
X87630973Y-88859577D01*
X87593996Y-88787006D01*
X87531401Y-88700851D01*
X87487558Y-88640505D01*
X87487554Y-88640500D01*
X87359499Y-88512445D01*
X87359494Y-88512441D01*
X87212997Y-88406006D01*
X87212996Y-88406005D01*
X87212994Y-88406004D01*
X87160104Y-88379055D01*
X87051639Y-88323788D01*
X87051636Y-88323787D01*
X86879410Y-88267829D01*
X86700551Y-88239500D01*
X86700546Y-88239500D01*
X86519454Y-88239500D01*
X86519449Y-88239500D01*
X86340589Y-88267829D01*
X86168363Y-88323787D01*
X86168360Y-88323788D01*
X86007002Y-88406006D01*
X85860505Y-88512441D01*
X85860500Y-88512445D01*
X85732445Y-88640500D01*
X85732441Y-88640505D01*
X85724818Y-88650998D01*
X85669488Y-88693664D01*
X85599875Y-88699643D01*
X85538080Y-88667037D01*
X85503723Y-88606199D01*
X85500500Y-88578113D01*
X85500500Y-87553247D01*
X85520185Y-87486208D01*
X85572989Y-87440453D01*
X85634231Y-87429629D01*
X85673710Y-87432736D01*
X86127037Y-86979409D01*
X86144075Y-87042993D01*
X86209901Y-87157007D01*
X86302993Y-87250099D01*
X86417007Y-87315925D01*
X86480589Y-87332962D01*
X86027261Y-87786289D01*
X86027262Y-87786290D01*
X86033471Y-87790801D01*
X86187742Y-87869408D01*
X86352415Y-87922914D01*
X86523429Y-87950000D01*
X86696571Y-87950000D01*
X86867584Y-87922914D01*
X87032257Y-87869408D01*
X87186525Y-87790803D01*
X87192736Y-87786289D01*
X87192737Y-87786289D01*
X86739410Y-87332962D01*
X86802993Y-87315925D01*
X86917007Y-87250099D01*
X87010099Y-87157007D01*
X87075925Y-87042993D01*
X87092962Y-86979410D01*
X87546289Y-87432737D01*
X87546289Y-87432736D01*
X87550803Y-87426525D01*
X87629408Y-87272257D01*
X87682914Y-87107584D01*
X87710000Y-86936571D01*
X87710000Y-86763428D01*
X87682914Y-86592415D01*
X87629408Y-86427742D01*
X87550801Y-86273471D01*
X87546290Y-86267262D01*
X87546289Y-86267261D01*
X87092962Y-86720589D01*
X87075925Y-86657007D01*
X87010099Y-86542993D01*
X86917007Y-86449901D01*
X86802993Y-86384075D01*
X86739409Y-86367037D01*
X87192737Y-85913709D01*
X87186525Y-85909196D01*
X87032259Y-85830592D01*
X86867584Y-85777085D01*
X86696571Y-85750000D01*
X86523429Y-85750000D01*
X86352415Y-85777085D01*
X86187740Y-85830592D01*
X86033480Y-85909193D01*
X86033463Y-85909203D01*
X86027261Y-85913708D01*
X86027261Y-85913709D01*
X86480590Y-86367037D01*
X86417007Y-86384075D01*
X86302993Y-86449901D01*
X86209901Y-86542993D01*
X86144075Y-86657007D01*
X86127037Y-86720590D01*
X85673709Y-86267261D01*
X85634235Y-86270370D01*
X85620622Y-86267511D01*
X85606853Y-86269491D01*
X85587104Y-86260472D01*
X85565857Y-86256010D01*
X85555950Y-86246244D01*
X85543297Y-86240466D01*
X85531559Y-86222201D01*
X85516098Y-86206961D01*
X85512270Y-86192187D01*
X85505523Y-86181688D01*
X85500500Y-86146753D01*
X85500500Y-85121886D01*
X85520185Y-85054847D01*
X85572989Y-85009092D01*
X85642147Y-84999148D01*
X85705703Y-85028173D01*
X85724821Y-85049004D01*
X85732446Y-85059500D01*
X85860500Y-85187554D01*
X85860505Y-85187558D01*
X85979480Y-85273997D01*
X86007006Y-85293996D01*
X86112484Y-85347740D01*
X86168360Y-85376211D01*
X86168363Y-85376212D01*
X86254476Y-85404191D01*
X86340591Y-85432171D01*
X86423429Y-85445291D01*
X86519449Y-85460500D01*
X86519454Y-85460500D01*
X86700551Y-85460500D01*
X86787259Y-85446765D01*
X86879409Y-85432171D01*
X87051639Y-85376211D01*
X87212994Y-85293996D01*
X87359501Y-85187553D01*
X87487553Y-85059501D01*
X87593996Y-84912994D01*
X87676211Y-84751639D01*
X87732171Y-84579409D01*
X87754755Y-84436819D01*
X87760500Y-84400551D01*
X87760500Y-84219448D01*
X87738263Y-84079055D01*
X87732171Y-84040591D01*
X87678405Y-83875114D01*
X87676212Y-83868363D01*
X87676211Y-83868360D01*
X87647740Y-83812484D01*
X87593996Y-83707006D01*
X87540306Y-83633107D01*
X87487558Y-83560505D01*
X87487554Y-83560500D01*
X87359499Y-83432445D01*
X87359494Y-83432441D01*
X87212997Y-83326006D01*
X87212996Y-83326005D01*
X87212994Y-83326004D01*
X87161300Y-83299664D01*
X87051639Y-83243788D01*
X87051636Y-83243787D01*
X86879410Y-83187829D01*
X86719321Y-83162473D01*
X86656186Y-83132544D01*
X86619255Y-83073232D01*
X86620253Y-83003370D01*
X86658863Y-82945137D01*
X86719321Y-82917527D01*
X86789425Y-82906422D01*
X86879409Y-82892171D01*
X87051639Y-82836211D01*
X87212994Y-82753996D01*
X87359501Y-82647553D01*
X87487553Y-82519501D01*
X87593996Y-82372994D01*
X87676211Y-82211639D01*
X87732171Y-82039409D01*
X87747849Y-81940423D01*
X87760500Y-81860551D01*
X87760500Y-81679448D01*
X87743134Y-81569810D01*
X87732171Y-81500591D01*
X87676211Y-81328361D01*
X87676211Y-81328360D01*
X87647740Y-81272484D01*
X87593996Y-81167006D01*
X87576051Y-81142307D01*
X87487558Y-81020505D01*
X87487554Y-81020500D01*
X87359499Y-80892445D01*
X87359494Y-80892441D01*
X87212997Y-80786006D01*
X87212996Y-80786005D01*
X87212994Y-80786004D01*
X87161300Y-80759664D01*
X87051639Y-80703788D01*
X87051636Y-80703787D01*
X86879410Y-80647829D01*
X86719321Y-80622473D01*
X86656186Y-80592544D01*
X86619255Y-80533232D01*
X86620253Y-80463370D01*
X86658863Y-80405137D01*
X86719321Y-80377527D01*
X86789425Y-80366422D01*
X86879409Y-80352171D01*
X87051639Y-80296211D01*
X87212994Y-80213996D01*
X87359501Y-80107553D01*
X87487553Y-79979501D01*
X87593996Y-79832994D01*
X87676211Y-79671639D01*
X87732171Y-79499409D01*
X87748954Y-79393444D01*
X87760500Y-79320551D01*
X87760500Y-79139448D01*
X87744019Y-79035397D01*
X87732171Y-78960591D01*
X87676211Y-78788361D01*
X87676211Y-78788360D01*
X87647740Y-78732484D01*
X87593996Y-78627006D01*
X87531401Y-78540851D01*
X87487558Y-78480505D01*
X87487554Y-78480500D01*
X87359499Y-78352445D01*
X87359494Y-78352441D01*
X87212997Y-78246006D01*
X87212996Y-78246005D01*
X87212994Y-78246004D01*
X87161300Y-78219664D01*
X87051639Y-78163788D01*
X87051636Y-78163787D01*
X86879410Y-78107829D01*
X86719321Y-78082473D01*
X86656186Y-78052544D01*
X86619255Y-77993232D01*
X86620253Y-77923370D01*
X86658863Y-77865137D01*
X86719321Y-77837527D01*
X86789425Y-77826422D01*
X86879409Y-77812171D01*
X87051639Y-77756211D01*
X87212994Y-77673996D01*
X87359501Y-77567553D01*
X87487553Y-77439501D01*
X87593996Y-77292994D01*
X87676211Y-77131639D01*
X87732171Y-76959409D01*
X87748954Y-76853444D01*
X87760500Y-76780551D01*
X87760500Y-76599448D01*
X87744019Y-76495397D01*
X87732171Y-76420591D01*
X87676211Y-76248361D01*
X87676211Y-76248360D01*
X87676209Y-76248356D01*
X87615603Y-76129412D01*
X87593996Y-76087006D01*
X87531401Y-76000851D01*
X87487558Y-75940505D01*
X87487554Y-75940500D01*
X87359499Y-75812445D01*
X87359494Y-75812441D01*
X87212997Y-75706006D01*
X87212996Y-75706005D01*
X87212994Y-75706004D01*
X87161300Y-75679664D01*
X87051639Y-75623788D01*
X87051636Y-75623787D01*
X86879410Y-75567829D01*
X86700551Y-75539500D01*
X86700546Y-75539500D01*
X86519454Y-75539500D01*
X86519449Y-75539500D01*
X86340589Y-75567829D01*
X86168363Y-75623787D01*
X86168360Y-75623788D01*
X86007002Y-75706006D01*
X85860505Y-75812441D01*
X85860500Y-75812445D01*
X85732445Y-75940500D01*
X85732441Y-75940505D01*
X85724818Y-75950998D01*
X85669488Y-75993664D01*
X85599875Y-75999643D01*
X85538080Y-75967037D01*
X85503723Y-75906199D01*
X85500500Y-75878113D01*
X85500500Y-74853247D01*
X85520185Y-74786208D01*
X85572989Y-74740453D01*
X85634231Y-74729629D01*
X85673710Y-74732736D01*
X86127037Y-74279409D01*
X86144075Y-74342993D01*
X86209901Y-74457007D01*
X86302993Y-74550099D01*
X86417007Y-74615925D01*
X86480589Y-74632962D01*
X86027261Y-75086289D01*
X86027262Y-75086290D01*
X86033471Y-75090801D01*
X86187742Y-75169408D01*
X86352415Y-75222914D01*
X86523429Y-75250000D01*
X86696571Y-75250000D01*
X86867584Y-75222914D01*
X87032257Y-75169408D01*
X87186525Y-75090803D01*
X87192736Y-75086289D01*
X87192737Y-75086289D01*
X86739410Y-74632962D01*
X86802993Y-74615925D01*
X86917007Y-74550099D01*
X87010099Y-74457007D01*
X87075925Y-74342993D01*
X87092962Y-74279410D01*
X87546289Y-74732737D01*
X87546289Y-74732736D01*
X87550803Y-74726525D01*
X87629408Y-74572257D01*
X87682914Y-74407584D01*
X87710000Y-74236571D01*
X87710000Y-74063428D01*
X87682914Y-73892415D01*
X87629408Y-73727742D01*
X87550801Y-73573471D01*
X87546290Y-73567262D01*
X87546289Y-73567261D01*
X87092962Y-74020589D01*
X87075925Y-73957007D01*
X87010099Y-73842993D01*
X86917007Y-73749901D01*
X86802993Y-73684075D01*
X86739409Y-73667037D01*
X87192737Y-73213709D01*
X87186525Y-73209196D01*
X87032259Y-73130592D01*
X86867584Y-73077085D01*
X86696571Y-73050000D01*
X86523429Y-73050000D01*
X86352415Y-73077085D01*
X86187740Y-73130592D01*
X86033480Y-73209193D01*
X86033463Y-73209203D01*
X86027261Y-73213708D01*
X86027261Y-73213709D01*
X86480590Y-73667037D01*
X86417007Y-73684075D01*
X86302993Y-73749901D01*
X86209901Y-73842993D01*
X86144075Y-73957007D01*
X86127037Y-74020590D01*
X85673709Y-73567261D01*
X85634235Y-73570370D01*
X85620622Y-73567511D01*
X85606853Y-73569491D01*
X85587104Y-73560472D01*
X85565857Y-73556010D01*
X85555950Y-73546244D01*
X85543297Y-73540466D01*
X85531559Y-73522201D01*
X85516098Y-73506961D01*
X85512270Y-73492187D01*
X85505523Y-73481688D01*
X85500500Y-73446753D01*
X85500500Y-72421886D01*
X85520185Y-72354847D01*
X85572989Y-72309092D01*
X85642147Y-72299148D01*
X85705703Y-72328173D01*
X85724821Y-72349004D01*
X85732446Y-72359500D01*
X85860500Y-72487554D01*
X85860505Y-72487558D01*
X85988287Y-72580396D01*
X86007006Y-72593996D01*
X86112484Y-72647740D01*
X86168360Y-72676211D01*
X86168363Y-72676212D01*
X86254476Y-72704191D01*
X86340591Y-72732171D01*
X86423429Y-72745291D01*
X86519449Y-72760500D01*
X86519454Y-72760500D01*
X86700551Y-72760500D01*
X86787259Y-72746765D01*
X86879409Y-72732171D01*
X87051639Y-72676211D01*
X87212994Y-72593996D01*
X87359501Y-72487553D01*
X87487553Y-72359501D01*
X87593996Y-72212994D01*
X87676211Y-72051639D01*
X87732171Y-71879409D01*
X87746765Y-71787259D01*
X87760500Y-71700551D01*
X87760500Y-71519448D01*
X87736020Y-71364893D01*
X87732171Y-71340591D01*
X87676211Y-71168361D01*
X87676211Y-71168360D01*
X87647740Y-71112484D01*
X87593996Y-71007006D01*
X87531401Y-70920851D01*
X87487558Y-70860505D01*
X87487554Y-70860500D01*
X87359499Y-70732445D01*
X87359494Y-70732441D01*
X87212997Y-70626006D01*
X87212996Y-70626005D01*
X87212994Y-70626004D01*
X87161300Y-70599664D01*
X87051639Y-70543788D01*
X87051636Y-70543787D01*
X86879410Y-70487829D01*
X86719321Y-70462473D01*
X86656186Y-70432544D01*
X86619255Y-70373232D01*
X86620253Y-70303370D01*
X86658863Y-70245137D01*
X86719321Y-70217527D01*
X86789425Y-70206422D01*
X86879409Y-70192171D01*
X87051639Y-70136211D01*
X87212994Y-70053996D01*
X87359501Y-69947553D01*
X87487553Y-69819501D01*
X87593996Y-69672994D01*
X87676211Y-69511639D01*
X87676215Y-69511625D01*
X87677297Y-69509016D01*
X87677978Y-69508169D01*
X87678423Y-69507298D01*
X87678605Y-69507391D01*
X87721131Y-69454607D01*
X87787422Y-69432534D01*
X87855124Y-69449804D01*
X87902741Y-69500935D01*
X87911639Y-69524360D01*
X87940423Y-69631785D01*
X87940426Y-69631790D01*
X88019475Y-69768709D01*
X88019479Y-69768714D01*
X88019480Y-69768716D01*
X88131284Y-69880520D01*
X88131286Y-69880521D01*
X88131290Y-69880524D01*
X88247391Y-69947554D01*
X88268216Y-69959577D01*
X88420943Y-70000500D01*
X88482745Y-70000500D01*
X88549784Y-70020185D01*
X88570426Y-70036819D01*
X88862181Y-70328573D01*
X88895666Y-70389896D01*
X88898500Y-70416254D01*
X88898500Y-82654520D01*
X88881887Y-82716521D01*
X88880520Y-82718887D01*
X88880520Y-82718888D01*
X88827793Y-82810213D01*
X88810914Y-82873207D01*
X88810914Y-82873208D01*
X88810913Y-82873207D01*
X88800500Y-82912070D01*
X88800500Y-83681925D01*
X88827793Y-83783788D01*
X88854156Y-83829449D01*
X88880520Y-83875112D01*
X88880522Y-83875114D01*
X88880746Y-83875338D01*
X88880903Y-83875611D01*
X88885467Y-83881558D01*
X88884684Y-83882158D01*
X88912839Y-83930924D01*
X88925792Y-83979264D01*
X88925792Y-83979265D01*
X88948077Y-84017863D01*
X88978520Y-84070591D01*
X89529409Y-84621480D01*
X89598358Y-84661288D01*
X89624038Y-84680993D01*
X89963181Y-85020135D01*
X89996666Y-85081458D01*
X89999500Y-85107816D01*
X89999500Y-90774224D01*
X89979815Y-90841263D01*
X89963181Y-90861905D01*
X89878522Y-90946563D01*
X89878520Y-90946566D01*
X89825793Y-91037891D01*
X89811100Y-91092727D01*
X89811100Y-91092728D01*
X89811099Y-91092727D01*
X89798500Y-91139750D01*
X89798500Y-91139752D01*
X89798500Y-91554794D01*
X89798500Y-91660248D01*
X89798592Y-91660591D01*
X89825793Y-91762110D01*
X89852156Y-91807771D01*
X89878520Y-91853434D01*
X89878522Y-91853436D01*
X89963181Y-91938095D01*
X89996666Y-91999418D01*
X89999500Y-92025776D01*
X89999500Y-93808504D01*
X89979815Y-93875543D01*
X89937501Y-93915890D01*
X89931290Y-93919475D01*
X89931281Y-93919482D01*
X89819481Y-94031282D01*
X89819475Y-94031290D01*
X89740426Y-94168209D01*
X89740423Y-94168216D01*
X89699500Y-94320943D01*
X89699500Y-94479057D01*
X89726687Y-94580518D01*
X89740423Y-94631783D01*
X89740426Y-94631790D01*
X89819475Y-94768709D01*
X89819479Y-94768714D01*
X89819480Y-94768716D01*
X89931284Y-94880520D01*
X89931286Y-94880521D01*
X89931290Y-94880524D01*
X89985184Y-94911639D01*
X90068216Y-94959577D01*
X90220943Y-95000500D01*
X90220945Y-95000500D01*
X90379055Y-95000500D01*
X90379057Y-95000500D01*
X90531784Y-94959577D01*
X90668716Y-94880520D01*
X90780520Y-94768716D01*
X90859577Y-94631784D01*
X90900500Y-94479057D01*
X90900500Y-94320943D01*
X90859577Y-94168216D01*
X90817112Y-94094663D01*
X90800500Y-94032664D01*
X90800500Y-91755796D01*
X90800500Y-91755794D01*
X90773207Y-91653934D01*
X90773207Y-91653933D01*
X90720480Y-91562608D01*
X90645553Y-91487681D01*
X90612068Y-91426358D01*
X90617052Y-91356666D01*
X90645553Y-91312319D01*
X90720480Y-91237392D01*
X90773207Y-91146067D01*
X90800500Y-91044206D01*
X90800500Y-90938752D01*
X90800500Y-84953291D01*
X90800501Y-84953278D01*
X90800501Y-84837836D01*
X90777403Y-84751636D01*
X90773207Y-84735975D01*
X90721526Y-84646461D01*
X90720480Y-84644649D01*
X90685409Y-84609578D01*
X90682954Y-84606812D01*
X90669572Y-84578410D01*
X90654528Y-84550858D01*
X90654799Y-84547055D01*
X90653175Y-84543606D01*
X90657272Y-84512485D01*
X90659512Y-84481166D01*
X90661797Y-84478112D01*
X90662295Y-84474335D01*
X90682565Y-84450371D01*
X90701384Y-84425233D01*
X90704955Y-84423900D01*
X90707418Y-84420990D01*
X90737432Y-84411787D01*
X90766848Y-84400816D01*
X90774056Y-84400558D01*
X90774218Y-84400509D01*
X90774356Y-84400547D01*
X90775694Y-84400500D01*
X92599902Y-84400500D01*
X92666941Y-84420185D01*
X92687583Y-84436819D01*
X92731284Y-84480520D01*
X92731286Y-84480521D01*
X92731290Y-84480524D01*
X92840553Y-84543606D01*
X92868216Y-84559577D01*
X93020943Y-84600500D01*
X93020945Y-84600500D01*
X93179055Y-84600500D01*
X93179057Y-84600500D01*
X93331784Y-84559577D01*
X93468716Y-84480520D01*
X93580520Y-84368716D01*
X93659577Y-84231784D01*
X93700500Y-84079057D01*
X93700500Y-83920943D01*
X93659577Y-83768216D01*
X93624236Y-83707003D01*
X93580524Y-83631290D01*
X93580518Y-83631282D01*
X93468717Y-83519481D01*
X93468712Y-83519477D01*
X93442405Y-83504289D01*
X93394189Y-83453722D01*
X93380966Y-83385115D01*
X93406934Y-83320250D01*
X93416717Y-83309228D01*
X93450799Y-83275147D01*
X93529856Y-83138215D01*
X93570779Y-82985488D01*
X93570779Y-82827374D01*
X93529856Y-82674647D01*
X93514214Y-82647554D01*
X93450803Y-82537721D01*
X93450797Y-82537713D01*
X93407098Y-82494014D01*
X93373613Y-82432691D01*
X93370779Y-82406333D01*
X93370779Y-77820943D01*
X95299500Y-77820943D01*
X95299500Y-77979057D01*
X95334005Y-78107829D01*
X95340423Y-78131783D01*
X95340426Y-78131790D01*
X95419475Y-78268709D01*
X95419481Y-78268717D01*
X95463181Y-78312417D01*
X95496666Y-78373740D01*
X95499500Y-78400098D01*
X95499500Y-80082632D01*
X95479815Y-80149671D01*
X95463181Y-80170313D01*
X95419481Y-80214012D01*
X95419475Y-80214020D01*
X95340426Y-80350939D01*
X95340423Y-80350946D01*
X95299500Y-80503673D01*
X95299500Y-80661787D01*
X95332785Y-80786006D01*
X95340423Y-80814513D01*
X95340426Y-80814520D01*
X95419475Y-80951439D01*
X95419479Y-80951444D01*
X95419480Y-80951446D01*
X95531284Y-81063250D01*
X95531286Y-81063251D01*
X95531290Y-81063254D01*
X95668209Y-81142303D01*
X95668216Y-81142307D01*
X95820943Y-81183230D01*
X95820945Y-81183230D01*
X95979055Y-81183230D01*
X95979057Y-81183230D01*
X96131784Y-81142307D01*
X96268716Y-81063250D01*
X96380520Y-80951446D01*
X96459577Y-80814514D01*
X96500500Y-80661787D01*
X96500500Y-80503673D01*
X96459577Y-80350946D01*
X96427976Y-80296211D01*
X96380524Y-80214020D01*
X96380518Y-80214012D01*
X96336819Y-80170313D01*
X96303334Y-80108990D01*
X96300500Y-80082632D01*
X96300500Y-78400098D01*
X96320185Y-78333059D01*
X96336819Y-78312417D01*
X96380520Y-78268716D01*
X96459577Y-78131784D01*
X96500500Y-77979057D01*
X96500500Y-77820943D01*
X96459577Y-77668216D01*
X96401463Y-77567558D01*
X96380524Y-77531290D01*
X96380518Y-77531282D01*
X96268717Y-77419481D01*
X96268709Y-77419475D01*
X96131790Y-77340426D01*
X96131786Y-77340424D01*
X96131784Y-77340423D01*
X95979057Y-77299500D01*
X95820943Y-77299500D01*
X95668216Y-77340423D01*
X95668209Y-77340426D01*
X95531290Y-77419475D01*
X95531282Y-77419481D01*
X95419481Y-77531282D01*
X95419475Y-77531290D01*
X95340426Y-77668209D01*
X95340423Y-77668216D01*
X95299500Y-77820943D01*
X93370779Y-77820943D01*
X93370779Y-73360361D01*
X93390464Y-73293322D01*
X93443268Y-73247567D01*
X93512426Y-73237623D01*
X93556778Y-73252974D01*
X93568209Y-73259573D01*
X93568216Y-73259577D01*
X93720943Y-73300500D01*
X93720945Y-73300500D01*
X93879055Y-73300500D01*
X93879057Y-73300500D01*
X94031784Y-73259577D01*
X94168716Y-73180520D01*
X94212417Y-73136819D01*
X94273740Y-73103334D01*
X94300098Y-73100500D01*
X97024052Y-73100500D01*
X97091091Y-73120185D01*
X97136846Y-73172989D01*
X97146790Y-73242147D01*
X97117765Y-73305703D01*
X97075252Y-73336357D01*
X97075254Y-73336359D01*
X97075236Y-73336368D01*
X97071502Y-73339062D01*
X97068211Y-73340424D01*
X96931290Y-73419475D01*
X96931282Y-73419481D01*
X96819481Y-73531282D01*
X96819475Y-73531290D01*
X96740426Y-73668209D01*
X96740423Y-73668216D01*
X96699500Y-73820943D01*
X96699500Y-73979056D01*
X96740423Y-74131783D01*
X96740426Y-74131790D01*
X96819475Y-74268709D01*
X96819481Y-74268717D01*
X96863181Y-74312417D01*
X96896666Y-74373740D01*
X96899500Y-74400098D01*
X96899500Y-76052726D01*
X96926793Y-76154589D01*
X96953156Y-76200250D01*
X96979520Y-76245913D01*
X98538776Y-77805169D01*
X98538777Y-77805170D01*
X98613344Y-77879737D01*
X98704670Y-77932464D01*
X98806530Y-77959757D01*
X98865950Y-77959757D01*
X98932989Y-77979442D01*
X98953631Y-77996076D01*
X98997332Y-78039777D01*
X98997334Y-78039778D01*
X98997338Y-78039781D01*
X99134257Y-78118830D01*
X99134264Y-78118834D01*
X99286991Y-78159757D01*
X99286993Y-78159757D01*
X99445103Y-78159757D01*
X99445105Y-78159757D01*
X99597832Y-78118834D01*
X99734764Y-78039777D01*
X99846568Y-77927973D01*
X99925625Y-77791041D01*
X99966548Y-77638314D01*
X99966548Y-77480200D01*
X99925625Y-77327473D01*
X99909475Y-77299500D01*
X99846572Y-77190547D01*
X99846566Y-77190539D01*
X99734765Y-77078738D01*
X99734757Y-77078732D01*
X99597838Y-76999683D01*
X99597834Y-76999681D01*
X99597832Y-76999680D01*
X99445105Y-76958757D01*
X99286991Y-76958757D01*
X99134264Y-76999680D01*
X99134263Y-76999680D01*
X99046637Y-77050271D01*
X98978737Y-77066743D01*
X98912710Y-77043890D01*
X98896957Y-77030564D01*
X97736819Y-75870426D01*
X97703334Y-75809103D01*
X97700500Y-75782745D01*
X97700500Y-74400098D01*
X97720185Y-74333059D01*
X97736819Y-74312417D01*
X97780520Y-74268716D01*
X97859577Y-74131784D01*
X97900500Y-73979057D01*
X97900500Y-73820943D01*
X97859577Y-73668216D01*
X97804882Y-73573480D01*
X97780524Y-73531290D01*
X97780518Y-73531282D01*
X97668717Y-73419481D01*
X97668709Y-73419475D01*
X97531788Y-73340424D01*
X97528498Y-73339062D01*
X97526148Y-73337168D01*
X97524746Y-73336359D01*
X97524872Y-73336140D01*
X97474093Y-73295222D01*
X97452027Y-73228928D01*
X97469305Y-73161229D01*
X97520441Y-73113617D01*
X97575948Y-73100500D01*
X98907745Y-73100500D01*
X98974784Y-73120185D01*
X98995426Y-73136819D01*
X99588181Y-73729574D01*
X99621666Y-73790897D01*
X99624500Y-73817255D01*
X99624500Y-73879057D01*
X99651295Y-73979055D01*
X99665423Y-74031783D01*
X99665426Y-74031790D01*
X99744475Y-74168709D01*
X99744479Y-74168714D01*
X99744480Y-74168716D01*
X99856284Y-74280520D01*
X99856286Y-74280521D01*
X99856290Y-74280524D01*
X99993209Y-74359573D01*
X99993216Y-74359577D01*
X100145943Y-74400500D01*
X100145945Y-74400500D01*
X100304055Y-74400500D01*
X100304057Y-74400500D01*
X100456784Y-74359577D01*
X100593716Y-74280520D01*
X100705520Y-74168716D01*
X100784577Y-74031784D01*
X100825500Y-73879057D01*
X100825500Y-73720943D01*
X100784577Y-73568216D01*
X100763258Y-73531290D01*
X100705524Y-73431290D01*
X100705518Y-73431282D01*
X100593717Y-73319481D01*
X100593709Y-73319475D01*
X100456790Y-73240426D01*
X100456786Y-73240424D01*
X100456784Y-73240423D01*
X100304057Y-73199500D01*
X100304056Y-73199500D01*
X100242255Y-73199500D01*
X100175216Y-73179815D01*
X100154574Y-73163181D01*
X99370915Y-72379522D01*
X99370913Y-72379520D01*
X99290268Y-72332959D01*
X99279589Y-72326793D01*
X99228657Y-72313146D01*
X99177727Y-72299500D01*
X99177726Y-72299500D01*
X94300098Y-72299500D01*
X94233059Y-72279815D01*
X94212417Y-72263181D01*
X94168717Y-72219481D01*
X94168709Y-72219475D01*
X94031790Y-72140426D01*
X94031786Y-72140424D01*
X94031784Y-72140423D01*
X93879057Y-72099500D01*
X93720943Y-72099500D01*
X93568216Y-72140423D01*
X93568211Y-72140425D01*
X93556774Y-72147028D01*
X93488873Y-72163497D01*
X93422847Y-72140642D01*
X93379659Y-72085719D01*
X93370779Y-72039638D01*
X93370779Y-64617554D01*
X93370779Y-64617552D01*
X93343486Y-64515692D01*
X93343486Y-64515691D01*
X93290759Y-64424366D01*
X90931714Y-62065321D01*
X90898229Y-62003998D01*
X90903213Y-61934306D01*
X90930000Y-61898523D01*
X90930000Y-61346988D01*
X90939940Y-61364205D01*
X90995795Y-61420060D01*
X91064204Y-61459556D01*
X91140504Y-61480000D01*
X91219496Y-61480000D01*
X91295796Y-61459556D01*
X91364205Y-61420060D01*
X91420060Y-61364205D01*
X91430000Y-61346988D01*
X91430000Y-61888240D01*
X91535256Y-61844642D01*
X91535260Y-61844640D01*
X91658092Y-61762566D01*
X91658100Y-61762560D01*
X91762560Y-61658100D01*
X91762563Y-61658096D01*
X91844637Y-61535264D01*
X91844642Y-61535254D01*
X91901177Y-61398767D01*
X91901179Y-61398759D01*
X91929999Y-61253873D01*
X91930000Y-61253871D01*
X91930000Y-60880000D01*
X91480000Y-60880000D01*
X91480000Y-60380000D01*
X91931639Y-60380000D01*
X91989347Y-60348488D01*
X92059039Y-60353472D01*
X92114973Y-60395342D01*
X92123091Y-60407649D01*
X92149485Y-60453365D01*
X92256635Y-60560515D01*
X92387865Y-60636281D01*
X92534234Y-60675500D01*
X92534236Y-60675500D01*
X92685764Y-60675500D01*
X92685766Y-60675500D01*
X92832135Y-60636281D01*
X92963365Y-60560515D01*
X93070515Y-60453365D01*
X93146281Y-60322135D01*
X93185500Y-60175766D01*
X93185500Y-60024234D01*
X97814500Y-60024234D01*
X97814500Y-60175765D01*
X97853719Y-60322136D01*
X97891602Y-60387750D01*
X97929485Y-60453365D01*
X98036635Y-60560515D01*
X98167865Y-60636281D01*
X98314234Y-60675500D01*
X98314236Y-60675500D01*
X98465764Y-60675500D01*
X98465766Y-60675500D01*
X98612135Y-60636281D01*
X98743365Y-60560515D01*
X98850515Y-60453365D01*
X98876906Y-60407653D01*
X98927470Y-60359439D01*
X98996077Y-60346215D01*
X99060942Y-60372182D01*
X99069750Y-60380000D01*
X99520000Y-60380000D01*
X99520000Y-60880000D01*
X99070000Y-60880000D01*
X99070000Y-61253873D01*
X99098820Y-61398759D01*
X99098822Y-61398767D01*
X99155357Y-61535254D01*
X99155362Y-61535264D01*
X99237436Y-61658096D01*
X99237439Y-61658100D01*
X99341899Y-61762560D01*
X99341907Y-61762566D01*
X99464739Y-61844640D01*
X99464743Y-61844642D01*
X99569999Y-61888240D01*
X99570000Y-61888240D01*
X99570000Y-61346988D01*
X99579940Y-61364205D01*
X99635795Y-61420060D01*
X99704204Y-61459556D01*
X99780504Y-61480000D01*
X99859496Y-61480000D01*
X99935796Y-61459556D01*
X100004205Y-61420060D01*
X100060060Y-61364205D01*
X100070000Y-61346988D01*
X100070000Y-61888240D01*
X100175256Y-61844642D01*
X100175260Y-61844640D01*
X100298092Y-61762566D01*
X100298100Y-61762560D01*
X100402560Y-61658100D01*
X100402563Y-61658096D01*
X100484637Y-61535264D01*
X100484642Y-61535254D01*
X100541177Y-61398767D01*
X100541179Y-61398759D01*
X100569999Y-61253873D01*
X100570000Y-61253871D01*
X100570000Y-60880000D01*
X100120000Y-60880000D01*
X100120000Y-60380000D01*
X100570000Y-60380000D01*
X100570000Y-60006128D01*
X100569999Y-60006126D01*
X100541179Y-59861240D01*
X100541177Y-59861232D01*
X100484642Y-59724745D01*
X100484637Y-59724735D01*
X100402563Y-59601903D01*
X100402560Y-59601899D01*
X100298100Y-59497439D01*
X100298096Y-59497436D01*
X100175264Y-59415362D01*
X100175254Y-59415357D01*
X100070000Y-59371759D01*
X100070000Y-59913011D01*
X100060060Y-59895795D01*
X100004205Y-59839940D01*
X99935796Y-59800444D01*
X99859496Y-59780000D01*
X99780504Y-59780000D01*
X99704204Y-59800444D01*
X99635795Y-59839940D01*
X99579940Y-59895795D01*
X99570000Y-59913011D01*
X99570000Y-59371759D01*
X99569999Y-59371759D01*
X99464745Y-59415357D01*
X99464735Y-59415362D01*
X99341903Y-59497436D01*
X99341899Y-59497439D01*
X99237439Y-59601899D01*
X99237436Y-59601903D01*
X99155362Y-59724735D01*
X99155359Y-59724742D01*
X99118958Y-59812620D01*
X99075116Y-59867023D01*
X99008822Y-59889087D01*
X98941123Y-59871807D01*
X98897010Y-59827166D01*
X98874142Y-59787558D01*
X98850515Y-59746635D01*
X98743365Y-59639485D01*
X98673500Y-59599148D01*
X98612136Y-59563719D01*
X98538950Y-59544109D01*
X98465766Y-59524500D01*
X98314234Y-59524500D01*
X98167863Y-59563719D01*
X98036635Y-59639485D01*
X98036632Y-59639487D01*
X97929487Y-59746632D01*
X97929485Y-59746635D01*
X97853719Y-59877863D01*
X97814500Y-60024234D01*
X93185500Y-60024234D01*
X93146281Y-59877865D01*
X93144847Y-59875382D01*
X93117010Y-59827166D01*
X93070515Y-59746635D01*
X92963365Y-59639485D01*
X92893500Y-59599148D01*
X92832136Y-59563719D01*
X92758950Y-59544109D01*
X92685766Y-59524500D01*
X92534234Y-59524500D01*
X92387863Y-59563719D01*
X92256635Y-59639485D01*
X92256632Y-59639487D01*
X92149487Y-59746632D01*
X92149480Y-59746641D01*
X92102988Y-59827167D01*
X92052421Y-59875382D01*
X91983814Y-59888604D01*
X91918949Y-59862636D01*
X91881041Y-59812619D01*
X91844642Y-59724744D01*
X91844637Y-59724735D01*
X91762563Y-59601903D01*
X91762560Y-59601899D01*
X91658100Y-59497439D01*
X91658096Y-59497436D01*
X91535264Y-59415362D01*
X91535254Y-59415357D01*
X91430000Y-59371759D01*
X91430000Y-59913011D01*
X91420060Y-59895795D01*
X91364205Y-59839940D01*
X91295796Y-59800444D01*
X91219496Y-59780000D01*
X91140504Y-59780000D01*
X91064204Y-59800444D01*
X90995795Y-59839940D01*
X90939940Y-59895795D01*
X90930000Y-59913011D01*
X90930000Y-59371759D01*
X90929999Y-59371759D01*
X90824745Y-59415357D01*
X90824735Y-59415362D01*
X90701903Y-59497436D01*
X90701899Y-59497439D01*
X90597439Y-59601899D01*
X90597436Y-59601903D01*
X90515362Y-59724735D01*
X90515357Y-59724745D01*
X90458822Y-59861232D01*
X90458820Y-59861240D01*
X90430000Y-60006126D01*
X90430000Y-60380000D01*
X90880000Y-60380000D01*
X90880000Y-60880000D01*
X90430000Y-60880000D01*
X90430000Y-61259961D01*
X90428471Y-61259961D01*
X90416840Y-61321225D01*
X90368765Y-61371926D01*
X90300911Y-61388587D01*
X90234821Y-61365919D01*
X90218786Y-61352393D01*
X88197819Y-59331426D01*
X88164334Y-59270103D01*
X88161500Y-59243745D01*
X88161500Y-57468275D01*
X88161500Y-57468273D01*
X88134207Y-57366413D01*
X88134207Y-57366412D01*
X88081480Y-57275087D01*
X87796818Y-56990425D01*
X87763333Y-56929102D01*
X87760499Y-56902744D01*
X87760499Y-55624500D01*
X87780184Y-55557461D01*
X87832988Y-55511706D01*
X87884499Y-55500500D01*
X90479977Y-55500500D01*
X90547016Y-55520185D01*
G37*
%TD.AperFunction*%
%TA.AperFunction,Conductor*%
G36*
X95718834Y-87714572D02*
G01*
X95774767Y-87756444D01*
X95799184Y-87821908D01*
X95799500Y-87830754D01*
X95799500Y-89147273D01*
X95799500Y-89252727D01*
X95801751Y-89261128D01*
X95826793Y-89354589D01*
X95853156Y-89400250D01*
X95879520Y-89445913D01*
X95879522Y-89445915D01*
X97603181Y-91169574D01*
X97636666Y-91230897D01*
X97639500Y-91257255D01*
X97639500Y-103226840D01*
X97619815Y-103293879D01*
X97571795Y-103337325D01*
X97437002Y-103406006D01*
X97290505Y-103512441D01*
X97290500Y-103512445D01*
X97162445Y-103640500D01*
X97162441Y-103640505D01*
X97056006Y-103787002D01*
X96973788Y-103948360D01*
X96973787Y-103948363D01*
X96917829Y-104120589D01*
X96889500Y-104299448D01*
X96889500Y-104480551D01*
X96917829Y-104659410D01*
X96973787Y-104831636D01*
X96973788Y-104831639D01*
X97008320Y-104899410D01*
X97045682Y-104972737D01*
X97056006Y-104992997D01*
X97162441Y-105139494D01*
X97162445Y-105139499D01*
X97290500Y-105267554D01*
X97290505Y-105267558D01*
X97300998Y-105275182D01*
X97343664Y-105330512D01*
X97349643Y-105400125D01*
X97317037Y-105461920D01*
X97256199Y-105496277D01*
X97228113Y-105499500D01*
X96203249Y-105499500D01*
X96136210Y-105479815D01*
X96090455Y-105427011D01*
X96079631Y-105365776D01*
X96082737Y-105326289D01*
X95629410Y-104872962D01*
X95692993Y-104855925D01*
X95807007Y-104790099D01*
X95900099Y-104697007D01*
X95965925Y-104582993D01*
X95982962Y-104519410D01*
X96436289Y-104972737D01*
X96436289Y-104972736D01*
X96440803Y-104966525D01*
X96519408Y-104812257D01*
X96572914Y-104647584D01*
X96600000Y-104476571D01*
X96600000Y-104303428D01*
X96572914Y-104132415D01*
X96519408Y-103967742D01*
X96440801Y-103813471D01*
X96436290Y-103807262D01*
X96436289Y-103807261D01*
X95982962Y-104260589D01*
X95965925Y-104197007D01*
X95900099Y-104082993D01*
X95807007Y-103989901D01*
X95692993Y-103924075D01*
X95629409Y-103907037D01*
X96082737Y-103453709D01*
X96076525Y-103449196D01*
X95922259Y-103370592D01*
X95757584Y-103317085D01*
X95586571Y-103290000D01*
X95413429Y-103290000D01*
X95242415Y-103317085D01*
X95077740Y-103370592D01*
X94923480Y-103449193D01*
X94923463Y-103449203D01*
X94917261Y-103453708D01*
X94917261Y-103453709D01*
X95370590Y-103907037D01*
X95307007Y-103924075D01*
X95192993Y-103989901D01*
X95099901Y-104082993D01*
X95034075Y-104197007D01*
X95017037Y-104260590D01*
X94563709Y-103807261D01*
X94563708Y-103807261D01*
X94559203Y-103813463D01*
X94559193Y-103813480D01*
X94480592Y-103967740D01*
X94427085Y-104132415D01*
X94400000Y-104303428D01*
X94400000Y-104476571D01*
X94427085Y-104647584D01*
X94480592Y-104812259D01*
X94559196Y-104966525D01*
X94563709Y-104972736D01*
X94563709Y-104972737D01*
X95017037Y-104519408D01*
X95034075Y-104582993D01*
X95099901Y-104697007D01*
X95192993Y-104790099D01*
X95307007Y-104855925D01*
X95370589Y-104872962D01*
X94917261Y-105326289D01*
X94920369Y-105365772D01*
X94906005Y-105434149D01*
X94856953Y-105483905D01*
X94796751Y-105499500D01*
X94214210Y-105499500D01*
X94147171Y-105479815D01*
X94101416Y-105427011D01*
X94091472Y-105357853D01*
X94100775Y-105325414D01*
X94100776Y-105325412D01*
X94107585Y-105309991D01*
X94110500Y-105284865D01*
X94110499Y-103495136D01*
X94110497Y-103495117D01*
X94107586Y-103470012D01*
X94107585Y-103470010D01*
X94107585Y-103470009D01*
X94062206Y-103367235D01*
X93982765Y-103287794D01*
X93931452Y-103265137D01*
X93879992Y-103242415D01*
X93854868Y-103239500D01*
X93854865Y-103239500D01*
X93484500Y-103239500D01*
X93417461Y-103219815D01*
X93371706Y-103167011D01*
X93360500Y-103115500D01*
X93360500Y-90021754D01*
X93380185Y-89954715D01*
X93396819Y-89934073D01*
X95587819Y-87743073D01*
X95649142Y-87709588D01*
X95718834Y-87714572D01*
G37*
%TD.AperFunction*%
%TA.AperFunction,Conductor*%
G36*
X97114713Y-87418827D02*
G01*
X97133379Y-87427622D01*
X97203429Y-87468065D01*
X97356156Y-87508988D01*
X97356158Y-87508988D01*
X97510713Y-87508988D01*
X97577752Y-87528673D01*
X97623507Y-87581477D01*
X97634713Y-87632988D01*
X97634713Y-89067939D01*
X97662006Y-89169802D01*
X97688369Y-89215463D01*
X97714733Y-89261126D01*
X98164087Y-89710480D01*
X98255412Y-89763207D01*
X98357273Y-89790500D01*
X101985988Y-89790500D01*
X102053027Y-89810185D01*
X102098782Y-89862989D01*
X102108726Y-89932147D01*
X102093375Y-89976500D01*
X102040424Y-90068213D01*
X102040423Y-90068216D01*
X101999500Y-90220943D01*
X101999500Y-90379057D01*
X102035168Y-90512170D01*
X102040423Y-90531783D01*
X102040426Y-90531790D01*
X102119475Y-90668709D01*
X102119481Y-90668717D01*
X102163181Y-90712417D01*
X102196666Y-90773740D01*
X102199500Y-90800098D01*
X102199500Y-91082745D01*
X102179815Y-91149784D01*
X102163181Y-91170426D01*
X99870426Y-93463181D01*
X99809103Y-93496666D01*
X99782745Y-93499500D01*
X99720943Y-93499500D01*
X99568216Y-93540423D01*
X99568209Y-93540426D01*
X99431290Y-93619475D01*
X99431282Y-93619481D01*
X99319481Y-93731282D01*
X99319475Y-93731290D01*
X99240426Y-93868209D01*
X99240423Y-93868216D01*
X99199500Y-94020943D01*
X99199500Y-94179057D01*
X99205270Y-94200589D01*
X99240423Y-94331783D01*
X99240426Y-94331790D01*
X99319475Y-94468709D01*
X99319479Y-94468714D01*
X99319480Y-94468716D01*
X99431284Y-94580520D01*
X99431286Y-94580521D01*
X99431290Y-94580524D01*
X99520087Y-94631790D01*
X99568216Y-94659577D01*
X99720943Y-94700500D01*
X99720945Y-94700500D01*
X99879055Y-94700500D01*
X99879057Y-94700500D01*
X100031784Y-94659577D01*
X100168716Y-94580520D01*
X100280520Y-94468716D01*
X100359577Y-94331784D01*
X100400500Y-94179057D01*
X100400500Y-94117255D01*
X100420185Y-94050216D01*
X100436819Y-94029574D01*
X101658840Y-92807553D01*
X102920480Y-91545913D01*
X102973207Y-91454588D01*
X103000500Y-91352727D01*
X103000500Y-91247273D01*
X103000500Y-90800098D01*
X103020185Y-90733059D01*
X103036819Y-90712417D01*
X103056004Y-90693232D01*
X103080520Y-90668716D01*
X103159577Y-90531784D01*
X103200500Y-90379057D01*
X103200500Y-90220943D01*
X103159577Y-90068216D01*
X103106624Y-89976499D01*
X103105193Y-89970598D01*
X103101218Y-89966011D01*
X103097053Y-89937046D01*
X103090152Y-89908600D01*
X103092138Y-89902861D01*
X103091274Y-89896853D01*
X103103433Y-89870228D01*
X103113005Y-89842573D01*
X103117776Y-89838820D01*
X103120299Y-89833297D01*
X103144921Y-89817473D01*
X103167926Y-89799382D01*
X103175276Y-89797965D01*
X103179077Y-89795523D01*
X103214012Y-89790500D01*
X103226840Y-89790500D01*
X103293879Y-89810185D01*
X103337325Y-89858205D01*
X103392255Y-89966011D01*
X103406006Y-89992997D01*
X103512441Y-90139494D01*
X103512445Y-90139499D01*
X103640500Y-90267554D01*
X103640505Y-90267558D01*
X103768287Y-90360396D01*
X103787006Y-90373996D01*
X103892484Y-90427740D01*
X103948360Y-90456211D01*
X103948363Y-90456212D01*
X104034476Y-90484191D01*
X104120591Y-90512171D01*
X104193639Y-90523740D01*
X104280678Y-90537527D01*
X104343813Y-90567456D01*
X104380744Y-90626768D01*
X104379746Y-90696631D01*
X104341136Y-90754863D01*
X104280678Y-90782473D01*
X104120589Y-90807829D01*
X103948363Y-90863787D01*
X103948360Y-90863788D01*
X103787002Y-90946006D01*
X103640505Y-91052441D01*
X103640500Y-91052445D01*
X103512445Y-91180500D01*
X103512441Y-91180505D01*
X103406006Y-91327002D01*
X103323788Y-91488360D01*
X103323787Y-91488363D01*
X103267829Y-91660589D01*
X103239500Y-91839448D01*
X103239500Y-92020551D01*
X103267829Y-92199410D01*
X103323787Y-92371636D01*
X103323788Y-92371639D01*
X103406006Y-92532997D01*
X103512441Y-92679494D01*
X103512445Y-92679499D01*
X103640500Y-92807554D01*
X103640505Y-92807558D01*
X103768287Y-92900396D01*
X103787006Y-92913996D01*
X103892484Y-92967740D01*
X103948360Y-92996211D01*
X103948363Y-92996212D01*
X104034476Y-93024191D01*
X104120591Y-93052171D01*
X104193639Y-93063740D01*
X104280678Y-93077527D01*
X104343813Y-93107456D01*
X104380744Y-93166768D01*
X104379746Y-93236631D01*
X104341136Y-93294863D01*
X104280678Y-93322473D01*
X104120589Y-93347829D01*
X103948363Y-93403787D01*
X103948360Y-93403788D01*
X103787002Y-93486006D01*
X103640505Y-93592441D01*
X103640500Y-93592445D01*
X103512445Y-93720500D01*
X103512441Y-93720505D01*
X103406006Y-93867002D01*
X103323788Y-94028360D01*
X103323787Y-94028363D01*
X103267829Y-94200589D01*
X103239500Y-94379448D01*
X103239500Y-94560551D01*
X103267829Y-94739410D01*
X103323787Y-94911636D01*
X103323788Y-94911639D01*
X103406006Y-95072997D01*
X103512441Y-95219494D01*
X103512445Y-95219499D01*
X103640500Y-95347554D01*
X103640505Y-95347558D01*
X103768287Y-95440396D01*
X103787006Y-95453996D01*
X103892484Y-95507740D01*
X103948360Y-95536211D01*
X103948363Y-95536212D01*
X104034476Y-95564191D01*
X104120591Y-95592171D01*
X104193639Y-95603740D01*
X104280678Y-95617527D01*
X104343813Y-95647456D01*
X104380744Y-95706768D01*
X104379746Y-95776631D01*
X104341136Y-95834863D01*
X104280678Y-95862473D01*
X104120589Y-95887829D01*
X103948363Y-95943787D01*
X103948360Y-95943788D01*
X103787002Y-96026006D01*
X103640505Y-96132441D01*
X103640500Y-96132445D01*
X103512445Y-96260500D01*
X103512441Y-96260505D01*
X103406006Y-96407002D01*
X103323788Y-96568360D01*
X103323787Y-96568363D01*
X103267829Y-96740589D01*
X103239500Y-96919448D01*
X103239500Y-97100551D01*
X103267829Y-97279410D01*
X103323787Y-97451636D01*
X103323788Y-97451639D01*
X103406006Y-97612997D01*
X103512441Y-97759494D01*
X103512445Y-97759499D01*
X103640500Y-97887554D01*
X103640505Y-97887558D01*
X103768287Y-97980396D01*
X103787006Y-97993996D01*
X103892484Y-98047740D01*
X103948360Y-98076211D01*
X103948363Y-98076212D01*
X104034476Y-98104191D01*
X104120591Y-98132171D01*
X104203429Y-98145291D01*
X104299449Y-98160500D01*
X104299454Y-98160500D01*
X104480551Y-98160500D01*
X104567259Y-98146765D01*
X104659409Y-98132171D01*
X104831639Y-98076211D01*
X104992994Y-97993996D01*
X105139501Y-97887553D01*
X105267553Y-97759501D01*
X105275180Y-97749003D01*
X105330508Y-97706336D01*
X105400121Y-97700355D01*
X105461917Y-97732959D01*
X105496277Y-97793796D01*
X105499500Y-97821886D01*
X105499500Y-98846751D01*
X105479815Y-98913790D01*
X105427011Y-98959545D01*
X105365772Y-98970369D01*
X105326289Y-98967261D01*
X104872962Y-99420589D01*
X104855925Y-99357007D01*
X104790099Y-99242993D01*
X104697007Y-99149901D01*
X104582993Y-99084075D01*
X104519409Y-99067037D01*
X104972737Y-98613709D01*
X104966525Y-98609196D01*
X104812259Y-98530592D01*
X104647584Y-98477085D01*
X104476571Y-98450000D01*
X104303429Y-98450000D01*
X104132415Y-98477085D01*
X103967740Y-98530592D01*
X103813480Y-98609193D01*
X103813463Y-98609203D01*
X103807261Y-98613708D01*
X103807261Y-98613709D01*
X104260590Y-99067037D01*
X104197007Y-99084075D01*
X104082993Y-99149901D01*
X103989901Y-99242993D01*
X103924075Y-99357007D01*
X103907037Y-99420590D01*
X103453709Y-98967261D01*
X103453708Y-98967261D01*
X103449203Y-98973463D01*
X103449193Y-98973480D01*
X103370592Y-99127740D01*
X103317085Y-99292415D01*
X103290000Y-99463428D01*
X103290000Y-99636571D01*
X103317085Y-99807584D01*
X103370592Y-99972259D01*
X103449196Y-100126525D01*
X103453709Y-100132736D01*
X103453709Y-100132737D01*
X103907037Y-99679409D01*
X103924075Y-99742993D01*
X103989901Y-99857007D01*
X104082993Y-99950099D01*
X104197007Y-100015925D01*
X104260589Y-100032962D01*
X103807261Y-100486289D01*
X103807262Y-100486290D01*
X103813471Y-100490801D01*
X103967742Y-100569408D01*
X104132415Y-100622914D01*
X104303429Y-100650000D01*
X104476571Y-100650000D01*
X104647584Y-100622914D01*
X104812257Y-100569408D01*
X104966525Y-100490803D01*
X104972736Y-100486289D01*
X104972737Y-100486289D01*
X104519410Y-100032962D01*
X104582993Y-100015925D01*
X104697007Y-99950099D01*
X104790099Y-99857007D01*
X104855925Y-99742993D01*
X104872962Y-99679409D01*
X105326288Y-100132736D01*
X105365774Y-100129630D01*
X105434151Y-100143996D01*
X105483907Y-100193048D01*
X105499500Y-100253248D01*
X105499500Y-101278113D01*
X105479815Y-101345152D01*
X105427011Y-101390907D01*
X105357853Y-101400851D01*
X105294297Y-101371826D01*
X105275182Y-101350998D01*
X105267558Y-101340505D01*
X105267554Y-101340500D01*
X105139499Y-101212445D01*
X105139494Y-101212441D01*
X104992997Y-101106006D01*
X104992996Y-101106005D01*
X104992994Y-101106004D01*
X104941300Y-101079664D01*
X104831639Y-101023788D01*
X104831636Y-101023787D01*
X104659410Y-100967829D01*
X104480551Y-100939500D01*
X104480546Y-100939500D01*
X104299454Y-100939500D01*
X104299449Y-100939500D01*
X104120589Y-100967829D01*
X103948363Y-101023787D01*
X103948360Y-101023788D01*
X103787002Y-101106006D01*
X103640505Y-101212441D01*
X103640500Y-101212445D01*
X103512445Y-101340500D01*
X103512441Y-101340505D01*
X103406006Y-101487002D01*
X103323788Y-101648360D01*
X103323787Y-101648363D01*
X103267829Y-101820589D01*
X103239500Y-101999448D01*
X103239500Y-102180551D01*
X103267829Y-102359410D01*
X103323787Y-102531636D01*
X103323788Y-102531639D01*
X103406006Y-102692997D01*
X103512441Y-102839494D01*
X103512445Y-102839499D01*
X103640500Y-102967554D01*
X103640505Y-102967558D01*
X103768287Y-103060396D01*
X103787006Y-103073996D01*
X103868462Y-103115500D01*
X103948360Y-103156211D01*
X103948363Y-103156212D01*
X104029392Y-103182539D01*
X104120591Y-103212171D01*
X104193639Y-103223740D01*
X104280678Y-103237527D01*
X104343813Y-103267456D01*
X104380744Y-103326768D01*
X104379746Y-103396631D01*
X104341136Y-103454863D01*
X104280678Y-103482473D01*
X104120589Y-103507829D01*
X103948363Y-103563787D01*
X103948360Y-103563788D01*
X103787002Y-103646006D01*
X103640505Y-103752441D01*
X103640500Y-103752445D01*
X103512445Y-103880500D01*
X103512441Y-103880505D01*
X103406006Y-104027002D01*
X103323788Y-104188360D01*
X103323787Y-104188363D01*
X103267829Y-104360589D01*
X103239500Y-104539448D01*
X103239500Y-104720551D01*
X103267829Y-104899410D01*
X103323787Y-105071636D01*
X103323788Y-105071639D01*
X103406003Y-105232993D01*
X103456586Y-105302615D01*
X103480065Y-105368422D01*
X103464239Y-105436476D01*
X103414133Y-105485170D01*
X103356267Y-105499500D01*
X98851887Y-105499500D01*
X98784848Y-105479815D01*
X98739093Y-105427011D01*
X98729149Y-105357853D01*
X98758174Y-105294297D01*
X98779002Y-105275182D01*
X98789494Y-105267558D01*
X98789492Y-105267558D01*
X98789501Y-105267553D01*
X98917553Y-105139501D01*
X99023996Y-104992994D01*
X99106211Y-104831639D01*
X99162171Y-104659409D01*
X99181171Y-104539448D01*
X99190500Y-104480551D01*
X99190500Y-104299448D01*
X99172905Y-104188361D01*
X99162171Y-104120591D01*
X99106211Y-103948361D01*
X99106211Y-103948360D01*
X99071633Y-103880499D01*
X99023996Y-103787006D01*
X98998883Y-103752441D01*
X98917558Y-103640505D01*
X98917554Y-103640500D01*
X98789499Y-103512445D01*
X98789494Y-103512441D01*
X98642997Y-103406006D01*
X98642996Y-103406005D01*
X98642994Y-103406004D01*
X98508205Y-103337325D01*
X98457409Y-103289350D01*
X98440500Y-103226840D01*
X98440500Y-90987275D01*
X98440500Y-90987273D01*
X98413207Y-90885413D01*
X98413207Y-90885412D01*
X98360480Y-90794087D01*
X96636819Y-89070426D01*
X96603334Y-89009103D01*
X96600500Y-88982745D01*
X96600500Y-87739270D01*
X96620185Y-87672231D01*
X96672989Y-87626476D01*
X96692401Y-87619496D01*
X96776074Y-87597077D01*
X96913006Y-87518020D01*
X96983698Y-87447328D01*
X97045021Y-87413843D01*
X97114713Y-87418827D01*
G37*
%TD.AperFunction*%
%TA.AperFunction,Conductor*%
G36*
X98840916Y-86013524D02*
G01*
X98847384Y-86019547D01*
X100173748Y-87345910D01*
X100173750Y-87345913D01*
X100248317Y-87420480D01*
X100330737Y-87468065D01*
X100339643Y-87473207D01*
X100441503Y-87500501D01*
X100441505Y-87500501D01*
X100554553Y-87500501D01*
X100554569Y-87500500D01*
X101782745Y-87500500D01*
X101849784Y-87520185D01*
X101870426Y-87536819D01*
X102105719Y-87772112D01*
X102139204Y-87833435D01*
X102134220Y-87903127D01*
X102122772Y-87923800D01*
X102123543Y-87924245D01*
X102040426Y-88068209D01*
X102040423Y-88068216D01*
X101999500Y-88220943D01*
X101999500Y-88379057D01*
X102006721Y-88406004D01*
X102040423Y-88531783D01*
X102040426Y-88531790D01*
X102119475Y-88668709D01*
X102119481Y-88668717D01*
X102228583Y-88777819D01*
X102262068Y-88839142D01*
X102257084Y-88908834D01*
X102215212Y-88964767D01*
X102149748Y-88989184D01*
X102140902Y-88989500D01*
X98627255Y-88989500D01*
X98597814Y-88980855D01*
X98567828Y-88974332D01*
X98562812Y-88970577D01*
X98560216Y-88969815D01*
X98539574Y-88953181D01*
X98472032Y-88885639D01*
X98438547Y-88824316D01*
X98435713Y-88797958D01*
X98435713Y-86683935D01*
X98455398Y-86616896D01*
X98472032Y-86596254D01*
X98475871Y-86592415D01*
X98515733Y-86552553D01*
X98594790Y-86415621D01*
X98635713Y-86262894D01*
X98635713Y-86107237D01*
X98655398Y-86040198D01*
X98708202Y-85994443D01*
X98777360Y-85984499D01*
X98840916Y-86013524D01*
G37*
%TD.AperFunction*%
%TA.AperFunction,Conductor*%
G36*
X103976716Y-82845424D02*
G01*
X104120591Y-82892171D01*
X104191072Y-82903334D01*
X104280678Y-82917527D01*
X104343813Y-82947456D01*
X104380744Y-83006768D01*
X104379746Y-83076631D01*
X104341136Y-83134863D01*
X104280678Y-83162473D01*
X104120589Y-83187829D01*
X103948363Y-83243787D01*
X103948360Y-83243788D01*
X103787003Y-83326005D01*
X103647856Y-83427100D01*
X103582050Y-83450579D01*
X103513996Y-83434753D01*
X103509627Y-83430257D01*
X103514984Y-83444621D01*
X103527558Y-83466885D01*
X103526990Y-83476810D01*
X103530465Y-83486126D01*
X103525029Y-83511112D01*
X103523570Y-83536641D01*
X103516604Y-83549843D01*
X103515613Y-83554399D01*
X103507100Y-83567856D01*
X103406005Y-83707003D01*
X103323788Y-83868360D01*
X103323787Y-83868363D01*
X103267829Y-84040589D01*
X103239500Y-84219448D01*
X103239500Y-84400551D01*
X103267829Y-84579410D01*
X103323787Y-84751636D01*
X103323788Y-84751639D01*
X103406006Y-84912997D01*
X103512441Y-85059494D01*
X103512445Y-85059499D01*
X103640500Y-85187554D01*
X103640505Y-85187558D01*
X103759480Y-85273997D01*
X103787006Y-85293996D01*
X103892484Y-85347740D01*
X103948360Y-85376211D01*
X103948363Y-85376212D01*
X104034476Y-85404191D01*
X104120591Y-85432171D01*
X104203429Y-85445291D01*
X104299449Y-85460500D01*
X104299454Y-85460500D01*
X104480551Y-85460500D01*
X104567259Y-85446765D01*
X104659409Y-85432171D01*
X104831639Y-85376211D01*
X104992994Y-85293996D01*
X105139501Y-85187553D01*
X105267553Y-85059501D01*
X105275180Y-85049003D01*
X105330508Y-85006336D01*
X105400121Y-85000355D01*
X105461917Y-85032959D01*
X105496277Y-85093796D01*
X105499500Y-85121886D01*
X105499500Y-86146751D01*
X105479815Y-86213790D01*
X105427011Y-86259545D01*
X105365772Y-86270369D01*
X105326289Y-86267261D01*
X104872962Y-86720589D01*
X104855925Y-86657007D01*
X104790099Y-86542993D01*
X104697007Y-86449901D01*
X104582993Y-86384075D01*
X104519409Y-86367037D01*
X104972737Y-85913709D01*
X104966525Y-85909196D01*
X104812259Y-85830592D01*
X104647584Y-85777085D01*
X104476571Y-85750000D01*
X104303429Y-85750000D01*
X104132415Y-85777085D01*
X103967740Y-85830592D01*
X103813480Y-85909193D01*
X103813463Y-85909203D01*
X103807261Y-85913708D01*
X103807261Y-85913709D01*
X104260590Y-86367037D01*
X104197007Y-86384075D01*
X104082993Y-86449901D01*
X103989901Y-86542993D01*
X103924075Y-86657007D01*
X103907037Y-86720590D01*
X103453709Y-86267261D01*
X103453708Y-86267261D01*
X103449203Y-86273463D01*
X103449193Y-86273480D01*
X103370592Y-86427740D01*
X103317085Y-86592415D01*
X103290000Y-86763428D01*
X103290000Y-86936571D01*
X103317085Y-87107584D01*
X103370592Y-87272259D01*
X103449196Y-87426525D01*
X103453709Y-87432736D01*
X103453709Y-87432737D01*
X103907037Y-86979409D01*
X103924075Y-87042993D01*
X103989901Y-87157007D01*
X104082993Y-87250099D01*
X104197007Y-87315925D01*
X104260589Y-87332962D01*
X103807261Y-87786289D01*
X103807262Y-87786290D01*
X103813471Y-87790801D01*
X103967742Y-87869408D01*
X104132415Y-87922914D01*
X104303429Y-87950000D01*
X104476571Y-87950000D01*
X104647584Y-87922914D01*
X104812257Y-87869408D01*
X104966525Y-87790803D01*
X104972736Y-87786289D01*
X104972737Y-87786289D01*
X104519410Y-87332962D01*
X104582993Y-87315925D01*
X104697007Y-87250099D01*
X104790099Y-87157007D01*
X104855925Y-87042993D01*
X104872962Y-86979409D01*
X105326288Y-87432736D01*
X105365774Y-87429630D01*
X105434151Y-87443996D01*
X105483907Y-87493048D01*
X105499500Y-87553248D01*
X105499500Y-88578113D01*
X105479815Y-88645152D01*
X105427011Y-88690907D01*
X105357853Y-88700851D01*
X105294297Y-88671826D01*
X105275182Y-88650998D01*
X105267558Y-88640505D01*
X105267554Y-88640500D01*
X105139499Y-88512445D01*
X105139494Y-88512441D01*
X104992997Y-88406006D01*
X104992996Y-88406005D01*
X104992994Y-88406004D01*
X104940104Y-88379055D01*
X104831639Y-88323788D01*
X104831636Y-88323787D01*
X104659410Y-88267829D01*
X104480551Y-88239500D01*
X104480546Y-88239500D01*
X104299454Y-88239500D01*
X104299449Y-88239500D01*
X104120589Y-88267829D01*
X103948363Y-88323787D01*
X103948360Y-88323788D01*
X103787002Y-88406006D01*
X103640505Y-88512441D01*
X103640500Y-88512445D01*
X103512445Y-88640500D01*
X103512441Y-88640505D01*
X103406006Y-88787002D01*
X103337325Y-88921795D01*
X103326875Y-88932859D01*
X103320553Y-88946703D01*
X103303372Y-88957744D01*
X103289350Y-88972591D01*
X103273670Y-88976832D01*
X103261775Y-88984477D01*
X103226840Y-88989500D01*
X103059098Y-88989500D01*
X102992059Y-88969815D01*
X102946304Y-88917011D01*
X102936360Y-88847853D01*
X102965385Y-88784297D01*
X102971417Y-88777819D01*
X103080520Y-88668716D01*
X103159577Y-88531784D01*
X103200500Y-88379057D01*
X103200500Y-88220943D01*
X103159577Y-88068216D01*
X103091326Y-87950000D01*
X103080524Y-87931290D01*
X103080518Y-87931282D01*
X103036819Y-87887583D01*
X103022115Y-87860655D01*
X103005523Y-87834837D01*
X103004631Y-87828636D01*
X103003334Y-87826260D01*
X103000500Y-87799902D01*
X103000500Y-87647275D01*
X103000499Y-87647271D01*
X102999762Y-87644522D01*
X102986782Y-87596077D01*
X102973207Y-87545412D01*
X102920480Y-87454087D01*
X102245913Y-86779520D01*
X102200250Y-86753156D01*
X102154589Y-86726793D01*
X102103657Y-86713146D01*
X102052727Y-86699500D01*
X102052726Y-86699500D01*
X100711484Y-86699500D01*
X100644445Y-86679815D01*
X100623803Y-86663181D01*
X100009269Y-86048647D01*
X99663939Y-85703317D01*
X98736819Y-84776196D01*
X98703334Y-84714873D01*
X98702359Y-84709905D01*
X98700500Y-84699289D01*
X98700500Y-84626713D01*
X98663811Y-84489790D01*
X98662866Y-84484390D01*
X98666188Y-84454907D01*
X98666895Y-84425244D01*
X98670058Y-84420569D01*
X98670691Y-84414960D01*
X98689425Y-84391955D01*
X98706057Y-84367381D01*
X98711246Y-84365158D01*
X98714811Y-84360782D01*
X98743010Y-84351556D01*
X98770286Y-84339877D01*
X98780589Y-84339263D01*
X98781217Y-84339058D01*
X98781740Y-84339194D01*
X98785007Y-84339000D01*
X102274225Y-84339000D01*
X102274227Y-84339000D01*
X102376088Y-84311707D01*
X102467413Y-84258980D01*
X103319103Y-83407289D01*
X103341541Y-83395037D01*
X103361792Y-83379421D01*
X103371698Y-83378570D01*
X103380423Y-83373806D01*
X103405929Y-83375630D01*
X103431405Y-83373442D01*
X103440196Y-83378080D01*
X103450114Y-83378790D01*
X103470587Y-83394115D01*
X103478625Y-83398357D01*
X103465302Y-83384647D01*
X103451427Y-83316169D01*
X103476777Y-83251060D01*
X103487281Y-83239110D01*
X103850719Y-82875672D01*
X103912040Y-82842189D01*
X103976716Y-82845424D01*
G37*
%TD.AperFunction*%
%TA.AperFunction,Conductor*%
G36*
X91275881Y-63542720D02*
G01*
X91282359Y-63548752D01*
X92533460Y-64799853D01*
X92566945Y-64861176D01*
X92569779Y-64887534D01*
X92569779Y-82406333D01*
X92550094Y-82473372D01*
X92533460Y-82494014D01*
X92489760Y-82537713D01*
X92489754Y-82537721D01*
X92410705Y-82674640D01*
X92410702Y-82674647D01*
X92369779Y-82827374D01*
X92369779Y-82985488D01*
X92409183Y-83132544D01*
X92410702Y-83138214D01*
X92410705Y-83138221D01*
X92489754Y-83275140D01*
X92489760Y-83275148D01*
X92602431Y-83387819D01*
X92635916Y-83449142D01*
X92630932Y-83518834D01*
X92589060Y-83574767D01*
X92523596Y-83599184D01*
X92514750Y-83599500D01*
X90946126Y-83599500D01*
X90879087Y-83579815D01*
X90833332Y-83527011D01*
X90823388Y-83457853D01*
X90852413Y-83394297D01*
X90894925Y-83363642D01*
X90894924Y-83363641D01*
X90894941Y-83363631D01*
X90898676Y-83360938D01*
X90901959Y-83359577D01*
X90901962Y-83359577D01*
X90901964Y-83359575D01*
X90901966Y-83359575D01*
X91038887Y-83280524D01*
X91038886Y-83280524D01*
X91038894Y-83280520D01*
X91150698Y-83168716D01*
X91229755Y-83031784D01*
X91270678Y-82879057D01*
X91270678Y-82720943D01*
X91229755Y-82568216D01*
X91212149Y-82537721D01*
X91150702Y-82431290D01*
X91150696Y-82431282D01*
X91106997Y-82387583D01*
X91073512Y-82326260D01*
X91070678Y-82299902D01*
X91070678Y-63636433D01*
X91090363Y-63569394D01*
X91143167Y-63523639D01*
X91212325Y-63513695D01*
X91275881Y-63542720D01*
G37*
%TD.AperFunction*%
%TA.AperFunction,Conductor*%
G36*
X103344778Y-70824128D02*
G01*
X103400711Y-70866000D01*
X103425128Y-70931464D01*
X103410276Y-70999737D01*
X103407176Y-71005093D01*
X103406005Y-71007003D01*
X103323788Y-71168360D01*
X103323787Y-71168363D01*
X103267829Y-71340589D01*
X103239500Y-71519448D01*
X103239500Y-71700551D01*
X103267829Y-71879410D01*
X103323787Y-72051636D01*
X103323788Y-72051639D01*
X103406006Y-72212997D01*
X103512441Y-72359494D01*
X103512445Y-72359499D01*
X103640500Y-72487554D01*
X103640505Y-72487558D01*
X103768287Y-72580396D01*
X103787006Y-72593996D01*
X103892484Y-72647740D01*
X103948360Y-72676211D01*
X103948363Y-72676212D01*
X104034476Y-72704191D01*
X104120591Y-72732171D01*
X104203429Y-72745291D01*
X104299449Y-72760500D01*
X104299454Y-72760500D01*
X104480551Y-72760500D01*
X104567259Y-72746765D01*
X104659409Y-72732171D01*
X104831639Y-72676211D01*
X104992994Y-72593996D01*
X105139501Y-72487553D01*
X105267553Y-72359501D01*
X105275180Y-72349003D01*
X105330508Y-72306336D01*
X105400121Y-72300355D01*
X105461917Y-72332959D01*
X105496277Y-72393796D01*
X105499500Y-72421886D01*
X105499500Y-73446751D01*
X105479815Y-73513790D01*
X105427011Y-73559545D01*
X105365772Y-73570369D01*
X105326289Y-73567261D01*
X104872962Y-74020589D01*
X104855925Y-73957007D01*
X104790099Y-73842993D01*
X104697007Y-73749901D01*
X104582993Y-73684075D01*
X104519409Y-73667037D01*
X104972737Y-73213709D01*
X104966525Y-73209196D01*
X104812259Y-73130592D01*
X104647584Y-73077085D01*
X104476571Y-73050000D01*
X104303429Y-73050000D01*
X104132415Y-73077085D01*
X103967740Y-73130592D01*
X103813480Y-73209193D01*
X103813463Y-73209203D01*
X103807261Y-73213708D01*
X103807261Y-73213709D01*
X104260590Y-73667037D01*
X104197007Y-73684075D01*
X104082993Y-73749901D01*
X103989901Y-73842993D01*
X103924075Y-73957007D01*
X103907037Y-74020590D01*
X103453709Y-73567261D01*
X103453708Y-73567261D01*
X103449203Y-73573463D01*
X103449193Y-73573480D01*
X103370592Y-73727740D01*
X103317085Y-73892415D01*
X103290000Y-74063428D01*
X103290000Y-74236571D01*
X103317085Y-74407584D01*
X103370592Y-74572259D01*
X103449196Y-74726525D01*
X103453709Y-74732736D01*
X103453709Y-74732737D01*
X103907037Y-74279409D01*
X103924075Y-74342993D01*
X103989901Y-74457007D01*
X104082993Y-74550099D01*
X104197007Y-74615925D01*
X104260589Y-74632962D01*
X103807261Y-75086289D01*
X103807262Y-75086290D01*
X103813471Y-75090801D01*
X103967742Y-75169408D01*
X104132415Y-75222914D01*
X104303429Y-75250000D01*
X104476571Y-75250000D01*
X104647584Y-75222914D01*
X104812257Y-75169408D01*
X104966525Y-75090803D01*
X104972736Y-75086289D01*
X104972737Y-75086289D01*
X104519410Y-74632962D01*
X104582993Y-74615925D01*
X104697007Y-74550099D01*
X104790099Y-74457007D01*
X104855925Y-74342993D01*
X104872962Y-74279409D01*
X105326288Y-74732736D01*
X105365774Y-74729630D01*
X105434151Y-74743996D01*
X105483907Y-74793048D01*
X105499500Y-74853248D01*
X105499500Y-75878113D01*
X105479815Y-75945152D01*
X105427011Y-75990907D01*
X105357853Y-76000851D01*
X105294297Y-75971826D01*
X105275182Y-75950998D01*
X105267558Y-75940505D01*
X105267554Y-75940500D01*
X105139499Y-75812445D01*
X105139494Y-75812441D01*
X104992997Y-75706006D01*
X104992996Y-75706005D01*
X104992994Y-75706004D01*
X104941300Y-75679664D01*
X104831639Y-75623788D01*
X104831636Y-75623787D01*
X104659410Y-75567829D01*
X104480551Y-75539500D01*
X104480546Y-75539500D01*
X104299454Y-75539500D01*
X104299449Y-75539500D01*
X104120589Y-75567829D01*
X103948363Y-75623787D01*
X103948360Y-75623788D01*
X103787002Y-75706006D01*
X103640505Y-75812441D01*
X103640500Y-75812445D01*
X103512445Y-75940500D01*
X103512441Y-75940505D01*
X103406006Y-76087002D01*
X103323791Y-76248356D01*
X103323789Y-76248360D01*
X103267829Y-76420589D01*
X103247973Y-76545953D01*
X103218044Y-76609088D01*
X103158732Y-76646019D01*
X103088869Y-76645021D01*
X103030637Y-76606411D01*
X103002523Y-76542447D01*
X103001500Y-76526555D01*
X103001500Y-76322597D01*
X103001500Y-76322595D01*
X102981609Y-76248361D01*
X102974207Y-76220734D01*
X102921480Y-76129409D01*
X102737819Y-75945748D01*
X102704334Y-75884425D01*
X102701500Y-75858067D01*
X102701500Y-71416254D01*
X102721185Y-71349215D01*
X102737814Y-71328577D01*
X103213764Y-70852628D01*
X103275086Y-70819144D01*
X103344778Y-70824128D01*
G37*
%TD.AperFunction*%
%TA.AperFunction,Conductor*%
G36*
X85705703Y-59628173D02*
G01*
X85724821Y-59649004D01*
X85732446Y-59659500D01*
X85860500Y-59787554D01*
X85860505Y-59787558D01*
X85915023Y-59827167D01*
X86007006Y-59893996D01*
X86112484Y-59947740D01*
X86168360Y-59976211D01*
X86168363Y-59976212D01*
X86254476Y-60004191D01*
X86340591Y-60032171D01*
X86423429Y-60045291D01*
X86519449Y-60060500D01*
X86519454Y-60060500D01*
X86700551Y-60060500D01*
X86879409Y-60032171D01*
X86930182Y-60015674D01*
X87023284Y-59985423D01*
X87093123Y-59983429D01*
X87149281Y-60015674D01*
X90233359Y-63099752D01*
X90266844Y-63161075D01*
X90269678Y-63187433D01*
X90269678Y-66783923D01*
X90249993Y-66850962D01*
X90197189Y-66896717D01*
X90128031Y-66906661D01*
X90064475Y-66877636D01*
X90057997Y-66871604D01*
X87715674Y-64529281D01*
X87682189Y-64467958D01*
X87685423Y-64403284D01*
X87732171Y-64259409D01*
X87760500Y-64080551D01*
X87760500Y-63899448D01*
X87744019Y-63795397D01*
X87732171Y-63720591D01*
X87676211Y-63548361D01*
X87676211Y-63548360D01*
X87647740Y-63492484D01*
X87593996Y-63387006D01*
X87531401Y-63300851D01*
X87487558Y-63240505D01*
X87487554Y-63240500D01*
X87359499Y-63112445D01*
X87359494Y-63112441D01*
X87212997Y-63006006D01*
X87212996Y-63006005D01*
X87212994Y-63006004D01*
X87161300Y-62979664D01*
X87051639Y-62923788D01*
X87051636Y-62923787D01*
X86879410Y-62867829D01*
X86700551Y-62839500D01*
X86700546Y-62839500D01*
X86519454Y-62839500D01*
X86519449Y-62839500D01*
X86340589Y-62867829D01*
X86168363Y-62923787D01*
X86168360Y-62923788D01*
X86007002Y-63006006D01*
X85860505Y-63112441D01*
X85860500Y-63112445D01*
X85732445Y-63240500D01*
X85732441Y-63240505D01*
X85724818Y-63250998D01*
X85669488Y-63293664D01*
X85599875Y-63299643D01*
X85538080Y-63267037D01*
X85503723Y-63206199D01*
X85500500Y-63178113D01*
X85500500Y-62153247D01*
X85520185Y-62086208D01*
X85572989Y-62040453D01*
X85634231Y-62029629D01*
X85673710Y-62032736D01*
X86127037Y-61579409D01*
X86144075Y-61642993D01*
X86209901Y-61757007D01*
X86302993Y-61850099D01*
X86417007Y-61915925D01*
X86480589Y-61932962D01*
X86027261Y-62386289D01*
X86027262Y-62386290D01*
X86033471Y-62390801D01*
X86187742Y-62469408D01*
X86352415Y-62522914D01*
X86523429Y-62550000D01*
X86696571Y-62550000D01*
X86867584Y-62522914D01*
X87032257Y-62469408D01*
X87186525Y-62390803D01*
X87192736Y-62386289D01*
X87192737Y-62386289D01*
X86739410Y-61932962D01*
X86802993Y-61915925D01*
X86917007Y-61850099D01*
X87010099Y-61757007D01*
X87075925Y-61642993D01*
X87092962Y-61579410D01*
X87546289Y-62032737D01*
X87546289Y-62032736D01*
X87550803Y-62026525D01*
X87629408Y-61872257D01*
X87682914Y-61707584D01*
X87710000Y-61536571D01*
X87710000Y-61363428D01*
X87682914Y-61192415D01*
X87629408Y-61027742D01*
X87550801Y-60873471D01*
X87546290Y-60867262D01*
X87546289Y-60867261D01*
X87092962Y-61320589D01*
X87075925Y-61257007D01*
X87010099Y-61142993D01*
X86917007Y-61049901D01*
X86802993Y-60984075D01*
X86739409Y-60967037D01*
X87192737Y-60513709D01*
X87186525Y-60509196D01*
X87032259Y-60430592D01*
X86867584Y-60377085D01*
X86696571Y-60350000D01*
X86523429Y-60350000D01*
X86352415Y-60377085D01*
X86187740Y-60430592D01*
X86033480Y-60509193D01*
X86033463Y-60509203D01*
X86027261Y-60513708D01*
X86027261Y-60513709D01*
X86480590Y-60967037D01*
X86417007Y-60984075D01*
X86302993Y-61049901D01*
X86209901Y-61142993D01*
X86144075Y-61257007D01*
X86127037Y-61320590D01*
X85673709Y-60867261D01*
X85634235Y-60870370D01*
X85620622Y-60867511D01*
X85606853Y-60869491D01*
X85587104Y-60860472D01*
X85565857Y-60856010D01*
X85555950Y-60846244D01*
X85543297Y-60840466D01*
X85531559Y-60822201D01*
X85516098Y-60806961D01*
X85512270Y-60792187D01*
X85505523Y-60781688D01*
X85500500Y-60746753D01*
X85500500Y-59721886D01*
X85520185Y-59654847D01*
X85572989Y-59609092D01*
X85642147Y-59599148D01*
X85705703Y-59628173D01*
G37*
%TD.AperFunction*%
%TA.AperFunction,Conductor*%
G36*
X105461917Y-59632959D02*
G01*
X105496277Y-59693796D01*
X105499500Y-59721886D01*
X105499500Y-60746751D01*
X105479815Y-60813790D01*
X105427011Y-60859545D01*
X105365772Y-60870369D01*
X105326289Y-60867261D01*
X104872962Y-61320589D01*
X104855925Y-61257007D01*
X104790099Y-61142993D01*
X104697007Y-61049901D01*
X104582993Y-60984075D01*
X104519409Y-60967037D01*
X104972737Y-60513709D01*
X104966525Y-60509196D01*
X104812259Y-60430592D01*
X104647584Y-60377085D01*
X104476571Y-60350000D01*
X104303429Y-60350000D01*
X104132415Y-60377085D01*
X103967740Y-60430592D01*
X103813480Y-60509193D01*
X103813463Y-60509203D01*
X103807261Y-60513708D01*
X103807261Y-60513709D01*
X104260590Y-60967037D01*
X104197007Y-60984075D01*
X104082993Y-61049901D01*
X103989901Y-61142993D01*
X103924075Y-61257007D01*
X103907037Y-61320590D01*
X103453709Y-60867261D01*
X103453708Y-60867261D01*
X103449203Y-60873463D01*
X103449193Y-60873480D01*
X103370592Y-61027740D01*
X103317085Y-61192415D01*
X103290000Y-61363428D01*
X103290000Y-61536571D01*
X103317085Y-61707584D01*
X103370592Y-61872259D01*
X103449196Y-62026525D01*
X103453709Y-62032736D01*
X103453709Y-62032737D01*
X103907037Y-61579409D01*
X103924075Y-61642993D01*
X103989901Y-61757007D01*
X104082993Y-61850099D01*
X104197007Y-61915925D01*
X104260589Y-61932962D01*
X103807261Y-62386289D01*
X103807262Y-62386290D01*
X103813471Y-62390801D01*
X103967742Y-62469408D01*
X104132415Y-62522914D01*
X104303429Y-62550000D01*
X104476571Y-62550000D01*
X104647584Y-62522914D01*
X104812257Y-62469408D01*
X104966525Y-62390803D01*
X104972736Y-62386289D01*
X104972737Y-62386289D01*
X104519410Y-61932962D01*
X104582993Y-61915925D01*
X104697007Y-61850099D01*
X104790099Y-61757007D01*
X104855925Y-61642993D01*
X104872962Y-61579409D01*
X105326288Y-62032736D01*
X105365774Y-62029630D01*
X105434151Y-62043996D01*
X105483907Y-62093048D01*
X105499500Y-62153248D01*
X105499500Y-63178113D01*
X105479815Y-63245152D01*
X105427011Y-63290907D01*
X105357853Y-63300851D01*
X105294297Y-63271826D01*
X105275182Y-63250998D01*
X105267558Y-63240505D01*
X105267554Y-63240500D01*
X105139499Y-63112445D01*
X105139494Y-63112441D01*
X104992997Y-63006006D01*
X104992996Y-63006005D01*
X104992994Y-63006004D01*
X104941300Y-62979664D01*
X104831639Y-62923788D01*
X104831636Y-62923787D01*
X104659410Y-62867829D01*
X104480551Y-62839500D01*
X104480546Y-62839500D01*
X104299454Y-62839500D01*
X104299449Y-62839500D01*
X104120589Y-62867829D01*
X103948363Y-62923787D01*
X103948360Y-62923788D01*
X103787002Y-63006006D01*
X103640505Y-63112441D01*
X103640500Y-63112445D01*
X103512445Y-63240500D01*
X103512441Y-63240505D01*
X103406006Y-63387002D01*
X103323788Y-63548360D01*
X103323787Y-63548363D01*
X103267829Y-63720589D01*
X103239500Y-63899448D01*
X103239500Y-64080551D01*
X103267829Y-64259410D01*
X103314575Y-64403281D01*
X103316570Y-64473122D01*
X103284325Y-64529280D01*
X102212181Y-65601425D01*
X102150858Y-65634910D01*
X102081166Y-65629926D01*
X102025233Y-65588054D01*
X102000816Y-65522590D01*
X102000500Y-65513744D01*
X102000500Y-61917254D01*
X102020185Y-61850215D01*
X102036814Y-61829578D01*
X103850719Y-60015672D01*
X103912040Y-59982189D01*
X103976716Y-59985424D01*
X104120591Y-60032171D01*
X104203429Y-60045291D01*
X104299449Y-60060500D01*
X104299454Y-60060500D01*
X104480551Y-60060500D01*
X104567259Y-60046765D01*
X104659409Y-60032171D01*
X104831639Y-59976211D01*
X104992994Y-59893996D01*
X105139501Y-59787553D01*
X105267553Y-59659501D01*
X105275180Y-59649003D01*
X105330508Y-59606336D01*
X105400121Y-59600355D01*
X105461917Y-59632959D01*
G37*
%TD.AperFunction*%
%TD*%
M02*
