%TF.GenerationSoftware,KiCad,Pcbnew,9.0.6*%
%TF.CreationDate,2025-11-22T23:37:21-05:00*%
%TF.ProjectId,DEVBOARD,44455642-4f41-4524-942e-6b696361645f,rev?*%
%TF.SameCoordinates,Original*%
%TF.FileFunction,Copper,L1,Top*%
%TF.FilePolarity,Positive*%
%FSLAX46Y46*%
G04 Gerber Fmt 4.6, Leading zero omitted, Abs format (unit mm)*
G04 Created by KiCad (PCBNEW 9.0.6) date 2025-11-22 23:37:21*
%MOMM*%
%LPD*%
G01*
G04 APERTURE LIST*
G04 Aperture macros list*
%AMRoundRect*
0 Rectangle with rounded corners*
0 $1 Rounding radius*
0 $2 $3 $4 $5 $6 $7 $8 $9 X,Y pos of 4 corners*
0 Add a 4 corners polygon primitive as box body*
4,1,4,$2,$3,$4,$5,$6,$7,$8,$9,$2,$3,0*
0 Add four circle primitives for the rounded corners*
1,1,$1+$1,$2,$3*
1,1,$1+$1,$4,$5*
1,1,$1+$1,$6,$7*
1,1,$1+$1,$8,$9*
0 Add four rect primitives between the rounded corners*
20,1,$1+$1,$2,$3,$4,$5,0*
20,1,$1+$1,$4,$5,$6,$7,0*
20,1,$1+$1,$6,$7,$8,$9,0*
20,1,$1+$1,$8,$9,$2,$3,0*%
G04 Aperture macros list end*
%TA.AperFunction,SMDPad,CuDef*%
%ADD10R,0.600000X1.450000*%
%TD*%
%TA.AperFunction,SMDPad,CuDef*%
%ADD11R,0.300000X1.450000*%
%TD*%
%TA.AperFunction,HeatsinkPad*%
%ADD12O,1.000000X2.100000*%
%TD*%
%TA.AperFunction,HeatsinkPad*%
%ADD13O,1.000000X1.600000*%
%TD*%
%TA.AperFunction,SMDPad,CuDef*%
%ADD14RoundRect,0.200000X-0.800000X0.200000X-0.800000X-0.200000X0.800000X-0.200000X0.800000X0.200000X0*%
%TD*%
%TA.AperFunction,SMDPad,CuDef*%
%ADD15RoundRect,0.140000X0.170000X-0.140000X0.170000X0.140000X-0.170000X0.140000X-0.170000X-0.140000X0*%
%TD*%
%TA.AperFunction,SMDPad,CuDef*%
%ADD16RoundRect,0.140000X0.140000X0.170000X-0.140000X0.170000X-0.140000X-0.170000X0.140000X-0.170000X0*%
%TD*%
%TA.AperFunction,SMDPad,CuDef*%
%ADD17RoundRect,0.225000X0.225000X0.250000X-0.225000X0.250000X-0.225000X-0.250000X0.225000X-0.250000X0*%
%TD*%
%TA.AperFunction,SMDPad,CuDef*%
%ADD18RoundRect,0.050000X-0.387500X-0.050000X0.387500X-0.050000X0.387500X0.050000X-0.387500X0.050000X0*%
%TD*%
%TA.AperFunction,SMDPad,CuDef*%
%ADD19RoundRect,0.050000X-0.050000X-0.387500X0.050000X-0.387500X0.050000X0.387500X-0.050000X0.387500X0*%
%TD*%
%TA.AperFunction,HeatsinkPad*%
%ADD20R,3.200000X3.200000*%
%TD*%
%TA.AperFunction,SMDPad,CuDef*%
%ADD21RoundRect,0.135000X0.135000X0.185000X-0.135000X0.185000X-0.135000X-0.185000X0.135000X-0.185000X0*%
%TD*%
%TA.AperFunction,ComponentPad*%
%ADD22R,1.700000X1.700000*%
%TD*%
%TA.AperFunction,ComponentPad*%
%ADD23C,1.700000*%
%TD*%
%TA.AperFunction,SMDPad,CuDef*%
%ADD24RoundRect,0.135000X-0.185000X0.135000X-0.185000X-0.135000X0.185000X-0.135000X0.185000X0.135000X0*%
%TD*%
%TA.AperFunction,SMDPad,CuDef*%
%ADD25RoundRect,0.062500X-0.387500X-0.062500X0.387500X-0.062500X0.387500X0.062500X-0.387500X0.062500X0*%
%TD*%
%TA.AperFunction,HeatsinkPad*%
%ADD26R,0.200000X1.600000*%
%TD*%
%TA.AperFunction,SMDPad,CuDef*%
%ADD27RoundRect,0.250000X0.450000X0.350000X-0.450000X0.350000X-0.450000X-0.350000X0.450000X-0.350000X0*%
%TD*%
%TA.AperFunction,SMDPad,CuDef*%
%ADD28R,1.600000X0.850000*%
%TD*%
%TA.AperFunction,SMDPad,CuDef*%
%ADD29RoundRect,0.140000X-0.140000X-0.170000X0.140000X-0.170000X0.140000X0.170000X-0.140000X0.170000X0*%
%TD*%
%TA.AperFunction,SMDPad,CuDef*%
%ADD30RoundRect,0.135000X-0.135000X-0.185000X0.135000X-0.185000X0.135000X0.185000X-0.135000X0.185000X0*%
%TD*%
%TA.AperFunction,SMDPad,CuDef*%
%ADD31RoundRect,0.140000X0.021213X-0.219203X0.219203X-0.021213X-0.021213X0.219203X-0.219203X0.021213X0*%
%TD*%
%TA.AperFunction,SMDPad,CuDef*%
%ADD32RoundRect,0.150000X0.150000X-0.587500X0.150000X0.587500X-0.150000X0.587500X-0.150000X-0.587500X0*%
%TD*%
%TA.AperFunction,SMDPad,CuDef*%
%ADD33RoundRect,0.140000X-0.170000X0.140000X-0.170000X-0.140000X0.170000X-0.140000X0.170000X0.140000X0*%
%TD*%
%TA.AperFunction,ViaPad*%
%ADD34C,0.600000*%
%TD*%
%TA.AperFunction,Conductor*%
%ADD35C,0.200000*%
%TD*%
G04 APERTURE END LIST*
D10*
%TO.P,J1,A1,GND*%
%TO.N,GND*%
X98750000Y-61545000D03*
%TO.P,J1,A4,VBUS*%
%TO.N,VBUS*%
X97950000Y-61545000D03*
D11*
%TO.P,J1,A5,CC1*%
%TO.N,Net-(J1-CC1)*%
X96750000Y-61545000D03*
%TO.P,J1,A6,D+*%
%TO.N,USB_D+*%
X95750000Y-61545000D03*
%TO.P,J1,A7,D-*%
%TO.N,USB_D-*%
X95250000Y-61545000D03*
%TO.P,J1,A8*%
%TO.N,N/C*%
X94250000Y-61545000D03*
D10*
%TO.P,J1,A9,VBUS*%
%TO.N,VBUS*%
X93050000Y-61545000D03*
%TO.P,J1,A12,GND*%
%TO.N,GND*%
X92250000Y-61545000D03*
%TO.P,J1,B1,GND*%
X92250000Y-61545000D03*
%TO.P,J1,B4,VBUS*%
%TO.N,VBUS*%
X93050000Y-61545000D03*
D11*
%TO.P,J1,B5,CC2*%
%TO.N,Net-(J1-CC2)*%
X93750000Y-61545000D03*
%TO.P,J1,B6,D+*%
%TO.N,USB_D+*%
X94750000Y-61545000D03*
%TO.P,J1,B7,D-*%
%TO.N,USB_D-*%
X96250000Y-61545000D03*
%TO.P,J1,B8*%
%TO.N,N/C*%
X97250000Y-61545000D03*
D10*
%TO.P,J1,B9,VBUS*%
%TO.N,VBUS*%
X97950000Y-61545000D03*
%TO.P,J1,B12,GND*%
%TO.N,GND*%
X98750000Y-61545000D03*
D12*
%TO.P,J1,S1,SHIELD*%
X99820000Y-60630000D03*
D13*
X99820000Y-56450000D03*
D12*
X91180000Y-60630000D03*
D13*
X91180000Y-56450000D03*
%TD*%
D14*
%TO.P,SW1,1,1*%
%TO.N,GND*%
X100000000Y-66200000D03*
%TO.P,SW1,2,2*%
%TO.N,Net-(R6-Pad1)*%
X100000000Y-70400000D03*
%TD*%
D15*
%TO.P,C16,1*%
%TO.N,GND*%
X97200000Y-93397500D03*
%TO.P,C16,2*%
%TO.N,Net-(C16-Pad2)*%
X97200000Y-92437500D03*
%TD*%
D16*
%TO.P,C3,1*%
%TO.N,+3V3*%
X90160000Y-85700000D03*
%TO.P,C3,2*%
%TO.N,GND*%
X89200000Y-85700000D03*
%TD*%
D17*
%TO.P,C13,1*%
%TO.N,VBUS*%
X93275000Y-64000000D03*
%TO.P,C13,2*%
%TO.N,GND*%
X91725000Y-64000000D03*
%TD*%
D16*
%TO.P,C4,1*%
%TO.N,+3V3*%
X91200000Y-81200000D03*
%TO.P,C4,2*%
%TO.N,GND*%
X90240000Y-81200000D03*
%TD*%
D18*
%TO.P,U1,1,IOVDD*%
%TO.N,+3V3*%
X92062500Y-82337500D03*
%TO.P,U1,2,GPIO0*%
%TO.N,GPIO0*%
X92062500Y-82737500D03*
%TO.P,U1,3,GPIO1*%
%TO.N,GPIO1*%
X92062500Y-83137500D03*
%TO.P,U1,4,GPIO2*%
%TO.N,GPIO2*%
X92062500Y-83537500D03*
%TO.P,U1,5,GPIO3*%
%TO.N,GPIO3*%
X92062500Y-83937500D03*
%TO.P,U1,6,GPIO4*%
%TO.N,GPIO4*%
X92062500Y-84337500D03*
%TO.P,U1,7,GPIO5*%
%TO.N,GPIO5*%
X92062500Y-84737500D03*
%TO.P,U1,8,GPIO6*%
%TO.N,GPIO6*%
X92062500Y-85137500D03*
%TO.P,U1,9,GPIO7*%
%TO.N,GPIO7*%
X92062500Y-85537500D03*
%TO.P,U1,10,IOVDD*%
%TO.N,+3V3*%
X92062500Y-85937500D03*
%TO.P,U1,11,GPIO8*%
%TO.N,GPIO8*%
X92062500Y-86337500D03*
%TO.P,U1,12,GPIO9*%
%TO.N,GPIO9*%
X92062500Y-86737500D03*
%TO.P,U1,13,GPIO10*%
%TO.N,GPIO10*%
X92062500Y-87137500D03*
%TO.P,U1,14,GPIO11*%
%TO.N,GPIO11*%
X92062500Y-87537500D03*
D19*
%TO.P,U1,15,GPIO12*%
%TO.N,GPIO12*%
X92900000Y-88375000D03*
%TO.P,U1,16,GPIO13*%
%TO.N,GPIO13*%
X93300000Y-88375000D03*
%TO.P,U1,17,GPIO14*%
%TO.N,GPIO14*%
X93700000Y-88375000D03*
%TO.P,U1,18,GPIO15*%
%TO.N,GPIO15*%
X94100000Y-88375000D03*
%TO.P,U1,19,TESTEN*%
%TO.N,GND*%
X94500000Y-88375000D03*
%TO.P,U1,20,XIN*%
%TO.N,XIN*%
X94900000Y-88375000D03*
%TO.P,U1,21,XOUT*%
%TO.N,XOUT*%
X95300000Y-88375000D03*
%TO.P,U1,22,IOVDD*%
%TO.N,+3V3*%
X95700000Y-88375000D03*
%TO.P,U1,23,DVDD*%
%TO.N,+1V1*%
X96100000Y-88375000D03*
%TO.P,U1,24,SWCLK*%
%TO.N,SWCLK*%
X96500000Y-88375000D03*
%TO.P,U1,25,SWD*%
%TO.N,SWD*%
X96900000Y-88375000D03*
%TO.P,U1,26,RUN*%
%TO.N,RUN*%
X97300000Y-88375000D03*
%TO.P,U1,27,GPIO16*%
%TO.N,GPIO16*%
X97700000Y-88375000D03*
%TO.P,U1,28,GPIO17*%
%TO.N,GPIO17*%
X98100000Y-88375000D03*
D18*
%TO.P,U1,29,GPIO18*%
%TO.N,GPIO18*%
X98937500Y-87537500D03*
%TO.P,U1,30,GPIO19*%
%TO.N,GPIO19*%
X98937500Y-87137500D03*
%TO.P,U1,31,GPIO20*%
%TO.N,GPIO20*%
X98937500Y-86737500D03*
%TO.P,U1,32,GPIO21*%
%TO.N,GPIO21*%
X98937500Y-86337500D03*
%TO.P,U1,33,IOVDD*%
%TO.N,+3V3*%
X98937500Y-85937500D03*
%TO.P,U1,34,GPIO22*%
%TO.N,GPIO22*%
X98937500Y-85537500D03*
%TO.P,U1,35,GPIO23*%
%TO.N,GPIO23*%
X98937500Y-85137500D03*
%TO.P,U1,36,GPIO24*%
%TO.N,GPIO24*%
X98937500Y-84737500D03*
%TO.P,U1,37,GPIO25*%
%TO.N,GPIO25*%
X98937500Y-84337500D03*
%TO.P,U1,38,GPIO26_ADC0*%
%TO.N,GPIO26_ADC0*%
X98937500Y-83937500D03*
%TO.P,U1,39,GPIO27_ADC1*%
%TO.N,GPIO27_ADC1*%
X98937500Y-83537500D03*
%TO.P,U1,40,GPIO28_ADC2*%
%TO.N,GPIO28_ADC2*%
X98937500Y-83137500D03*
%TO.P,U1,41,GPIO29_ADC3*%
%TO.N,GPIO29_ADC3*%
X98937500Y-82737500D03*
%TO.P,U1,42,IOVDD*%
%TO.N,+3V3*%
X98937500Y-82337500D03*
D19*
%TO.P,U1,43,ADC_AVDD*%
X98100000Y-81500000D03*
%TO.P,U1,44,VREG_IN*%
X97700000Y-81500000D03*
%TO.P,U1,45,VREG_VOUT*%
%TO.N,+1V1*%
X97300000Y-81500000D03*
%TO.P,U1,46,USB_DM*%
%TO.N,Net-(U1-USB_DM)*%
X96900000Y-81500000D03*
%TO.P,U1,47,USB_DP*%
%TO.N,Net-(U1-USB_DP)*%
X96500000Y-81500000D03*
%TO.P,U1,48,USB_VDD*%
%TO.N,+3V3*%
X96100000Y-81500000D03*
%TO.P,U1,49,IOVDD*%
X95700000Y-81500000D03*
%TO.P,U1,50,DVDD*%
%TO.N,+1V1*%
X95300000Y-81500000D03*
%TO.P,U1,51,QSPI_SD3*%
%TO.N,QSPI_SD3*%
X94900000Y-81500000D03*
%TO.P,U1,52,QSPI_SCLK*%
%TO.N,QSPI_SCLK*%
X94500000Y-81500000D03*
%TO.P,U1,53,QSPI_SD0*%
%TO.N,QSPI_SD0*%
X94100000Y-81500000D03*
%TO.P,U1,54,QSPI_SD2*%
%TO.N,QSPI_SD2*%
X93700000Y-81500000D03*
%TO.P,U1,55,QSPI_SD1*%
%TO.N,QSPI_SD1*%
X93300000Y-81500000D03*
%TO.P,U1,56,QSPI_SS*%
%TO.N,QSPI_SS*%
X92900000Y-81500000D03*
D20*
%TO.P,U1,57,GND*%
%TO.N,GND*%
X95500000Y-84937500D03*
%TD*%
D15*
%TO.P,C11,1*%
%TO.N,+1V1*%
X98500000Y-79917500D03*
%TO.P,C11,2*%
%TO.N,GND*%
X98500000Y-78957500D03*
%TD*%
D21*
%TO.P,R5,1*%
%TO.N,Net-(C16-Pad2)*%
X96010000Y-90637500D03*
%TO.P,R5,2*%
%TO.N,XOUT*%
X94990000Y-90637500D03*
%TD*%
D22*
%TO.P,J2,1,Pin_1*%
%TO.N,GPIO0*%
X86610000Y-56370000D03*
D23*
%TO.P,J2,2,Pin_2*%
%TO.N,GPIO1*%
X86610000Y-58910000D03*
%TO.P,J2,3,Pin_3*%
%TO.N,GND*%
X86610000Y-61450000D03*
%TO.P,J2,4,Pin_4*%
%TO.N,GPIO2*%
X86610000Y-63990000D03*
%TO.P,J2,5,Pin_5*%
%TO.N,GPIO3*%
X86610000Y-66530000D03*
%TO.P,J2,6,Pin_6*%
%TO.N,GPIO4*%
X86610000Y-69070000D03*
%TO.P,J2,7,Pin_7*%
%TO.N,GPIO5*%
X86610000Y-71610000D03*
%TO.P,J2,8,Pin_8*%
%TO.N,GND*%
X86610000Y-74150000D03*
%TO.P,J2,9,Pin_9*%
%TO.N,GPIO6*%
X86610000Y-76690000D03*
%TO.P,J2,10,Pin_10*%
%TO.N,GPIO7*%
X86610000Y-79230000D03*
%TO.P,J2,11,Pin_11*%
%TO.N,GPIO8*%
X86610000Y-81770000D03*
%TO.P,J2,12,Pin_12*%
%TO.N,GPIO9*%
X86610000Y-84310000D03*
%TO.P,J2,13,Pin_13*%
%TO.N,GND*%
X86610000Y-86850000D03*
%TO.P,J2,14,Pin_14*%
%TO.N,GPIO10*%
X86610000Y-89390000D03*
%TO.P,J2,15,Pin_15*%
%TO.N,GPIO11*%
X86610000Y-91930000D03*
%TO.P,J2,16,Pin_16*%
%TO.N,GPIO12*%
X86610000Y-94470000D03*
%TO.P,J2,17,Pin_17*%
%TO.N,GPIO13*%
X86610000Y-97010000D03*
%TO.P,J2,18,Pin_18*%
%TO.N,GND*%
X86610000Y-99550000D03*
%TO.P,J2,19,Pin_19*%
%TO.N,GPIO14*%
X86610000Y-102090000D03*
%TO.P,J2,20,Pin_20*%
%TO.N,GPIO15*%
X86610000Y-104630000D03*
%TD*%
D24*
%TO.P,R4,1*%
%TO.N,USB_D-*%
X97200000Y-78780000D03*
%TO.P,R4,2*%
%TO.N,Net-(U1-USB_DM)*%
X97200000Y-79800000D03*
%TD*%
D15*
%TO.P,C7,1*%
%TO.N,+3V3*%
X97600000Y-75880000D03*
%TO.P,C7,2*%
%TO.N,GND*%
X97600000Y-74920000D03*
%TD*%
D25*
%TO.P,U3,1,~{CS}*%
%TO.N,QSPI_SS*%
X90650000Y-75687500D03*
%TO.P,U3,2,DO/IO_{1}*%
%TO.N,QSPI_SD1*%
X90650000Y-76187500D03*
%TO.P,U3,3,~{WP}/IO_{2}*%
%TO.N,QSPI_SD2*%
X90650000Y-76687500D03*
%TO.P,U3,4,GND*%
%TO.N,GND*%
X90650000Y-77187500D03*
%TO.P,U3,5,DI/IO_{0}*%
%TO.N,QSPI_SD0*%
X93500000Y-77187500D03*
%TO.P,U3,6,CLK*%
%TO.N,QSPI_SCLK*%
X93500000Y-76687500D03*
%TO.P,U3,7,~{HOLD}/~{RESET}/IO_{3}*%
%TO.N,QSPI_SD3*%
X93500000Y-76187500D03*
%TO.P,U3,8,VCC*%
%TO.N,+3V3*%
X93500000Y-75687500D03*
D26*
%TO.P,U3,9*%
%TO.N,N/C*%
X92075000Y-76437500D03*
%TD*%
D17*
%TO.P,C14,1*%
%TO.N,+3V3*%
X94275000Y-70000000D03*
%TO.P,C14,2*%
%TO.N,GND*%
X92725000Y-70000000D03*
%TD*%
D22*
%TO.P,J3,1,Pin_1*%
%TO.N,VBUS*%
X104390000Y-56370000D03*
D23*
%TO.P,J3,2,Pin_2*%
%TO.N,GPIO29_ADC3*%
X104390000Y-58910000D03*
%TO.P,J3,3,Pin_3*%
%TO.N,GND*%
X104390000Y-61450000D03*
%TO.P,J3,4,Pin_4*%
%TO.N,GPIO28_ADC2*%
X104390000Y-63990000D03*
%TO.P,J3,5,Pin_5*%
%TO.N,+3V3*%
X104390000Y-66530000D03*
%TO.P,J3,6,Pin_6*%
%TO.N,GPIO27_ADC1*%
X104390000Y-69070000D03*
%TO.P,J3,7,Pin_7*%
%TO.N,GPIO26_ADC0*%
X104390000Y-71610000D03*
%TO.P,J3,8,Pin_8*%
%TO.N,GND*%
X104390000Y-74150000D03*
%TO.P,J3,9,Pin_9*%
%TO.N,GPIO24*%
X104390000Y-76690000D03*
%TO.P,J3,10,Pin_10*%
%TO.N,GPIO23*%
X104390000Y-79230000D03*
%TO.P,J3,11,Pin_11*%
%TO.N,RUN*%
X104390000Y-81770000D03*
%TO.P,J3,12,Pin_12*%
%TO.N,GPIO22*%
X104390000Y-84310000D03*
%TO.P,J3,13,Pin_13*%
%TO.N,GND*%
X104390000Y-86850000D03*
%TO.P,J3,14,Pin_14*%
%TO.N,GPIO21*%
X104390000Y-89390000D03*
%TO.P,J3,15,Pin_15*%
%TO.N,GPIO20*%
X104390000Y-91930000D03*
%TO.P,J3,16,Pin_16*%
%TO.N,GPIO19*%
X104390000Y-94470000D03*
%TO.P,J3,17,Pin_17*%
%TO.N,GPIO18*%
X104390000Y-97010000D03*
%TO.P,J3,18,Pin_18*%
%TO.N,GND*%
X104390000Y-99550000D03*
%TO.P,J3,19,Pin_19*%
%TO.N,GPIO17*%
X104390000Y-102090000D03*
%TO.P,J3,20,Pin_20*%
%TO.N,GPIO16*%
X104390000Y-104630000D03*
%TD*%
D27*
%TO.P,Y1,1,1*%
%TO.N,Net-(C16-Pad2)*%
X95600000Y-92087500D03*
%TO.P,Y1,2,2*%
%TO.N,GND*%
X93400000Y-92087500D03*
%TO.P,Y1,3,3*%
%TO.N,XIN*%
X93400000Y-93787500D03*
%TO.P,Y1,4,4*%
%TO.N,GND*%
X95600000Y-93787500D03*
%TD*%
D24*
%TO.P,R1,1*%
%TO.N,Net-(J1-CC1)*%
X97500000Y-63290000D03*
%TO.P,R1,2*%
%TO.N,GND*%
X97500000Y-64310000D03*
%TD*%
D15*
%TO.P,C5,1*%
%TO.N,+3V3*%
X99500000Y-80617500D03*
%TO.P,C5,2*%
%TO.N,GND*%
X99500000Y-79657500D03*
%TD*%
D24*
%TO.P,R2,1*%
%TO.N,Net-(J1-CC2)*%
X94600000Y-63580000D03*
%TO.P,R2,2*%
%TO.N,GND*%
X94600000Y-64600000D03*
%TD*%
D28*
%TO.P,D1,1,DOUT*%
%TO.N,unconnected-(D1-DOUT-Pad1)*%
X93750000Y-97725000D03*
%TO.P,D1,2,VSS*%
%TO.N,GND*%
X93750000Y-99475000D03*
%TO.P,D1,3,DIN*%
%TO.N,GPIO25*%
X97250000Y-99475000D03*
%TO.P,D1,4,VDD*%
%TO.N,VBUS*%
X97250000Y-97725000D03*
%TD*%
D15*
%TO.P,C6,1*%
%TO.N,+3V3*%
X96600000Y-76717500D03*
%TO.P,C6,2*%
%TO.N,GND*%
X96600000Y-75757500D03*
%TD*%
%TO.P,C12,1*%
%TO.N,+1V1*%
X95500000Y-76717500D03*
%TO.P,C12,2*%
%TO.N,GND*%
X95500000Y-75757500D03*
%TD*%
D29*
%TO.P,C8,1*%
%TO.N,+3V3*%
X100520000Y-81437500D03*
%TO.P,C8,2*%
%TO.N,GND*%
X101480000Y-81437500D03*
%TD*%
D30*
%TO.P,R7,1*%
%TO.N,QSPI_SS*%
X90680000Y-74400000D03*
%TO.P,R7,2*%
%TO.N,+3V3*%
X91700000Y-74400000D03*
%TD*%
D24*
%TO.P,R3,1*%
%TO.N,USB_D+*%
X96200000Y-78780000D03*
%TO.P,R3,2*%
%TO.N,Net-(U1-USB_DP)*%
X96200000Y-79800000D03*
%TD*%
D22*
%TO.P,J4,1,Pin_1*%
%TO.N,SWCLK*%
X92960000Y-104390000D03*
D23*
%TO.P,J4,2,Pin_2*%
%TO.N,GND*%
X95500000Y-104390000D03*
%TO.P,J4,3,Pin_3*%
%TO.N,SWD*%
X98040000Y-104390000D03*
%TD*%
D29*
%TO.P,C9,1*%
%TO.N,+3V3*%
X100640000Y-85937500D03*
%TO.P,C9,2*%
%TO.N,GND*%
X101600000Y-85937500D03*
%TD*%
D31*
%TO.P,C1,1*%
%TO.N,+3V3*%
X101000000Y-79937500D03*
%TO.P,C1,2*%
%TO.N,GND*%
X101678822Y-79258678D03*
%TD*%
D24*
%TO.P,R6,1*%
%TO.N,Net-(R6-Pad1)*%
X100200000Y-71700000D03*
%TO.P,R6,2*%
%TO.N,QSPI_SS*%
X100200000Y-72720000D03*
%TD*%
D32*
%TO.P,U2,1,GND*%
%TO.N,GND*%
X92600000Y-68000000D03*
%TO.P,U2,2,VO*%
%TO.N,+3V3*%
X94500000Y-68000000D03*
%TO.P,U2,3,VI*%
%TO.N,VBUS*%
X93550000Y-66125000D03*
%TD*%
D33*
%TO.P,C15,1*%
%TO.N,GND*%
X91500000Y-92437500D03*
%TO.P,C15,2*%
%TO.N,XIN*%
X91500000Y-93397500D03*
%TD*%
D16*
%TO.P,C17,1*%
%TO.N,+3V3*%
X93700000Y-74400000D03*
%TO.P,C17,2*%
%TO.N,GND*%
X92740000Y-74400000D03*
%TD*%
D33*
%TO.P,C10,1*%
%TO.N,+1V1*%
X98300000Y-90457500D03*
%TO.P,C10,2*%
%TO.N,GND*%
X98300000Y-91417500D03*
%TD*%
%TO.P,C2,1*%
%TO.N,+3V3*%
X97200000Y-90457500D03*
%TO.P,C2,2*%
%TO.N,GND*%
X97200000Y-91417500D03*
%TD*%
D34*
%TO.N,GND*%
X101900000Y-90500000D03*
X96500000Y-83937500D03*
X88200000Y-98500000D03*
X91500000Y-99100000D03*
X100100000Y-75000000D03*
X94500000Y-83937500D03*
X94400000Y-71600000D03*
X96500000Y-84937500D03*
X101400000Y-77000000D03*
X94000000Y-87300000D03*
X95500000Y-83937500D03*
X101700000Y-88400000D03*
X92370279Y-75177211D03*
X91900000Y-71500000D03*
X94500000Y-85937500D03*
X92100000Y-78700000D03*
X88300000Y-87700000D03*
X95500000Y-84937500D03*
X87900000Y-72700000D03*
X91270178Y-80368705D03*
X96500000Y-85937500D03*
X102700000Y-86300000D03*
X96800000Y-95400000D03*
X92200000Y-81700000D03*
X99500000Y-78800000D03*
X88800000Y-85700000D03*
X95400000Y-100100000D03*
X95500000Y-85937500D03*
X95800000Y-65800000D03*
X101800000Y-56400000D03*
X89000000Y-63700000D03*
X101400000Y-78100000D03*
X101800000Y-58700000D03*
X101400000Y-80600000D03*
X103500000Y-75400000D03*
X101900000Y-99100000D03*
X91400000Y-91300000D03*
X94600000Y-75200000D03*
X94500000Y-84937500D03*
X102500000Y-63300000D03*
X100800000Y-103700000D03*
%TO.N,+3V3*%
X95900000Y-77900000D03*
X95900000Y-80582730D03*
X97300000Y-73900000D03*
X99366048Y-77559257D03*
%TO.N,+1V1*%
X96900000Y-82500000D03*
X94626101Y-86986949D03*
X94800000Y-82500000D03*
%TO.N,VBUS*%
X88500000Y-69400000D03*
X90300000Y-94400000D03*
%TO.N,GPIO2*%
X90003000Y-83297000D03*
%TO.N,GPIO1*%
X90670178Y-82800000D03*
%TO.N,GPIO0*%
X92970279Y-82906431D03*
%TO.N,GPIO3*%
X93100000Y-84000000D03*
%TO.N,GPIO28_ADC2*%
X100923250Y-82874609D03*
%TO.N,GPIO29_ADC3*%
X100330692Y-82337135D03*
%TO.N,RUN*%
X97435213Y-86908488D03*
%TO.N,GPIO21*%
X98035213Y-86183837D03*
%TO.N,GPIO27_ADC1*%
X101575735Y-83337500D03*
%TO.N,SWD*%
X96544290Y-87037500D03*
%TO.N,SWCLK*%
X95410079Y-87036500D03*
%TO.N,QSPI_SS*%
X100225000Y-73800000D03*
X93800000Y-72700000D03*
%TO.N,GPIO25*%
X98100000Y-84705770D03*
X102600000Y-88300000D03*
X99800000Y-94100000D03*
X102600000Y-90300000D03*
%TD*%
D35*
%TO.N,GND*%
X95600000Y-93787500D02*
X96810000Y-93787500D01*
X92720000Y-74400000D02*
X92720000Y-74827490D01*
X91071295Y-80368705D02*
X91270178Y-80368705D01*
X90240000Y-81200000D02*
X91071295Y-80368705D01*
X98750000Y-60950000D02*
X99070000Y-60630000D01*
X92095000Y-61545000D02*
X91180000Y-60630000D01*
X99070000Y-60630000D02*
X99820000Y-60630000D01*
X93750000Y-99475000D02*
X94775000Y-99475000D01*
X94500000Y-88375000D02*
X94500000Y-87800000D01*
X88800000Y-85700000D02*
X89200000Y-85700000D01*
X98750000Y-61545000D02*
X98750000Y-60950000D01*
X93050000Y-92437500D02*
X93400000Y-92087500D01*
X91900000Y-78500000D02*
X91900000Y-78437500D01*
X91900000Y-78437500D02*
X90650000Y-77187500D01*
X92720000Y-74827490D02*
X92370279Y-75177211D01*
X94500000Y-87800000D02*
X94000000Y-87300000D01*
X96810000Y-93787500D02*
X97200000Y-93397500D01*
X94775000Y-99475000D02*
X95400000Y-100100000D01*
X92100000Y-78700000D02*
X91900000Y-78500000D01*
X91500000Y-92437500D02*
X93050000Y-92437500D01*
X92250000Y-61545000D02*
X92095000Y-61545000D01*
%TO.N,+3V3*%
X101300000Y-71000000D02*
X101300000Y-69620000D01*
X101000000Y-71300000D02*
X101300000Y-71000000D01*
X98211000Y-73936000D02*
X97337500Y-73062500D01*
X101000000Y-79937500D02*
X100962500Y-79937500D01*
X97700000Y-81500000D02*
X98100000Y-81500000D01*
X92062500Y-85937500D02*
X90397500Y-85937500D01*
X100700000Y-78800000D02*
X100400000Y-78500000D01*
X91700000Y-74400000D02*
X91700000Y-73900000D01*
X91900000Y-73700000D02*
X92980000Y-73700000D01*
X94275000Y-68225000D02*
X94500000Y-68000000D01*
X95200000Y-83000000D02*
X93471279Y-83000000D01*
X91700000Y-73900000D02*
X91900000Y-73700000D01*
X91200000Y-81200000D02*
X91200000Y-81475000D01*
X92731689Y-82436500D02*
X92161500Y-82436500D01*
X96100000Y-80782730D02*
X95900000Y-80582730D01*
X95700000Y-89267499D02*
X95700000Y-88375000D01*
X95700000Y-80782730D02*
X95900000Y-80582730D01*
X95700000Y-82500000D02*
X95200000Y-83000000D01*
X90397500Y-85937500D02*
X90160000Y-85700000D01*
X99837500Y-81437500D02*
X98937500Y-82337500D01*
X99366048Y-77559257D02*
X99459257Y-77559257D01*
X100640000Y-85937500D02*
X98937500Y-85937500D01*
X98100000Y-81500000D02*
X98617500Y-81500000D01*
X100700000Y-79637500D02*
X100700000Y-78800000D01*
X93680000Y-74400000D02*
X96800000Y-74400000D01*
X100962500Y-79937500D02*
X100282500Y-80617500D01*
X101300000Y-69620000D02*
X104390000Y-66530000D01*
X93601000Y-84836500D02*
X93601000Y-83129721D01*
X92762758Y-82405431D02*
X92731689Y-82436500D01*
X93500000Y-75687500D02*
X93700000Y-75487500D01*
X97500000Y-83842734D02*
X97500000Y-84940103D01*
X97300000Y-73900000D02*
X97300000Y-73100000D01*
X101000000Y-79937500D02*
X100700000Y-79637500D01*
X97082500Y-76717500D02*
X97682500Y-76117500D01*
X98242734Y-83100000D02*
X97500000Y-83842734D01*
X96600000Y-76717500D02*
X97082500Y-76717500D01*
X93471279Y-83000000D02*
X93471279Y-82698910D01*
X97682500Y-76117500D02*
X97700000Y-76117500D01*
X100320000Y-81437500D02*
X99500000Y-80617500D01*
X98500000Y-82337500D02*
X98242734Y-82594766D01*
X98242734Y-82594766D02*
X98242734Y-83100000D01*
X93177800Y-82405431D02*
X92762758Y-82405431D01*
X95900000Y-77900000D02*
X95900000Y-77417500D01*
X97300000Y-73100000D02*
X97337500Y-73062500D01*
X98937500Y-82337500D02*
X98500000Y-82337500D01*
X97500000Y-84940103D02*
X98497397Y-85937500D01*
X93601000Y-83129721D02*
X93471279Y-83000000D01*
X97600000Y-75880000D02*
X98211000Y-75269000D01*
X100282500Y-80617500D02*
X99500000Y-80617500D01*
X95700000Y-81500000D02*
X95700000Y-82500000D01*
X96100000Y-81500000D02*
X96100000Y-80782730D01*
X92161500Y-82436500D02*
X92062500Y-82337500D01*
X100400000Y-78100000D02*
X100200000Y-77900000D01*
X98497397Y-85937500D02*
X98937500Y-85937500D01*
X97200000Y-90457500D02*
X96890001Y-90457500D01*
X101000000Y-74900000D02*
X101000000Y-71300000D01*
X95700000Y-81500000D02*
X95700000Y-80782730D01*
X99459257Y-77559257D02*
X100400000Y-78500000D01*
X100200000Y-75700000D02*
X101000000Y-74900000D01*
X98211000Y-75269000D02*
X98211000Y-73936000D01*
X91200000Y-81475000D02*
X92062500Y-82337500D01*
X100520000Y-81437500D02*
X100320000Y-81437500D01*
X96890001Y-90457500D02*
X95700000Y-89267499D01*
X92980000Y-73700000D02*
X93680000Y-74400000D01*
X92500000Y-85937500D02*
X93601000Y-84836500D01*
X92062500Y-85937500D02*
X92500000Y-85937500D01*
X97337500Y-73062500D02*
X94275000Y-70000000D01*
X95900000Y-77417500D02*
X96600000Y-76717500D01*
X100400000Y-78500000D02*
X100400000Y-78100000D01*
X100520000Y-81437500D02*
X99837500Y-81437500D01*
X98617500Y-81500000D02*
X99500000Y-80617500D01*
X100200000Y-77900000D02*
X100200000Y-75700000D01*
X96800000Y-74400000D02*
X97300000Y-73900000D01*
X92062500Y-82337500D02*
X92062500Y-82320000D01*
X94275000Y-70000000D02*
X94275000Y-68225000D01*
X93700000Y-75487500D02*
X93700000Y-74420000D01*
X93700000Y-74420000D02*
X93680000Y-74400000D01*
X93471279Y-82698910D02*
X93177800Y-82405431D01*
X96100000Y-81500000D02*
X96100000Y-82408521D01*
X96791479Y-83100000D02*
X98242734Y-83100000D01*
X96100000Y-82408521D02*
X96791479Y-83100000D01*
%TO.N,+1V1*%
X96900000Y-82500000D02*
X97300000Y-82100000D01*
X98200000Y-80637500D02*
X98500000Y-80337500D01*
X96100000Y-88375000D02*
X96100000Y-87935587D01*
X96100000Y-89100000D02*
X96800000Y-89800000D01*
X97300000Y-82100000D02*
X97300000Y-81500000D01*
X97300000Y-81500000D02*
X97300000Y-80897840D01*
X97560340Y-80637500D02*
X98200000Y-80637500D01*
X95752617Y-87588204D02*
X95227356Y-87588204D01*
X96800000Y-89800000D02*
X97642500Y-89800000D01*
X95227356Y-87588204D02*
X94626101Y-86986949D01*
X97642500Y-89800000D02*
X98300000Y-90457500D01*
X98500000Y-80337500D02*
X98500000Y-79917500D01*
X95300000Y-81500000D02*
X95300000Y-76917500D01*
X95300000Y-81500000D02*
X95300000Y-82000000D01*
X96100000Y-87935587D02*
X95752617Y-87588204D01*
X95300000Y-76917500D02*
X95500000Y-76717500D01*
X95300000Y-82000000D02*
X94800000Y-82500000D01*
X96100000Y-88375000D02*
X96100000Y-89100000D01*
X97300000Y-80897840D02*
X97560340Y-80637500D01*
%TO.N,VBUS*%
X90300000Y-95100000D02*
X90300000Y-94400000D01*
X93275000Y-64000000D02*
X93275000Y-61770000D01*
X97950000Y-61545000D02*
X97714000Y-61309000D01*
X103209000Y-57551000D02*
X104390000Y-56370000D01*
X91775000Y-66125000D02*
X93550000Y-66125000D01*
X90500000Y-95300000D02*
X90300000Y-95100000D01*
X97714000Y-59766000D02*
X99929000Y-57551000D01*
X93050000Y-60620000D02*
X93904000Y-59766000D01*
X93275000Y-64000000D02*
X93275000Y-65850000D01*
X97714000Y-61309000D02*
X97714000Y-59766000D01*
X93275000Y-65850000D02*
X93550000Y-66125000D01*
X93050000Y-61545000D02*
X93050000Y-60620000D01*
X94825000Y-95300000D02*
X90500000Y-95300000D01*
X99929000Y-57551000D02*
X103209000Y-57551000D01*
X97250000Y-97725000D02*
X94825000Y-95300000D01*
X88500000Y-69400000D02*
X91775000Y-66125000D01*
X93904000Y-59766000D02*
X97714000Y-59766000D01*
X93275000Y-61770000D02*
X93050000Y-61545000D01*
%TO.N,XIN*%
X94900000Y-89787160D02*
X94900000Y-88375000D01*
X94400000Y-90287160D02*
X94900000Y-89787160D01*
X94400000Y-92787500D02*
X94400000Y-90287160D01*
X91500000Y-93397500D02*
X93010000Y-93397500D01*
X93400000Y-93787500D02*
X94400000Y-92787500D01*
X93010000Y-93397500D02*
X93400000Y-93787500D01*
%TO.N,Net-(C16-Pad2)*%
X96010000Y-90637500D02*
X96010000Y-91677500D01*
X96850000Y-92087500D02*
X97200000Y-92437500D01*
X96010000Y-91677500D02*
X95600000Y-92087500D01*
X95600000Y-92087500D02*
X96850000Y-92087500D01*
%TO.N,USB_D-*%
X99300000Y-71800000D02*
X98609099Y-71109099D01*
X96250000Y-60568000D02*
X96250000Y-61545000D01*
X98993198Y-77225000D02*
X99300000Y-76918198D01*
X97200000Y-78730000D02*
X96950980Y-78480980D01*
X96201000Y-60519000D02*
X96250000Y-60568000D01*
X95250000Y-61545000D02*
X95250000Y-60568000D01*
X95299000Y-60519000D02*
X96201000Y-60519000D01*
X96250000Y-62632501D02*
X96250000Y-61545000D01*
X98609099Y-67009099D02*
X96400000Y-64800000D01*
X97793198Y-77225000D02*
X98993198Y-77225000D01*
X96400000Y-64800000D02*
X96400000Y-62782501D01*
X99300000Y-76918198D02*
X99300000Y-71800000D01*
X96400000Y-62782501D02*
X96250000Y-62632501D01*
X95250000Y-60568000D02*
X95299000Y-60519000D01*
X96950980Y-78067218D02*
X97793198Y-77225000D01*
X96950980Y-78480980D02*
X96950980Y-78067218D01*
X97200000Y-78780000D02*
X97200000Y-78730000D01*
X98609099Y-71109099D02*
X98609099Y-67009099D01*
%TO.N,USB_D+*%
X98200000Y-67200000D02*
X95900000Y-64900000D01*
X98900000Y-71957481D02*
X98200000Y-71257481D01*
X96200000Y-78730000D02*
X96501000Y-78429000D01*
X95750000Y-61545000D02*
X95750000Y-62522000D01*
X95900000Y-64900000D02*
X95900000Y-62782501D01*
X95750000Y-62522000D02*
X95701000Y-62571000D01*
X96501000Y-78429000D02*
X96501000Y-77880802D01*
X97606802Y-76775000D02*
X98725000Y-76775000D01*
X95900000Y-62782501D02*
X95750000Y-62632501D01*
X98725000Y-76775000D02*
X98900000Y-76600000D01*
X96501000Y-77880802D02*
X97606802Y-76775000D01*
X95750000Y-62632501D02*
X95750000Y-61545000D01*
X98200000Y-71257481D02*
X98200000Y-67200000D01*
X94750000Y-62522000D02*
X94750000Y-61545000D01*
X94799000Y-62571000D02*
X94750000Y-62522000D01*
X98900000Y-76600000D02*
X98900000Y-71957481D01*
X96200000Y-78780000D02*
X96200000Y-78730000D01*
X95701000Y-62571000D02*
X94799000Y-62571000D01*
%TO.N,Net-(J1-CC2)*%
X93750000Y-62730000D02*
X93750000Y-61545000D01*
X94600000Y-63580000D02*
X93750000Y-62730000D01*
%TO.N,Net-(J1-CC1)*%
X97500000Y-63290000D02*
X96750000Y-62540000D01*
X96750000Y-62540000D02*
X96750000Y-61545000D01*
%TO.N,GPIO7*%
X88200000Y-84600000D02*
X88200000Y-80820000D01*
X88200000Y-80820000D02*
X86610000Y-79230000D01*
X90837500Y-85537500D02*
X90400000Y-85100000D01*
X92062500Y-85537500D02*
X90837500Y-85537500D01*
X90400000Y-85100000D02*
X88700000Y-85100000D01*
X88700000Y-85100000D02*
X88200000Y-84600000D01*
%TO.N,GPIO14*%
X89533900Y-90101000D02*
X92676374Y-90101000D01*
X93702000Y-89075374D02*
X93702000Y-88912274D01*
X93700000Y-88910274D02*
X93700000Y-88375000D01*
X92676374Y-90101000D02*
X93702000Y-89075374D01*
X89199000Y-90435900D02*
X89533900Y-90101000D01*
X86610000Y-102090000D02*
X89199000Y-99501000D01*
X89199000Y-99501000D02*
X89199000Y-90435900D01*
X93702000Y-88912274D02*
X93700000Y-88910274D01*
%TO.N,GPIO12*%
X86610000Y-94470000D02*
X88397000Y-92683000D01*
X89201700Y-89299000D02*
X92344174Y-89299000D01*
X92344174Y-89299000D02*
X92721587Y-88921587D01*
X92721587Y-88921587D02*
X92721587Y-88553413D01*
X92721587Y-88553413D02*
X92900000Y-88375000D01*
X88397000Y-92683000D02*
X88397000Y-90103700D01*
X88397000Y-90103700D02*
X89201700Y-89299000D01*
%TO.N,GPIO5*%
X89002000Y-84102000D02*
X89198000Y-84298000D01*
X86610000Y-71610000D02*
X88510000Y-71610000D01*
X89002000Y-78502000D02*
X89002000Y-84102000D01*
X88700000Y-78200000D02*
X89002000Y-78502000D01*
X89198000Y-84298000D02*
X90798000Y-84298000D01*
X90798000Y-84298000D02*
X91237500Y-84737500D01*
X88700000Y-71800000D02*
X88700000Y-78200000D01*
X88510000Y-71610000D02*
X88700000Y-71800000D01*
X91237500Y-84737500D02*
X92062500Y-84737500D01*
%TO.N,GPIO6*%
X92062500Y-85137500D02*
X91037500Y-85137500D01*
X88601000Y-78681000D02*
X86610000Y-76690000D01*
X88601000Y-84500000D02*
X88601000Y-78681000D01*
X91037500Y-85137500D02*
X90599000Y-84699000D01*
X88800000Y-84699000D02*
X88601000Y-84500000D01*
X90599000Y-84699000D02*
X88800000Y-84699000D01*
%TO.N,GPIO4*%
X92062500Y-84337500D02*
X91437500Y-84337500D01*
X89403000Y-83703000D02*
X89403000Y-78303000D01*
X89403000Y-78303000D02*
X89000000Y-77900000D01*
X89597000Y-83897000D02*
X89403000Y-83703000D01*
X89000000Y-71460000D02*
X86610000Y-69070000D01*
X91437500Y-84337500D02*
X90997000Y-83897000D01*
X90997000Y-83897000D02*
X89597000Y-83897000D01*
X89000000Y-77900000D02*
X89000000Y-71460000D01*
%TO.N,GPIO13*%
X89367800Y-89700000D02*
X92510274Y-89700000D01*
X86610000Y-97010000D02*
X88488000Y-97010000D01*
X93300000Y-88908274D02*
X93300000Y-88375000D01*
X93301000Y-88909274D02*
X93300000Y-88908274D01*
X88488000Y-97010000D02*
X88798000Y-96700000D01*
X92510274Y-89700000D02*
X93301000Y-88909274D01*
X88798000Y-96700000D02*
X88798000Y-90269800D01*
X88798000Y-90269800D02*
X89367800Y-89700000D01*
%TO.N,GPIO2*%
X91204600Y-83537500D02*
X91067100Y-83400000D01*
X90300000Y-83400000D02*
X90106000Y-83400000D01*
X90106000Y-83400000D02*
X90003000Y-83297000D01*
X92062500Y-83537500D02*
X91204600Y-83537500D01*
X91067100Y-83400000D02*
X90300000Y-83400000D01*
%TO.N,GPIO1*%
X91437500Y-83137500D02*
X91100000Y-82800000D01*
X92062500Y-83137500D02*
X91437500Y-83137500D01*
X91100000Y-82800000D02*
X90670178Y-82800000D01*
%TO.N,GPIO0*%
X92062500Y-82737500D02*
X92801348Y-82737500D01*
X92801348Y-82737500D02*
X92970279Y-82906431D01*
%TO.N,GPIO8*%
X88537500Y-86337500D02*
X92062500Y-86337500D01*
X87761000Y-85561000D02*
X88537500Y-86337500D01*
X87761000Y-82921000D02*
X87761000Y-85561000D01*
X86610000Y-81770000D02*
X87761000Y-82921000D01*
%TO.N,GPIO11*%
X87996000Y-89937600D02*
X90396100Y-87537500D01*
X87996000Y-90544000D02*
X87996000Y-89937600D01*
X86610000Y-91930000D02*
X87996000Y-90544000D01*
X90396100Y-87537500D02*
X92062500Y-87537500D01*
%TO.N,GPIO3*%
X92062500Y-83937500D02*
X93037500Y-83937500D01*
X93037500Y-83937500D02*
X93100000Y-84000000D01*
%TO.N,GPIO15*%
X86610000Y-104630000D02*
X89600000Y-101640000D01*
X94103000Y-89241474D02*
X94103000Y-88913274D01*
X94100000Y-88910274D02*
X94100000Y-88375000D01*
X94103000Y-88913274D02*
X94100000Y-88910274D01*
X92842474Y-90502000D02*
X94103000Y-89241474D01*
X89600000Y-101640000D02*
X89600000Y-90602000D01*
X89600000Y-90602000D02*
X89700000Y-90502000D01*
X89700000Y-90502000D02*
X92842474Y-90502000D01*
%TO.N,GPIO10*%
X87910000Y-89390000D02*
X90162500Y-87137500D01*
X90162500Y-87137500D02*
X92062500Y-87137500D01*
X86610000Y-89390000D02*
X87910000Y-89390000D01*
%TO.N,GPIO9*%
X86610000Y-84310000D02*
X86610000Y-85010000D01*
X86610000Y-85010000D02*
X88337500Y-86737500D01*
X88337500Y-86737500D02*
X92062500Y-86737500D01*
%TO.N,GPIO17*%
X101233000Y-92833000D02*
X101500000Y-93100000D01*
X98100000Y-88375000D02*
X98100000Y-88700000D01*
X101800000Y-99708521D02*
X101800000Y-101472900D01*
X101399000Y-98892479D02*
X101399000Y-99307521D01*
X100000000Y-90600000D02*
X100000000Y-92175034D01*
X101399000Y-99307521D02*
X101800000Y-99708521D01*
X101500000Y-93100000D02*
X101500000Y-98791479D01*
X101800000Y-101472900D02*
X102417100Y-102090000D01*
X102417100Y-102090000D02*
X104390000Y-102090000D01*
X101500000Y-98791479D02*
X101399000Y-98892479D01*
X98100000Y-88700000D02*
X100000000Y-90600000D01*
X100657966Y-92833000D02*
X101233000Y-92833000D01*
X100000000Y-92175034D02*
X100657966Y-92833000D01*
%TO.N,GPIO23*%
X99862500Y-85137500D02*
X100200000Y-84800000D01*
X103000000Y-84600000D02*
X103000000Y-80620000D01*
X103000000Y-80620000D02*
X104390000Y-79230000D01*
X102800000Y-84800000D02*
X103000000Y-84600000D01*
X100200000Y-84800000D02*
X102800000Y-84800000D01*
X98937500Y-85137500D02*
X99862500Y-85137500D01*
%TO.N,GPIO16*%
X99700000Y-92300712D02*
X99700000Y-90725678D01*
X101200000Y-101440000D02*
X101200000Y-99534199D01*
X101199000Y-98666801D02*
X101199000Y-93499000D01*
X104390000Y-104630000D02*
X101200000Y-101440000D01*
X100533288Y-93134000D02*
X99700000Y-92300712D01*
X101098000Y-98767801D02*
X101199000Y-98666801D01*
X97944648Y-89013500D02*
X97799000Y-88867852D01*
X101098000Y-99432199D02*
X101098000Y-98767801D01*
X100834000Y-93134000D02*
X100533288Y-93134000D01*
X97799000Y-88867852D02*
X97799000Y-88824678D01*
X101200000Y-99534199D02*
X101098000Y-99432199D01*
X97987822Y-89013500D02*
X97944648Y-89013500D01*
X101199000Y-93499000D02*
X100834000Y-93134000D01*
X97799000Y-88824678D02*
X97700000Y-88725678D01*
X97700000Y-88725678D02*
X97700000Y-88375000D01*
X99700000Y-90725678D02*
X97987822Y-89013500D01*
%TO.N,GPIO22*%
X98937500Y-85537500D02*
X100062500Y-85537500D01*
X100062500Y-85537500D02*
X100400000Y-85200000D01*
X100400000Y-85200000D02*
X103500000Y-85200000D01*
X103500000Y-85200000D02*
X104390000Y-84310000D01*
%TO.N,GPIO28_ADC2*%
X100660359Y-83137500D02*
X100923250Y-82874609D01*
X98937500Y-83137500D02*
X100660359Y-83137500D01*
%TO.N,GPIO18*%
X100782644Y-92532000D02*
X100300000Y-92049356D01*
X100300000Y-92049356D02*
X100300000Y-88900000D01*
X102499000Y-92532000D02*
X100782644Y-92532000D01*
X104390000Y-97010000D02*
X102810000Y-97010000D01*
X102499000Y-93924678D02*
X102499000Y-92532000D01*
X100300000Y-88900000D02*
X98937500Y-87537500D01*
X102300000Y-96500000D02*
X102300000Y-94123678D01*
X102300000Y-94123678D02*
X102499000Y-93924678D01*
X102810000Y-97010000D02*
X102300000Y-96500000D01*
%TO.N,GPIO29_ADC3*%
X99930327Y-82737500D02*
X100330692Y-82337135D01*
X98937500Y-82737500D02*
X99930327Y-82737500D01*
%TO.N,RUN*%
X97600000Y-87073275D02*
X97435213Y-86908488D01*
X97300000Y-87800000D02*
X97600000Y-87500000D01*
X97600000Y-87500000D02*
X97600000Y-87073275D01*
X97300000Y-88375000D02*
X97300000Y-87800000D01*
X97300000Y-87043701D02*
X97435213Y-86908488D01*
%TO.N,GPIO21*%
X98937500Y-86337500D02*
X98188876Y-86337500D01*
X98188876Y-86337500D02*
X98035213Y-86183837D01*
%TO.N,GPIO19*%
X99837500Y-87137500D02*
X98937500Y-87137500D01*
X102800000Y-93800000D02*
X102800000Y-92231000D01*
X102800000Y-92231000D02*
X100907322Y-92231000D01*
X104390000Y-94470000D02*
X103470000Y-94470000D01*
X100600000Y-91923678D02*
X100600000Y-87900000D01*
X103470000Y-94470000D02*
X102800000Y-93800000D01*
X100600000Y-87900000D02*
X99837500Y-87137500D01*
X100907322Y-92231000D02*
X100600000Y-91923678D01*
%TO.N,GPIO20*%
X100036500Y-86736500D02*
X99800000Y-86736500D01*
X104390000Y-91930000D02*
X101032000Y-91930000D01*
X99800000Y-86736500D02*
X99799000Y-86737500D01*
X99799000Y-86737500D02*
X98937500Y-86737500D01*
X100900000Y-91798000D02*
X100900000Y-87600000D01*
X101032000Y-91930000D02*
X100900000Y-91798000D01*
X100900000Y-87600000D02*
X100036500Y-86736500D01*
%TO.N,GPIO26_ADC0*%
X102900000Y-78300000D02*
X102900000Y-79585800D01*
X100700000Y-77100000D02*
X101100000Y-77500000D01*
X102198000Y-80287800D02*
X102198000Y-83702000D01*
X101301000Y-74699000D02*
X101301000Y-75024678D01*
X100700000Y-75625678D02*
X100700000Y-77100000D01*
X102198000Y-83702000D02*
X101962500Y-83937500D01*
X101962500Y-83937500D02*
X98937500Y-83937500D01*
X102900000Y-79585800D02*
X102198000Y-80287800D01*
X101100000Y-77500000D02*
X102100000Y-77500000D01*
X102100000Y-77500000D02*
X102900000Y-78300000D01*
X104390000Y-71610000D02*
X101301000Y-74699000D01*
X101301000Y-75024678D02*
X100700000Y-75625678D01*
%TO.N,GPIO24*%
X102599000Y-84101000D02*
X102599000Y-80453900D01*
X103200000Y-79852900D02*
X103200000Y-77880000D01*
X102599000Y-80453900D02*
X103200000Y-79852900D01*
X100000000Y-84400000D02*
X102300000Y-84400000D01*
X102300000Y-84400000D02*
X102599000Y-84101000D01*
X98937500Y-84737500D02*
X99662500Y-84737500D01*
X103200000Y-77880000D02*
X104390000Y-76690000D01*
X99662500Y-84737500D02*
X100000000Y-84400000D01*
%TO.N,GPIO27_ADC1*%
X101375735Y-83537500D02*
X101575735Y-83337500D01*
X98937500Y-83537500D02*
X101375735Y-83537500D01*
%TO.N,SWD*%
X96900000Y-87393210D02*
X96900000Y-88375000D01*
X96544290Y-87037500D02*
X96900000Y-87393210D01*
%TO.N,SWCLK*%
X96228591Y-87638500D02*
X96338500Y-87638500D01*
X96338500Y-87638500D02*
X96500000Y-87800000D01*
X95626591Y-87036500D02*
X96228591Y-87638500D01*
X95410079Y-87036500D02*
X95626591Y-87036500D01*
X96500000Y-87800000D02*
X96500000Y-88375000D01*
%TO.N,Net-(U1-USB_DP)*%
X96200000Y-79900000D02*
X96500000Y-80200000D01*
X96200000Y-79800000D02*
X96200000Y-79900000D01*
X96500000Y-80200000D02*
X96500000Y-81500000D01*
%TO.N,Net-(U1-USB_DM)*%
X97200000Y-79900000D02*
X97200000Y-79800000D01*
X96900000Y-80200000D02*
X97200000Y-79900000D01*
X96900000Y-81500000D02*
X96900000Y-80200000D01*
%TO.N,XOUT*%
X95300000Y-90327500D02*
X94990000Y-90637500D01*
X95300000Y-88375000D02*
X95300000Y-90327500D01*
%TO.N,Net-(R6-Pad1)*%
X100200000Y-70574000D02*
X100110000Y-70484000D01*
X100200000Y-71700000D02*
X100200000Y-70574000D01*
%TO.N,QSPI_SS*%
X100200000Y-73775000D02*
X100225000Y-73800000D01*
X90680000Y-74080001D02*
X90680000Y-74400000D01*
X89400000Y-77650000D02*
X89400000Y-76037500D01*
X90650000Y-75687500D02*
X90650000Y-74430000D01*
X100200000Y-72720000D02*
X100200000Y-73775000D01*
X92060001Y-72700000D02*
X90680000Y-74080001D01*
X89400000Y-76037500D02*
X89750000Y-75687500D01*
X93800000Y-72700000D02*
X92060001Y-72700000D01*
X89750000Y-75687500D02*
X90650000Y-75687500D01*
X90650000Y-74430000D02*
X90680000Y-74400000D01*
X92900000Y-81500000D02*
X92900000Y-81150000D01*
X92900000Y-81150000D02*
X89400000Y-77650000D01*
%TO.N,QSPI_SD2*%
X91674000Y-77374000D02*
X93700000Y-79400000D01*
X93700000Y-79400000D02*
X93700000Y-81500000D01*
X91115798Y-76687500D02*
X91674000Y-77245702D01*
X91674000Y-77245702D02*
X91674000Y-77374000D01*
X90650000Y-76687500D02*
X91115798Y-76687500D01*
%TO.N,QSPI_SCLK*%
X93965798Y-76687500D02*
X93500000Y-76687500D01*
X94500000Y-77221702D02*
X93965798Y-76687500D01*
X94500000Y-81500000D02*
X94500000Y-77221702D01*
%TO.N,QSPI_SD3*%
X94900000Y-81500000D02*
X94900000Y-76737500D01*
X94900000Y-76737500D02*
X94350000Y-76187500D01*
X94350000Y-76187500D02*
X93500000Y-76187500D01*
%TO.N,QSPI_SD1*%
X89800000Y-76300000D02*
X89900000Y-76200000D01*
X89800000Y-77400000D02*
X89800000Y-76300000D01*
X93300000Y-81500000D02*
X93300000Y-80900000D01*
X89937500Y-76200000D02*
X89950000Y-76187500D01*
X93300000Y-80900000D02*
X89800000Y-77400000D01*
X89900000Y-76200000D02*
X89937500Y-76200000D01*
X89950000Y-76187500D02*
X90650000Y-76187500D01*
%TO.N,QSPI_SD0*%
X94100000Y-77787500D02*
X93500000Y-77187500D01*
X94100000Y-81500000D02*
X94100000Y-77787500D01*
%TO.N,GPIO25*%
X99900000Y-96825000D02*
X99900000Y-95000000D01*
X99900000Y-94200000D02*
X99800000Y-94100000D01*
X102600000Y-88300000D02*
X102600000Y-90300000D01*
X98937500Y-84337500D02*
X98468270Y-84337500D01*
X99900000Y-95000000D02*
X99900000Y-94200000D01*
X97250000Y-99475000D02*
X99900000Y-96825000D01*
X98468270Y-84337500D02*
X98100000Y-84705770D01*
X102600000Y-90300000D02*
X102600000Y-90400000D01*
%TD*%
%TA.AperFunction,Conductor*%
%TO.N,GND*%
G36*
X100385486Y-93509025D02*
G01*
X100480561Y-93534500D01*
X100616745Y-93534500D01*
X100646185Y-93543144D01*
X100676172Y-93549668D01*
X100681187Y-93553422D01*
X100683784Y-93554185D01*
X100704426Y-93570819D01*
X100762181Y-93628574D01*
X100795666Y-93689897D01*
X100798500Y-93716255D01*
X100798500Y-98452454D01*
X100780382Y-98514155D01*
X100781584Y-98514849D01*
X100724792Y-98613214D01*
X100718449Y-98636889D01*
X100718449Y-98636891D01*
X100697500Y-98715074D01*
X100697500Y-99484925D01*
X100724793Y-99586788D01*
X100781584Y-99685150D01*
X100779007Y-99686637D01*
X100799070Y-99738528D01*
X100799500Y-99748849D01*
X100799500Y-101492726D01*
X100826793Y-101594589D01*
X100842501Y-101621795D01*
X100879520Y-101685913D01*
X100879522Y-101685915D01*
X103284325Y-104090718D01*
X103317810Y-104152041D01*
X103314575Y-104216716D01*
X103267829Y-104360587D01*
X103239500Y-104539448D01*
X103239500Y-104720551D01*
X103267829Y-104899410D01*
X103323787Y-105071636D01*
X103323788Y-105071639D01*
X103406003Y-105232993D01*
X103456586Y-105302615D01*
X103480065Y-105368422D01*
X103464239Y-105436476D01*
X103414133Y-105485170D01*
X103356267Y-105499500D01*
X98851887Y-105499500D01*
X98784848Y-105479815D01*
X98739093Y-105427011D01*
X98729149Y-105357853D01*
X98758174Y-105294297D01*
X98779002Y-105275182D01*
X98789494Y-105267558D01*
X98789492Y-105267558D01*
X98789501Y-105267553D01*
X98917553Y-105139501D01*
X99023996Y-104992994D01*
X99106211Y-104831639D01*
X99162171Y-104659409D01*
X99181171Y-104539448D01*
X99190500Y-104480551D01*
X99190500Y-104299448D01*
X99166334Y-104146875D01*
X99162171Y-104120591D01*
X99106211Y-103948361D01*
X99106211Y-103948360D01*
X99071633Y-103880499D01*
X99023996Y-103787006D01*
X98998883Y-103752441D01*
X98917558Y-103640505D01*
X98917554Y-103640500D01*
X98789499Y-103512445D01*
X98789494Y-103512441D01*
X98642997Y-103406006D01*
X98642996Y-103406005D01*
X98642994Y-103406004D01*
X98591300Y-103379664D01*
X98481639Y-103323788D01*
X98481636Y-103323787D01*
X98309410Y-103267829D01*
X98130551Y-103239500D01*
X98130546Y-103239500D01*
X97949454Y-103239500D01*
X97949449Y-103239500D01*
X97770589Y-103267829D01*
X97598363Y-103323787D01*
X97598360Y-103323788D01*
X97437002Y-103406006D01*
X97290505Y-103512441D01*
X97290500Y-103512445D01*
X97162445Y-103640500D01*
X97162441Y-103640505D01*
X97056006Y-103787002D01*
X96973788Y-103948360D01*
X96973787Y-103948363D01*
X96917829Y-104120589D01*
X96889500Y-104299448D01*
X96889500Y-104480551D01*
X96917829Y-104659410D01*
X96973787Y-104831636D01*
X96973788Y-104831639D01*
X97008320Y-104899410D01*
X97045682Y-104972737D01*
X97056006Y-104992997D01*
X97162441Y-105139494D01*
X97162445Y-105139499D01*
X97290500Y-105267554D01*
X97290505Y-105267558D01*
X97300998Y-105275182D01*
X97343664Y-105330512D01*
X97349643Y-105400125D01*
X97317037Y-105461920D01*
X97256199Y-105496277D01*
X97228113Y-105499500D01*
X96203249Y-105499500D01*
X96136210Y-105479815D01*
X96090455Y-105427011D01*
X96079631Y-105365776D01*
X96082737Y-105326289D01*
X95629410Y-104872962D01*
X95692993Y-104855925D01*
X95807007Y-104790099D01*
X95900099Y-104697007D01*
X95965925Y-104582993D01*
X95982962Y-104519410D01*
X96436289Y-104972737D01*
X96436289Y-104972736D01*
X96440803Y-104966525D01*
X96519408Y-104812257D01*
X96572914Y-104647584D01*
X96600000Y-104476571D01*
X96600000Y-104303428D01*
X96572914Y-104132415D01*
X96519408Y-103967742D01*
X96440801Y-103813471D01*
X96436290Y-103807262D01*
X96436289Y-103807261D01*
X95982962Y-104260589D01*
X95965925Y-104197007D01*
X95900099Y-104082993D01*
X95807007Y-103989901D01*
X95692993Y-103924075D01*
X95629409Y-103907037D01*
X96082737Y-103453709D01*
X96076525Y-103449196D01*
X95922259Y-103370592D01*
X95757584Y-103317085D01*
X95586571Y-103290000D01*
X95413429Y-103290000D01*
X95242415Y-103317085D01*
X95077740Y-103370592D01*
X94923480Y-103449193D01*
X94923463Y-103449203D01*
X94917261Y-103453708D01*
X94917261Y-103453709D01*
X95370590Y-103907037D01*
X95307007Y-103924075D01*
X95192993Y-103989901D01*
X95099901Y-104082993D01*
X95034075Y-104197007D01*
X95017037Y-104260590D01*
X94563709Y-103807261D01*
X94563708Y-103807261D01*
X94559203Y-103813463D01*
X94559193Y-103813480D01*
X94480592Y-103967740D01*
X94427085Y-104132415D01*
X94400000Y-104303428D01*
X94400000Y-104476571D01*
X94427085Y-104647584D01*
X94480592Y-104812259D01*
X94559196Y-104966525D01*
X94563709Y-104972736D01*
X94563709Y-104972737D01*
X95017037Y-104519408D01*
X95034075Y-104582993D01*
X95099901Y-104697007D01*
X95192993Y-104790099D01*
X95307007Y-104855925D01*
X95370589Y-104872962D01*
X94917261Y-105326289D01*
X94920369Y-105365772D01*
X94906005Y-105434149D01*
X94856953Y-105483905D01*
X94796751Y-105499500D01*
X94214210Y-105499500D01*
X94147171Y-105479815D01*
X94101416Y-105427011D01*
X94091472Y-105357853D01*
X94100775Y-105325414D01*
X94100776Y-105325412D01*
X94107585Y-105309991D01*
X94110500Y-105284865D01*
X94110499Y-103495136D01*
X94110497Y-103495117D01*
X94107586Y-103470012D01*
X94107585Y-103470010D01*
X94107585Y-103470009D01*
X94062206Y-103367235D01*
X93982765Y-103287794D01*
X93982763Y-103287793D01*
X93879992Y-103242415D01*
X93854865Y-103239500D01*
X92065143Y-103239500D01*
X92065117Y-103239502D01*
X92040012Y-103242413D01*
X92040008Y-103242415D01*
X91937235Y-103287793D01*
X91857794Y-103367234D01*
X91812415Y-103470006D01*
X91812415Y-103470008D01*
X91809500Y-103495131D01*
X91809500Y-105284856D01*
X91809502Y-105284882D01*
X91812413Y-105309986D01*
X91812414Y-105309990D01*
X91812415Y-105309991D01*
X91819225Y-105325414D01*
X91828297Y-105394690D01*
X91798475Y-105457876D01*
X91739226Y-105494907D01*
X91705791Y-105499500D01*
X87643733Y-105499500D01*
X87576694Y-105479815D01*
X87530939Y-105427011D01*
X87520995Y-105357853D01*
X87543414Y-105302615D01*
X87568887Y-105267554D01*
X87593996Y-105232994D01*
X87676211Y-105071639D01*
X87732171Y-104899409D01*
X87749484Y-104790099D01*
X87760500Y-104720551D01*
X87760500Y-104539448D01*
X87736829Y-104390001D01*
X87732171Y-104360591D01*
X87685424Y-104216716D01*
X87683429Y-104146875D01*
X87715672Y-104090719D01*
X89835703Y-101970687D01*
X89835708Y-101970684D01*
X89845911Y-101960480D01*
X89845913Y-101960480D01*
X89920480Y-101885913D01*
X89973207Y-101794587D01*
X89977990Y-101776734D01*
X89982347Y-101760479D01*
X89992828Y-101721362D01*
X90000501Y-101692727D01*
X90000501Y-101587273D01*
X90000501Y-101579678D01*
X90000500Y-101579660D01*
X90000500Y-99924628D01*
X92700000Y-99924628D01*
X92714503Y-99997540D01*
X92714505Y-99997544D01*
X92769760Y-100080239D01*
X92852455Y-100135494D01*
X92852459Y-100135496D01*
X92925371Y-100149999D01*
X92925374Y-100150000D01*
X93500000Y-100150000D01*
X94000000Y-100150000D01*
X94574626Y-100150000D01*
X94574628Y-100149999D01*
X94647540Y-100135496D01*
X94647544Y-100135494D01*
X94730239Y-100080239D01*
X94785494Y-99997544D01*
X94785496Y-99997540D01*
X94799999Y-99924628D01*
X94800000Y-99924626D01*
X94800000Y-99725000D01*
X94000000Y-99725000D01*
X94000000Y-100150000D01*
X93500000Y-100150000D01*
X93500000Y-99725000D01*
X92700000Y-99725000D01*
X92700000Y-99924628D01*
X90000500Y-99924628D01*
X90000500Y-99025371D01*
X92700000Y-99025371D01*
X92700000Y-99225000D01*
X93500000Y-99225000D01*
X94000000Y-99225000D01*
X94800000Y-99225000D01*
X94800000Y-99025373D01*
X94799999Y-99025371D01*
X94785496Y-98952459D01*
X94785494Y-98952455D01*
X94730239Y-98869760D01*
X94647544Y-98814505D01*
X94647540Y-98814503D01*
X94574627Y-98800000D01*
X94000000Y-98800000D01*
X94000000Y-99225000D01*
X93500000Y-99225000D01*
X93500000Y-98800000D01*
X92925373Y-98800000D01*
X92852459Y-98814503D01*
X92852455Y-98814505D01*
X92769760Y-98869760D01*
X92714505Y-98952455D01*
X92714503Y-98952459D01*
X92700000Y-99025371D01*
X90000500Y-99025371D01*
X90000500Y-97255131D01*
X92649500Y-97255131D01*
X92649500Y-98194856D01*
X92649502Y-98194882D01*
X92652413Y-98219987D01*
X92652415Y-98219991D01*
X92697793Y-98322764D01*
X92697794Y-98322765D01*
X92777235Y-98402206D01*
X92880009Y-98447585D01*
X92905135Y-98450500D01*
X94594864Y-98450499D01*
X94594879Y-98450497D01*
X94594882Y-98450497D01*
X94619987Y-98447586D01*
X94619988Y-98447585D01*
X94619991Y-98447585D01*
X94722765Y-98402206D01*
X94802206Y-98322765D01*
X94847585Y-98219991D01*
X94850500Y-98194865D01*
X94850499Y-97255136D01*
X94850497Y-97255117D01*
X94847586Y-97230012D01*
X94847585Y-97230010D01*
X94847585Y-97230009D01*
X94802206Y-97127235D01*
X94722765Y-97047794D01*
X94722763Y-97047793D01*
X94619992Y-97002415D01*
X94594865Y-96999500D01*
X92905143Y-96999500D01*
X92905117Y-96999502D01*
X92880012Y-97002413D01*
X92880008Y-97002415D01*
X92777235Y-97047793D01*
X92697794Y-97127234D01*
X92652415Y-97230006D01*
X92652415Y-97230008D01*
X92649500Y-97255131D01*
X90000500Y-97255131D01*
X90000500Y-95666255D01*
X90020185Y-95599216D01*
X90072989Y-95553461D01*
X90142147Y-95543517D01*
X90205703Y-95572542D01*
X90212181Y-95578574D01*
X90254087Y-95620480D01*
X90345413Y-95673207D01*
X90447273Y-95700501D01*
X90447275Y-95700501D01*
X90560323Y-95700501D01*
X90560339Y-95700500D01*
X94607745Y-95700500D01*
X94674784Y-95720185D01*
X94695426Y-95736819D01*
X96113774Y-97155167D01*
X96147259Y-97216490D01*
X96148993Y-97251511D01*
X96149707Y-97251553D01*
X96149500Y-97255137D01*
X96149500Y-98194856D01*
X96149502Y-98194882D01*
X96152413Y-98219987D01*
X96152415Y-98219991D01*
X96197793Y-98322764D01*
X96197794Y-98322765D01*
X96277235Y-98402206D01*
X96380009Y-98447585D01*
X96405135Y-98450500D01*
X97408744Y-98450499D01*
X97429990Y-98456737D01*
X97452078Y-98458317D01*
X97462860Y-98466388D01*
X97475783Y-98470183D01*
X97490284Y-98486919D01*
X97508011Y-98500189D01*
X97512717Y-98512807D01*
X97521538Y-98522987D01*
X97524689Y-98544905D01*
X97532428Y-98565653D01*
X97529565Y-98578813D01*
X97531482Y-98592146D01*
X97522282Y-98612289D01*
X97517576Y-98633926D01*
X97504307Y-98651651D01*
X97502457Y-98655702D01*
X97496425Y-98662180D01*
X97445424Y-98713181D01*
X97384101Y-98746666D01*
X97357743Y-98749500D01*
X96405143Y-98749500D01*
X96405117Y-98749502D01*
X96380012Y-98752413D01*
X96380008Y-98752415D01*
X96277235Y-98797793D01*
X96197794Y-98877234D01*
X96152415Y-98980006D01*
X96152415Y-98980008D01*
X96149500Y-99005131D01*
X96149500Y-99944856D01*
X96149502Y-99944882D01*
X96152413Y-99969987D01*
X96152415Y-99969991D01*
X96197793Y-100072764D01*
X96197794Y-100072765D01*
X96277235Y-100152206D01*
X96380009Y-100197585D01*
X96405135Y-100200500D01*
X98094864Y-100200499D01*
X98094879Y-100200497D01*
X98094882Y-100200497D01*
X98119987Y-100197586D01*
X98119988Y-100197585D01*
X98119991Y-100197585D01*
X98222765Y-100152206D01*
X98302206Y-100072765D01*
X98347585Y-99969991D01*
X98350500Y-99944865D01*
X98350499Y-99005136D01*
X98350498Y-99005129D01*
X98350292Y-99001561D01*
X98351703Y-99001479D01*
X98362558Y-98938278D01*
X98386221Y-98905170D01*
X100220480Y-97070913D01*
X100273207Y-96979588D01*
X100300500Y-96877727D01*
X100300500Y-96772273D01*
X100300500Y-94947273D01*
X100300500Y-94467334D01*
X100317113Y-94405334D01*
X100359577Y-94331784D01*
X100400500Y-94179057D01*
X100400500Y-94020943D01*
X100359577Y-93868216D01*
X100353072Y-93856949D01*
X100280524Y-93731290D01*
X100280518Y-93731282D01*
X100265718Y-93716482D01*
X100232233Y-93655159D01*
X100237217Y-93585467D01*
X100279089Y-93529534D01*
X100344553Y-93505117D01*
X100385486Y-93509025D01*
G37*
%TD.AperFunction*%
%TA.AperFunction,Conductor*%
G36*
X102105703Y-96872542D02*
G01*
X102112181Y-96878574D01*
X102564087Y-97330480D01*
X102655412Y-97383207D01*
X102757273Y-97410500D01*
X102862727Y-97410500D01*
X103226840Y-97410500D01*
X103293879Y-97430185D01*
X103337325Y-97478205D01*
X103397562Y-97596426D01*
X103406006Y-97612997D01*
X103512441Y-97759494D01*
X103512445Y-97759499D01*
X103640500Y-97887554D01*
X103640505Y-97887558D01*
X103768287Y-97980396D01*
X103787006Y-97993996D01*
X103892484Y-98047740D01*
X103948360Y-98076211D01*
X103948363Y-98076212D01*
X104034476Y-98104191D01*
X104120591Y-98132171D01*
X104203429Y-98145291D01*
X104299449Y-98160500D01*
X104299454Y-98160500D01*
X104480551Y-98160500D01*
X104567259Y-98146765D01*
X104659409Y-98132171D01*
X104831639Y-98076211D01*
X104992994Y-97993996D01*
X105139501Y-97887553D01*
X105267553Y-97759501D01*
X105275180Y-97749003D01*
X105330508Y-97706336D01*
X105400121Y-97700355D01*
X105461917Y-97732959D01*
X105496277Y-97793796D01*
X105499500Y-97821886D01*
X105499500Y-98846751D01*
X105479815Y-98913790D01*
X105427011Y-98959545D01*
X105365772Y-98970369D01*
X105326289Y-98967261D01*
X104872962Y-99420589D01*
X104855925Y-99357007D01*
X104790099Y-99242993D01*
X104697007Y-99149901D01*
X104582993Y-99084075D01*
X104519409Y-99067037D01*
X104972737Y-98613709D01*
X104966525Y-98609196D01*
X104812259Y-98530592D01*
X104647584Y-98477085D01*
X104476571Y-98450000D01*
X104303429Y-98450000D01*
X104132415Y-98477085D01*
X103967740Y-98530592D01*
X103813480Y-98609193D01*
X103813463Y-98609203D01*
X103807261Y-98613708D01*
X103807261Y-98613709D01*
X104260590Y-99067037D01*
X104197007Y-99084075D01*
X104082993Y-99149901D01*
X103989901Y-99242993D01*
X103924075Y-99357007D01*
X103907037Y-99420590D01*
X103453709Y-98967261D01*
X103453708Y-98967261D01*
X103449203Y-98973463D01*
X103449193Y-98973480D01*
X103370592Y-99127740D01*
X103317085Y-99292415D01*
X103290000Y-99463428D01*
X103290000Y-99636571D01*
X103317085Y-99807584D01*
X103370592Y-99972259D01*
X103449196Y-100126525D01*
X103453709Y-100132736D01*
X103453709Y-100132737D01*
X103907037Y-99679409D01*
X103924075Y-99742993D01*
X103989901Y-99857007D01*
X104082993Y-99950099D01*
X104197007Y-100015925D01*
X104260589Y-100032962D01*
X103807261Y-100486289D01*
X103807262Y-100486290D01*
X103813471Y-100490801D01*
X103967742Y-100569408D01*
X104132415Y-100622914D01*
X104303429Y-100650000D01*
X104476571Y-100650000D01*
X104647584Y-100622914D01*
X104812257Y-100569408D01*
X104966525Y-100490803D01*
X104972736Y-100486289D01*
X104972737Y-100486289D01*
X104519410Y-100032962D01*
X104582993Y-100015925D01*
X104697007Y-99950099D01*
X104790099Y-99857007D01*
X104855925Y-99742993D01*
X104872962Y-99679409D01*
X105326288Y-100132736D01*
X105365774Y-100129630D01*
X105434151Y-100143996D01*
X105483907Y-100193048D01*
X105499500Y-100253248D01*
X105499500Y-101278113D01*
X105479815Y-101345152D01*
X105427011Y-101390907D01*
X105357853Y-101400851D01*
X105294297Y-101371826D01*
X105275182Y-101350998D01*
X105267558Y-101340505D01*
X105267554Y-101340500D01*
X105139499Y-101212445D01*
X105139494Y-101212441D01*
X104992997Y-101106006D01*
X104992996Y-101106005D01*
X104992994Y-101106004D01*
X104941300Y-101079664D01*
X104831639Y-101023788D01*
X104831636Y-101023787D01*
X104659410Y-100967829D01*
X104480551Y-100939500D01*
X104480546Y-100939500D01*
X104299454Y-100939500D01*
X104299449Y-100939500D01*
X104120589Y-100967829D01*
X103948363Y-101023787D01*
X103948360Y-101023788D01*
X103787002Y-101106006D01*
X103640505Y-101212441D01*
X103640500Y-101212445D01*
X103512445Y-101340500D01*
X103512441Y-101340505D01*
X103406006Y-101487002D01*
X103337325Y-101621795D01*
X103289350Y-101672591D01*
X103226840Y-101689500D01*
X102634355Y-101689500D01*
X102567316Y-101669815D01*
X102546674Y-101653181D01*
X102236819Y-101343326D01*
X102203334Y-101282003D01*
X102200500Y-101255645D01*
X102200500Y-99771250D01*
X102200501Y-99771237D01*
X102200501Y-99655795D01*
X102173206Y-99553932D01*
X102153937Y-99520558D01*
X102131371Y-99481472D01*
X102120480Y-99462608D01*
X102045913Y-99388041D01*
X102045911Y-99388039D01*
X101841927Y-99184055D01*
X101831011Y-99164064D01*
X101816276Y-99146692D01*
X101814585Y-99133982D01*
X101808442Y-99122732D01*
X101810066Y-99100013D01*
X101807063Y-99077432D01*
X101812858Y-99060968D01*
X101813426Y-99053040D01*
X101817364Y-99043675D01*
X101820166Y-99037705D01*
X101820480Y-99037392D01*
X101873207Y-98946066D01*
X101883669Y-98907021D01*
X101900501Y-98844206D01*
X101900501Y-98738752D01*
X101900501Y-98731157D01*
X101900500Y-98731139D01*
X101900500Y-96966255D01*
X101920185Y-96899216D01*
X101972989Y-96853461D01*
X102042147Y-96843517D01*
X102105703Y-96872542D01*
G37*
%TD.AperFunction*%
%TA.AperFunction,Conductor*%
G36*
X88712257Y-97384918D02*
G01*
X88770119Y-97424081D01*
X88797623Y-97488309D01*
X88798500Y-97503030D01*
X88798500Y-99283744D01*
X88778815Y-99350783D01*
X88762181Y-99371425D01*
X87149280Y-100984325D01*
X87087957Y-101017810D01*
X87023281Y-101014575D01*
X86879410Y-100967829D01*
X86700551Y-100939500D01*
X86700546Y-100939500D01*
X86519454Y-100939500D01*
X86519449Y-100939500D01*
X86340589Y-100967829D01*
X86168363Y-101023787D01*
X86168360Y-101023788D01*
X86007002Y-101106006D01*
X85860505Y-101212441D01*
X85860500Y-101212445D01*
X85732445Y-101340500D01*
X85732441Y-101340505D01*
X85724818Y-101350998D01*
X85669488Y-101393664D01*
X85599875Y-101399643D01*
X85538080Y-101367037D01*
X85503723Y-101306199D01*
X85500500Y-101278113D01*
X85500500Y-100253247D01*
X85520185Y-100186208D01*
X85572989Y-100140453D01*
X85634231Y-100129629D01*
X85673710Y-100132736D01*
X86127037Y-99679409D01*
X86144075Y-99742993D01*
X86209901Y-99857007D01*
X86302993Y-99950099D01*
X86417007Y-100015925D01*
X86480589Y-100032962D01*
X86027261Y-100486289D01*
X86027262Y-100486290D01*
X86033471Y-100490801D01*
X86187742Y-100569408D01*
X86352415Y-100622914D01*
X86523429Y-100650000D01*
X86696571Y-100650000D01*
X86867584Y-100622914D01*
X87032257Y-100569408D01*
X87186525Y-100490803D01*
X87192736Y-100486289D01*
X87192737Y-100486289D01*
X86739410Y-100032962D01*
X86802993Y-100015925D01*
X86917007Y-99950099D01*
X87010099Y-99857007D01*
X87075925Y-99742993D01*
X87092962Y-99679410D01*
X87546289Y-100132737D01*
X87546289Y-100132736D01*
X87550803Y-100126525D01*
X87629408Y-99972257D01*
X87682914Y-99807584D01*
X87710000Y-99636571D01*
X87710000Y-99463428D01*
X87682914Y-99292415D01*
X87629408Y-99127742D01*
X87550801Y-98973471D01*
X87546290Y-98967262D01*
X87546289Y-98967261D01*
X87092962Y-99420589D01*
X87075925Y-99357007D01*
X87010099Y-99242993D01*
X86917007Y-99149901D01*
X86802993Y-99084075D01*
X86739409Y-99067037D01*
X87192737Y-98613709D01*
X87186525Y-98609196D01*
X87032259Y-98530592D01*
X86867584Y-98477085D01*
X86696571Y-98450000D01*
X86523429Y-98450000D01*
X86352415Y-98477085D01*
X86187740Y-98530592D01*
X86033480Y-98609193D01*
X86033463Y-98609203D01*
X86027261Y-98613708D01*
X86027261Y-98613709D01*
X86480590Y-99067037D01*
X86417007Y-99084075D01*
X86302993Y-99149901D01*
X86209901Y-99242993D01*
X86144075Y-99357007D01*
X86127037Y-99420590D01*
X85673709Y-98967261D01*
X85634235Y-98970370D01*
X85620622Y-98967511D01*
X85606853Y-98969491D01*
X85587104Y-98960472D01*
X85565857Y-98956010D01*
X85555950Y-98946244D01*
X85543297Y-98940466D01*
X85531559Y-98922201D01*
X85516098Y-98906961D01*
X85512270Y-98892187D01*
X85505523Y-98881688D01*
X85500500Y-98846753D01*
X85500500Y-97821886D01*
X85520185Y-97754847D01*
X85572989Y-97709092D01*
X85642147Y-97699148D01*
X85705703Y-97728173D01*
X85724821Y-97749004D01*
X85732446Y-97759500D01*
X85860500Y-97887554D01*
X85860505Y-97887558D01*
X85988287Y-97980396D01*
X86007006Y-97993996D01*
X86112484Y-98047740D01*
X86168360Y-98076211D01*
X86168363Y-98076212D01*
X86254476Y-98104191D01*
X86340591Y-98132171D01*
X86423429Y-98145291D01*
X86519449Y-98160500D01*
X86519454Y-98160500D01*
X86700551Y-98160500D01*
X86787259Y-98146765D01*
X86879409Y-98132171D01*
X87051639Y-98076211D01*
X87212994Y-97993996D01*
X87359501Y-97887553D01*
X87487553Y-97759501D01*
X87593996Y-97612994D01*
X87662675Y-97478205D01*
X87710650Y-97427409D01*
X87773160Y-97410500D01*
X88540725Y-97410500D01*
X88540727Y-97410500D01*
X88642408Y-97383255D01*
X88712257Y-97384918D01*
G37*
%TD.AperFunction*%
%TA.AperFunction,Conductor*%
G36*
X99039656Y-90659088D02*
G01*
X99063564Y-90663781D01*
X99076971Y-90673605D01*
X99082066Y-90675588D01*
X99084790Y-90679335D01*
X99094051Y-90686122D01*
X99263181Y-90855252D01*
X99296666Y-90916575D01*
X99299500Y-90942933D01*
X99299500Y-92353438D01*
X99326793Y-92455301D01*
X99344139Y-92485344D01*
X99379520Y-92546625D01*
X99379522Y-92546627D01*
X100174016Y-93341121D01*
X100207501Y-93402444D01*
X100202517Y-93472136D01*
X100160645Y-93528069D01*
X100095181Y-93552486D01*
X100038885Y-93543364D01*
X100031787Y-93540424D01*
X100031784Y-93540423D01*
X99879057Y-93499500D01*
X99720943Y-93499500D01*
X99568216Y-93540423D01*
X99568209Y-93540426D01*
X99431290Y-93619475D01*
X99431282Y-93619481D01*
X99319481Y-93731282D01*
X99319475Y-93731290D01*
X99240426Y-93868209D01*
X99240423Y-93868216D01*
X99199500Y-94020943D01*
X99199500Y-94179057D01*
X99223618Y-94269064D01*
X99240423Y-94331783D01*
X99240426Y-94331790D01*
X99319475Y-94468709D01*
X99319481Y-94468717D01*
X99431284Y-94580520D01*
X99437499Y-94584108D01*
X99485715Y-94634675D01*
X99499500Y-94691496D01*
X99499500Y-96607744D01*
X99479815Y-96674783D01*
X99463181Y-96695425D01*
X98562180Y-97596426D01*
X98500857Y-97629911D01*
X98431165Y-97624927D01*
X98375232Y-97583055D01*
X98350815Y-97517591D01*
X98350499Y-97508745D01*
X98350499Y-97255143D01*
X98350499Y-97255137D01*
X98350499Y-97255136D01*
X98350497Y-97255117D01*
X98347586Y-97230012D01*
X98347585Y-97230010D01*
X98347585Y-97230009D01*
X98302206Y-97127235D01*
X98222765Y-97047794D01*
X98222763Y-97047793D01*
X98119992Y-97002415D01*
X98094868Y-96999500D01*
X98094865Y-96999500D01*
X97142255Y-96999500D01*
X97075216Y-96979815D01*
X97054574Y-96963181D01*
X95070915Y-94979522D01*
X95070913Y-94979520D01*
X95015060Y-94947273D01*
X94979589Y-94926793D01*
X94923020Y-94911636D01*
X94877727Y-94899500D01*
X94877726Y-94899500D01*
X94070750Y-94899500D01*
X94003711Y-94879815D01*
X93957956Y-94827011D01*
X93948012Y-94757853D01*
X93977037Y-94694297D01*
X94025258Y-94660145D01*
X94122342Y-94621861D01*
X94242922Y-94530422D01*
X94334361Y-94409842D01*
X94389877Y-94269064D01*
X94399931Y-94185344D01*
X94650000Y-94185344D01*
X94656401Y-94244872D01*
X94656403Y-94244879D01*
X94706645Y-94379586D01*
X94706649Y-94379593D01*
X94792809Y-94494687D01*
X94792812Y-94494690D01*
X94907906Y-94580850D01*
X94907913Y-94580854D01*
X95042620Y-94631096D01*
X95042627Y-94631098D01*
X95102155Y-94637499D01*
X95102172Y-94637500D01*
X95350000Y-94637500D01*
X95850000Y-94637500D01*
X96097828Y-94637500D01*
X96097844Y-94637499D01*
X96157372Y-94631098D01*
X96157379Y-94631096D01*
X96292086Y-94580854D01*
X96292093Y-94580850D01*
X96407187Y-94494690D01*
X96407190Y-94494687D01*
X96493350Y-94379593D01*
X96493354Y-94379586D01*
X96543596Y-94244879D01*
X96543598Y-94244872D01*
X96549999Y-94185344D01*
X96550000Y-94185327D01*
X96550000Y-94037500D01*
X95850000Y-94037500D01*
X95850000Y-94637500D01*
X95350000Y-94637500D01*
X95350000Y-94037500D01*
X94650000Y-94037500D01*
X94650000Y-94185344D01*
X94399931Y-94185344D01*
X94400500Y-94180602D01*
X94400500Y-93404753D01*
X94420185Y-93337714D01*
X94436819Y-93317072D01*
X94438319Y-93315572D01*
X94499642Y-93282087D01*
X94569334Y-93287071D01*
X94625267Y-93328943D01*
X94649684Y-93394407D01*
X94650000Y-93403253D01*
X94650000Y-93537500D01*
X96556000Y-93537500D01*
X96623039Y-93557185D01*
X96668794Y-93609989D01*
X96680000Y-93661500D01*
X96680000Y-93709632D01*
X96710552Y-93769593D01*
X96710555Y-93769598D01*
X96797901Y-93856944D01*
X96797906Y-93856948D01*
X96907984Y-93913036D01*
X96950000Y-93919690D01*
X96950000Y-93919688D01*
X97450000Y-93919688D01*
X97492022Y-93913033D01*
X97602091Y-93856949D01*
X97602098Y-93856944D01*
X97689444Y-93769598D01*
X97689449Y-93769591D01*
X97745533Y-93659522D01*
X97745534Y-93659519D01*
X97747438Y-93647500D01*
X97450000Y-93647500D01*
X97450000Y-93919688D01*
X96950000Y-93919688D01*
X96950000Y-93521500D01*
X96969685Y-93454461D01*
X97022489Y-93408706D01*
X97074000Y-93397500D01*
X97200000Y-93397500D01*
X97200000Y-93271500D01*
X97219685Y-93204461D01*
X97272489Y-93158706D01*
X97324000Y-93147500D01*
X97747438Y-93147500D01*
X97745535Y-93135483D01*
X97685018Y-93016712D01*
X97687219Y-93015590D01*
X97668472Y-92963044D01*
X97684299Y-92894990D01*
X97692489Y-92882349D01*
X97763852Y-92785657D01*
X97783050Y-92730791D01*
X97807708Y-92660326D01*
X97807708Y-92660323D01*
X97807710Y-92660319D01*
X97810500Y-92630566D01*
X97810500Y-92244434D01*
X97807710Y-92214681D01*
X97807708Y-92214677D01*
X97807708Y-92214673D01*
X97769705Y-92106071D01*
X97763852Y-92089343D01*
X97743670Y-92061998D01*
X97719700Y-91996370D01*
X97735015Y-91928199D01*
X97784756Y-91879131D01*
X97853128Y-91864744D01*
X97899737Y-91877881D01*
X98007981Y-91933035D01*
X98007984Y-91933036D01*
X98050000Y-91939690D01*
X98050000Y-91939688D01*
X98550000Y-91939688D01*
X98592022Y-91933033D01*
X98702091Y-91876949D01*
X98702098Y-91876944D01*
X98789444Y-91789598D01*
X98789449Y-91789591D01*
X98845533Y-91679522D01*
X98845534Y-91679519D01*
X98847438Y-91667500D01*
X98550000Y-91667500D01*
X98550000Y-91939688D01*
X98050000Y-91939688D01*
X98050000Y-91667500D01*
X97324000Y-91667500D01*
X97256961Y-91647815D01*
X97211206Y-91595011D01*
X97200000Y-91543500D01*
X97200000Y-91291500D01*
X97219685Y-91224461D01*
X97272489Y-91178706D01*
X97324000Y-91167500D01*
X98847438Y-91167500D01*
X98845535Y-91155483D01*
X98785018Y-91036712D01*
X98787219Y-91035590D01*
X98785965Y-91032075D01*
X98775492Y-91017667D01*
X98774468Y-90999851D01*
X98768472Y-90983044D01*
X98772506Y-90965686D01*
X98771485Y-90947912D01*
X98781873Y-90925380D01*
X98784282Y-90915019D01*
X98787996Y-90908437D01*
X98863852Y-90805657D01*
X98892969Y-90722445D01*
X98898382Y-90712855D01*
X98915848Y-90695871D01*
X98930050Y-90676072D01*
X98940453Y-90671947D01*
X98948476Y-90664148D01*
X98972352Y-90659303D01*
X98995003Y-90650325D01*
X99005983Y-90652480D01*
X99016950Y-90650255D01*
X99039656Y-90659088D01*
G37*
%TD.AperFunction*%
%TA.AperFunction,Conductor*%
G36*
X93921534Y-90091845D02*
G01*
X93977468Y-90133716D01*
X94001885Y-90199181D01*
X93999308Y-90226214D01*
X94000561Y-90226379D01*
X93999500Y-90234436D01*
X93999500Y-91113500D01*
X93979815Y-91180539D01*
X93927011Y-91226294D01*
X93875500Y-91237500D01*
X93650000Y-91237500D01*
X93650000Y-91963500D01*
X93630315Y-92030539D01*
X93577511Y-92076294D01*
X93526000Y-92087500D01*
X93400000Y-92087500D01*
X93400000Y-92213500D01*
X93380315Y-92280539D01*
X93327511Y-92326294D01*
X93276000Y-92337500D01*
X92450000Y-92337500D01*
X92450000Y-92485344D01*
X92456401Y-92544872D01*
X92456403Y-92544879D01*
X92506645Y-92679586D01*
X92506649Y-92679593D01*
X92595805Y-92798689D01*
X92620223Y-92864153D01*
X92605372Y-92932426D01*
X92555967Y-92981832D01*
X92496539Y-92997000D01*
X92096310Y-92997000D01*
X92029271Y-92977315D01*
X91983516Y-92924511D01*
X91973572Y-92855353D01*
X91985826Y-92816705D01*
X92045532Y-92699525D01*
X92045534Y-92699519D01*
X92047438Y-92687500D01*
X90952562Y-92687500D01*
X90954464Y-92699516D01*
X91014982Y-92818288D01*
X91012780Y-92819409D01*
X91031527Y-92871960D01*
X91015698Y-92940013D01*
X91007499Y-92952666D01*
X90936147Y-93049344D01*
X90892291Y-93174673D01*
X90892289Y-93174685D01*
X90889500Y-93204429D01*
X90889500Y-93590570D01*
X90892289Y-93620314D01*
X90892291Y-93620326D01*
X90931958Y-93733684D01*
X90936148Y-93745657D01*
X91015001Y-93852499D01*
X91121843Y-93931352D01*
X91160003Y-93944704D01*
X91247173Y-93975208D01*
X91247177Y-93975208D01*
X91247181Y-93975210D01*
X91262057Y-93976605D01*
X91276930Y-93978000D01*
X91276934Y-93978000D01*
X91723070Y-93978000D01*
X91736289Y-93976760D01*
X91752819Y-93975210D01*
X91752823Y-93975208D01*
X91752826Y-93975208D01*
X91801836Y-93958057D01*
X91878157Y-93931352D01*
X91984999Y-93852499D01*
X91988050Y-93848364D01*
X91992029Y-93845343D01*
X91994106Y-93840797D01*
X92019582Y-93824424D01*
X92043698Y-93806115D01*
X92049826Y-93804987D01*
X92052884Y-93803023D01*
X92087819Y-93798000D01*
X92275500Y-93798000D01*
X92342539Y-93817685D01*
X92388294Y-93870489D01*
X92399500Y-93922000D01*
X92399500Y-94180602D01*
X92405126Y-94227454D01*
X92410122Y-94269061D01*
X92410122Y-94269063D01*
X92410123Y-94269064D01*
X92418210Y-94289571D01*
X92465639Y-94409843D01*
X92557077Y-94530422D01*
X92677656Y-94621860D01*
X92677657Y-94621860D01*
X92677658Y-94621861D01*
X92774741Y-94660145D01*
X92829884Y-94703051D01*
X92853077Y-94768959D01*
X92836956Y-94836944D01*
X92786640Y-94885420D01*
X92729250Y-94899500D01*
X90919786Y-94899500D01*
X90852747Y-94879815D01*
X90806992Y-94827011D01*
X90797048Y-94757853D01*
X90812398Y-94713501D01*
X90823485Y-94694297D01*
X90859577Y-94631784D01*
X90900500Y-94479057D01*
X90900500Y-94320943D01*
X90859577Y-94168216D01*
X90855753Y-94161593D01*
X90780524Y-94031290D01*
X90780518Y-94031282D01*
X90668717Y-93919481D01*
X90668709Y-93919475D01*
X90531790Y-93840426D01*
X90531786Y-93840424D01*
X90531784Y-93840423D01*
X90379057Y-93799500D01*
X90220943Y-93799500D01*
X90220941Y-93799500D01*
X90156592Y-93816742D01*
X90086742Y-93815079D01*
X90028880Y-93775915D01*
X90001377Y-93711687D01*
X90000500Y-93696967D01*
X90000500Y-92187499D01*
X90952561Y-92187499D01*
X90952561Y-92187500D01*
X91250000Y-92187500D01*
X91750000Y-92187500D01*
X92047438Y-92187500D01*
X92045535Y-92175483D01*
X91989447Y-92065406D01*
X91989444Y-92065401D01*
X91902098Y-91978055D01*
X91902093Y-91978051D01*
X91792018Y-91921965D01*
X91750000Y-91915309D01*
X91750000Y-92187500D01*
X91250000Y-92187500D01*
X91250000Y-91915309D01*
X91249999Y-91915309D01*
X91207984Y-91921963D01*
X91097906Y-91978051D01*
X91097901Y-91978055D01*
X91010555Y-92065401D01*
X91010550Y-92065408D01*
X90954466Y-92175477D01*
X90954465Y-92175480D01*
X90952561Y-92187499D01*
X90000500Y-92187499D01*
X90000500Y-91689655D01*
X92450000Y-91689655D01*
X92450000Y-91837500D01*
X93150000Y-91837500D01*
X93150000Y-91237500D01*
X92902155Y-91237500D01*
X92842627Y-91243901D01*
X92842620Y-91243903D01*
X92707913Y-91294145D01*
X92707906Y-91294149D01*
X92592812Y-91380309D01*
X92592809Y-91380312D01*
X92506649Y-91495406D01*
X92506645Y-91495413D01*
X92456403Y-91630120D01*
X92456401Y-91630127D01*
X92450000Y-91689655D01*
X90000500Y-91689655D01*
X90000500Y-91026500D01*
X90020185Y-90959461D01*
X90072989Y-90913706D01*
X90124500Y-90902500D01*
X92895199Y-90902500D01*
X92895201Y-90902500D01*
X92997062Y-90875207D01*
X93088387Y-90822480D01*
X93790522Y-90120344D01*
X93851843Y-90086861D01*
X93921534Y-90091845D01*
G37*
%TD.AperFunction*%
%TA.AperFunction,Conductor*%
G36*
X105461917Y-85032959D02*
G01*
X105496277Y-85093796D01*
X105499500Y-85121886D01*
X105499500Y-86146751D01*
X105479815Y-86213790D01*
X105427011Y-86259545D01*
X105365772Y-86270369D01*
X105326289Y-86267261D01*
X104872962Y-86720589D01*
X104855925Y-86657007D01*
X104790099Y-86542993D01*
X104697007Y-86449901D01*
X104582993Y-86384075D01*
X104519409Y-86367037D01*
X104972737Y-85913709D01*
X104966525Y-85909196D01*
X104812259Y-85830592D01*
X104647584Y-85777085D01*
X104476571Y-85750000D01*
X104303429Y-85750000D01*
X104132415Y-85777085D01*
X103967740Y-85830592D01*
X103813480Y-85909193D01*
X103813463Y-85909203D01*
X103807261Y-85913708D01*
X103807261Y-85913709D01*
X104260590Y-86367037D01*
X104197007Y-86384075D01*
X104082993Y-86449901D01*
X103989901Y-86542993D01*
X103924075Y-86657007D01*
X103907037Y-86720590D01*
X103453709Y-86267261D01*
X103453708Y-86267261D01*
X103449203Y-86273463D01*
X103449193Y-86273480D01*
X103370592Y-86427740D01*
X103317085Y-86592415D01*
X103290000Y-86763428D01*
X103290000Y-86936571D01*
X103317085Y-87107584D01*
X103370592Y-87272259D01*
X103449196Y-87426525D01*
X103453709Y-87432736D01*
X103453709Y-87432737D01*
X103907037Y-86979409D01*
X103924075Y-87042993D01*
X103989901Y-87157007D01*
X104082993Y-87250099D01*
X104197007Y-87315925D01*
X104260589Y-87332962D01*
X103807261Y-87786289D01*
X103807262Y-87786290D01*
X103813471Y-87790801D01*
X103967742Y-87869408D01*
X104132415Y-87922914D01*
X104303429Y-87950000D01*
X104476571Y-87950000D01*
X104647584Y-87922914D01*
X104812257Y-87869408D01*
X104966525Y-87790803D01*
X104972736Y-87786289D01*
X104972737Y-87786289D01*
X104519410Y-87332962D01*
X104582993Y-87315925D01*
X104697007Y-87250099D01*
X104790099Y-87157007D01*
X104855925Y-87042993D01*
X104872962Y-86979409D01*
X105326288Y-87432736D01*
X105365774Y-87429630D01*
X105434151Y-87443996D01*
X105483907Y-87493048D01*
X105499500Y-87553248D01*
X105499500Y-88578113D01*
X105479815Y-88645152D01*
X105427011Y-88690907D01*
X105357853Y-88700851D01*
X105294297Y-88671826D01*
X105275182Y-88650998D01*
X105267558Y-88640505D01*
X105267554Y-88640500D01*
X105139499Y-88512445D01*
X105139494Y-88512441D01*
X104992997Y-88406006D01*
X104992996Y-88406005D01*
X104992994Y-88406004D01*
X104940104Y-88379055D01*
X104831639Y-88323788D01*
X104831636Y-88323787D01*
X104659410Y-88267829D01*
X104480551Y-88239500D01*
X104480546Y-88239500D01*
X104299454Y-88239500D01*
X104299449Y-88239500D01*
X104120589Y-88267829D01*
X103948363Y-88323787D01*
X103948360Y-88323788D01*
X103787002Y-88406006D01*
X103640505Y-88512441D01*
X103640500Y-88512445D01*
X103512445Y-88640500D01*
X103512441Y-88640505D01*
X103406006Y-88787002D01*
X103323788Y-88948360D01*
X103323787Y-88948363D01*
X103267829Y-89120589D01*
X103246973Y-89252266D01*
X103217044Y-89315401D01*
X103157732Y-89352332D01*
X103087869Y-89351334D01*
X103029637Y-89312724D01*
X103001523Y-89248760D01*
X103000500Y-89232868D01*
X103000500Y-88800098D01*
X103020185Y-88733059D01*
X103036819Y-88712417D01*
X103058329Y-88690907D01*
X103080520Y-88668716D01*
X103159577Y-88531784D01*
X103200500Y-88379057D01*
X103200500Y-88220943D01*
X103159577Y-88068216D01*
X103155988Y-88062000D01*
X103080524Y-87931290D01*
X103080518Y-87931282D01*
X102968717Y-87819481D01*
X102968709Y-87819475D01*
X102831790Y-87740426D01*
X102831786Y-87740424D01*
X102831784Y-87740423D01*
X102679057Y-87699500D01*
X102520943Y-87699500D01*
X102368216Y-87740423D01*
X102368209Y-87740426D01*
X102231290Y-87819475D01*
X102231282Y-87819481D01*
X102119481Y-87931282D01*
X102119475Y-87931290D01*
X102040426Y-88068209D01*
X102040423Y-88068216D01*
X101999500Y-88220943D01*
X101999500Y-88379057D01*
X102032091Y-88500686D01*
X102040423Y-88531783D01*
X102040426Y-88531790D01*
X102119475Y-88668709D01*
X102119481Y-88668717D01*
X102163181Y-88712417D01*
X102196666Y-88773740D01*
X102199500Y-88800098D01*
X102199500Y-89799902D01*
X102179815Y-89866941D01*
X102163181Y-89887583D01*
X102119481Y-89931282D01*
X102119475Y-89931290D01*
X102040426Y-90068209D01*
X102040423Y-90068216D01*
X101999500Y-90220943D01*
X101999500Y-90379057D01*
X102035168Y-90512170D01*
X102040423Y-90531783D01*
X102040426Y-90531790D01*
X102119475Y-90668709D01*
X102119479Y-90668714D01*
X102119480Y-90668716D01*
X102231284Y-90780520D01*
X102231286Y-90780521D01*
X102231290Y-90780524D01*
X102307157Y-90824325D01*
X102368216Y-90859577D01*
X102520943Y-90900500D01*
X102520945Y-90900500D01*
X102679055Y-90900500D01*
X102679057Y-90900500D01*
X102831784Y-90859577D01*
X102968716Y-90780520D01*
X103080520Y-90668716D01*
X103159577Y-90531784D01*
X103200500Y-90379057D01*
X103200500Y-90220943D01*
X103159577Y-90068216D01*
X103131601Y-90019759D01*
X103080524Y-89931290D01*
X103080518Y-89931282D01*
X103036819Y-89887583D01*
X103003334Y-89826260D01*
X103000500Y-89799902D01*
X103000500Y-89547131D01*
X103020185Y-89480092D01*
X103072989Y-89434337D01*
X103142147Y-89424393D01*
X103205703Y-89453418D01*
X103243477Y-89512196D01*
X103246973Y-89527733D01*
X103267829Y-89659410D01*
X103323787Y-89831636D01*
X103323788Y-89831639D01*
X103406006Y-89992997D01*
X103512441Y-90139494D01*
X103512445Y-90139499D01*
X103640500Y-90267554D01*
X103640505Y-90267558D01*
X103706290Y-90315353D01*
X103787006Y-90373996D01*
X103892484Y-90427740D01*
X103948360Y-90456211D01*
X103948363Y-90456212D01*
X104034476Y-90484191D01*
X104120591Y-90512171D01*
X104193639Y-90523740D01*
X104280678Y-90537527D01*
X104343813Y-90567456D01*
X104380744Y-90626768D01*
X104379746Y-90696631D01*
X104341136Y-90754863D01*
X104280678Y-90782473D01*
X104120589Y-90807829D01*
X103948363Y-90863787D01*
X103948360Y-90863788D01*
X103787002Y-90946006D01*
X103640505Y-91052441D01*
X103640500Y-91052445D01*
X103512445Y-91180500D01*
X103512441Y-91180505D01*
X103406006Y-91327002D01*
X103337325Y-91461795D01*
X103289350Y-91512591D01*
X103226840Y-91529500D01*
X101424500Y-91529500D01*
X101357461Y-91509815D01*
X101311706Y-91457011D01*
X101300500Y-91405500D01*
X101300500Y-87547275D01*
X101300500Y-87547273D01*
X101273207Y-87445413D01*
X101220480Y-87354087D01*
X101145913Y-87279520D01*
X100626074Y-86759681D01*
X100592589Y-86698358D01*
X100597573Y-86628666D01*
X100639445Y-86572733D01*
X100704909Y-86548316D01*
X100713755Y-86548000D01*
X100833070Y-86548000D01*
X100846289Y-86546760D01*
X100862819Y-86545210D01*
X100862823Y-86545208D01*
X100862826Y-86545208D01*
X100939534Y-86518366D01*
X100988157Y-86501352D01*
X101084836Y-86429999D01*
X101150461Y-86406029D01*
X101218631Y-86421344D01*
X101225500Y-86425722D01*
X101337983Y-86483035D01*
X101350000Y-86484938D01*
X101350000Y-86484937D01*
X101850000Y-86484937D01*
X101862016Y-86483035D01*
X101972093Y-86426947D01*
X101972098Y-86426944D01*
X102059444Y-86339598D01*
X102059448Y-86339593D01*
X102115536Y-86229515D01*
X102122191Y-86187500D01*
X101850000Y-86187500D01*
X101850000Y-86484937D01*
X101350000Y-86484937D01*
X101350000Y-86061500D01*
X101369685Y-85994461D01*
X101422489Y-85948706D01*
X101474000Y-85937500D01*
X101600000Y-85937500D01*
X101600000Y-85811500D01*
X101619685Y-85744461D01*
X101672489Y-85698706D01*
X101724000Y-85687500D01*
X102122191Y-85687500D01*
X102159316Y-85644032D01*
X102163096Y-85647260D01*
X102185039Y-85621176D01*
X102251784Y-85600513D01*
X102253596Y-85600500D01*
X103552725Y-85600500D01*
X103552727Y-85600500D01*
X103654588Y-85573207D01*
X103745913Y-85520480D01*
X103850717Y-85415674D01*
X103912040Y-85382189D01*
X103976716Y-85385423D01*
X104006518Y-85395107D01*
X104120590Y-85432171D01*
X104299449Y-85460500D01*
X104299454Y-85460500D01*
X104480551Y-85460500D01*
X104572645Y-85445913D01*
X104659409Y-85432171D01*
X104831639Y-85376211D01*
X104992994Y-85293996D01*
X105139501Y-85187553D01*
X105267553Y-85059501D01*
X105275180Y-85049003D01*
X105330508Y-85006336D01*
X105400121Y-85000355D01*
X105461917Y-85032959D01*
G37*
%TD.AperFunction*%
%TA.AperFunction,Conductor*%
G36*
X87866606Y-86853265D02*
G01*
X87917657Y-86884050D01*
X88091587Y-87057980D01*
X88170674Y-87103641D01*
X88177504Y-87107585D01*
X88182912Y-87110707D01*
X88284773Y-87138000D01*
X89296245Y-87138000D01*
X89363284Y-87157685D01*
X89409039Y-87210489D01*
X89418983Y-87279647D01*
X89389958Y-87343203D01*
X89383926Y-87349681D01*
X87833697Y-88899909D01*
X87772374Y-88933394D01*
X87702682Y-88928410D01*
X87646749Y-88886538D01*
X87635531Y-88868523D01*
X87613870Y-88826011D01*
X87593996Y-88787006D01*
X87566191Y-88748736D01*
X87487558Y-88640505D01*
X87487554Y-88640500D01*
X87359499Y-88512445D01*
X87359494Y-88512441D01*
X87212997Y-88406006D01*
X87212996Y-88406005D01*
X87212994Y-88406004D01*
X87160104Y-88379055D01*
X87051639Y-88323788D01*
X87051636Y-88323787D01*
X86879410Y-88267829D01*
X86700551Y-88239500D01*
X86700546Y-88239500D01*
X86519454Y-88239500D01*
X86519449Y-88239500D01*
X86340589Y-88267829D01*
X86168363Y-88323787D01*
X86168360Y-88323788D01*
X86007002Y-88406006D01*
X85860505Y-88512441D01*
X85860500Y-88512445D01*
X85732445Y-88640500D01*
X85732441Y-88640505D01*
X85724818Y-88650998D01*
X85669488Y-88693664D01*
X85599875Y-88699643D01*
X85538080Y-88667037D01*
X85503723Y-88606199D01*
X85500500Y-88578113D01*
X85500500Y-87553247D01*
X85520185Y-87486208D01*
X85572989Y-87440453D01*
X85634231Y-87429629D01*
X85673710Y-87432736D01*
X86127037Y-86979409D01*
X86144075Y-87042993D01*
X86209901Y-87157007D01*
X86302993Y-87250099D01*
X86417007Y-87315925D01*
X86480589Y-87332962D01*
X86027261Y-87786289D01*
X86027262Y-87786290D01*
X86033471Y-87790801D01*
X86187742Y-87869408D01*
X86352415Y-87922914D01*
X86523429Y-87950000D01*
X86696571Y-87950000D01*
X86867584Y-87922914D01*
X87032257Y-87869408D01*
X87186525Y-87790803D01*
X87192736Y-87786289D01*
X87192737Y-87786289D01*
X86739410Y-87332962D01*
X86802993Y-87315925D01*
X86917007Y-87250099D01*
X87010099Y-87157007D01*
X87075925Y-87042993D01*
X87092962Y-86979409D01*
X87546289Y-87432736D01*
X87550803Y-87426525D01*
X87629408Y-87272257D01*
X87682913Y-87107585D01*
X87707503Y-86952333D01*
X87737432Y-86889199D01*
X87796743Y-86852267D01*
X87866606Y-86853265D01*
G37*
%TD.AperFunction*%
%TA.AperFunction,Conductor*%
G36*
X95989072Y-82879833D02*
G01*
X96033420Y-82908334D01*
X96545566Y-83420480D01*
X96636891Y-83473207D01*
X96738752Y-83500500D01*
X96844206Y-83500500D01*
X97020356Y-83500500D01*
X97087395Y-83520185D01*
X97133150Y-83572989D01*
X97143094Y-83642147D01*
X97138524Y-83662081D01*
X97134454Y-83674875D01*
X97126793Y-83688146D01*
X97109125Y-83754087D01*
X97108391Y-83756824D01*
X97108384Y-83756848D01*
X97100545Y-83786107D01*
X97099500Y-83790007D01*
X97099500Y-84887376D01*
X97099500Y-84992830D01*
X97103119Y-85006336D01*
X97126793Y-85094692D01*
X97142494Y-85121886D01*
X97179520Y-85186016D01*
X97179522Y-85186018D01*
X97593978Y-85600474D01*
X97627463Y-85661797D01*
X97622479Y-85731489D01*
X97593978Y-85775836D01*
X97554694Y-85815119D01*
X97554688Y-85815127D01*
X97475639Y-85952046D01*
X97475636Y-85952053D01*
X97434713Y-86104780D01*
X97434713Y-86191790D01*
X97415028Y-86258829D01*
X97362224Y-86304584D01*
X97342808Y-86311564D01*
X97327535Y-86315657D01*
X97203427Y-86348911D01*
X97203422Y-86348914D01*
X97066503Y-86427963D01*
X97066499Y-86427966D01*
X96995805Y-86498660D01*
X96934481Y-86532144D01*
X96864790Y-86527159D01*
X96846125Y-86518366D01*
X96776074Y-86477923D01*
X96671494Y-86449901D01*
X96623347Y-86437000D01*
X96465233Y-86437000D01*
X96312506Y-86477923D01*
X96312499Y-86477926D01*
X96175580Y-86556975D01*
X96175576Y-86556978D01*
X96065365Y-86667189D01*
X96004042Y-86700673D01*
X95934350Y-86695689D01*
X95890003Y-86667188D01*
X95778796Y-86555981D01*
X95778788Y-86555975D01*
X95641869Y-86476926D01*
X95641865Y-86476924D01*
X95641863Y-86476923D01*
X95489136Y-86436000D01*
X95331022Y-86436000D01*
X95178295Y-86476923D01*
X95178294Y-86476923D01*
X95123002Y-86508846D01*
X95055102Y-86525317D01*
X94999004Y-86508846D01*
X94857885Y-86427372D01*
X94835388Y-86421344D01*
X94705158Y-86386449D01*
X94547044Y-86386449D01*
X94394317Y-86427372D01*
X94394310Y-86427375D01*
X94257391Y-86506424D01*
X94257383Y-86506430D01*
X94145582Y-86618231D01*
X94145576Y-86618239D01*
X94066527Y-86755158D01*
X94066524Y-86755165D01*
X94025601Y-86907892D01*
X94025601Y-87066006D01*
X94050167Y-87157685D01*
X94066524Y-87218732D01*
X94066527Y-87218739D01*
X94145576Y-87355658D01*
X94145582Y-87355666D01*
X94215235Y-87425319D01*
X94223347Y-87440176D01*
X94235494Y-87451968D01*
X94239745Y-87470205D01*
X94248720Y-87486642D01*
X94247512Y-87503528D01*
X94251355Y-87520014D01*
X94245071Y-87537652D01*
X94243736Y-87556334D01*
X94233589Y-87569887D01*
X94227910Y-87585833D01*
X94213085Y-87597276D01*
X94201864Y-87612267D01*
X94185661Y-87618447D01*
X94172603Y-87628528D01*
X94146233Y-87633487D01*
X94138230Y-87636540D01*
X94132907Y-87637000D01*
X94016740Y-87637000D01*
X93948607Y-87646927D01*
X93933697Y-87654215D01*
X93910676Y-87656205D01*
X93898159Y-87653675D01*
X93885575Y-87655823D01*
X93860955Y-87648594D01*
X93860592Y-87649770D01*
X93851388Y-87646925D01*
X93783261Y-87637000D01*
X93783260Y-87637000D01*
X93616740Y-87637000D01*
X93616739Y-87637000D01*
X93548611Y-87646925D01*
X93539408Y-87649770D01*
X93538488Y-87646794D01*
X93485575Y-87655823D01*
X93460955Y-87648594D01*
X93460592Y-87649770D01*
X93451388Y-87646925D01*
X93383261Y-87637000D01*
X93383260Y-87637000D01*
X93216740Y-87637000D01*
X93216739Y-87637000D01*
X93148611Y-87646925D01*
X93139408Y-87649770D01*
X93138500Y-87646833D01*
X93086192Y-87655894D01*
X93064842Y-87653501D01*
X93051393Y-87646927D01*
X92983260Y-87637000D01*
X92917573Y-87637000D01*
X92910692Y-87636229D01*
X92884598Y-87625283D01*
X92857461Y-87617315D01*
X92852812Y-87611950D01*
X92846261Y-87609202D01*
X92830225Y-87585884D01*
X92811706Y-87564511D01*
X92809937Y-87556380D01*
X92806671Y-87551631D01*
X92806296Y-87539646D01*
X92800500Y-87513000D01*
X92800500Y-87454245D01*
X92800500Y-87454240D01*
X92790573Y-87386107D01*
X92790571Y-87386104D01*
X92790571Y-87386100D01*
X92787730Y-87376904D01*
X92790709Y-87375983D01*
X92781673Y-87323110D01*
X92788910Y-87298460D01*
X92787730Y-87298096D01*
X92790571Y-87288899D01*
X92790571Y-87288896D01*
X92790573Y-87288893D01*
X92800500Y-87220760D01*
X92800500Y-87054240D01*
X92790573Y-86986107D01*
X92790571Y-86986104D01*
X92790571Y-86986100D01*
X92787730Y-86976904D01*
X92790709Y-86975983D01*
X92781673Y-86923110D01*
X92788910Y-86898460D01*
X92787730Y-86898096D01*
X92790571Y-86888899D01*
X92790571Y-86888896D01*
X92790573Y-86888893D01*
X92800500Y-86820760D01*
X92800500Y-86654240D01*
X92790573Y-86586107D01*
X92790571Y-86586104D01*
X92790571Y-86586100D01*
X92787730Y-86576904D01*
X92790709Y-86575983D01*
X92781673Y-86523110D01*
X92788910Y-86498460D01*
X92787730Y-86498096D01*
X92790571Y-86488899D01*
X92790571Y-86488896D01*
X92790573Y-86488893D01*
X92800500Y-86420760D01*
X92800500Y-86254754D01*
X92820185Y-86187715D01*
X92836819Y-86167073D01*
X93356632Y-85647260D01*
X93921480Y-85082413D01*
X93974207Y-84991088D01*
X94001500Y-84889227D01*
X94001500Y-84783773D01*
X94001500Y-83524500D01*
X94021185Y-83457461D01*
X94073989Y-83411706D01*
X94125500Y-83400500D01*
X95252725Y-83400500D01*
X95252727Y-83400500D01*
X95354588Y-83373207D01*
X95445913Y-83320480D01*
X95858058Y-82908333D01*
X95919381Y-82874849D01*
X95989072Y-82879833D01*
G37*
%TD.AperFunction*%
%TA.AperFunction,Conductor*%
G36*
X85705703Y-85028173D02*
G01*
X85724821Y-85049004D01*
X85732446Y-85059500D01*
X85860500Y-85187554D01*
X85860505Y-85187558D01*
X85988287Y-85280396D01*
X86007006Y-85293996D01*
X86108892Y-85345910D01*
X86168360Y-85376211D01*
X86168363Y-85376212D01*
X86226518Y-85395107D01*
X86340591Y-85432171D01*
X86449545Y-85449426D01*
X86468775Y-85458543D01*
X86489571Y-85463067D01*
X86508999Y-85477611D01*
X86512676Y-85479354D01*
X86517825Y-85484218D01*
X86575949Y-85542342D01*
X86609434Y-85603665D01*
X86604450Y-85673357D01*
X86562578Y-85729290D01*
X86507666Y-85752496D01*
X86352415Y-85777085D01*
X86187740Y-85830592D01*
X86033480Y-85909193D01*
X86033463Y-85909203D01*
X86027261Y-85913708D01*
X86027261Y-85913709D01*
X86480590Y-86367037D01*
X86417007Y-86384075D01*
X86302993Y-86449901D01*
X86209901Y-86542993D01*
X86144075Y-86657007D01*
X86127037Y-86720590D01*
X85673709Y-86267261D01*
X85634235Y-86270370D01*
X85565857Y-86256010D01*
X85516098Y-86206961D01*
X85500500Y-86146753D01*
X85500500Y-85121886D01*
X85520185Y-85054847D01*
X85572989Y-85009092D01*
X85642147Y-84999148D01*
X85705703Y-85028173D01*
G37*
%TD.AperFunction*%
%TA.AperFunction,Conductor*%
G36*
X88574661Y-85481044D02*
G01*
X88647273Y-85500500D01*
X88752727Y-85500500D01*
X89076000Y-85500500D01*
X89084685Y-85503050D01*
X89093647Y-85501762D01*
X89117687Y-85512740D01*
X89143039Y-85520185D01*
X89148966Y-85527025D01*
X89157203Y-85530787D01*
X89171492Y-85553021D01*
X89188794Y-85572989D01*
X89191081Y-85583503D01*
X89194977Y-85589565D01*
X89200000Y-85624500D01*
X89200000Y-85813000D01*
X89180315Y-85880039D01*
X89127511Y-85925794D01*
X89076000Y-85937000D01*
X88754755Y-85937000D01*
X88687716Y-85917315D01*
X88667074Y-85900681D01*
X88454894Y-85688501D01*
X88421409Y-85627178D01*
X88426393Y-85557486D01*
X88468265Y-85501553D01*
X88533729Y-85477136D01*
X88574661Y-85481044D01*
G37*
%TD.AperFunction*%
%TA.AperFunction,Conductor*%
G36*
X101765395Y-80216690D02*
G01*
X101795818Y-80279588D01*
X101797500Y-80299944D01*
X101797500Y-80775246D01*
X101777815Y-80842285D01*
X101754030Y-80869537D01*
X101730000Y-80890060D01*
X101730000Y-81984937D01*
X101754034Y-82005465D01*
X101792225Y-82063973D01*
X101797500Y-82099754D01*
X101797500Y-82614393D01*
X101794602Y-82624261D01*
X101795864Y-82634468D01*
X101784925Y-82657217D01*
X101777815Y-82681432D01*
X101770044Y-82688165D01*
X101765586Y-82697437D01*
X101744081Y-82710662D01*
X101725011Y-82727187D01*
X101713250Y-82729623D01*
X101706071Y-82734039D01*
X101685107Y-82735454D01*
X101671043Y-82738369D01*
X101659011Y-82738130D01*
X101654792Y-82737000D01*
X101601963Y-82737000D01*
X101600752Y-82736976D01*
X101568529Y-82726816D01*
X101536170Y-82717315D01*
X101535334Y-82716351D01*
X101534116Y-82715967D01*
X101512502Y-82690000D01*
X101490415Y-82664511D01*
X101489753Y-82662671D01*
X101489416Y-82662266D01*
X101489315Y-82661452D01*
X101483435Y-82645095D01*
X101482827Y-82642825D01*
X101471965Y-82624011D01*
X101403774Y-82505899D01*
X101403768Y-82505891D01*
X101291967Y-82394090D01*
X101291959Y-82394084D01*
X101155040Y-82315035D01*
X101155035Y-82315032D01*
X101059952Y-82289554D01*
X101002307Y-82274109D01*
X101002306Y-82274109D01*
X100999470Y-82273349D01*
X100989953Y-82267548D01*
X100978938Y-82265853D01*
X100960651Y-82249687D01*
X100939810Y-82236984D01*
X100933575Y-82225751D01*
X100926590Y-82219577D01*
X100913498Y-82189583D01*
X100912247Y-82187329D01*
X100912017Y-82186519D01*
X100890269Y-82105351D01*
X100887889Y-82101230D01*
X100884465Y-82089124D01*
X100884741Y-82061163D01*
X100881752Y-82033354D01*
X100885083Y-82026698D01*
X100885157Y-82019257D01*
X100900509Y-81995880D01*
X100913026Y-81970874D01*
X100922457Y-81962459D01*
X100923511Y-81960856D01*
X100924995Y-81960195D01*
X100930137Y-81955607D01*
X100964837Y-81929998D01*
X101030461Y-81906029D01*
X101098632Y-81921344D01*
X101105502Y-81925723D01*
X101217983Y-81983035D01*
X101230000Y-81984938D01*
X101230000Y-80890061D01*
X101229999Y-80890061D01*
X101217980Y-80891965D01*
X101217977Y-80891966D01*
X101104543Y-80949764D01*
X101103745Y-80950656D01*
X101101676Y-80951225D01*
X101099213Y-80952481D01*
X101098955Y-80951975D01*
X101074306Y-80958765D01*
X101045540Y-80969027D01*
X101040937Y-80967956D01*
X101036384Y-80969211D01*
X101007233Y-80960117D01*
X100977487Y-80953198D01*
X100972945Y-80949420D01*
X100969685Y-80948403D01*
X100964834Y-80944999D01*
X100918042Y-80910465D01*
X100868157Y-80873648D01*
X100868155Y-80873647D01*
X100850401Y-80867434D01*
X100793626Y-80826711D01*
X100767881Y-80761758D01*
X100781339Y-80693196D01*
X100803674Y-80662717D01*
X100840515Y-80625876D01*
X100853238Y-80618929D01*
X100862917Y-80608132D01*
X100883289Y-80602520D01*
X100901836Y-80592393D01*
X100922476Y-80591726D01*
X100930278Y-80589577D01*
X100935787Y-80591295D01*
X100946673Y-80590944D01*
X101021213Y-80602179D01*
X101152519Y-80582388D01*
X101272159Y-80524773D01*
X101295170Y-80505707D01*
X101568207Y-80232670D01*
X101578016Y-80220831D01*
X101635944Y-80181768D01*
X101705797Y-80180224D01*
X101765395Y-80216690D01*
G37*
%TD.AperFunction*%
%TA.AperFunction,Conductor*%
G36*
X90008703Y-78825542D02*
G01*
X90015181Y-78831574D01*
X91581788Y-80398181D01*
X91615273Y-80459504D01*
X91610289Y-80529196D01*
X91568417Y-80585129D01*
X91502953Y-80609546D01*
X91453153Y-80602904D01*
X91422821Y-80592290D01*
X91422814Y-80592289D01*
X91393070Y-80589500D01*
X91393066Y-80589500D01*
X91006934Y-80589500D01*
X91006930Y-80589500D01*
X90977185Y-80592289D01*
X90977173Y-80592291D01*
X90851844Y-80636147D01*
X90851843Y-80636148D01*
X90760196Y-80703787D01*
X90755166Y-80707499D01*
X90689537Y-80731470D01*
X90621366Y-80716155D01*
X90614492Y-80711773D01*
X90502022Y-80654466D01*
X90502019Y-80654465D01*
X90490000Y-80652561D01*
X90490000Y-81747437D01*
X90502016Y-81745535D01*
X90502017Y-81745535D01*
X90620789Y-81685018D01*
X90621912Y-81687222D01*
X90625010Y-81686116D01*
X90639011Y-81675788D01*
X90657234Y-81674612D01*
X90674429Y-81668474D01*
X90691589Y-81672396D01*
X90708736Y-81671291D01*
X90730758Y-81681350D01*
X90741718Y-81683856D01*
X90748716Y-81687741D01*
X90851843Y-81763852D01*
X90943740Y-81796008D01*
X90952986Y-81801141D01*
X90961947Y-81810228D01*
X90980481Y-81821874D01*
X91291741Y-82133134D01*
X91325226Y-82194457D01*
X91326765Y-82238686D01*
X91324500Y-82254237D01*
X91324500Y-82283926D01*
X91317851Y-82306567D01*
X91315599Y-82330058D01*
X91308189Y-82339471D01*
X91304815Y-82350965D01*
X91286983Y-82366416D01*
X91272387Y-82384962D01*
X91261063Y-82388876D01*
X91252011Y-82396720D01*
X91228655Y-82400078D01*
X91206351Y-82407788D01*
X91188446Y-82405859D01*
X91182853Y-82406664D01*
X91171218Y-82404419D01*
X91169791Y-82404072D01*
X91152727Y-82399500D01*
X91150977Y-82399500D01*
X91142422Y-82397421D01*
X91117712Y-82383141D01*
X91091609Y-82371590D01*
X91084023Y-82364609D01*
X91038895Y-82319481D01*
X91038887Y-82319475D01*
X90901968Y-82240426D01*
X90901964Y-82240424D01*
X90901962Y-82240423D01*
X90749235Y-82199500D01*
X90591121Y-82199500D01*
X90438394Y-82240423D01*
X90438387Y-82240426D01*
X90301468Y-82319475D01*
X90301460Y-82319481D01*
X90189659Y-82431282D01*
X90189653Y-82431290D01*
X90110604Y-82568209D01*
X90110601Y-82568214D01*
X90109453Y-82572500D01*
X90100852Y-82604595D01*
X90086359Y-82628373D01*
X90074792Y-82653703D01*
X90068426Y-82657793D01*
X90064489Y-82664254D01*
X90039441Y-82676421D01*
X90016014Y-82691477D01*
X90005266Y-82693022D01*
X90001642Y-82694783D01*
X89981079Y-82696500D01*
X89927500Y-82696500D01*
X89860461Y-82676815D01*
X89814706Y-82624011D01*
X89803500Y-82572500D01*
X89803500Y-81858982D01*
X89823185Y-81791943D01*
X89875989Y-81746188D01*
X89945147Y-81736244D01*
X89968346Y-81743599D01*
X89968698Y-81742519D01*
X89977983Y-81745535D01*
X89990000Y-81747438D01*
X89990000Y-80652561D01*
X89989999Y-80652561D01*
X89977980Y-80654465D01*
X89968699Y-80657481D01*
X89967736Y-80654520D01*
X89915111Y-80664397D01*
X89850374Y-80638112D01*
X89810123Y-80581001D01*
X89803500Y-80541017D01*
X89803500Y-78919255D01*
X89823185Y-78852216D01*
X89875989Y-78806461D01*
X89945147Y-78796517D01*
X90008703Y-78825542D01*
G37*
%TD.AperFunction*%
%TA.AperFunction,Conductor*%
G36*
X91929830Y-80760618D02*
G01*
X91971818Y-80788211D01*
X92463181Y-81279574D01*
X92496666Y-81340897D01*
X92499500Y-81367255D01*
X92499500Y-81813000D01*
X92496949Y-81821685D01*
X92498238Y-81830647D01*
X92487259Y-81854687D01*
X92479815Y-81880039D01*
X92472974Y-81885966D01*
X92469213Y-81894203D01*
X92446978Y-81908492D01*
X92427011Y-81925794D01*
X92416496Y-81928081D01*
X92410435Y-81931977D01*
X92375500Y-81937000D01*
X92279755Y-81937000D01*
X92212716Y-81917315D01*
X92192074Y-81900681D01*
X91816057Y-81524664D01*
X91782572Y-81463341D01*
X91780282Y-81425388D01*
X91780500Y-81423066D01*
X91780500Y-80976934D01*
X91777710Y-80947181D01*
X91767096Y-80916848D01*
X91763533Y-80847069D01*
X91798261Y-80786442D01*
X91860254Y-80754214D01*
X91929830Y-80760618D01*
G37*
%TD.AperFunction*%
%TA.AperFunction,Conductor*%
G36*
X91304946Y-77550074D02*
G01*
X91331877Y-77582428D01*
X91346329Y-77607458D01*
X91353520Y-77619913D01*
X92326151Y-78592544D01*
X93263181Y-79529573D01*
X93296666Y-79590896D01*
X93299500Y-79617254D01*
X93299500Y-80033745D01*
X93279815Y-80100784D01*
X93227011Y-80146539D01*
X93157853Y-80156483D01*
X93094297Y-80127458D01*
X93087819Y-80121426D01*
X90740573Y-77774180D01*
X90707088Y-77712857D01*
X90712072Y-77643165D01*
X90753944Y-77587232D01*
X90819408Y-77562815D01*
X90828254Y-77562499D01*
X91074115Y-77562499D01*
X91119633Y-77556507D01*
X91172085Y-77532048D01*
X91241162Y-77521555D01*
X91304946Y-77550074D01*
G37*
%TD.AperFunction*%
%TA.AperFunction,Conductor*%
G36*
X98693681Y-77633344D02*
G01*
X98721147Y-77637963D01*
X98726746Y-77643053D01*
X98734005Y-77645185D01*
X98752237Y-77666226D01*
X98772847Y-77684962D01*
X98777122Y-77694944D01*
X98779760Y-77697989D01*
X98786739Y-77717401D01*
X98794379Y-77745912D01*
X98806471Y-77791042D01*
X98806474Y-77791047D01*
X98885523Y-77927966D01*
X98885527Y-77927971D01*
X98885528Y-77927973D01*
X98997332Y-78039777D01*
X98997334Y-78039778D01*
X98997338Y-78039781D01*
X99134257Y-78118830D01*
X99134264Y-78118834D01*
X99286991Y-78159757D01*
X99286993Y-78159757D01*
X99442002Y-78159757D01*
X99509041Y-78179442D01*
X99529683Y-78196076D01*
X100075179Y-78741571D01*
X100075200Y-78741594D01*
X100263181Y-78929574D01*
X100296666Y-78990897D01*
X100299500Y-79017255D01*
X100299500Y-79584773D01*
X100299500Y-79690227D01*
X100308666Y-79724434D01*
X100326794Y-79792091D01*
X100329905Y-79799602D01*
X100328686Y-79800106D01*
X100331051Y-79809851D01*
X100340109Y-79825910D01*
X100341104Y-79851284D01*
X100343178Y-79859831D01*
X100343112Y-79861076D01*
X100342783Y-79866778D01*
X100335321Y-79916287D01*
X100338652Y-79938391D01*
X100337910Y-79951267D01*
X100330316Y-79972516D01*
X100327256Y-79994874D01*
X100317020Y-80009723D01*
X100314398Y-80017062D01*
X100309204Y-80021062D01*
X100301797Y-80031808D01*
X100232823Y-80100784D01*
X100216265Y-80117342D01*
X100154942Y-80150827D01*
X100085250Y-80145843D01*
X100029316Y-80103972D01*
X100004899Y-80038508D01*
X100018099Y-79973365D01*
X100045533Y-79919522D01*
X100045534Y-79919519D01*
X100047438Y-79907500D01*
X99624000Y-79907500D01*
X99556961Y-79887815D01*
X99511206Y-79835011D01*
X99500000Y-79783500D01*
X99500000Y-79657500D01*
X99374000Y-79657500D01*
X99306961Y-79637815D01*
X99261206Y-79585011D01*
X99250000Y-79533500D01*
X99250000Y-79407500D01*
X99750000Y-79407500D01*
X100047438Y-79407500D01*
X100047438Y-79407499D01*
X100045535Y-79395483D01*
X99989447Y-79285406D01*
X99989444Y-79285401D01*
X99902098Y-79198055D01*
X99902093Y-79198051D01*
X99792018Y-79141965D01*
X99750000Y-79135309D01*
X99750000Y-79407500D01*
X99250000Y-79407500D01*
X99250000Y-79135309D01*
X99207984Y-79141964D01*
X99207976Y-79141966D01*
X99186802Y-79152754D01*
X99139924Y-79195166D01*
X99086010Y-79207500D01*
X98624000Y-79207500D01*
X98556961Y-79187815D01*
X98511206Y-79135011D01*
X98500000Y-79083500D01*
X98500000Y-78957500D01*
X98374000Y-78957500D01*
X98306961Y-78937815D01*
X98261206Y-78885011D01*
X98250000Y-78833500D01*
X98250000Y-78707500D01*
X98750000Y-78707500D01*
X99047438Y-78707500D01*
X99045535Y-78695483D01*
X98989447Y-78585406D01*
X98989444Y-78585401D01*
X98902098Y-78498055D01*
X98902093Y-78498051D01*
X98792018Y-78441965D01*
X98750000Y-78435309D01*
X98750000Y-78707500D01*
X98250000Y-78707500D01*
X98250000Y-78435309D01*
X98249999Y-78435309D01*
X98207984Y-78441963D01*
X98097906Y-78498051D01*
X98013040Y-78582917D01*
X97951716Y-78616401D01*
X97882025Y-78611417D01*
X97826091Y-78569545D01*
X97808318Y-78536190D01*
X97775346Y-78441965D01*
X97774381Y-78439206D01*
X97710350Y-78352447D01*
X97696423Y-78333576D01*
X97590794Y-78255619D01*
X97583106Y-78252929D01*
X97526331Y-78212206D01*
X97500585Y-78147252D01*
X97514043Y-78078691D01*
X97536378Y-78048211D01*
X97922772Y-77661819D01*
X97984095Y-77628334D01*
X98010453Y-77625500D01*
X98666966Y-77625500D01*
X98693681Y-77633344D01*
G37*
%TD.AperFunction*%
%TA.AperFunction,Conductor*%
G36*
X100946492Y-77873496D02*
G01*
X101047273Y-77900500D01*
X101882745Y-77900500D01*
X101949784Y-77920185D01*
X101970426Y-77936819D01*
X102463181Y-78429574D01*
X102496666Y-78490897D01*
X102499500Y-78517255D01*
X102499500Y-79086068D01*
X102479815Y-79153107D01*
X102427011Y-79198862D01*
X102357853Y-79208806D01*
X102294297Y-79179781D01*
X102257569Y-79124386D01*
X102249849Y-79100627D01*
X102249849Y-79100626D01*
X102224844Y-79066210D01*
X102224842Y-79066209D01*
X101943279Y-79347773D01*
X101881956Y-79381258D01*
X101812264Y-79376274D01*
X101767917Y-79347773D01*
X101678822Y-79258678D01*
X101589726Y-79347774D01*
X101528403Y-79381259D01*
X101458711Y-79376275D01*
X101414364Y-79347774D01*
X101136819Y-79070229D01*
X101122115Y-79043301D01*
X101105523Y-79017483D01*
X101104631Y-79011282D01*
X101103334Y-79008906D01*
X101100500Y-78982548D01*
X101100500Y-78747275D01*
X101100500Y-78747273D01*
X101086440Y-78694802D01*
X101468499Y-78694802D01*
X101678822Y-78905124D01*
X101871289Y-78712658D01*
X101871288Y-78712657D01*
X101836874Y-78687652D01*
X101836871Y-78687651D01*
X101719382Y-78649476D01*
X101595842Y-78649476D01*
X101595833Y-78649477D01*
X101478348Y-78687649D01*
X101478345Y-78687650D01*
X101468499Y-78694802D01*
X101086440Y-78694802D01*
X101081458Y-78676207D01*
X101081458Y-78676205D01*
X101073208Y-78645415D01*
X101073207Y-78645413D01*
X101073207Y-78645412D01*
X101020480Y-78554087D01*
X100836819Y-78370426D01*
X100822115Y-78343498D01*
X100805523Y-78317680D01*
X100804631Y-78311479D01*
X100803334Y-78309103D01*
X100800500Y-78282745D01*
X100800500Y-78162729D01*
X100800501Y-78162716D01*
X100800501Y-78047274D01*
X100800501Y-78047273D01*
X100794631Y-78025366D01*
X100794775Y-78019297D01*
X100792122Y-78013835D01*
X100795596Y-77984778D01*
X100796292Y-77955518D01*
X100799696Y-77950488D01*
X100800417Y-77944459D01*
X100819052Y-77921888D01*
X100835454Y-77897655D01*
X100841034Y-77895265D01*
X100844902Y-77890581D01*
X100872781Y-77881669D01*
X100899681Y-77870149D01*
X100907149Y-77870683D01*
X100911454Y-77869307D01*
X100946492Y-77873496D01*
G37*
%TD.AperFunction*%
%TA.AperFunction,Conductor*%
G36*
X92933039Y-74419685D02*
G01*
X92978794Y-74472489D01*
X92990000Y-74524000D01*
X92990000Y-74947437D01*
X93002016Y-74945535D01*
X93119205Y-74885825D01*
X93121910Y-74885316D01*
X93123989Y-74883516D01*
X93156038Y-74878907D01*
X93187874Y-74872929D01*
X93190423Y-74873963D01*
X93193147Y-74873572D01*
X93222605Y-74887025D01*
X93252615Y-74899205D01*
X93254200Y-74901454D01*
X93256703Y-74902597D01*
X93274211Y-74929840D01*
X93292872Y-74956312D01*
X93293444Y-74959768D01*
X93294477Y-74961375D01*
X93299500Y-74996310D01*
X93299500Y-75138000D01*
X93279815Y-75205039D01*
X93227011Y-75250794D01*
X93175501Y-75262000D01*
X93078049Y-75262000D01*
X93007493Y-75272279D01*
X92898650Y-75325489D01*
X92812988Y-75411151D01*
X92759780Y-75519988D01*
X92758053Y-75531843D01*
X92749500Y-75590551D01*
X92749500Y-75590555D01*
X92749500Y-75590556D01*
X92749500Y-75784450D01*
X92759779Y-75855007D01*
X92759779Y-75855008D01*
X92773484Y-75883043D01*
X92785241Y-75951916D01*
X92773484Y-75991957D01*
X92765886Y-76007500D01*
X92759780Y-76019991D01*
X92749500Y-76090551D01*
X92749500Y-76090555D01*
X92749500Y-76090556D01*
X92749500Y-76284450D01*
X92759779Y-76355007D01*
X92759779Y-76355008D01*
X92773484Y-76383043D01*
X92785241Y-76451916D01*
X92773484Y-76491957D01*
X92759781Y-76519988D01*
X92759780Y-76519991D01*
X92749500Y-76590551D01*
X92749500Y-76590555D01*
X92749500Y-76590556D01*
X92749500Y-76784450D01*
X92759779Y-76855007D01*
X92759779Y-76855008D01*
X92773484Y-76883043D01*
X92785241Y-76951916D01*
X92773484Y-76991957D01*
X92759781Y-77019988D01*
X92759780Y-77019991D01*
X92749500Y-77090551D01*
X92749500Y-77090555D01*
X92749500Y-77090556D01*
X92749500Y-77284450D01*
X92759779Y-77355006D01*
X92759779Y-77355007D01*
X92759780Y-77355009D01*
X92801086Y-77439501D01*
X92812989Y-77463849D01*
X92898651Y-77549511D01*
X93007488Y-77602719D01*
X93007489Y-77602719D01*
X93007491Y-77602720D01*
X93078051Y-77613000D01*
X93307743Y-77612999D01*
X93374783Y-77632683D01*
X93395425Y-77649318D01*
X93663181Y-77917074D01*
X93696666Y-77978397D01*
X93699500Y-78004755D01*
X93699500Y-78533745D01*
X93679815Y-78600784D01*
X93627011Y-78646539D01*
X93557853Y-78656483D01*
X93494297Y-78627458D01*
X93487819Y-78621426D01*
X92438812Y-77572420D01*
X92405327Y-77511097D01*
X92410311Y-77441405D01*
X92424196Y-77414658D01*
X92427201Y-77410269D01*
X92427206Y-77410265D01*
X92472585Y-77307491D01*
X92475500Y-77282365D01*
X92475499Y-75592636D01*
X92475258Y-75590556D01*
X92472586Y-75567512D01*
X92472585Y-75567510D01*
X92472585Y-75567509D01*
X92427206Y-75464735D01*
X92347765Y-75385294D01*
X92347763Y-75385293D01*
X92244992Y-75339915D01*
X92219865Y-75337000D01*
X91930143Y-75337000D01*
X91930117Y-75337002D01*
X91905012Y-75339913D01*
X91905008Y-75339915D01*
X91802235Y-75385293D01*
X91722794Y-75464734D01*
X91677415Y-75567506D01*
X91677415Y-75567508D01*
X91674500Y-75592631D01*
X91674500Y-76380447D01*
X91654815Y-76447486D01*
X91602011Y-76493241D01*
X91532853Y-76503185D01*
X91469297Y-76474160D01*
X91462819Y-76468128D01*
X91429060Y-76434369D01*
X91395575Y-76373046D01*
X91394036Y-76328815D01*
X91400500Y-76284449D01*
X91400499Y-76090552D01*
X91399982Y-76087006D01*
X91390220Y-76019993D01*
X91390220Y-76019991D01*
X91376516Y-75991960D01*
X91364756Y-75923091D01*
X91376515Y-75883040D01*
X91390220Y-75855009D01*
X91400500Y-75784449D01*
X91400499Y-75590552D01*
X91395515Y-75556342D01*
X91393062Y-75539500D01*
X91390220Y-75519991D01*
X91337012Y-75411153D01*
X91337010Y-75411151D01*
X91337010Y-75411150D01*
X91251348Y-75325488D01*
X91142506Y-75272278D01*
X91137890Y-75270852D01*
X91116570Y-75256721D01*
X91093297Y-75246093D01*
X91087927Y-75237737D01*
X91079651Y-75232252D01*
X91069353Y-75208836D01*
X91055523Y-75187315D01*
X91053401Y-75172561D01*
X91051525Y-75168294D01*
X91050500Y-75152380D01*
X91050500Y-75015054D01*
X91070185Y-74948015D01*
X91100863Y-74915286D01*
X91116366Y-74903845D01*
X91181993Y-74879874D01*
X91250164Y-74895189D01*
X91263632Y-74903845D01*
X91323481Y-74948015D01*
X91359206Y-74974381D01*
X91397607Y-74987818D01*
X91483119Y-75017741D01*
X91490796Y-75018460D01*
X91512543Y-75020500D01*
X91887456Y-75020499D01*
X91916879Y-75017741D01*
X92040794Y-74974381D01*
X92146423Y-74896423D01*
X92157869Y-74880913D01*
X92213512Y-74838663D01*
X92283168Y-74833201D01*
X92344719Y-74866266D01*
X92345321Y-74866864D01*
X92367901Y-74889444D01*
X92367906Y-74889447D01*
X92477983Y-74945535D01*
X92490000Y-74947438D01*
X92490000Y-74524000D01*
X92509685Y-74456961D01*
X92562489Y-74411206D01*
X92614000Y-74400000D01*
X92866000Y-74400000D01*
X92933039Y-74419685D01*
G37*
%TD.AperFunction*%
%TA.AperFunction,Conductor*%
G36*
X88242539Y-72030185D02*
G01*
X88288294Y-72082989D01*
X88299500Y-72134500D01*
X88299500Y-77513745D01*
X88279815Y-77580784D01*
X88227011Y-77626539D01*
X88157853Y-77636483D01*
X88094297Y-77607458D01*
X88087819Y-77601426D01*
X87715674Y-77229281D01*
X87682189Y-77167958D01*
X87685424Y-77103283D01*
X87732171Y-76959409D01*
X87735641Y-76937500D01*
X87760500Y-76780551D01*
X87760500Y-76599448D01*
X87737132Y-76451916D01*
X87732171Y-76420591D01*
X87687935Y-76284443D01*
X87676212Y-76248363D01*
X87676211Y-76248360D01*
X87643238Y-76183648D01*
X87593996Y-76087006D01*
X87546833Y-76022091D01*
X87487558Y-75940505D01*
X87487554Y-75940500D01*
X87359499Y-75812445D01*
X87359494Y-75812441D01*
X87212997Y-75706006D01*
X87212996Y-75706005D01*
X87212994Y-75706004D01*
X87139660Y-75668638D01*
X87051639Y-75623788D01*
X87051636Y-75623787D01*
X86879410Y-75567829D01*
X86700551Y-75539500D01*
X86700546Y-75539500D01*
X86519454Y-75539500D01*
X86519449Y-75539500D01*
X86340589Y-75567829D01*
X86168363Y-75623787D01*
X86168360Y-75623788D01*
X86007002Y-75706006D01*
X85860505Y-75812441D01*
X85860500Y-75812445D01*
X85732445Y-75940500D01*
X85732441Y-75940505D01*
X85724818Y-75950998D01*
X85669488Y-75993664D01*
X85599875Y-75999643D01*
X85538080Y-75967037D01*
X85503723Y-75906199D01*
X85500500Y-75878113D01*
X85500500Y-74853247D01*
X85520185Y-74786208D01*
X85572989Y-74740453D01*
X85634231Y-74729629D01*
X85673710Y-74732736D01*
X86127037Y-74279409D01*
X86144075Y-74342993D01*
X86209901Y-74457007D01*
X86302993Y-74550099D01*
X86417007Y-74615925D01*
X86480589Y-74632962D01*
X86027261Y-75086289D01*
X86027262Y-75086290D01*
X86033471Y-75090801D01*
X86187742Y-75169408D01*
X86352415Y-75222914D01*
X86523429Y-75250000D01*
X86696571Y-75250000D01*
X86867584Y-75222914D01*
X87032257Y-75169408D01*
X87186525Y-75090803D01*
X87192736Y-75086289D01*
X87192737Y-75086289D01*
X86739410Y-74632962D01*
X86802993Y-74615925D01*
X86917007Y-74550099D01*
X87010099Y-74457007D01*
X87075925Y-74342993D01*
X87092962Y-74279410D01*
X87546289Y-74732737D01*
X87546289Y-74732736D01*
X87550803Y-74726525D01*
X87629408Y-74572257D01*
X87682914Y-74407584D01*
X87710000Y-74236571D01*
X87710000Y-74063428D01*
X87682914Y-73892415D01*
X87629408Y-73727742D01*
X87550801Y-73573471D01*
X87546290Y-73567262D01*
X87546289Y-73567261D01*
X87092962Y-74020589D01*
X87075925Y-73957007D01*
X87010099Y-73842993D01*
X86917007Y-73749901D01*
X86802993Y-73684075D01*
X86739409Y-73667037D01*
X87192737Y-73213709D01*
X87186525Y-73209196D01*
X87032259Y-73130592D01*
X86867584Y-73077085D01*
X86696571Y-73050000D01*
X86523429Y-73050000D01*
X86352415Y-73077085D01*
X86187740Y-73130592D01*
X86033480Y-73209193D01*
X86033463Y-73209203D01*
X86027261Y-73213708D01*
X86027261Y-73213709D01*
X86480590Y-73667037D01*
X86417007Y-73684075D01*
X86302993Y-73749901D01*
X86209901Y-73842993D01*
X86144075Y-73957007D01*
X86127037Y-74020590D01*
X85673709Y-73567261D01*
X85634235Y-73570370D01*
X85620622Y-73567511D01*
X85606853Y-73569491D01*
X85587104Y-73560472D01*
X85565857Y-73556010D01*
X85555950Y-73546244D01*
X85543297Y-73540466D01*
X85531559Y-73522201D01*
X85516098Y-73506961D01*
X85512270Y-73492187D01*
X85505523Y-73481688D01*
X85500500Y-73446753D01*
X85500500Y-72421886D01*
X85520185Y-72354847D01*
X85572989Y-72309092D01*
X85642147Y-72299148D01*
X85705703Y-72328173D01*
X85724821Y-72349004D01*
X85732446Y-72359500D01*
X85860500Y-72487554D01*
X85860505Y-72487558D01*
X85988287Y-72580396D01*
X86007006Y-72593996D01*
X86112484Y-72647740D01*
X86168360Y-72676211D01*
X86168363Y-72676212D01*
X86254476Y-72704191D01*
X86340591Y-72732171D01*
X86423429Y-72745291D01*
X86519449Y-72760500D01*
X86519454Y-72760500D01*
X86700551Y-72760500D01*
X86787259Y-72746765D01*
X86879409Y-72732171D01*
X87051639Y-72676211D01*
X87212994Y-72593996D01*
X87359501Y-72487553D01*
X87487553Y-72359501D01*
X87593996Y-72212994D01*
X87662675Y-72078205D01*
X87710650Y-72027409D01*
X87773160Y-72010500D01*
X88175500Y-72010500D01*
X88242539Y-72030185D01*
G37*
%TD.AperFunction*%
%TA.AperFunction,Conductor*%
G36*
X105461917Y-72332959D02*
G01*
X105496277Y-72393796D01*
X105499500Y-72421886D01*
X105499500Y-73446751D01*
X105479815Y-73513790D01*
X105427011Y-73559545D01*
X105365772Y-73570369D01*
X105326289Y-73567261D01*
X104872962Y-74020589D01*
X104855925Y-73957007D01*
X104790099Y-73842993D01*
X104697007Y-73749901D01*
X104582993Y-73684075D01*
X104519409Y-73667037D01*
X104972737Y-73213709D01*
X104966525Y-73209196D01*
X104812259Y-73130592D01*
X104647584Y-73077085D01*
X104476571Y-73050000D01*
X104303429Y-73050000D01*
X104132415Y-73077085D01*
X103967740Y-73130592D01*
X103813480Y-73209193D01*
X103813463Y-73209203D01*
X103807261Y-73213708D01*
X103807261Y-73213709D01*
X104260590Y-73667037D01*
X104197007Y-73684075D01*
X104082993Y-73749901D01*
X103989901Y-73842993D01*
X103924075Y-73957007D01*
X103907037Y-74020590D01*
X103453709Y-73567261D01*
X103453708Y-73567261D01*
X103449203Y-73573463D01*
X103449193Y-73573480D01*
X103370592Y-73727740D01*
X103317085Y-73892415D01*
X103290000Y-74063428D01*
X103290000Y-74236571D01*
X103317085Y-74407584D01*
X103370592Y-74572259D01*
X103449196Y-74726525D01*
X103453709Y-74732736D01*
X103453709Y-74732737D01*
X103907037Y-74279409D01*
X103924075Y-74342993D01*
X103989901Y-74457007D01*
X104082993Y-74550099D01*
X104197007Y-74615925D01*
X104260589Y-74632962D01*
X103807261Y-75086289D01*
X103807262Y-75086290D01*
X103813471Y-75090801D01*
X103967742Y-75169408D01*
X104132415Y-75222914D01*
X104303429Y-75250000D01*
X104476571Y-75250000D01*
X104647584Y-75222914D01*
X104812257Y-75169408D01*
X104966525Y-75090803D01*
X104972736Y-75086289D01*
X104972737Y-75086289D01*
X104519410Y-74632962D01*
X104582993Y-74615925D01*
X104697007Y-74550099D01*
X104790099Y-74457007D01*
X104855925Y-74342993D01*
X104872962Y-74279409D01*
X105326288Y-74732736D01*
X105365774Y-74729630D01*
X105434151Y-74743996D01*
X105483907Y-74793048D01*
X105499500Y-74853248D01*
X105499500Y-75878113D01*
X105479815Y-75945152D01*
X105427011Y-75990907D01*
X105357853Y-76000851D01*
X105294297Y-75971826D01*
X105275182Y-75950998D01*
X105267558Y-75940505D01*
X105267554Y-75940500D01*
X105139499Y-75812445D01*
X105139494Y-75812441D01*
X104992997Y-75706006D01*
X104992996Y-75706005D01*
X104992994Y-75706004D01*
X104919660Y-75668638D01*
X104831639Y-75623788D01*
X104831636Y-75623787D01*
X104659410Y-75567829D01*
X104480551Y-75539500D01*
X104480546Y-75539500D01*
X104299454Y-75539500D01*
X104299449Y-75539500D01*
X104120589Y-75567829D01*
X103948363Y-75623787D01*
X103948360Y-75623788D01*
X103787002Y-75706006D01*
X103640505Y-75812441D01*
X103640500Y-75812445D01*
X103512445Y-75940500D01*
X103512441Y-75940505D01*
X103406006Y-76087002D01*
X103323788Y-76248360D01*
X103323787Y-76248363D01*
X103267829Y-76420589D01*
X103239500Y-76599448D01*
X103239500Y-76780551D01*
X103267829Y-76959412D01*
X103314575Y-77103283D01*
X103316570Y-77173124D01*
X103284325Y-77229281D01*
X102927680Y-77585925D01*
X102866357Y-77619410D01*
X102796665Y-77614426D01*
X102752318Y-77585925D01*
X102345915Y-77179522D01*
X102345913Y-77179520D01*
X102300250Y-77153156D01*
X102254589Y-77126793D01*
X102188130Y-77108986D01*
X102152727Y-77099500D01*
X102152726Y-77099500D01*
X101317255Y-77099500D01*
X101287814Y-77090855D01*
X101257828Y-77084332D01*
X101252812Y-77080577D01*
X101250216Y-77079815D01*
X101229574Y-77063181D01*
X101136819Y-76970426D01*
X101103334Y-76909103D01*
X101100500Y-76882745D01*
X101100500Y-75842933D01*
X101120185Y-75775894D01*
X101136819Y-75755252D01*
X101372083Y-75519988D01*
X101621480Y-75270591D01*
X101626440Y-75262000D01*
X101674207Y-75179265D01*
X101701500Y-75077405D01*
X101701500Y-74916253D01*
X101721185Y-74849214D01*
X101737814Y-74828577D01*
X103850719Y-72715671D01*
X103912040Y-72682188D01*
X103976712Y-72685422D01*
X104069815Y-72715673D01*
X104120590Y-72732171D01*
X104299449Y-72760500D01*
X104299454Y-72760500D01*
X104480551Y-72760500D01*
X104567259Y-72746765D01*
X104659409Y-72732171D01*
X104831639Y-72676211D01*
X104992994Y-72593996D01*
X105139501Y-72487553D01*
X105267553Y-72359501D01*
X105275180Y-72349003D01*
X105330508Y-72306336D01*
X105400121Y-72300355D01*
X105461917Y-72332959D01*
G37*
%TD.AperFunction*%
%TA.AperFunction,Conductor*%
G36*
X97543039Y-74689685D02*
G01*
X97588794Y-74742489D01*
X97600000Y-74794000D01*
X97600000Y-75046000D01*
X97580315Y-75113039D01*
X97527511Y-75158794D01*
X97476000Y-75170000D01*
X97052562Y-75170000D01*
X97023381Y-75204164D01*
X96964872Y-75242355D01*
X96901766Y-75242802D01*
X96901657Y-75243492D01*
X96897498Y-75242833D01*
X96895004Y-75242851D01*
X96892192Y-75241992D01*
X96850000Y-75235309D01*
X96850000Y-75633500D01*
X96830315Y-75700539D01*
X96777511Y-75746294D01*
X96726000Y-75757500D01*
X96600000Y-75757500D01*
X96600000Y-75883500D01*
X96580315Y-75950539D01*
X96527511Y-75996294D01*
X96476000Y-76007500D01*
X94952562Y-76007500D01*
X94940099Y-76022091D01*
X94881590Y-76060282D01*
X94811722Y-76060778D01*
X94758130Y-76029237D01*
X94595915Y-75867022D01*
X94595913Y-75867020D01*
X94542000Y-75835893D01*
X94504589Y-75814293D01*
X94449655Y-75799574D01*
X94402727Y-75787000D01*
X94402726Y-75787000D01*
X94374499Y-75787000D01*
X94368545Y-75785251D01*
X94362451Y-75786413D01*
X94335419Y-75775524D01*
X94307460Y-75767315D01*
X94303397Y-75762626D01*
X94297641Y-75760308D01*
X94280782Y-75736527D01*
X94261705Y-75714511D01*
X94259912Y-75707088D01*
X94257233Y-75703309D01*
X94253267Y-75679572D01*
X94250627Y-75668638D01*
X94250499Y-75665834D01*
X94250499Y-75590552D01*
X94240220Y-75519991D01*
X94234113Y-75507499D01*
X94952561Y-75507499D01*
X94952561Y-75507500D01*
X95250000Y-75507500D01*
X95250000Y-75235309D01*
X95750000Y-75235309D01*
X95750000Y-75507500D01*
X96350000Y-75507500D01*
X96350000Y-75235309D01*
X96307984Y-75241963D01*
X96197906Y-75298051D01*
X96197901Y-75298055D01*
X96137681Y-75358276D01*
X96076358Y-75391761D01*
X96006666Y-75386777D01*
X95962319Y-75358276D01*
X95902098Y-75298055D01*
X95902093Y-75298051D01*
X95792018Y-75241965D01*
X95750000Y-75235309D01*
X95250000Y-75235309D01*
X95249999Y-75235309D01*
X95207984Y-75241963D01*
X95097906Y-75298051D01*
X95097901Y-75298055D01*
X95010555Y-75385401D01*
X95010550Y-75385408D01*
X94954466Y-75495477D01*
X94954465Y-75495480D01*
X94952561Y-75507499D01*
X94234113Y-75507499D01*
X94187012Y-75411153D01*
X94187010Y-75411151D01*
X94187010Y-75411150D01*
X94136819Y-75360959D01*
X94103334Y-75299636D01*
X94100500Y-75273278D01*
X94100500Y-74987818D01*
X94120185Y-74920779D01*
X94131222Y-74906116D01*
X94140063Y-74896022D01*
X94154999Y-74884999D01*
X94183268Y-74846695D01*
X94186682Y-74842798D01*
X94211972Y-74826734D01*
X94235838Y-74808615D01*
X94242402Y-74807407D01*
X94245661Y-74805338D01*
X94253429Y-74805379D01*
X94279960Y-74800500D01*
X96852725Y-74800500D01*
X96852727Y-74800500D01*
X96954588Y-74773207D01*
X97045913Y-74720480D01*
X97060074Y-74706319D01*
X97121397Y-74672834D01*
X97147755Y-74670000D01*
X97476000Y-74670000D01*
X97543039Y-74689685D01*
G37*
%TD.AperFunction*%
%TA.AperFunction,Conductor*%
G36*
X99849220Y-74285062D02*
G01*
X99853734Y-74284847D01*
X99886499Y-74297964D01*
X99993216Y-74359577D01*
X100145943Y-74400500D01*
X100145945Y-74400500D01*
X100304055Y-74400500D01*
X100304057Y-74400500D01*
X100443408Y-74363161D01*
X100513256Y-74364824D01*
X100571119Y-74403986D01*
X100598623Y-74468215D01*
X100599500Y-74482936D01*
X100599500Y-74682745D01*
X100579815Y-74749784D01*
X100563181Y-74770426D01*
X99912181Y-75421426D01*
X99850858Y-75454911D01*
X99781166Y-75449927D01*
X99725233Y-75408055D01*
X99700816Y-75342591D01*
X99700500Y-75333745D01*
X99700500Y-74405352D01*
X99702210Y-74399527D01*
X99701061Y-74393565D01*
X99711941Y-74366387D01*
X99720185Y-74338313D01*
X99724772Y-74334338D01*
X99727029Y-74328701D01*
X99750874Y-74311720D01*
X99772989Y-74292558D01*
X99778996Y-74291694D01*
X99783943Y-74288172D01*
X99813179Y-74286779D01*
X99842147Y-74282614D01*
X99849220Y-74285062D01*
G37*
%TD.AperFunction*%
%TA.AperFunction,Conductor*%
G36*
X92892539Y-66545185D02*
G01*
X92938294Y-66597989D01*
X92949500Y-66649500D01*
X92949500Y-66766769D01*
X92952353Y-66797197D01*
X92973590Y-66857889D01*
X92977151Y-66927667D01*
X92942422Y-66988295D01*
X92880429Y-67020522D01*
X92852717Y-67021030D01*
X92850000Y-67023351D01*
X92850000Y-67750000D01*
X93149999Y-67750000D01*
X93149999Y-67381021D01*
X93135732Y-67290937D01*
X93144688Y-67221643D01*
X93189685Y-67168192D01*
X93256437Y-67147553D01*
X93299162Y-67154499D01*
X93315301Y-67160146D01*
X93315300Y-67160146D01*
X93345730Y-67163000D01*
X93345734Y-67163000D01*
X93754265Y-67163000D01*
X93754266Y-67163000D01*
X93774532Y-67161099D01*
X93843116Y-67174436D01*
X93893603Y-67222737D01*
X93909962Y-67290664D01*
X93903158Y-67325500D01*
X93902354Y-67327798D01*
X93902353Y-67327800D01*
X93899500Y-67358230D01*
X93899500Y-68062645D01*
X93895275Y-68094737D01*
X93874500Y-68172271D01*
X93874500Y-69169928D01*
X93854815Y-69236967D01*
X93802011Y-69282722D01*
X93795996Y-69285280D01*
X93790028Y-69287633D01*
X93790026Y-69287634D01*
X93674921Y-69374921D01*
X93587634Y-69490026D01*
X93587632Y-69490030D01*
X93586697Y-69492402D01*
X93585262Y-69494245D01*
X93583478Y-69497419D01*
X93583001Y-69497150D01*
X93543786Y-69547542D01*
X93477876Y-69570729D01*
X93409893Y-69554601D01*
X93372080Y-69521211D01*
X93289331Y-69410671D01*
X93179984Y-69328815D01*
X93179983Y-69328814D01*
X93052010Y-69281083D01*
X92995428Y-69275000D01*
X92975000Y-69275000D01*
X92975000Y-70724999D01*
X92995433Y-70724999D01*
X92995439Y-70724998D01*
X93052007Y-70718918D01*
X93179981Y-70671186D01*
X93179984Y-70671184D01*
X93289331Y-70589328D01*
X93372080Y-70478788D01*
X93428013Y-70436916D01*
X93497705Y-70431932D01*
X93559028Y-70465416D01*
X93583425Y-70502610D01*
X93583478Y-70502581D01*
X93583909Y-70503348D01*
X93586699Y-70507601D01*
X93587634Y-70509973D01*
X93674921Y-70625078D01*
X93790023Y-70712363D01*
X93790024Y-70712363D01*
X93790025Y-70712364D01*
X93924410Y-70765359D01*
X94008856Y-70775500D01*
X94432745Y-70775500D01*
X94499784Y-70795185D01*
X94520426Y-70811819D01*
X96863181Y-73154574D01*
X96877884Y-73181501D01*
X96894477Y-73207320D01*
X96895368Y-73213520D01*
X96896666Y-73215897D01*
X96899500Y-73242255D01*
X96899500Y-73399902D01*
X96879815Y-73466941D01*
X96863181Y-73487583D01*
X96819481Y-73531282D01*
X96819475Y-73531290D01*
X96740426Y-73668209D01*
X96740423Y-73668216D01*
X96699500Y-73820943D01*
X96699500Y-73875500D01*
X96679815Y-73942539D01*
X96627011Y-73988294D01*
X96575500Y-73999500D01*
X94279960Y-73999500D01*
X94212921Y-73979815D01*
X94180190Y-73949134D01*
X94175323Y-73942539D01*
X94154999Y-73915001D01*
X94048157Y-73836148D01*
X94048155Y-73836147D01*
X93922826Y-73792291D01*
X93922814Y-73792289D01*
X93893070Y-73789500D01*
X93893066Y-73789500D01*
X93687255Y-73789500D01*
X93620216Y-73769815D01*
X93599574Y-73753181D01*
X93225915Y-73379522D01*
X93225913Y-73379520D01*
X93143411Y-73331887D01*
X93141301Y-73329675D01*
X93138373Y-73328815D01*
X93117359Y-73304563D01*
X93095196Y-73281319D01*
X93094617Y-73278318D01*
X93092618Y-73276011D01*
X93088048Y-73244232D01*
X93081974Y-73212712D01*
X93083108Y-73209877D01*
X93082674Y-73206853D01*
X93096011Y-73177647D01*
X93107942Y-73147847D01*
X93110430Y-73146075D01*
X93111699Y-73143297D01*
X93138710Y-73125937D01*
X93164857Y-73107320D01*
X93168681Y-73106676D01*
X93170477Y-73105523D01*
X93205412Y-73100500D01*
X93299902Y-73100500D01*
X93366941Y-73120185D01*
X93387583Y-73136819D01*
X93431284Y-73180520D01*
X93431286Y-73180521D01*
X93431290Y-73180524D01*
X93492559Y-73215897D01*
X93568216Y-73259577D01*
X93720943Y-73300500D01*
X93720945Y-73300500D01*
X93879055Y-73300500D01*
X93879057Y-73300500D01*
X94031784Y-73259577D01*
X94168716Y-73180520D01*
X94280520Y-73068716D01*
X94359577Y-72931784D01*
X94400500Y-72779057D01*
X94400500Y-72620943D01*
X94359577Y-72468216D01*
X94296811Y-72359501D01*
X94280524Y-72331290D01*
X94280518Y-72331282D01*
X94168717Y-72219481D01*
X94168709Y-72219475D01*
X94031790Y-72140426D01*
X94031786Y-72140424D01*
X94031784Y-72140423D01*
X93879057Y-72099500D01*
X93720943Y-72099500D01*
X93568216Y-72140423D01*
X93568209Y-72140426D01*
X93431290Y-72219475D01*
X93431282Y-72219481D01*
X93387583Y-72263181D01*
X93326260Y-72296666D01*
X93299902Y-72299500D01*
X92007274Y-72299500D01*
X91905411Y-72326793D01*
X91814088Y-72379520D01*
X91814085Y-72379522D01*
X90403493Y-73790113D01*
X90356769Y-73819473D01*
X90339206Y-73825618D01*
X90233576Y-73903576D01*
X90155618Y-74009207D01*
X90112258Y-74133118D01*
X90112258Y-74133120D01*
X90109500Y-74162538D01*
X90109500Y-74637453D01*
X90112258Y-74666874D01*
X90112260Y-74666884D01*
X90149465Y-74773207D01*
X90155619Y-74790794D01*
X90225271Y-74885168D01*
X90232726Y-74905581D01*
X90244477Y-74923865D01*
X90247769Y-74946765D01*
X90249241Y-74950794D01*
X90249500Y-74958800D01*
X90249500Y-75152380D01*
X90229815Y-75219419D01*
X90177011Y-75265174D01*
X90162112Y-75270852D01*
X90157491Y-75272279D01*
X90153155Y-75274400D01*
X90098694Y-75287000D01*
X89810339Y-75287000D01*
X89810323Y-75286999D01*
X89802727Y-75286999D01*
X89697273Y-75286999D01*
X89650112Y-75299636D01*
X89595409Y-75314293D01*
X89595404Y-75314296D01*
X89586496Y-75319439D01*
X89518596Y-75335909D01*
X89452569Y-75313055D01*
X89409381Y-75258132D01*
X89400500Y-75212050D01*
X89400500Y-71407275D01*
X89400500Y-71407273D01*
X89373207Y-71305413D01*
X89320480Y-71214087D01*
X89245913Y-71139520D01*
X88401832Y-70295439D01*
X92025001Y-70295439D01*
X92031081Y-70352007D01*
X92078813Y-70479981D01*
X92078815Y-70479984D01*
X92160670Y-70589329D01*
X92270015Y-70671184D01*
X92270016Y-70671185D01*
X92397991Y-70718917D01*
X92397995Y-70718918D01*
X92454554Y-70724999D01*
X92475000Y-70724998D01*
X92475000Y-70250000D01*
X92025001Y-70250000D01*
X92025001Y-70295439D01*
X88401832Y-70295439D01*
X88317579Y-70211186D01*
X88284094Y-70149863D01*
X88289078Y-70080171D01*
X88330950Y-70024238D01*
X88396414Y-69999821D01*
X88419231Y-70000500D01*
X88420943Y-70000500D01*
X88579055Y-70000500D01*
X88579057Y-70000500D01*
X88731784Y-69959577D01*
X88868716Y-69880520D01*
X88980520Y-69768716D01*
X89017554Y-69704571D01*
X92025000Y-69704571D01*
X92025000Y-69750000D01*
X92475000Y-69750000D01*
X92475000Y-69274999D01*
X92454579Y-69275000D01*
X92454560Y-69275001D01*
X92397993Y-69281081D01*
X92270018Y-69328813D01*
X92270015Y-69328815D01*
X92160670Y-69410670D01*
X92078815Y-69520015D01*
X92078814Y-69520016D01*
X92031083Y-69647989D01*
X92025000Y-69704571D01*
X89017554Y-69704571D01*
X89059577Y-69631784D01*
X89100500Y-69479057D01*
X89100500Y-69417255D01*
X89120185Y-69350216D01*
X89136819Y-69329574D01*
X89847414Y-68618979D01*
X92050001Y-68618979D01*
X92064835Y-68712649D01*
X92064837Y-68712655D01*
X92122356Y-68825541D01*
X92122363Y-68825550D01*
X92211949Y-68915136D01*
X92211954Y-68915139D01*
X92324854Y-68972665D01*
X92349998Y-68976647D01*
X92350000Y-68976646D01*
X92850000Y-68976646D01*
X92850001Y-68976647D01*
X92875145Y-68972665D01*
X92988045Y-68915139D01*
X92988050Y-68915136D01*
X93077636Y-68825550D01*
X93077639Y-68825546D01*
X93135166Y-68712644D01*
X93150000Y-68618986D01*
X93150000Y-68250000D01*
X92850000Y-68250000D01*
X92850000Y-68976646D01*
X92350000Y-68976646D01*
X92350000Y-68250000D01*
X92050001Y-68250000D01*
X92050001Y-68618979D01*
X89847414Y-68618979D01*
X91085380Y-67381013D01*
X92050000Y-67381013D01*
X92050000Y-67750000D01*
X92350000Y-67750000D01*
X92350000Y-67023351D01*
X92324856Y-67027333D01*
X92211953Y-67084860D01*
X92211949Y-67084863D01*
X92122363Y-67174449D01*
X92122360Y-67174453D01*
X92064833Y-67287355D01*
X92050000Y-67381013D01*
X91085380Y-67381013D01*
X91904574Y-66561819D01*
X91965897Y-66528334D01*
X91992255Y-66525500D01*
X92825500Y-66525500D01*
X92892539Y-66545185D01*
G37*
%TD.AperFunction*%
%TA.AperFunction,Conductor*%
G36*
X95442539Y-62991185D02*
G01*
X95488294Y-63043989D01*
X95499500Y-63095500D01*
X95499500Y-64952726D01*
X95526793Y-65054589D01*
X95545506Y-65087000D01*
X95579520Y-65145913D01*
X95579522Y-65145915D01*
X97763181Y-67329574D01*
X97796666Y-67390897D01*
X97799500Y-67417255D01*
X97799500Y-71204754D01*
X97799500Y-71310208D01*
X97807641Y-71340591D01*
X97826793Y-71412070D01*
X97848817Y-71450216D01*
X97879520Y-71503394D01*
X97879522Y-71503396D01*
X98463181Y-72087055D01*
X98496666Y-72148378D01*
X98499500Y-72174736D01*
X98499500Y-73358745D01*
X98479815Y-73425784D01*
X98427011Y-73471539D01*
X98357853Y-73481483D01*
X98294297Y-73452458D01*
X98287819Y-73446426D01*
X95061819Y-70220426D01*
X95028334Y-70159103D01*
X95025500Y-70132745D01*
X95025500Y-69708862D01*
X95025500Y-69708856D01*
X95015359Y-69624410D01*
X94962364Y-69490025D01*
X94962363Y-69490024D01*
X94962363Y-69490023D01*
X94875078Y-69374921D01*
X94759973Y-69287634D01*
X94759971Y-69287633D01*
X94754004Y-69285280D01*
X94737417Y-69272372D01*
X94718297Y-69263641D01*
X94710395Y-69251345D01*
X94698862Y-69242371D01*
X94691886Y-69222544D01*
X94680523Y-69204863D01*
X94676969Y-69180150D01*
X94675672Y-69176462D01*
X94675500Y-69169928D01*
X94675500Y-69143843D01*
X94695185Y-69076804D01*
X94747989Y-69031049D01*
X94758545Y-69026802D01*
X94786340Y-69017076D01*
X94862882Y-68990293D01*
X94972150Y-68909650D01*
X95052793Y-68800382D01*
X95083494Y-68712644D01*
X95097646Y-68672201D01*
X95097646Y-68672199D01*
X95100500Y-68641769D01*
X95100500Y-67358230D01*
X95097646Y-67327800D01*
X95097646Y-67327798D01*
X95052793Y-67199619D01*
X95052792Y-67199617D01*
X95034220Y-67174453D01*
X94972150Y-67090350D01*
X94862882Y-67009707D01*
X94862880Y-67009706D01*
X94734700Y-66964853D01*
X94704270Y-66962000D01*
X94704266Y-66962000D01*
X94295734Y-66962000D01*
X94279852Y-66963489D01*
X94275462Y-66963901D01*
X94206878Y-66950560D01*
X94156394Y-66902257D01*
X94140038Y-66834329D01*
X94146847Y-66799484D01*
X94147646Y-66797199D01*
X94150500Y-66766769D01*
X94150500Y-65483230D01*
X94147646Y-65452800D01*
X94147646Y-65452798D01*
X94102793Y-65324619D01*
X94102790Y-65324613D01*
X94048939Y-65251647D01*
X94048936Y-65251645D01*
X94022150Y-65215350D01*
X93912882Y-65134707D01*
X93912880Y-65134706D01*
X93784701Y-65089853D01*
X93782413Y-65089354D01*
X93781853Y-65089435D01*
X93781000Y-65089045D01*
X93777330Y-65088244D01*
X93777503Y-65087448D01*
X93752723Y-65076132D01*
X93722996Y-65064283D01*
X93721164Y-65061719D01*
X93718297Y-65060410D01*
X93700989Y-65033478D01*
X93682381Y-65007431D01*
X93681714Y-65003486D01*
X93680523Y-65001632D01*
X93675500Y-64966697D01*
X93675500Y-64830070D01*
X93695185Y-64763031D01*
X93747989Y-64717276D01*
X93753973Y-64714730D01*
X93759975Y-64712364D01*
X93831075Y-64658446D01*
X93896385Y-64633623D01*
X93964749Y-64648050D01*
X94014460Y-64697147D01*
X94030000Y-64757243D01*
X94030000Y-64771538D01*
X94040903Y-64846374D01*
X94097336Y-64961810D01*
X94104445Y-64968919D01*
X94210833Y-65063733D01*
X94303623Y-65109095D01*
X94350000Y-65115852D01*
X94850000Y-65115852D01*
X94896370Y-65109097D01*
X94896372Y-65109096D01*
X95011810Y-65052663D01*
X95102663Y-64961810D01*
X95157324Y-64850000D01*
X94850000Y-64850000D01*
X94850000Y-65115852D01*
X94350000Y-65115852D01*
X94350000Y-64724000D01*
X94369685Y-64656961D01*
X94422489Y-64611206D01*
X94474000Y-64600000D01*
X94600000Y-64600000D01*
X94600000Y-64474000D01*
X94619685Y-64406961D01*
X94672489Y-64361206D01*
X94724000Y-64350000D01*
X95157323Y-64350000D01*
X95102663Y-64238189D01*
X95080058Y-64215584D01*
X95046573Y-64154261D01*
X95051557Y-64084569D01*
X95090032Y-64033173D01*
X95089853Y-64032994D01*
X95091100Y-64031746D01*
X95093429Y-64028636D01*
X95094007Y-64028205D01*
X95096423Y-64026423D01*
X95174381Y-63920794D01*
X95211617Y-63814381D01*
X95217741Y-63796881D01*
X95217741Y-63796879D01*
X95217958Y-63794569D01*
X95220500Y-63767457D01*
X95220499Y-63392544D01*
X95217741Y-63363121D01*
X95174381Y-63239206D01*
X95122664Y-63169133D01*
X95098694Y-63103505D01*
X95114009Y-63035335D01*
X95163749Y-62986266D01*
X95222435Y-62971500D01*
X95375500Y-62971500D01*
X95442539Y-62991185D01*
G37*
%TD.AperFunction*%
%TA.AperFunction,Conductor*%
G36*
X104299914Y-57540184D02*
G01*
X104345669Y-57592988D01*
X104355613Y-57662146D01*
X104326588Y-57725702D01*
X104267810Y-57763476D01*
X104252273Y-57766972D01*
X104120589Y-57787829D01*
X103948363Y-57843787D01*
X103948360Y-57843788D01*
X103787006Y-57926003D01*
X103647859Y-58027099D01*
X103630570Y-58033267D01*
X103630013Y-58035828D01*
X103611989Y-58059906D01*
X103610925Y-58061971D01*
X103608863Y-58064083D01*
X103512440Y-58160506D01*
X103406006Y-58307002D01*
X103323788Y-58468360D01*
X103323787Y-58468363D01*
X103267829Y-58640589D01*
X103239500Y-58819448D01*
X103239500Y-59000551D01*
X103267829Y-59179410D01*
X103323787Y-59351636D01*
X103323788Y-59351639D01*
X103379664Y-59461300D01*
X103398078Y-59497439D01*
X103406006Y-59512997D01*
X103512441Y-59659494D01*
X103512445Y-59659499D01*
X103640500Y-59787554D01*
X103640505Y-59787558D01*
X103695023Y-59827167D01*
X103787006Y-59893996D01*
X103892484Y-59947740D01*
X103948360Y-59976211D01*
X103948363Y-59976212D01*
X104034476Y-60004191D01*
X104120591Y-60032171D01*
X104203429Y-60045291D01*
X104299449Y-60060500D01*
X104299454Y-60060500D01*
X104480551Y-60060500D01*
X104567259Y-60046765D01*
X104659409Y-60032171D01*
X104831639Y-59976211D01*
X104992994Y-59893996D01*
X105139501Y-59787553D01*
X105267553Y-59659501D01*
X105275180Y-59649003D01*
X105330508Y-59606336D01*
X105400121Y-59600355D01*
X105461917Y-59632959D01*
X105496277Y-59693796D01*
X105499500Y-59721886D01*
X105499500Y-60746751D01*
X105479815Y-60813790D01*
X105427011Y-60859545D01*
X105365772Y-60870369D01*
X105326289Y-60867261D01*
X104872962Y-61320589D01*
X104855925Y-61257007D01*
X104790099Y-61142993D01*
X104697007Y-61049901D01*
X104582993Y-60984075D01*
X104519409Y-60967037D01*
X104972737Y-60513709D01*
X104966525Y-60509196D01*
X104812259Y-60430592D01*
X104647584Y-60377085D01*
X104476571Y-60350000D01*
X104303429Y-60350000D01*
X104132415Y-60377085D01*
X103967740Y-60430592D01*
X103813480Y-60509193D01*
X103813463Y-60509203D01*
X103807261Y-60513708D01*
X103807261Y-60513709D01*
X104260590Y-60967037D01*
X104197007Y-60984075D01*
X104082993Y-61049901D01*
X103989901Y-61142993D01*
X103924075Y-61257007D01*
X103907037Y-61320590D01*
X103453709Y-60867261D01*
X103453708Y-60867261D01*
X103449203Y-60873463D01*
X103449193Y-60873480D01*
X103370592Y-61027740D01*
X103317085Y-61192415D01*
X103290000Y-61363428D01*
X103290000Y-61536571D01*
X103317085Y-61707584D01*
X103370592Y-61872259D01*
X103449196Y-62026525D01*
X103453709Y-62032736D01*
X103453709Y-62032737D01*
X103907037Y-61579409D01*
X103924075Y-61642993D01*
X103989901Y-61757007D01*
X104082993Y-61850099D01*
X104197007Y-61915925D01*
X104260589Y-61932962D01*
X103807261Y-62386289D01*
X103807262Y-62386290D01*
X103813471Y-62390801D01*
X103967742Y-62469408D01*
X104132415Y-62522914D01*
X104303429Y-62550000D01*
X104476571Y-62550000D01*
X104647584Y-62522914D01*
X104812257Y-62469408D01*
X104966525Y-62390803D01*
X104972736Y-62386289D01*
X104972737Y-62386289D01*
X104519410Y-61932962D01*
X104582993Y-61915925D01*
X104697007Y-61850099D01*
X104790099Y-61757007D01*
X104855925Y-61642993D01*
X104872962Y-61579409D01*
X105326288Y-62032736D01*
X105365774Y-62029630D01*
X105434151Y-62043996D01*
X105483907Y-62093048D01*
X105499500Y-62153248D01*
X105499500Y-63178113D01*
X105479815Y-63245152D01*
X105427011Y-63290907D01*
X105357853Y-63300851D01*
X105294297Y-63271826D01*
X105275182Y-63250998D01*
X105267558Y-63240505D01*
X105267554Y-63240500D01*
X105139499Y-63112445D01*
X105139494Y-63112441D01*
X104992997Y-63006006D01*
X104992996Y-63006005D01*
X104992994Y-63006004D01*
X104925277Y-62971500D01*
X104831639Y-62923788D01*
X104831636Y-62923787D01*
X104659410Y-62867829D01*
X104480551Y-62839500D01*
X104480546Y-62839500D01*
X104299454Y-62839500D01*
X104299449Y-62839500D01*
X104120589Y-62867829D01*
X103948363Y-62923787D01*
X103948360Y-62923788D01*
X103787002Y-63006006D01*
X103640505Y-63112441D01*
X103640500Y-63112445D01*
X103512445Y-63240500D01*
X103512441Y-63240505D01*
X103406006Y-63387002D01*
X103323788Y-63548360D01*
X103323787Y-63548363D01*
X103267829Y-63720589D01*
X103239500Y-63899448D01*
X103239500Y-64080551D01*
X103267829Y-64259410D01*
X103323787Y-64431636D01*
X103323788Y-64431639D01*
X103362494Y-64507601D01*
X103404136Y-64589328D01*
X103406006Y-64592997D01*
X103512441Y-64739494D01*
X103512445Y-64739499D01*
X103640500Y-64867554D01*
X103640505Y-64867558D01*
X103697052Y-64908641D01*
X103787006Y-64973996D01*
X103892484Y-65027740D01*
X103948360Y-65056211D01*
X103948363Y-65056212D01*
X104034476Y-65084191D01*
X104120591Y-65112171D01*
X104193639Y-65123740D01*
X104280678Y-65137527D01*
X104343813Y-65167456D01*
X104380744Y-65226768D01*
X104379746Y-65296631D01*
X104341136Y-65354863D01*
X104280678Y-65382473D01*
X104120589Y-65407829D01*
X103948363Y-65463787D01*
X103948360Y-65463788D01*
X103787002Y-65546006D01*
X103640505Y-65652441D01*
X103640500Y-65652445D01*
X103512445Y-65780500D01*
X103512441Y-65780505D01*
X103406006Y-65927002D01*
X103323788Y-66088360D01*
X103323787Y-66088363D01*
X103267829Y-66260589D01*
X103239500Y-66439448D01*
X103239500Y-66620551D01*
X103267829Y-66799410D01*
X103314575Y-66943281D01*
X103316570Y-67013122D01*
X103284325Y-67069280D01*
X100979522Y-69374084D01*
X100979518Y-69374090D01*
X100926792Y-69465412D01*
X100926793Y-69465413D01*
X100899500Y-69567273D01*
X100899500Y-69575500D01*
X100879815Y-69642539D01*
X100827011Y-69688294D01*
X100775500Y-69699500D01*
X99152129Y-69699500D01*
X99152123Y-69699501D01*
X99146852Y-69700068D01*
X99078093Y-69687661D01*
X99026956Y-69640050D01*
X99009599Y-69576778D01*
X99009599Y-66973400D01*
X99029284Y-66906361D01*
X99082088Y-66860606D01*
X99142879Y-66850331D01*
X99142901Y-66849865D01*
X99145043Y-66849965D01*
X99145181Y-66849942D01*
X99145799Y-66849999D01*
X99749999Y-66849999D01*
X100250000Y-66849999D01*
X100854196Y-66849999D01*
X100884606Y-66847148D01*
X101012645Y-66802346D01*
X101121792Y-66721792D01*
X101202346Y-66612645D01*
X101247149Y-66484604D01*
X101247149Y-66484600D01*
X101250000Y-66454206D01*
X101250000Y-66450000D01*
X100250000Y-66450000D01*
X100250000Y-66849999D01*
X99749999Y-66849999D01*
X99750000Y-66849998D01*
X99750000Y-66450000D01*
X98732643Y-66450000D01*
X98709550Y-66462609D01*
X98639859Y-66457622D01*
X98595515Y-66429123D01*
X98196971Y-66030579D01*
X98112185Y-65945793D01*
X98750000Y-65945793D01*
X98750000Y-65950000D01*
X99750000Y-65950000D01*
X100250000Y-65950000D01*
X101249999Y-65950000D01*
X101249999Y-65945803D01*
X101247148Y-65915393D01*
X101202346Y-65787354D01*
X101121792Y-65678207D01*
X101012645Y-65597653D01*
X100884602Y-65552850D01*
X100854207Y-65550000D01*
X100250000Y-65550000D01*
X100250000Y-65950000D01*
X99750000Y-65950000D01*
X99750000Y-65550000D01*
X99145803Y-65550000D01*
X99115393Y-65552851D01*
X98987354Y-65597653D01*
X98878207Y-65678207D01*
X98797653Y-65787354D01*
X98752850Y-65915395D01*
X98752850Y-65915399D01*
X98750000Y-65945793D01*
X98112185Y-65945793D01*
X97818839Y-65652447D01*
X97206049Y-65039656D01*
X97172564Y-64978333D01*
X97177548Y-64908641D01*
X97212615Y-64858186D01*
X97250000Y-64825852D01*
X97750000Y-64825852D01*
X97796370Y-64819097D01*
X97796372Y-64819096D01*
X97911810Y-64762663D01*
X98002663Y-64671810D01*
X98057324Y-64560000D01*
X97750000Y-64560000D01*
X97750000Y-64825852D01*
X97250000Y-64825852D01*
X97250000Y-64434000D01*
X97269685Y-64366961D01*
X97322489Y-64321206D01*
X97374000Y-64310000D01*
X97500000Y-64310000D01*
X97500000Y-64184000D01*
X97519685Y-64116961D01*
X97572489Y-64071206D01*
X97624000Y-64060000D01*
X98057323Y-64060000D01*
X98002663Y-63948189D01*
X97980058Y-63925584D01*
X97946573Y-63864261D01*
X97951557Y-63794569D01*
X97990032Y-63743173D01*
X97989853Y-63742994D01*
X97991100Y-63741746D01*
X97993429Y-63738636D01*
X97994007Y-63738205D01*
X97996423Y-63736423D01*
X98074381Y-63630794D01*
X98103226Y-63548360D01*
X98117741Y-63506881D01*
X98117741Y-63506879D01*
X98118653Y-63497150D01*
X98120500Y-63477457D01*
X98120499Y-63102544D01*
X98117741Y-63073121D01*
X98074381Y-62949206D01*
X97996423Y-62843577D01*
X97996421Y-62843576D01*
X97996421Y-62843575D01*
X97929614Y-62794269D01*
X97887363Y-62738622D01*
X97881904Y-62668966D01*
X97914971Y-62607416D01*
X97976065Y-62573515D01*
X98003243Y-62570499D01*
X98294864Y-62570499D01*
X98294879Y-62570497D01*
X98294882Y-62570497D01*
X98319986Y-62567586D01*
X98319987Y-62567585D01*
X98319991Y-62567585D01*
X98422765Y-62522206D01*
X98502206Y-62442765D01*
X98547585Y-62339991D01*
X98550500Y-62314865D01*
X98550499Y-61644859D01*
X98570183Y-61577822D01*
X98622987Y-61532067D01*
X98689248Y-61521741D01*
X98890749Y-61545880D01*
X98916336Y-61556844D01*
X98943039Y-61564685D01*
X98948002Y-61570412D01*
X98954971Y-61573399D01*
X98970569Y-61596456D01*
X98988794Y-61617489D01*
X98990688Y-61626196D01*
X98994121Y-61631271D01*
X98994403Y-61643276D01*
X99000000Y-61669000D01*
X99000000Y-62520000D01*
X99074626Y-62520000D01*
X99074628Y-62519999D01*
X99147540Y-62505496D01*
X99147544Y-62505494D01*
X99230239Y-62450239D01*
X99285494Y-62367544D01*
X99285496Y-62367540D01*
X99295975Y-62314861D01*
X99295979Y-62314840D01*
X99300000Y-62294623D01*
X99300000Y-61961981D01*
X99319685Y-61894942D01*
X99372489Y-61849187D01*
X99441647Y-61839243D01*
X99471453Y-61847420D01*
X99570000Y-61888239D01*
X99570000Y-61346988D01*
X99579940Y-61364205D01*
X99635795Y-61420060D01*
X99704204Y-61459556D01*
X99780504Y-61480000D01*
X99859496Y-61480000D01*
X99935796Y-61459556D01*
X100004205Y-61420060D01*
X100060060Y-61364205D01*
X100070000Y-61346988D01*
X100070000Y-61888240D01*
X100175256Y-61844642D01*
X100175260Y-61844640D01*
X100298092Y-61762566D01*
X100298100Y-61762560D01*
X100402560Y-61658100D01*
X100402563Y-61658096D01*
X100484637Y-61535264D01*
X100484642Y-61535254D01*
X100541177Y-61398767D01*
X100541179Y-61398759D01*
X100553989Y-61334365D01*
X100569999Y-61253873D01*
X100570000Y-61253871D01*
X100570000Y-60880000D01*
X100120000Y-60880000D01*
X100120000Y-60380000D01*
X100570000Y-60380000D01*
X100570000Y-60006128D01*
X100569999Y-60006126D01*
X100541179Y-59861240D01*
X100541177Y-59861232D01*
X100484642Y-59724745D01*
X100484637Y-59724735D01*
X100402563Y-59601903D01*
X100402560Y-59601899D01*
X100298100Y-59497439D01*
X100298096Y-59497436D01*
X100175264Y-59415362D01*
X100175254Y-59415357D01*
X100070000Y-59371759D01*
X100070000Y-59913011D01*
X100060060Y-59895795D01*
X100004205Y-59839940D01*
X99935796Y-59800444D01*
X99859496Y-59780000D01*
X99780504Y-59780000D01*
X99704204Y-59800444D01*
X99635795Y-59839940D01*
X99579940Y-59895795D01*
X99570000Y-59913011D01*
X99570000Y-59371759D01*
X99569999Y-59371759D01*
X99464745Y-59415357D01*
X99464735Y-59415362D01*
X99341903Y-59497436D01*
X99341899Y-59497439D01*
X99237439Y-59601899D01*
X99237436Y-59601903D01*
X99155362Y-59724735D01*
X99155359Y-59724742D01*
X99118958Y-59812620D01*
X99075116Y-59867023D01*
X99008822Y-59889087D01*
X98941123Y-59871807D01*
X98897010Y-59827166D01*
X98874142Y-59787558D01*
X98850515Y-59746635D01*
X98743365Y-59639485D01*
X98690723Y-59609092D01*
X98670008Y-59597132D01*
X98621792Y-59546565D01*
X98608570Y-59477958D01*
X98634538Y-59413093D01*
X98644318Y-59402073D01*
X100058574Y-57987819D01*
X100119897Y-57954334D01*
X100146255Y-57951500D01*
X103261725Y-57951500D01*
X103261727Y-57951500D01*
X103363588Y-57924207D01*
X103454913Y-57871480D01*
X103454915Y-57871477D01*
X103459179Y-57869016D01*
X103470894Y-57866173D01*
X103476779Y-57851059D01*
X103487286Y-57839106D01*
X103769574Y-57556817D01*
X103830897Y-57523333D01*
X103857255Y-57520499D01*
X104232875Y-57520499D01*
X104299914Y-57540184D01*
G37*
%TD.AperFunction*%
%TA.AperFunction,Conductor*%
G36*
X90547016Y-55520185D02*
G01*
X90592771Y-55572989D01*
X90602715Y-55642147D01*
X90583079Y-55693391D01*
X90515362Y-55794735D01*
X90515357Y-55794745D01*
X90458822Y-55931232D01*
X90458820Y-55931240D01*
X90430000Y-56076126D01*
X90430000Y-56200000D01*
X90880000Y-56200000D01*
X90880000Y-56700000D01*
X90430000Y-56700000D01*
X90430000Y-56823873D01*
X90458820Y-56968759D01*
X90458822Y-56968767D01*
X90515357Y-57105254D01*
X90515362Y-57105264D01*
X90597436Y-57228096D01*
X90597439Y-57228100D01*
X90701899Y-57332560D01*
X90701907Y-57332566D01*
X90824739Y-57414640D01*
X90824743Y-57414642D01*
X90929999Y-57458240D01*
X90930000Y-57458240D01*
X90930000Y-56916988D01*
X90939940Y-56934205D01*
X90995795Y-56990060D01*
X91064204Y-57029556D01*
X91140504Y-57050000D01*
X91219496Y-57050000D01*
X91295796Y-57029556D01*
X91364205Y-56990060D01*
X91420060Y-56934205D01*
X91430000Y-56916988D01*
X91430000Y-57458240D01*
X91535256Y-57414642D01*
X91535260Y-57414640D01*
X91658092Y-57332566D01*
X91658100Y-57332560D01*
X91762560Y-57228100D01*
X91762563Y-57228096D01*
X91844637Y-57105264D01*
X91844642Y-57105254D01*
X91901177Y-56968767D01*
X91901179Y-56968759D01*
X91929999Y-56823873D01*
X91930000Y-56823871D01*
X91930000Y-56700000D01*
X91480000Y-56700000D01*
X91480000Y-56200000D01*
X91930000Y-56200000D01*
X91930000Y-56076128D01*
X91929999Y-56076126D01*
X91901179Y-55931240D01*
X91901177Y-55931232D01*
X91844642Y-55794745D01*
X91844637Y-55794735D01*
X91776921Y-55693391D01*
X91756043Y-55626713D01*
X91774528Y-55559333D01*
X91826506Y-55512643D01*
X91880023Y-55500500D01*
X99119977Y-55500500D01*
X99187016Y-55520185D01*
X99232771Y-55572989D01*
X99242715Y-55642147D01*
X99223079Y-55693391D01*
X99155362Y-55794735D01*
X99155357Y-55794745D01*
X99098822Y-55931232D01*
X99098820Y-55931240D01*
X99070000Y-56076126D01*
X99070000Y-56200000D01*
X99520000Y-56200000D01*
X99520000Y-56700000D01*
X99070000Y-56700000D01*
X99070000Y-56823873D01*
X99098820Y-56968759D01*
X99098822Y-56968767D01*
X99155357Y-57105254D01*
X99155362Y-57105264D01*
X99237436Y-57228096D01*
X99237439Y-57228100D01*
X99341899Y-57332560D01*
X99359623Y-57344402D01*
X99404430Y-57398013D01*
X99413140Y-57467338D01*
X99382987Y-57530366D01*
X99378417Y-57535188D01*
X97584426Y-59329181D01*
X97523103Y-59362666D01*
X97496745Y-59365500D01*
X93851273Y-59365500D01*
X93749413Y-59392793D01*
X93749410Y-59392794D01*
X93658090Y-59445517D01*
X93658085Y-59445521D01*
X93289633Y-59813972D01*
X93228310Y-59847457D01*
X93158618Y-59842473D01*
X93102685Y-59800601D01*
X93094565Y-59788291D01*
X93094142Y-59787558D01*
X93070515Y-59746635D01*
X92963365Y-59639485D01*
X92890008Y-59597132D01*
X92832136Y-59563719D01*
X92758950Y-59544109D01*
X92685766Y-59524500D01*
X92534234Y-59524500D01*
X92387863Y-59563719D01*
X92256635Y-59639485D01*
X92256632Y-59639487D01*
X92149487Y-59746632D01*
X92149480Y-59746641D01*
X92102988Y-59827167D01*
X92052421Y-59875382D01*
X91983814Y-59888604D01*
X91918949Y-59862636D01*
X91881041Y-59812619D01*
X91844642Y-59724744D01*
X91844637Y-59724735D01*
X91762563Y-59601903D01*
X91762560Y-59601899D01*
X91658100Y-59497439D01*
X91658096Y-59497436D01*
X91535264Y-59415362D01*
X91535254Y-59415357D01*
X91430000Y-59371759D01*
X91430000Y-59913011D01*
X91420060Y-59895795D01*
X91364205Y-59839940D01*
X91295796Y-59800444D01*
X91219496Y-59780000D01*
X91140504Y-59780000D01*
X91064204Y-59800444D01*
X90995795Y-59839940D01*
X90939940Y-59895795D01*
X90930000Y-59913011D01*
X90930000Y-59371759D01*
X90929999Y-59371759D01*
X90824745Y-59415357D01*
X90824735Y-59415362D01*
X90701903Y-59497436D01*
X90701899Y-59497439D01*
X90597439Y-59601899D01*
X90597436Y-59601903D01*
X90515362Y-59724735D01*
X90515357Y-59724745D01*
X90458822Y-59861232D01*
X90458820Y-59861240D01*
X90430000Y-60006126D01*
X90430000Y-60380000D01*
X90880000Y-60380000D01*
X90880000Y-60880000D01*
X90430000Y-60880000D01*
X90430000Y-61253873D01*
X90458820Y-61398759D01*
X90458822Y-61398767D01*
X90515357Y-61535254D01*
X90515362Y-61535264D01*
X90597436Y-61658096D01*
X90597439Y-61658100D01*
X90701899Y-61762560D01*
X90701907Y-61762566D01*
X90824739Y-61844640D01*
X90824743Y-61844642D01*
X90929999Y-61888240D01*
X90930000Y-61888240D01*
X90930000Y-61346988D01*
X90939940Y-61364205D01*
X90995795Y-61420060D01*
X91064204Y-61459556D01*
X91140504Y-61480000D01*
X91219496Y-61480000D01*
X91295796Y-61459556D01*
X91364205Y-61420060D01*
X91420060Y-61364205D01*
X91430000Y-61346988D01*
X91430000Y-61888239D01*
X91528547Y-61847420D01*
X91598017Y-61839951D01*
X91660496Y-61871226D01*
X91696148Y-61931315D01*
X91700000Y-61961981D01*
X91700000Y-62294628D01*
X91714503Y-62367540D01*
X91714505Y-62367544D01*
X91769760Y-62450239D01*
X91852455Y-62505494D01*
X91852459Y-62505496D01*
X91925371Y-62519999D01*
X91925374Y-62520000D01*
X92000000Y-62520000D01*
X92000000Y-61795000D01*
X91694000Y-61795000D01*
X91626961Y-61775315D01*
X91581206Y-61722511D01*
X91570000Y-61671000D01*
X91570000Y-61419000D01*
X91589685Y-61351961D01*
X91642489Y-61306206D01*
X91694000Y-61295000D01*
X92126000Y-61295000D01*
X92193039Y-61314685D01*
X92238794Y-61367489D01*
X92250000Y-61419000D01*
X92250000Y-61545000D01*
X92325501Y-61545000D01*
X92392540Y-61564685D01*
X92438295Y-61617489D01*
X92449501Y-61669000D01*
X92449501Y-62314856D01*
X92449502Y-62314882D01*
X92452413Y-62339987D01*
X92452414Y-62339988D01*
X92452414Y-62339990D01*
X92452415Y-62339991D01*
X92497794Y-62442765D01*
X92577235Y-62522206D01*
X92680009Y-62567585D01*
X92705135Y-62570500D01*
X92750499Y-62570499D01*
X92817537Y-62590182D01*
X92863293Y-62642985D01*
X92874500Y-62694499D01*
X92874500Y-63169928D01*
X92854815Y-63236967D01*
X92802011Y-63282722D01*
X92795996Y-63285280D01*
X92790028Y-63287633D01*
X92790026Y-63287634D01*
X92674921Y-63374921D01*
X92587634Y-63490026D01*
X92587632Y-63490030D01*
X92586697Y-63492402D01*
X92585262Y-63494245D01*
X92583478Y-63497419D01*
X92583001Y-63497150D01*
X92543786Y-63547542D01*
X92477876Y-63570729D01*
X92409893Y-63554601D01*
X92372080Y-63521211D01*
X92289331Y-63410671D01*
X92179984Y-63328815D01*
X92179983Y-63328814D01*
X92052010Y-63281083D01*
X91995428Y-63275000D01*
X91975000Y-63275000D01*
X91975000Y-64724999D01*
X91995433Y-64724999D01*
X91995439Y-64724998D01*
X92052007Y-64718918D01*
X92179981Y-64671186D01*
X92179984Y-64671184D01*
X92289331Y-64589328D01*
X92372080Y-64478788D01*
X92428013Y-64436916D01*
X92497705Y-64431932D01*
X92559028Y-64465416D01*
X92583425Y-64502610D01*
X92583478Y-64502581D01*
X92583909Y-64503348D01*
X92586699Y-64507601D01*
X92587634Y-64509973D01*
X92674921Y-64625078D01*
X92784498Y-64708173D01*
X92790025Y-64712364D01*
X92795988Y-64714715D01*
X92851131Y-64757617D01*
X92874327Y-64823524D01*
X92874500Y-64830070D01*
X92874500Y-65600500D01*
X92854815Y-65667539D01*
X92802011Y-65713294D01*
X92750500Y-65724500D01*
X91722273Y-65724500D01*
X91620412Y-65751793D01*
X91608845Y-65758471D01*
X91605743Y-65760263D01*
X91570693Y-65780499D01*
X91529088Y-65804519D01*
X91529085Y-65804521D01*
X88570426Y-68763181D01*
X88509103Y-68796666D01*
X88482745Y-68799500D01*
X88420943Y-68799500D01*
X88268216Y-68840423D01*
X88268209Y-68840426D01*
X88131290Y-68919475D01*
X88131282Y-68919481D01*
X88019481Y-69031282D01*
X88019477Y-69031287D01*
X87991887Y-69079076D01*
X87941320Y-69127292D01*
X87872713Y-69140515D01*
X87807848Y-69114547D01*
X87767320Y-69057633D01*
X87760500Y-69017076D01*
X87760500Y-68979448D01*
X87738480Y-68840426D01*
X87732171Y-68800591D01*
X87690455Y-68672199D01*
X87676212Y-68628363D01*
X87676211Y-68628360D01*
X87647740Y-68572484D01*
X87593996Y-68467006D01*
X87531401Y-68380851D01*
X87487558Y-68320505D01*
X87487554Y-68320500D01*
X87359499Y-68192445D01*
X87359494Y-68192441D01*
X87212997Y-68086006D01*
X87212996Y-68086005D01*
X87212994Y-68086004D01*
X87161300Y-68059664D01*
X87051639Y-68003788D01*
X87051636Y-68003787D01*
X86879410Y-67947829D01*
X86719321Y-67922473D01*
X86656186Y-67892544D01*
X86619255Y-67833232D01*
X86620253Y-67763370D01*
X86658863Y-67705137D01*
X86719321Y-67677527D01*
X86789425Y-67666422D01*
X86879409Y-67652171D01*
X87051639Y-67596211D01*
X87212994Y-67513996D01*
X87359501Y-67407553D01*
X87487553Y-67279501D01*
X87593996Y-67132994D01*
X87676211Y-66971639D01*
X87732171Y-66799409D01*
X87746765Y-66707259D01*
X87760500Y-66620551D01*
X87760500Y-66439448D01*
X87744019Y-66335397D01*
X87732171Y-66260591D01*
X87676211Y-66088361D01*
X87676211Y-66088360D01*
X87646769Y-66030579D01*
X87593996Y-65927006D01*
X87531401Y-65840851D01*
X87487558Y-65780505D01*
X87487554Y-65780500D01*
X87359499Y-65652445D01*
X87359494Y-65652441D01*
X87212997Y-65546006D01*
X87212996Y-65546005D01*
X87212994Y-65546004D01*
X87161300Y-65519664D01*
X87051639Y-65463788D01*
X87051636Y-65463787D01*
X86879410Y-65407829D01*
X86719321Y-65382473D01*
X86656186Y-65352544D01*
X86619255Y-65293232D01*
X86620253Y-65223370D01*
X86658863Y-65165137D01*
X86719321Y-65137527D01*
X86789425Y-65126422D01*
X86879409Y-65112171D01*
X87051639Y-65056211D01*
X87212994Y-64973996D01*
X87359501Y-64867553D01*
X87487553Y-64739501D01*
X87593996Y-64592994D01*
X87676211Y-64431639D01*
X87720464Y-64295439D01*
X91025001Y-64295439D01*
X91031081Y-64352007D01*
X91078813Y-64479981D01*
X91078815Y-64479984D01*
X91160670Y-64589329D01*
X91270015Y-64671184D01*
X91270016Y-64671185D01*
X91397991Y-64718917D01*
X91397995Y-64718918D01*
X91454554Y-64724999D01*
X91475000Y-64724998D01*
X91475000Y-64250000D01*
X91025001Y-64250000D01*
X91025001Y-64295439D01*
X87720464Y-64295439D01*
X87732171Y-64259409D01*
X87744115Y-64184000D01*
X87744869Y-64179240D01*
X87760500Y-64080551D01*
X87760500Y-63899448D01*
X87732179Y-63720640D01*
X87732170Y-63720588D01*
X87726966Y-63704571D01*
X91025000Y-63704571D01*
X91025000Y-63750000D01*
X91475000Y-63750000D01*
X91475000Y-63274999D01*
X91454579Y-63275000D01*
X91454560Y-63275001D01*
X91397993Y-63281081D01*
X91270018Y-63328813D01*
X91270015Y-63328815D01*
X91160670Y-63410670D01*
X91078815Y-63520015D01*
X91078814Y-63520016D01*
X91031083Y-63647989D01*
X91025000Y-63704571D01*
X87726966Y-63704571D01*
X87676212Y-63548363D01*
X87676211Y-63548360D01*
X87640083Y-63477456D01*
X87593996Y-63387006D01*
X87531401Y-63300851D01*
X87487558Y-63240505D01*
X87487554Y-63240500D01*
X87359499Y-63112445D01*
X87359494Y-63112441D01*
X87212997Y-63006006D01*
X87212996Y-63006005D01*
X87212994Y-63006004D01*
X87145277Y-62971500D01*
X87051639Y-62923788D01*
X87051636Y-62923787D01*
X86879410Y-62867829D01*
X86700551Y-62839500D01*
X86700546Y-62839500D01*
X86519454Y-62839500D01*
X86519449Y-62839500D01*
X86340589Y-62867829D01*
X86168363Y-62923787D01*
X86168360Y-62923788D01*
X86007002Y-63006006D01*
X85860505Y-63112441D01*
X85860500Y-63112445D01*
X85732445Y-63240500D01*
X85732441Y-63240505D01*
X85724818Y-63250998D01*
X85669488Y-63293664D01*
X85599875Y-63299643D01*
X85538080Y-63267037D01*
X85503723Y-63206199D01*
X85500500Y-63178113D01*
X85500500Y-62153247D01*
X85520185Y-62086208D01*
X85572989Y-62040453D01*
X85634231Y-62029629D01*
X85673710Y-62032736D01*
X86127037Y-61579409D01*
X86144075Y-61642993D01*
X86209901Y-61757007D01*
X86302993Y-61850099D01*
X86417007Y-61915925D01*
X86480589Y-61932962D01*
X86027261Y-62386289D01*
X86027262Y-62386290D01*
X86033471Y-62390801D01*
X86187742Y-62469408D01*
X86352415Y-62522914D01*
X86523429Y-62550000D01*
X86696571Y-62550000D01*
X86867584Y-62522914D01*
X87032257Y-62469408D01*
X87186525Y-62390803D01*
X87192736Y-62386289D01*
X87192737Y-62386289D01*
X86739410Y-61932962D01*
X86802993Y-61915925D01*
X86917007Y-61850099D01*
X87010099Y-61757007D01*
X87075925Y-61642993D01*
X87092962Y-61579410D01*
X87546289Y-62032737D01*
X87546289Y-62032736D01*
X87550803Y-62026525D01*
X87629408Y-61872257D01*
X87682914Y-61707584D01*
X87710000Y-61536571D01*
X87710000Y-61363428D01*
X87682914Y-61192415D01*
X87629408Y-61027742D01*
X87556642Y-60884933D01*
X87550801Y-60873470D01*
X87546290Y-60867262D01*
X87546289Y-60867261D01*
X87092962Y-61320589D01*
X87075925Y-61257007D01*
X87010099Y-61142993D01*
X86917007Y-61049901D01*
X86802993Y-60984075D01*
X86739409Y-60967037D01*
X87192737Y-60513709D01*
X87186525Y-60509196D01*
X87032259Y-60430592D01*
X86867584Y-60377085D01*
X86696571Y-60350000D01*
X86523429Y-60350000D01*
X86352415Y-60377085D01*
X86187740Y-60430592D01*
X86033480Y-60509193D01*
X86033463Y-60509203D01*
X86027261Y-60513708D01*
X86027261Y-60513709D01*
X86480590Y-60967037D01*
X86417007Y-60984075D01*
X86302993Y-61049901D01*
X86209901Y-61142993D01*
X86144075Y-61257007D01*
X86127037Y-61320590D01*
X85673709Y-60867261D01*
X85634235Y-60870370D01*
X85620622Y-60867511D01*
X85606853Y-60869491D01*
X85587104Y-60860472D01*
X85565857Y-60856010D01*
X85555950Y-60846244D01*
X85543297Y-60840466D01*
X85531559Y-60822201D01*
X85516098Y-60806961D01*
X85512270Y-60792187D01*
X85505523Y-60781688D01*
X85500500Y-60746753D01*
X85500500Y-59721886D01*
X85520185Y-59654847D01*
X85572989Y-59609092D01*
X85642147Y-59599148D01*
X85705703Y-59628173D01*
X85724821Y-59649004D01*
X85732446Y-59659500D01*
X85860500Y-59787554D01*
X85860505Y-59787558D01*
X85915023Y-59827167D01*
X86007006Y-59893996D01*
X86112484Y-59947740D01*
X86168360Y-59976211D01*
X86168363Y-59976212D01*
X86254476Y-60004191D01*
X86340591Y-60032171D01*
X86423429Y-60045291D01*
X86519449Y-60060500D01*
X86519454Y-60060500D01*
X86700551Y-60060500D01*
X86787259Y-60046765D01*
X86879409Y-60032171D01*
X87051639Y-59976211D01*
X87212994Y-59893996D01*
X87359501Y-59787553D01*
X87487553Y-59659501D01*
X87593996Y-59512994D01*
X87676211Y-59351639D01*
X87732171Y-59179409D01*
X87746765Y-59087259D01*
X87760500Y-59000551D01*
X87760500Y-58819448D01*
X87744019Y-58715397D01*
X87732171Y-58640591D01*
X87676211Y-58468361D01*
X87676211Y-58468360D01*
X87647740Y-58412484D01*
X87593996Y-58307006D01*
X87531401Y-58220851D01*
X87487558Y-58160505D01*
X87487554Y-58160500D01*
X87359499Y-58032445D01*
X87359494Y-58032441D01*
X87212997Y-57926006D01*
X87212996Y-57926005D01*
X87212994Y-57926004D01*
X87161300Y-57899664D01*
X87051639Y-57843788D01*
X87051636Y-57843787D01*
X86879410Y-57787829D01*
X86747728Y-57766972D01*
X86684594Y-57737042D01*
X86647663Y-57677731D01*
X86648661Y-57607868D01*
X86687271Y-57549636D01*
X86751235Y-57521522D01*
X86767120Y-57520499D01*
X87504864Y-57520499D01*
X87504879Y-57520497D01*
X87504882Y-57520497D01*
X87529987Y-57517586D01*
X87529988Y-57517585D01*
X87529991Y-57517585D01*
X87632765Y-57472206D01*
X87712206Y-57392765D01*
X87757585Y-57289991D01*
X87760500Y-57264865D01*
X87760499Y-56200000D01*
X87760499Y-55624500D01*
X87780183Y-55557461D01*
X87832987Y-55511706D01*
X87884499Y-55500500D01*
X90479977Y-55500500D01*
X90547016Y-55520185D01*
G37*
%TD.AperFunction*%
%TA.AperFunction,Conductor*%
G36*
X103182539Y-55520185D02*
G01*
X103228294Y-55572989D01*
X103239500Y-55624500D01*
X103239500Y-56902744D01*
X103230854Y-56932187D01*
X103224332Y-56962170D01*
X103220577Y-56967185D01*
X103219815Y-56969783D01*
X103203185Y-56990420D01*
X103079424Y-57114182D01*
X103018104Y-57147666D01*
X102991745Y-57150500D01*
X100651481Y-57150500D01*
X100584442Y-57130815D01*
X100538687Y-57078011D01*
X100528743Y-57008853D01*
X100536919Y-56979049D01*
X100541177Y-56968767D01*
X100541179Y-56968759D01*
X100569999Y-56823873D01*
X100570000Y-56823871D01*
X100570000Y-56700000D01*
X100120000Y-56700000D01*
X100120000Y-56200000D01*
X100570000Y-56200000D01*
X100570000Y-56076128D01*
X100569999Y-56076126D01*
X100541179Y-55931240D01*
X100541177Y-55931232D01*
X100484642Y-55794745D01*
X100484637Y-55794735D01*
X100416921Y-55693391D01*
X100396043Y-55626713D01*
X100414528Y-55559333D01*
X100466506Y-55512643D01*
X100520023Y-55500500D01*
X103115500Y-55500500D01*
X103182539Y-55520185D01*
G37*
%TD.AperFunction*%
%TD*%
M02*
