%TF.GenerationSoftware,KiCad,Pcbnew,9.0.6*%
%TF.CreationDate,2025-11-22T23:37:22-05:00*%
%TF.ProjectId,DEVBOARD,44455642-4f41-4524-942e-6b696361645f,rev?*%
%TF.SameCoordinates,Original*%
%TF.FileFunction,Soldermask,Top*%
%TF.FilePolarity,Negative*%
%FSLAX46Y46*%
G04 Gerber Fmt 4.6, Leading zero omitted, Abs format (unit mm)*
G04 Created by KiCad (PCBNEW 9.0.6) date 2025-11-22 23:37:22*
%MOMM*%
%LPD*%
G01*
G04 APERTURE LIST*
G04 Aperture macros list*
%AMRoundRect*
0 Rectangle with rounded corners*
0 $1 Rounding radius*
0 $2 $3 $4 $5 $6 $7 $8 $9 X,Y pos of 4 corners*
0 Add a 4 corners polygon primitive as box body*
4,1,4,$2,$3,$4,$5,$6,$7,$8,$9,$2,$3,0*
0 Add four circle primitives for the rounded corners*
1,1,$1+$1,$2,$3*
1,1,$1+$1,$4,$5*
1,1,$1+$1,$6,$7*
1,1,$1+$1,$8,$9*
0 Add four rect primitives between the rounded corners*
20,1,$1+$1,$2,$3,$4,$5,0*
20,1,$1+$1,$4,$5,$6,$7,0*
20,1,$1+$1,$6,$7,$8,$9,0*
20,1,$1+$1,$8,$9,$2,$3,0*%
G04 Aperture macros list end*
%ADD10C,0.650000*%
%ADD11R,0.600000X1.450000*%
%ADD12R,0.300000X1.450000*%
%ADD13O,1.000000X2.100000*%
%ADD14O,1.000000X1.600000*%
%ADD15RoundRect,0.200000X-0.800000X0.200000X-0.800000X-0.200000X0.800000X-0.200000X0.800000X0.200000X0*%
%ADD16RoundRect,0.140000X0.170000X-0.140000X0.170000X0.140000X-0.170000X0.140000X-0.170000X-0.140000X0*%
%ADD17RoundRect,0.140000X0.140000X0.170000X-0.140000X0.170000X-0.140000X-0.170000X0.140000X-0.170000X0*%
%ADD18RoundRect,0.225000X0.225000X0.250000X-0.225000X0.250000X-0.225000X-0.250000X0.225000X-0.250000X0*%
%ADD19RoundRect,0.050000X-0.387500X-0.050000X0.387500X-0.050000X0.387500X0.050000X-0.387500X0.050000X0*%
%ADD20RoundRect,0.050000X-0.050000X-0.387500X0.050000X-0.387500X0.050000X0.387500X-0.050000X0.387500X0*%
%ADD21R,3.200000X3.200000*%
%ADD22RoundRect,0.135000X0.135000X0.185000X-0.135000X0.185000X-0.135000X-0.185000X0.135000X-0.185000X0*%
%ADD23R,1.700000X1.700000*%
%ADD24C,1.700000*%
%ADD25RoundRect,0.135000X-0.185000X0.135000X-0.185000X-0.135000X0.185000X-0.135000X0.185000X0.135000X0*%
%ADD26RoundRect,0.062500X-0.387500X-0.062500X0.387500X-0.062500X0.387500X0.062500X-0.387500X0.062500X0*%
%ADD27R,0.200000X1.600000*%
%ADD28RoundRect,0.250000X0.450000X0.350000X-0.450000X0.350000X-0.450000X-0.350000X0.450000X-0.350000X0*%
%ADD29R,1.600000X0.850000*%
%ADD30RoundRect,0.140000X-0.140000X-0.170000X0.140000X-0.170000X0.140000X0.170000X-0.140000X0.170000X0*%
%ADD31RoundRect,0.135000X-0.135000X-0.185000X0.135000X-0.185000X0.135000X0.185000X-0.135000X0.185000X0*%
%ADD32RoundRect,0.140000X0.021213X-0.219203X0.219203X-0.021213X-0.021213X0.219203X-0.219203X0.021213X0*%
%ADD33RoundRect,0.150000X0.150000X-0.587500X0.150000X0.587500X-0.150000X0.587500X-0.150000X-0.587500X0*%
%ADD34RoundRect,0.140000X-0.170000X0.140000X-0.170000X-0.140000X0.170000X-0.140000X0.170000X0.140000X0*%
G04 APERTURE END LIST*
D10*
%TO.C,J1*%
X98390000Y-60100000D03*
X92610000Y-60100000D03*
D11*
X98750000Y-61545000D03*
X97950000Y-61545000D03*
D12*
X96750000Y-61545000D03*
X95750000Y-61545000D03*
X95250000Y-61545000D03*
X94250000Y-61545000D03*
D11*
X93050000Y-61545000D03*
X92250000Y-61545000D03*
X92250000Y-61545000D03*
X93050000Y-61545000D03*
D12*
X93750000Y-61545000D03*
X94750000Y-61545000D03*
X96250000Y-61545000D03*
X97250000Y-61545000D03*
D11*
X97950000Y-61545000D03*
X98750000Y-61545000D03*
D13*
X99820000Y-60630000D03*
D14*
X99820000Y-56450000D03*
D13*
X91180000Y-60630000D03*
D14*
X91180000Y-56450000D03*
%TD*%
D15*
%TO.C,SW1*%
X100000000Y-66200000D03*
X100000000Y-70400000D03*
%TD*%
D16*
%TO.C,C16*%
X97200000Y-93397500D03*
X97200000Y-92437500D03*
%TD*%
D17*
%TO.C,C3*%
X90160000Y-85700000D03*
X89200000Y-85700000D03*
%TD*%
D18*
%TO.C,C13*%
X93275000Y-64000000D03*
X91725000Y-64000000D03*
%TD*%
D17*
%TO.C,C4*%
X91200000Y-81200000D03*
X90240000Y-81200000D03*
%TD*%
D19*
%TO.C,U1*%
X92062500Y-82337500D03*
X92062500Y-82737500D03*
X92062500Y-83137500D03*
X92062500Y-83537500D03*
X92062500Y-83937500D03*
X92062500Y-84337500D03*
X92062500Y-84737500D03*
X92062500Y-85137500D03*
X92062500Y-85537500D03*
X92062500Y-85937500D03*
X92062500Y-86337500D03*
X92062500Y-86737500D03*
X92062500Y-87137500D03*
X92062500Y-87537500D03*
D20*
X92900000Y-88375000D03*
X93300000Y-88375000D03*
X93700000Y-88375000D03*
X94100000Y-88375000D03*
X94500000Y-88375000D03*
X94900000Y-88375000D03*
X95300000Y-88375000D03*
X95700000Y-88375000D03*
X96100000Y-88375000D03*
X96500000Y-88375000D03*
X96900000Y-88375000D03*
X97300000Y-88375000D03*
X97700000Y-88375000D03*
X98100000Y-88375000D03*
D19*
X98937500Y-87537500D03*
X98937500Y-87137500D03*
X98937500Y-86737500D03*
X98937500Y-86337500D03*
X98937500Y-85937500D03*
X98937500Y-85537500D03*
X98937500Y-85137500D03*
X98937500Y-84737500D03*
X98937500Y-84337500D03*
X98937500Y-83937500D03*
X98937500Y-83537500D03*
X98937500Y-83137500D03*
X98937500Y-82737500D03*
X98937500Y-82337500D03*
D20*
X98100000Y-81500000D03*
X97700000Y-81500000D03*
X97300000Y-81500000D03*
X96900000Y-81500000D03*
X96500000Y-81500000D03*
X96100000Y-81500000D03*
X95700000Y-81500000D03*
X95300000Y-81500000D03*
X94900000Y-81500000D03*
X94500000Y-81500000D03*
X94100000Y-81500000D03*
X93700000Y-81500000D03*
X93300000Y-81500000D03*
X92900000Y-81500000D03*
D21*
X95500000Y-84937500D03*
%TD*%
D16*
%TO.C,C11*%
X98500000Y-79917500D03*
X98500000Y-78957500D03*
%TD*%
D22*
%TO.C,R5*%
X96010000Y-90637500D03*
X94990000Y-90637500D03*
%TD*%
D23*
%TO.C,J2*%
X86610000Y-56370000D03*
D24*
X86610000Y-58910000D03*
X86610000Y-61450000D03*
X86610000Y-63990000D03*
X86610000Y-66530000D03*
X86610000Y-69070000D03*
X86610000Y-71610000D03*
X86610000Y-74150000D03*
X86610000Y-76690000D03*
X86610000Y-79230000D03*
X86610000Y-81770000D03*
X86610000Y-84310000D03*
X86610000Y-86850000D03*
X86610000Y-89390000D03*
X86610000Y-91930000D03*
X86610000Y-94470000D03*
X86610000Y-97010000D03*
X86610000Y-99550000D03*
X86610000Y-102090000D03*
X86610000Y-104630000D03*
%TD*%
D25*
%TO.C,R4*%
X97200000Y-78780000D03*
X97200000Y-79800000D03*
%TD*%
D16*
%TO.C,C7*%
X97600000Y-75880000D03*
X97600000Y-74920000D03*
%TD*%
D26*
%TO.C,U3*%
X90650000Y-75687500D03*
X90650000Y-76187500D03*
X90650000Y-76687500D03*
X90650000Y-77187500D03*
X93500000Y-77187500D03*
X93500000Y-76687500D03*
X93500000Y-76187500D03*
X93500000Y-75687500D03*
D27*
X92075000Y-76437500D03*
%TD*%
D18*
%TO.C,C14*%
X94275000Y-70000000D03*
X92725000Y-70000000D03*
%TD*%
D23*
%TO.C,J3*%
X104390000Y-56370000D03*
D24*
X104390000Y-58910000D03*
X104390000Y-61450000D03*
X104390000Y-63990000D03*
X104390000Y-66530000D03*
X104390000Y-69070000D03*
X104390000Y-71610000D03*
X104390000Y-74150000D03*
X104390000Y-76690000D03*
X104390000Y-79230000D03*
X104390000Y-81770000D03*
X104390000Y-84310000D03*
X104390000Y-86850000D03*
X104390000Y-89390000D03*
X104390000Y-91930000D03*
X104390000Y-94470000D03*
X104390000Y-97010000D03*
X104390000Y-99550000D03*
X104390000Y-102090000D03*
X104390000Y-104630000D03*
%TD*%
D28*
%TO.C,Y1*%
X95600000Y-92087500D03*
X93400000Y-92087500D03*
X93400000Y-93787500D03*
X95600000Y-93787500D03*
%TD*%
D25*
%TO.C,R1*%
X97500000Y-63290000D03*
X97500000Y-64310000D03*
%TD*%
D16*
%TO.C,C5*%
X99500000Y-80617500D03*
X99500000Y-79657500D03*
%TD*%
D25*
%TO.C,R2*%
X94600000Y-63580000D03*
X94600000Y-64600000D03*
%TD*%
D29*
%TO.C,D1*%
X93750000Y-97725000D03*
X93750000Y-99475000D03*
X97250000Y-99475000D03*
X97250000Y-97725000D03*
%TD*%
D16*
%TO.C,C6*%
X96600000Y-76717500D03*
X96600000Y-75757500D03*
%TD*%
%TO.C,C12*%
X95500000Y-76717500D03*
X95500000Y-75757500D03*
%TD*%
D30*
%TO.C,C8*%
X100520000Y-81437500D03*
X101480000Y-81437500D03*
%TD*%
D31*
%TO.C,R7*%
X90680000Y-74400000D03*
X91700000Y-74400000D03*
%TD*%
D25*
%TO.C,R3*%
X96200000Y-78780000D03*
X96200000Y-79800000D03*
%TD*%
D23*
%TO.C,J4*%
X92960000Y-104390000D03*
D24*
X95500000Y-104390000D03*
X98040000Y-104390000D03*
%TD*%
D30*
%TO.C,C9*%
X100640000Y-85937500D03*
X101600000Y-85937500D03*
%TD*%
D32*
%TO.C,C1*%
X101000000Y-79937500D03*
X101678822Y-79258678D03*
%TD*%
D25*
%TO.C,R6*%
X100200000Y-71700000D03*
X100200000Y-72720000D03*
%TD*%
D33*
%TO.C,U2*%
X92600000Y-68000000D03*
X94500000Y-68000000D03*
X93550000Y-66125000D03*
%TD*%
D34*
%TO.C,C15*%
X91500000Y-92437500D03*
X91500000Y-93397500D03*
%TD*%
D17*
%TO.C,C17*%
X93700000Y-74400000D03*
X92740000Y-74400000D03*
%TD*%
D34*
%TO.C,C10*%
X98300000Y-90457500D03*
X98300000Y-91417500D03*
%TD*%
%TO.C,C2*%
X97200000Y-90457500D03*
X97200000Y-91417500D03*
%TD*%
M02*
