%TF.GenerationSoftware,KiCad,Pcbnew,9.0.6*%
%TF.CreationDate,2025-11-22T23:37:22-05:00*%
%TF.ProjectId,DEVBOARD,44455642-4f41-4524-942e-6b696361645f,rev?*%
%TF.SameCoordinates,Original*%
%TF.FileFunction,Legend,Top*%
%TF.FilePolarity,Positive*%
%FSLAX46Y46*%
G04 Gerber Fmt 4.6, Leading zero omitted, Abs format (unit mm)*
G04 Created by KiCad (PCBNEW 9.0.6) date 2025-11-22 23:37:22*
%MOMM*%
%LPD*%
G01*
G04 APERTURE LIST*
%ADD10C,0.150000*%
%ADD11C,0.000000*%
%ADD12C,0.120000*%
G04 APERTURE END LIST*
D10*
X95766666Y-62954819D02*
X95766666Y-63669104D01*
X95766666Y-63669104D02*
X95719047Y-63811961D01*
X95719047Y-63811961D02*
X95623809Y-63907200D01*
X95623809Y-63907200D02*
X95480952Y-63954819D01*
X95480952Y-63954819D02*
X95385714Y-63954819D01*
X96766666Y-63954819D02*
X96195238Y-63954819D01*
X96480952Y-63954819D02*
X96480952Y-62954819D01*
X96480952Y-62954819D02*
X96385714Y-63097676D01*
X96385714Y-63097676D02*
X96290476Y-63192914D01*
X96290476Y-63192914D02*
X96195238Y-63240533D01*
X98666667Y-65307200D02*
X98809524Y-65354819D01*
X98809524Y-65354819D02*
X99047619Y-65354819D01*
X99047619Y-65354819D02*
X99142857Y-65307200D01*
X99142857Y-65307200D02*
X99190476Y-65259580D01*
X99190476Y-65259580D02*
X99238095Y-65164342D01*
X99238095Y-65164342D02*
X99238095Y-65069104D01*
X99238095Y-65069104D02*
X99190476Y-64973866D01*
X99190476Y-64973866D02*
X99142857Y-64926247D01*
X99142857Y-64926247D02*
X99047619Y-64878628D01*
X99047619Y-64878628D02*
X98857143Y-64831009D01*
X98857143Y-64831009D02*
X98761905Y-64783390D01*
X98761905Y-64783390D02*
X98714286Y-64735771D01*
X98714286Y-64735771D02*
X98666667Y-64640533D01*
X98666667Y-64640533D02*
X98666667Y-64545295D01*
X98666667Y-64545295D02*
X98714286Y-64450057D01*
X98714286Y-64450057D02*
X98761905Y-64402438D01*
X98761905Y-64402438D02*
X98857143Y-64354819D01*
X98857143Y-64354819D02*
X99095238Y-64354819D01*
X99095238Y-64354819D02*
X99238095Y-64402438D01*
X99571429Y-64354819D02*
X99809524Y-65354819D01*
X99809524Y-65354819D02*
X100000000Y-64640533D01*
X100000000Y-64640533D02*
X100190476Y-65354819D01*
X100190476Y-65354819D02*
X100428572Y-64354819D01*
X101333333Y-65354819D02*
X100761905Y-65354819D01*
X101047619Y-65354819D02*
X101047619Y-64354819D01*
X101047619Y-64354819D02*
X100952381Y-64497676D01*
X100952381Y-64497676D02*
X100857143Y-64592914D01*
X100857143Y-64592914D02*
X100761905Y-64640533D01*
X93538095Y-79562319D02*
X93538095Y-80371842D01*
X93538095Y-80371842D02*
X93585714Y-80467080D01*
X93585714Y-80467080D02*
X93633333Y-80514700D01*
X93633333Y-80514700D02*
X93728571Y-80562319D01*
X93728571Y-80562319D02*
X93919047Y-80562319D01*
X93919047Y-80562319D02*
X94014285Y-80514700D01*
X94014285Y-80514700D02*
X94061904Y-80467080D01*
X94061904Y-80467080D02*
X94109523Y-80371842D01*
X94109523Y-80371842D02*
X94109523Y-79562319D01*
X95109523Y-80562319D02*
X94538095Y-80562319D01*
X94823809Y-80562319D02*
X94823809Y-79562319D01*
X94823809Y-79562319D02*
X94728571Y-79705176D01*
X94728571Y-79705176D02*
X94633333Y-79800414D01*
X94633333Y-79800414D02*
X94538095Y-79848033D01*
X88966666Y-55154819D02*
X88966666Y-55869104D01*
X88966666Y-55869104D02*
X88919047Y-56011961D01*
X88919047Y-56011961D02*
X88823809Y-56107200D01*
X88823809Y-56107200D02*
X88680952Y-56154819D01*
X88680952Y-56154819D02*
X88585714Y-56154819D01*
X89395238Y-55250057D02*
X89442857Y-55202438D01*
X89442857Y-55202438D02*
X89538095Y-55154819D01*
X89538095Y-55154819D02*
X89776190Y-55154819D01*
X89776190Y-55154819D02*
X89871428Y-55202438D01*
X89871428Y-55202438D02*
X89919047Y-55250057D01*
X89919047Y-55250057D02*
X89966666Y-55345295D01*
X89966666Y-55345295D02*
X89966666Y-55440533D01*
X89966666Y-55440533D02*
X89919047Y-55583390D01*
X89919047Y-55583390D02*
X89347619Y-56154819D01*
X89347619Y-56154819D02*
X89966666Y-56154819D01*
X91338095Y-72654819D02*
X91338095Y-73464342D01*
X91338095Y-73464342D02*
X91385714Y-73559580D01*
X91385714Y-73559580D02*
X91433333Y-73607200D01*
X91433333Y-73607200D02*
X91528571Y-73654819D01*
X91528571Y-73654819D02*
X91719047Y-73654819D01*
X91719047Y-73654819D02*
X91814285Y-73607200D01*
X91814285Y-73607200D02*
X91861904Y-73559580D01*
X91861904Y-73559580D02*
X91909523Y-73464342D01*
X91909523Y-73464342D02*
X91909523Y-72654819D01*
X92290476Y-72654819D02*
X92909523Y-72654819D01*
X92909523Y-72654819D02*
X92576190Y-73035771D01*
X92576190Y-73035771D02*
X92719047Y-73035771D01*
X92719047Y-73035771D02*
X92814285Y-73083390D01*
X92814285Y-73083390D02*
X92861904Y-73131009D01*
X92861904Y-73131009D02*
X92909523Y-73226247D01*
X92909523Y-73226247D02*
X92909523Y-73464342D01*
X92909523Y-73464342D02*
X92861904Y-73559580D01*
X92861904Y-73559580D02*
X92814285Y-73607200D01*
X92814285Y-73607200D02*
X92719047Y-73654819D01*
X92719047Y-73654819D02*
X92433333Y-73654819D01*
X92433333Y-73654819D02*
X92338095Y-73607200D01*
X92338095Y-73607200D02*
X92290476Y-73559580D01*
X101466666Y-55154819D02*
X101466666Y-55869104D01*
X101466666Y-55869104D02*
X101419047Y-56011961D01*
X101419047Y-56011961D02*
X101323809Y-56107200D01*
X101323809Y-56107200D02*
X101180952Y-56154819D01*
X101180952Y-56154819D02*
X101085714Y-56154819D01*
X101847619Y-55154819D02*
X102466666Y-55154819D01*
X102466666Y-55154819D02*
X102133333Y-55535771D01*
X102133333Y-55535771D02*
X102276190Y-55535771D01*
X102276190Y-55535771D02*
X102371428Y-55583390D01*
X102371428Y-55583390D02*
X102419047Y-55631009D01*
X102419047Y-55631009D02*
X102466666Y-55726247D01*
X102466666Y-55726247D02*
X102466666Y-55964342D01*
X102466666Y-55964342D02*
X102419047Y-56059580D01*
X102419047Y-56059580D02*
X102371428Y-56107200D01*
X102371428Y-56107200D02*
X102276190Y-56154819D01*
X102276190Y-56154819D02*
X101990476Y-56154819D01*
X101990476Y-56154819D02*
X101895238Y-56107200D01*
X101895238Y-56107200D02*
X101847619Y-56059580D01*
X94023809Y-95366128D02*
X94023809Y-95842319D01*
X93690476Y-94842319D02*
X94023809Y-95366128D01*
X94023809Y-95366128D02*
X94357142Y-94842319D01*
X95214285Y-95842319D02*
X94642857Y-95842319D01*
X94928571Y-95842319D02*
X94928571Y-94842319D01*
X94928571Y-94842319D02*
X94833333Y-94985176D01*
X94833333Y-94985176D02*
X94738095Y-95080414D01*
X94738095Y-95080414D02*
X94642857Y-95128033D01*
X98661905Y-99054819D02*
X98661905Y-98054819D01*
X98661905Y-98054819D02*
X98900000Y-98054819D01*
X98900000Y-98054819D02*
X99042857Y-98102438D01*
X99042857Y-98102438D02*
X99138095Y-98197676D01*
X99138095Y-98197676D02*
X99185714Y-98292914D01*
X99185714Y-98292914D02*
X99233333Y-98483390D01*
X99233333Y-98483390D02*
X99233333Y-98626247D01*
X99233333Y-98626247D02*
X99185714Y-98816723D01*
X99185714Y-98816723D02*
X99138095Y-98911961D01*
X99138095Y-98911961D02*
X99042857Y-99007200D01*
X99042857Y-99007200D02*
X98900000Y-99054819D01*
X98900000Y-99054819D02*
X98661905Y-99054819D01*
X100185714Y-99054819D02*
X99614286Y-99054819D01*
X99900000Y-99054819D02*
X99900000Y-98054819D01*
X99900000Y-98054819D02*
X99804762Y-98197676D01*
X99804762Y-98197676D02*
X99709524Y-98292914D01*
X99709524Y-98292914D02*
X99614286Y-98340533D01*
X95066666Y-101354819D02*
X95066666Y-102069104D01*
X95066666Y-102069104D02*
X95019047Y-102211961D01*
X95019047Y-102211961D02*
X94923809Y-102307200D01*
X94923809Y-102307200D02*
X94780952Y-102354819D01*
X94780952Y-102354819D02*
X94685714Y-102354819D01*
X95971428Y-101688152D02*
X95971428Y-102354819D01*
X95733333Y-101307200D02*
X95495238Y-102021485D01*
X95495238Y-102021485D02*
X96114285Y-102021485D01*
X101533333Y-72654819D02*
X101200000Y-72178628D01*
X100961905Y-72654819D02*
X100961905Y-71654819D01*
X100961905Y-71654819D02*
X101342857Y-71654819D01*
X101342857Y-71654819D02*
X101438095Y-71702438D01*
X101438095Y-71702438D02*
X101485714Y-71750057D01*
X101485714Y-71750057D02*
X101533333Y-71845295D01*
X101533333Y-71845295D02*
X101533333Y-71988152D01*
X101533333Y-71988152D02*
X101485714Y-72083390D01*
X101485714Y-72083390D02*
X101438095Y-72131009D01*
X101438095Y-72131009D02*
X101342857Y-72178628D01*
X101342857Y-72178628D02*
X100961905Y-72178628D01*
X102390476Y-71654819D02*
X102200000Y-71654819D01*
X102200000Y-71654819D02*
X102104762Y-71702438D01*
X102104762Y-71702438D02*
X102057143Y-71750057D01*
X102057143Y-71750057D02*
X101961905Y-71892914D01*
X101961905Y-71892914D02*
X101914286Y-72083390D01*
X101914286Y-72083390D02*
X101914286Y-72464342D01*
X101914286Y-72464342D02*
X101961905Y-72559580D01*
X101961905Y-72559580D02*
X102009524Y-72607200D01*
X102009524Y-72607200D02*
X102104762Y-72654819D01*
X102104762Y-72654819D02*
X102295238Y-72654819D01*
X102295238Y-72654819D02*
X102390476Y-72607200D01*
X102390476Y-72607200D02*
X102438095Y-72559580D01*
X102438095Y-72559580D02*
X102485714Y-72464342D01*
X102485714Y-72464342D02*
X102485714Y-72226247D01*
X102485714Y-72226247D02*
X102438095Y-72131009D01*
X102438095Y-72131009D02*
X102390476Y-72083390D01*
X102390476Y-72083390D02*
X102295238Y-72035771D01*
X102295238Y-72035771D02*
X102104762Y-72035771D01*
X102104762Y-72035771D02*
X102009524Y-72083390D01*
X102009524Y-72083390D02*
X101961905Y-72131009D01*
X101961905Y-72131009D02*
X101914286Y-72226247D01*
X89938095Y-66454819D02*
X89938095Y-67264342D01*
X89938095Y-67264342D02*
X89985714Y-67359580D01*
X89985714Y-67359580D02*
X90033333Y-67407200D01*
X90033333Y-67407200D02*
X90128571Y-67454819D01*
X90128571Y-67454819D02*
X90319047Y-67454819D01*
X90319047Y-67454819D02*
X90414285Y-67407200D01*
X90414285Y-67407200D02*
X90461904Y-67359580D01*
X90461904Y-67359580D02*
X90509523Y-67264342D01*
X90509523Y-67264342D02*
X90509523Y-66454819D01*
X90938095Y-66550057D02*
X90985714Y-66502438D01*
X90985714Y-66502438D02*
X91080952Y-66454819D01*
X91080952Y-66454819D02*
X91319047Y-66454819D01*
X91319047Y-66454819D02*
X91414285Y-66502438D01*
X91414285Y-66502438D02*
X91461904Y-66550057D01*
X91461904Y-66550057D02*
X91509523Y-66645295D01*
X91509523Y-66645295D02*
X91509523Y-66740533D01*
X91509523Y-66740533D02*
X91461904Y-66883390D01*
X91461904Y-66883390D02*
X90890476Y-67454819D01*
X90890476Y-67454819D02*
X91509523Y-67454819D01*
D11*
%TO.C,G\u002A\u002A\u002A*%
G36*
X91008344Y-101725772D02*
G01*
X91034620Y-101899786D01*
X91034620Y-102164368D01*
X95373787Y-102164368D01*
X96445040Y-102164127D01*
X97323707Y-102162781D01*
X98028860Y-102159399D01*
X98579579Y-102153053D01*
X98994942Y-102142812D01*
X99294023Y-102127743D01*
X99495903Y-102106917D01*
X99619657Y-102079404D01*
X99684363Y-102044272D01*
X99709098Y-102000592D01*
X99712953Y-101952702D01*
X99757273Y-101780726D01*
X99818787Y-101741036D01*
X99904774Y-101829676D01*
X99924619Y-101952702D01*
X99986630Y-102118683D01*
X100189203Y-102164368D01*
X100388097Y-102200597D01*
X100453787Y-102270202D01*
X100363215Y-102349759D01*
X100189203Y-102376036D01*
X99924619Y-102376036D01*
X99924619Y-104439786D01*
X99919304Y-105205639D01*
X99903795Y-105806276D01*
X99878743Y-106228966D01*
X99844803Y-106460984D01*
X99818787Y-106503536D01*
X99779512Y-106399894D01*
X99748709Y-106097459D01*
X99727033Y-105608953D01*
X99715134Y-104947104D01*
X99712953Y-104439786D01*
X99712953Y-102376036D01*
X95375979Y-102376036D01*
X91039002Y-102376036D01*
X91010354Y-104501661D01*
X90997972Y-105140167D01*
X90979967Y-105694114D01*
X90957926Y-106133446D01*
X90933436Y-106428104D01*
X90908084Y-106548033D01*
X90902329Y-106547772D01*
X90877712Y-106421803D01*
X90856205Y-106118088D01*
X90839070Y-105670542D01*
X90827574Y-105113077D01*
X90822985Y-104479607D01*
X90822954Y-104422146D01*
X90822954Y-102376036D01*
X90452537Y-102376036D01*
X90207702Y-102349453D01*
X90085320Y-102284091D01*
X90082120Y-102270202D01*
X90175156Y-102200249D01*
X90403925Y-102165282D01*
X90452537Y-102164368D01*
X90703035Y-102144601D01*
X90805584Y-102055644D01*
X90822954Y-101899786D01*
X90859181Y-101700892D01*
X90928787Y-101635202D01*
X91008344Y-101725772D01*
G37*
G36*
X89888644Y-54214928D02*
G01*
X89916747Y-54378253D01*
X89939691Y-54681803D01*
X89957949Y-55138850D01*
X89971994Y-55762663D01*
X89982300Y-56566510D01*
X89989340Y-57563661D01*
X89991270Y-57999165D01*
X89995216Y-58894390D01*
X89999857Y-59728569D01*
X90004982Y-60476625D01*
X90010376Y-61113484D01*
X90015827Y-61614070D01*
X90021125Y-61953308D01*
X90026054Y-62106119D01*
X90026084Y-62106453D01*
X90048136Y-62377959D01*
X90064017Y-62609161D01*
X90082120Y-62900203D01*
X95425460Y-62900203D01*
X100768800Y-62900203D01*
X100797782Y-58799161D01*
X100826762Y-54698119D01*
X100851940Y-58786818D01*
X100877119Y-62875515D01*
X101115244Y-62954211D01*
X101353369Y-63032906D01*
X101121007Y-63078994D01*
X100963297Y-63154331D01*
X100880305Y-63338384D01*
X100848455Y-63568266D01*
X100808265Y-64011453D01*
X100789775Y-63561661D01*
X100771287Y-63111869D01*
X95464828Y-63111869D01*
X94264495Y-63112275D01*
X93258225Y-63113893D01*
X92428421Y-63117320D01*
X91757480Y-63123155D01*
X91227802Y-63131996D01*
X90821789Y-63144443D01*
X90521836Y-63161093D01*
X90310345Y-63182545D01*
X90169715Y-63209398D01*
X90082346Y-63242249D01*
X90030636Y-63281696D01*
X90017779Y-63297078D01*
X89909741Y-63424375D01*
X89877006Y-63379918D01*
X89873820Y-63297078D01*
X89815284Y-63166054D01*
X89614702Y-63115110D01*
X89500037Y-63111869D01*
X89255202Y-63085288D01*
X89132820Y-63019925D01*
X89129620Y-63006036D01*
X89222429Y-62935135D01*
X89449669Y-62900800D01*
X89487712Y-62900203D01*
X89845804Y-62900203D01*
X89789665Y-58576890D01*
X89776385Y-57421513D01*
X89769372Y-56464865D01*
X89768816Y-55694099D01*
X89774907Y-55096363D01*
X89787837Y-54658809D01*
X89807795Y-54368588D01*
X89834972Y-54212849D01*
X89854906Y-54178561D01*
X89888644Y-54214928D01*
G37*
G36*
X100339892Y-65325045D02*
G01*
X100892125Y-65331378D01*
X101375647Y-65342505D01*
X101750458Y-65358396D01*
X101976563Y-65379019D01*
X102023643Y-65392951D01*
X102011917Y-65488643D01*
X101961912Y-65516428D01*
X101919368Y-65633053D01*
X101884258Y-65927225D01*
X101856580Y-66364958D01*
X101836335Y-66912261D01*
X101823523Y-67535150D01*
X101818143Y-68199635D01*
X101820195Y-68871726D01*
X101829680Y-69517439D01*
X101846598Y-70102783D01*
X101870949Y-70593770D01*
X101902732Y-70956414D01*
X101941947Y-71156725D01*
X101961912Y-71184810D01*
X102078965Y-71255185D01*
X101989994Y-71309463D01*
X101693869Y-71347751D01*
X101189464Y-71370165D01*
X100475653Y-71376813D01*
X100043990Y-71374300D01*
X99364698Y-71369171D01*
X98867880Y-71370619D01*
X98524384Y-71381233D01*
X98305055Y-71403603D01*
X98180740Y-71440316D01*
X98122283Y-71493965D01*
X98104180Y-71546591D01*
X98059364Y-71675554D01*
X97983997Y-71604000D01*
X97963072Y-71570555D01*
X97782318Y-71390799D01*
X97649203Y-71313809D01*
X97505278Y-71242688D01*
X97557334Y-71204684D01*
X97675662Y-71182138D01*
X97759920Y-71161789D01*
X97768625Y-71155203D01*
X98118525Y-71155203D01*
X99868239Y-71155203D01*
X101617953Y-71155203D01*
X101617953Y-68350619D01*
X101617953Y-65546036D01*
X99936632Y-65546036D01*
X98255310Y-65546036D01*
X98201147Y-65889994D01*
X98184987Y-66092886D01*
X98169488Y-66472329D01*
X98155508Y-66993204D01*
X98143902Y-67620398D01*
X98135527Y-68318793D01*
X98132754Y-68694578D01*
X98118525Y-71155203D01*
X97768625Y-71155203D01*
X97821675Y-71115065D01*
X97864612Y-71012681D01*
X97892417Y-70825351D01*
X97908775Y-70523790D01*
X97917377Y-70078710D01*
X97921907Y-69460826D01*
X97923125Y-69216384D01*
X97928812Y-68526184D01*
X97938599Y-67841399D01*
X97951400Y-67217655D01*
X97966130Y-66710580D01*
X97977128Y-66452536D01*
X97989447Y-65968553D01*
X97962827Y-65670195D01*
X97895143Y-65534651D01*
X97891478Y-65532249D01*
X97809398Y-65426719D01*
X97823312Y-65389565D01*
X97947900Y-65366446D01*
X98243754Y-65348316D01*
X98670877Y-65335144D01*
X99189272Y-65326896D01*
X99758942Y-65323540D01*
X100339892Y-65325045D01*
G37*
G36*
X92496441Y-95797176D02*
G01*
X92516287Y-95920202D01*
X92522864Y-95982719D01*
X92558114Y-96031537D01*
X92645320Y-96068347D01*
X92807764Y-96094842D01*
X93068725Y-96112716D01*
X93451486Y-96123662D01*
X93979327Y-96129374D01*
X94675531Y-96131544D01*
X95426703Y-96131868D01*
X96297832Y-96130594D01*
X96979527Y-96125967D01*
X97494010Y-96116772D01*
X97863503Y-96101798D01*
X98110228Y-96079833D01*
X98256407Y-96049664D01*
X98324260Y-96010081D01*
X98337119Y-95973118D01*
X98394267Y-95832278D01*
X98442953Y-95814368D01*
X98536845Y-95900089D01*
X98548787Y-95973118D01*
X98618690Y-96083502D01*
X98850414Y-96128987D01*
X98972119Y-96131868D01*
X99237212Y-96155341D01*
X99384658Y-96213978D01*
X99395453Y-96237702D01*
X99301563Y-96303974D01*
X99067013Y-96340837D01*
X98972119Y-96343536D01*
X98548787Y-96343536D01*
X98548787Y-98454117D01*
X98548787Y-100564698D01*
X98998578Y-100605209D01*
X99448369Y-100645722D01*
X98998578Y-100664212D01*
X98716599Y-100685774D01*
X98587003Y-100754077D01*
X98550572Y-100921143D01*
X98548787Y-101059364D01*
X98523717Y-101300174D01*
X98457399Y-101376768D01*
X98442953Y-101370618D01*
X98366703Y-101227548D01*
X98337119Y-100993956D01*
X98337119Y-100682702D01*
X95426703Y-100682702D01*
X92516287Y-100682702D01*
X92516287Y-101106036D01*
X92492814Y-101371127D01*
X92434177Y-101518573D01*
X92410454Y-101529368D01*
X92343725Y-101435582D01*
X92307052Y-101201736D01*
X92304620Y-101113064D01*
X92287671Y-100839364D01*
X92208382Y-100708933D01*
X92024099Y-100654291D01*
X92013579Y-100652672D01*
X91722537Y-100608583D01*
X92013579Y-100592726D01*
X92304620Y-100576868D01*
X92516287Y-100576868D01*
X95426703Y-100576868D01*
X98337119Y-100576868D01*
X98337119Y-98460202D01*
X98337119Y-96343536D01*
X95426703Y-96343536D01*
X92516287Y-96343536D01*
X92516287Y-98460202D01*
X92516287Y-100576868D01*
X92304620Y-100576868D01*
X92304620Y-98460202D01*
X92304620Y-96343536D01*
X91980874Y-96343536D01*
X91769304Y-96314872D01*
X91720450Y-96241333D01*
X91722537Y-96237702D01*
X91868421Y-96155778D01*
X92046282Y-96131868D01*
X92250579Y-96079698D01*
X92304620Y-95920202D01*
X92348940Y-95748226D01*
X92410454Y-95708536D01*
X92496441Y-95797176D01*
G37*
G36*
X89843099Y-74526421D02*
G01*
X89870454Y-74694373D01*
X89870454Y-74965203D01*
X92001911Y-74965203D01*
X92732996Y-74963568D01*
X93281110Y-74957103D01*
X93674932Y-74943470D01*
X93943146Y-74920333D01*
X94114430Y-74885351D01*
X94217466Y-74836189D01*
X94273962Y-74779994D01*
X94381999Y-74652696D01*
X94414734Y-74697154D01*
X94417921Y-74779994D01*
X94507515Y-74936023D01*
X94632954Y-74965203D01*
X94804929Y-75009523D01*
X94844620Y-75071036D01*
X94755980Y-75157024D01*
X94632954Y-75176869D01*
X94545111Y-75188918D01*
X94485632Y-75247988D01*
X94449016Y-75388464D01*
X94429760Y-75644730D01*
X94422364Y-76051171D01*
X94421287Y-76499786D01*
X94421287Y-77822703D01*
X94797950Y-77822703D01*
X95038760Y-77847771D01*
X95115352Y-77914089D01*
X95109204Y-77928536D01*
X94966134Y-78004785D01*
X94732541Y-78034369D01*
X94502949Y-78069131D01*
X94423811Y-78197568D01*
X94421287Y-78246036D01*
X94376966Y-78418011D01*
X94315454Y-78457703D01*
X94235896Y-78367133D01*
X94209620Y-78193119D01*
X94209620Y-77928536D01*
X92040037Y-77928536D01*
X91310946Y-77929333D01*
X90766580Y-77933478D01*
X90379992Y-77943596D01*
X90124242Y-77962320D01*
X89972389Y-77992275D01*
X89897486Y-78036093D01*
X89872594Y-78096399D01*
X89870454Y-78140203D01*
X89826134Y-78312178D01*
X89764620Y-78351869D01*
X89678632Y-78263229D01*
X89658787Y-78140203D01*
X89596776Y-77974221D01*
X89394204Y-77928536D01*
X89195310Y-77892308D01*
X89129620Y-77822703D01*
X89220190Y-77743145D01*
X89394204Y-77716869D01*
X89658787Y-77716869D01*
X89658787Y-77711751D01*
X89870454Y-77711751D01*
X91590245Y-77740769D01*
X92210814Y-77752665D01*
X92791715Y-77766401D01*
X93284446Y-77780640D01*
X93640506Y-77794045D01*
X93759829Y-77800531D01*
X94209620Y-77831276D01*
X94209620Y-76504073D01*
X94209620Y-75176869D01*
X92040037Y-75176869D01*
X89870454Y-75176869D01*
X89870454Y-76444310D01*
X89870454Y-77711751D01*
X89658787Y-77711751D01*
X89658787Y-76446869D01*
X89658787Y-76444310D01*
X89658787Y-75176869D01*
X89394204Y-75176869D01*
X89195310Y-75140641D01*
X89129620Y-75071036D01*
X89220190Y-74991479D01*
X89394204Y-74965203D01*
X89602905Y-74914430D01*
X89658787Y-74759781D01*
X89707385Y-74557180D01*
X89764620Y-74488953D01*
X89843099Y-74526421D01*
G37*
G36*
X96626849Y-90488883D02*
G01*
X96679675Y-90745174D01*
X96830745Y-90859808D01*
X96881912Y-90872322D01*
X97120037Y-90919164D01*
X96881912Y-90997859D01*
X96794939Y-91033257D01*
X96732229Y-91093784D01*
X96689814Y-91210517D01*
X96663728Y-91414524D01*
X96650007Y-91736881D01*
X96644680Y-92208657D01*
X96643787Y-92860927D01*
X96643787Y-92863378D01*
X96643787Y-94650202D01*
X96967532Y-94650202D01*
X97179103Y-94678864D01*
X97227957Y-94752404D01*
X97225869Y-94756036D01*
X97079570Y-94838803D01*
X96909153Y-94861868D01*
X96710179Y-94915869D01*
X96620215Y-95114506D01*
X96613757Y-95152911D01*
X96583227Y-95330838D01*
X96566758Y-95315888D01*
X96553810Y-95099993D01*
X96537953Y-94756036D01*
X94375076Y-94756036D01*
X92212197Y-94756036D01*
X92169512Y-95099993D01*
X92126827Y-95443952D01*
X92109891Y-95099993D01*
X92072417Y-94859907D01*
X91958650Y-94767143D01*
X91828370Y-94756036D01*
X91629476Y-94719807D01*
X91563787Y-94650202D01*
X91654357Y-94570644D01*
X91828370Y-94544368D01*
X92092954Y-94544368D01*
X92092954Y-94539371D01*
X92198786Y-94539371D01*
X94024412Y-94570997D01*
X94651145Y-94582873D01*
X95227186Y-94595674D01*
X95709314Y-94608296D01*
X96054309Y-94619632D01*
X96193994Y-94626413D01*
X96537953Y-94650202D01*
X96537953Y-92863378D01*
X96536434Y-92207881D01*
X96529679Y-91733616D01*
X96514388Y-91410159D01*
X96487264Y-91207089D01*
X96445007Y-91093979D01*
X96384318Y-91040407D01*
X96338560Y-91024413D01*
X96172587Y-91006848D01*
X95832367Y-90989688D01*
X95355317Y-90974162D01*
X94778856Y-90961498D01*
X94168979Y-90953194D01*
X92198787Y-90934118D01*
X92198787Y-92736744D01*
X92198786Y-94539371D01*
X92092954Y-94539371D01*
X92092954Y-92745202D01*
X92092954Y-90946036D01*
X91828370Y-90946036D01*
X91629476Y-90909807D01*
X91563787Y-90840202D01*
X91654137Y-90759866D01*
X91821340Y-90734368D01*
X92023956Y-90682656D01*
X92115055Y-90489543D01*
X92122984Y-90443327D01*
X92167072Y-90152286D01*
X92182930Y-90443327D01*
X92198787Y-90734368D01*
X93495245Y-90735003D01*
X94106220Y-90741274D01*
X94741960Y-90757731D01*
X95316594Y-90781669D01*
X95656998Y-90803002D01*
X96522292Y-90870367D01*
X96566102Y-90511326D01*
X96609912Y-90152286D01*
X96626849Y-90488883D01*
G37*
G36*
X88351461Y-53703445D02*
G01*
X88401592Y-53752853D01*
X88439176Y-53866690D01*
X88466845Y-54070724D01*
X88487231Y-54390719D01*
X88502965Y-54852443D01*
X88516679Y-55481660D01*
X88526689Y-56047494D01*
X88530884Y-56413446D01*
X88534569Y-56978093D01*
X88537737Y-57728461D01*
X88540387Y-58651578D01*
X88542511Y-59734471D01*
X88544105Y-60964169D01*
X88545164Y-62327699D01*
X88545681Y-63812089D01*
X88545654Y-65404366D01*
X88545077Y-67091558D01*
X88543944Y-68860693D01*
X88542251Y-70698798D01*
X88539992Y-72592900D01*
X88537164Y-74530029D01*
X88534437Y-76129369D01*
X88530777Y-78173231D01*
X88527185Y-80233679D01*
X88523687Y-82293694D01*
X88520310Y-84336252D01*
X88517076Y-86344331D01*
X88514012Y-88300909D01*
X88511144Y-90188966D01*
X88508495Y-91991478D01*
X88506092Y-93691424D01*
X88503960Y-95271783D01*
X88502124Y-96715533D01*
X88500610Y-98005652D01*
X88499441Y-99125117D01*
X88498646Y-100056908D01*
X88498434Y-100380337D01*
X88497060Y-101740226D01*
X88494417Y-102903252D01*
X88490160Y-103884217D01*
X88483936Y-104697923D01*
X88475400Y-105359173D01*
X88464202Y-105882768D01*
X88449996Y-106283511D01*
X88432431Y-106576202D01*
X88411161Y-106775646D01*
X88385837Y-106896642D01*
X88356111Y-106953994D01*
X88343607Y-106962171D01*
X88155906Y-106941021D01*
X88070976Y-106873577D01*
X88060349Y-106756579D01*
X88050045Y-106438896D01*
X88040076Y-105931504D01*
X88030457Y-105245384D01*
X88021200Y-104391517D01*
X88012317Y-103380881D01*
X88003824Y-102224456D01*
X87995730Y-100933221D01*
X87988050Y-99518156D01*
X87980796Y-97990241D01*
X87973982Y-96360454D01*
X87967621Y-94639777D01*
X87961725Y-92839187D01*
X87956309Y-90969666D01*
X87951382Y-89042192D01*
X87946962Y-87067744D01*
X87943059Y-85057303D01*
X87939685Y-83021848D01*
X87936856Y-80972358D01*
X87934582Y-78919815D01*
X87932879Y-76875195D01*
X87931757Y-74849479D01*
X87931231Y-72853648D01*
X87931312Y-70898679D01*
X87932016Y-68995553D01*
X87933352Y-67155250D01*
X87935337Y-65388749D01*
X87937982Y-63707029D01*
X87941300Y-62121070D01*
X87945304Y-60641851D01*
X87950006Y-59280354D01*
X87955420Y-58047555D01*
X87961560Y-56954436D01*
X87968437Y-56011976D01*
X87976066Y-55231154D01*
X87984459Y-54622950D01*
X87993627Y-54198344D01*
X88003586Y-53968314D01*
X88008447Y-53930828D01*
X88147681Y-53739985D01*
X88286150Y-53692703D01*
X88351461Y-53703445D01*
G37*
G36*
X102706625Y-53121644D02*
G01*
X102798044Y-53341060D01*
X102820024Y-53454578D01*
X102826458Y-53598134D01*
X102832554Y-53941564D01*
X102838310Y-54473871D01*
X102843727Y-55184060D01*
X102848804Y-56061134D01*
X102853540Y-57094099D01*
X102857937Y-58271956D01*
X102861993Y-59583711D01*
X102865708Y-61018369D01*
X102869082Y-62564931D01*
X102872114Y-64212405D01*
X102874804Y-65949793D01*
X102877153Y-67766098D01*
X102879160Y-69650325D01*
X102880825Y-71591480D01*
X102882147Y-73578564D01*
X102883125Y-75600584D01*
X102883762Y-77646541D01*
X102884054Y-79705443D01*
X102884003Y-81766289D01*
X102883608Y-83818088D01*
X102882869Y-85849841D01*
X102881785Y-87850554D01*
X102880357Y-89809229D01*
X102878584Y-91714873D01*
X102876465Y-93556487D01*
X102874002Y-95323077D01*
X102871193Y-97003647D01*
X102868037Y-98587199D01*
X102864535Y-100062741D01*
X102860688Y-101419273D01*
X102856493Y-102645801D01*
X102851952Y-103731329D01*
X102847063Y-104664862D01*
X102841828Y-105435403D01*
X102836244Y-106031956D01*
X102830312Y-106443524D01*
X102824033Y-106659114D01*
X102821248Y-106688743D01*
X102691000Y-106883089D01*
X102558109Y-106926868D01*
X102537235Y-106923011D01*
X102517873Y-106906336D01*
X102499962Y-106869189D01*
X102483448Y-106803918D01*
X102468274Y-106702868D01*
X102454383Y-106558387D01*
X102441719Y-106362819D01*
X102430224Y-106108512D01*
X102419843Y-105787813D01*
X102410519Y-105393067D01*
X102402194Y-104916621D01*
X102394813Y-104350821D01*
X102388319Y-103688014D01*
X102382654Y-102920546D01*
X102377764Y-102040763D01*
X102373589Y-101041013D01*
X102370075Y-99913641D01*
X102367165Y-98650993D01*
X102364802Y-97245417D01*
X102362929Y-95689258D01*
X102361489Y-93974862D01*
X102360427Y-92094577D01*
X102359684Y-90040749D01*
X102359205Y-87805723D01*
X102358934Y-85381848D01*
X102358813Y-82761468D01*
X102358787Y-79992286D01*
X102358817Y-77171471D01*
X102358947Y-74554671D01*
X102359230Y-72134234D01*
X102359725Y-69902508D01*
X102360489Y-67851841D01*
X102361575Y-65974581D01*
X102363042Y-64263078D01*
X102364943Y-62709676D01*
X102367338Y-61306728D01*
X102370280Y-60046579D01*
X102373828Y-58921576D01*
X102378035Y-57924071D01*
X102382960Y-57046410D01*
X102388658Y-56280940D01*
X102395185Y-55620011D01*
X102402598Y-55055971D01*
X102410953Y-54581168D01*
X102420305Y-54187949D01*
X102430712Y-53868663D01*
X102442229Y-53615656D01*
X102454912Y-53421280D01*
X102468818Y-53277881D01*
X102484003Y-53177808D01*
X102500524Y-53113408D01*
X102518435Y-53077029D01*
X102537794Y-53061019D01*
X102556605Y-53057703D01*
X102706625Y-53121644D01*
G37*
G36*
X94209620Y-64792244D02*
G01*
X94299907Y-64882284D01*
X94467957Y-64911036D01*
X94692049Y-64950058D01*
X94791704Y-65016869D01*
X94750347Y-65091823D01*
X94544441Y-65122651D01*
X94533366Y-65122703D01*
X94325836Y-65138864D01*
X94233584Y-65227833D01*
X94210166Y-65450338D01*
X94209620Y-65546036D01*
X94209620Y-65969369D01*
X94664704Y-65969369D01*
X94976564Y-65941438D01*
X95205330Y-65871589D01*
X95246786Y-65842369D01*
X95351655Y-65768739D01*
X95373787Y-65842369D01*
X95471249Y-65929436D01*
X95736245Y-65968411D01*
X95797119Y-65969369D01*
X96062212Y-65992841D01*
X96209658Y-66051479D01*
X96220453Y-66075203D01*
X96126563Y-66141475D01*
X95892013Y-66178338D01*
X95797119Y-66181036D01*
X95373787Y-66181036D01*
X95373787Y-67083940D01*
X95382265Y-67549308D01*
X95411833Y-67841206D01*
X95468699Y-67997311D01*
X95532537Y-68047764D01*
X95680788Y-68154695D01*
X95640450Y-68253444D01*
X95431137Y-68297690D01*
X95426703Y-68297703D01*
X95245577Y-68326685D01*
X95173105Y-68455530D01*
X95162120Y-68655775D01*
X95197229Y-68924246D01*
X95324872Y-69052129D01*
X95384435Y-69071985D01*
X95527235Y-69170286D01*
X95503502Y-69291090D01*
X95332586Y-69355655D01*
X95314624Y-69356036D01*
X95235206Y-69450819D01*
X95181675Y-69693959D01*
X95154800Y-70023641D01*
X95155357Y-70378050D01*
X95184117Y-70695373D01*
X95241854Y-70913791D01*
X95294412Y-70973144D01*
X95412357Y-71044789D01*
X95322765Y-71100253D01*
X95029171Y-71139143D01*
X94535116Y-71161066D01*
X93844139Y-71165633D01*
X93578205Y-71163319D01*
X92838919Y-71161486D01*
X92310079Y-71175916D01*
X91991090Y-71206639D01*
X91881354Y-71253689D01*
X91881287Y-71255098D01*
X91804286Y-71362626D01*
X91775454Y-71366869D01*
X91680277Y-71281715D01*
X91669620Y-71215879D01*
X91581891Y-71064721D01*
X91484412Y-71016489D01*
X91353977Y-70976266D01*
X91429134Y-70959685D01*
X91484412Y-70955813D01*
X91517938Y-70943536D01*
X91881287Y-70943536D01*
X93415870Y-70943536D01*
X94950454Y-70943536D01*
X94950454Y-70149786D01*
X94950454Y-69356036D01*
X93415870Y-69356036D01*
X91881287Y-69356036D01*
X91881287Y-70149786D01*
X91881287Y-70943536D01*
X91517938Y-70943536D01*
X91582194Y-70920006D01*
X91638581Y-70799479D01*
X91664169Y-70550303D01*
X91669620Y-70187911D01*
X91668517Y-70149786D01*
X91657127Y-69755800D01*
X91613325Y-69486966D01*
X91528724Y-69334149D01*
X91491796Y-69302259D01*
X91379412Y-69195334D01*
X91437914Y-69109996D01*
X91544714Y-69048744D01*
X91735784Y-68843166D01*
X91775454Y-68611479D01*
X91747261Y-68387339D01*
X91622622Y-68305735D01*
X91489704Y-68297703D01*
X91302096Y-68278495D01*
X91298199Y-68207228D01*
X91330954Y-68170703D01*
X91399217Y-67990639D01*
X91442690Y-67628480D01*
X91444077Y-67581586D01*
X91638701Y-67581586D01*
X91645740Y-67866784D01*
X91678210Y-68019444D01*
X91742289Y-68078928D01*
X91801912Y-68086279D01*
X91919572Y-68128106D01*
X91974826Y-68286994D01*
X91987120Y-68562286D01*
X91987120Y-69038536D01*
X93468787Y-69038536D01*
X94950454Y-69038536D01*
X94950454Y-68562286D01*
X94968646Y-68255273D01*
X95034094Y-68112499D01*
X95122432Y-68086036D01*
X95235539Y-68042061D01*
X95248642Y-67875164D01*
X95228266Y-67755306D01*
X95191091Y-67461215D01*
X95167095Y-67063623D01*
X95162120Y-66802806D01*
X95162120Y-66181036D01*
X94685870Y-66181036D01*
X94401846Y-66202056D01*
X94231474Y-66255240D01*
X94209620Y-66286869D01*
X94129084Y-66389628D01*
X94103787Y-66392703D01*
X94047414Y-66296303D01*
X94009195Y-66044474D01*
X93997954Y-65757703D01*
X93997954Y-65122703D01*
X93460940Y-65122703D01*
X92923927Y-65122703D01*
X92953324Y-65678328D01*
X92982721Y-66233953D01*
X92333921Y-66198203D01*
X91685120Y-66162453D01*
X91650912Y-67124488D01*
X91638701Y-67581586D01*
X91444077Y-67581586D01*
X91457954Y-67112718D01*
X91457954Y-67112369D01*
X91457954Y-66181036D01*
X91119286Y-66181036D01*
X90901520Y-66163283D01*
X90868516Y-66100773D01*
X90902631Y-66059025D01*
X91078392Y-65994884D01*
X91427792Y-65958548D01*
X91876297Y-65953199D01*
X92727954Y-65969384D01*
X92727954Y-65546043D01*
X92714375Y-65273994D01*
X92646585Y-65153046D01*
X92483999Y-65123075D01*
X92442204Y-65122703D01*
X92254647Y-65101260D01*
X92254305Y-65026869D01*
X92275835Y-65003321D01*
X92444485Y-64941756D01*
X92770754Y-64905455D01*
X93156746Y-64899593D01*
X93578056Y-64891173D01*
X93902140Y-64851974D01*
X94063947Y-64794349D01*
X94185031Y-64728583D01*
X94209620Y-64792244D01*
G37*
G36*
X95068417Y-80441163D02*
G01*
X95801150Y-80446938D01*
X96520178Y-80457064D01*
X97194987Y-80471256D01*
X97795063Y-80489226D01*
X98289892Y-80510688D01*
X98648962Y-80535358D01*
X98841758Y-80562948D01*
X98866287Y-80577362D01*
X98780520Y-80668614D01*
X98707537Y-80680202D01*
X98567225Y-80764918D01*
X98548787Y-80838952D01*
X98640787Y-80966631D01*
X98813369Y-80997702D01*
X99014772Y-80953989D01*
X99076835Y-80781877D01*
X99077953Y-80733118D01*
X99114180Y-80534224D01*
X99183787Y-80468536D01*
X99267813Y-80568766D01*
X99308389Y-80854964D01*
X99302802Y-81305391D01*
X99297935Y-81383993D01*
X99299239Y-81603801D01*
X99383417Y-81696783D01*
X99609984Y-81717208D01*
X99663550Y-81717368D01*
X99952150Y-81747211D01*
X100152069Y-81820391D01*
X100168037Y-81833786D01*
X100206723Y-81924728D01*
X100062943Y-81950202D01*
X99867903Y-82005097D01*
X99803650Y-82082493D01*
X99794803Y-82219684D01*
X99788962Y-82539698D01*
X99786188Y-83013711D01*
X99786544Y-83612898D01*
X99790092Y-84308438D01*
X99796893Y-85071507D01*
X99797187Y-85098743D01*
X99807467Y-85958287D01*
X99818552Y-86629278D01*
X99832134Y-87134831D01*
X99849904Y-87498058D01*
X99873553Y-87742073D01*
X99904774Y-87889989D01*
X99945258Y-87964919D01*
X99996694Y-87989977D01*
X100008853Y-87991057D01*
X100122820Y-88009454D01*
X100032268Y-88059151D01*
X100030453Y-88059843D01*
X99833200Y-88184484D01*
X99784270Y-88236696D01*
X99688069Y-88288989D01*
X99643159Y-88220827D01*
X99503143Y-88099348D01*
X99439550Y-88088536D01*
X99328922Y-88172401D01*
X99291195Y-88359879D01*
X99329370Y-88554789D01*
X99421912Y-88653742D01*
X99493944Y-88733071D01*
X99437780Y-88794853D01*
X99295320Y-88969409D01*
X99260927Y-89041036D01*
X99211113Y-89130596D01*
X99192228Y-89016469D01*
X99192142Y-89014577D01*
X99098378Y-88862158D01*
X98922524Y-88829368D01*
X98731339Y-88872166D01*
X98713193Y-88964697D01*
X98695412Y-89145896D01*
X98607404Y-89308656D01*
X98490750Y-89446574D01*
X98451008Y-89415571D01*
X98446319Y-89328913D01*
X98432878Y-89270016D01*
X98378515Y-89224998D01*
X98258604Y-89192153D01*
X98048522Y-89169772D01*
X97723643Y-89156147D01*
X97259344Y-89149568D01*
X96631002Y-89148328D01*
X95874595Y-89150482D01*
X94926012Y-89155761D01*
X94167567Y-89164913D01*
X93577742Y-89180116D01*
X93135017Y-89203543D01*
X92817872Y-89237371D01*
X92604787Y-89283774D01*
X92474242Y-89344931D01*
X92404716Y-89423013D01*
X92377584Y-89504006D01*
X92333445Y-89728952D01*
X92319032Y-89499646D01*
X92252710Y-89288742D01*
X92172329Y-89208604D01*
X92094499Y-89139101D01*
X92172329Y-89085132D01*
X92301817Y-88973661D01*
X92245104Y-88877324D01*
X92026807Y-88830123D01*
X91987120Y-88829368D01*
X91760559Y-88857493D01*
X91677544Y-88978666D01*
X91669620Y-89100198D01*
X91636025Y-89280261D01*
X91563787Y-89305618D01*
X91474880Y-89156343D01*
X91457954Y-89034789D01*
X91390162Y-88866682D01*
X91299204Y-88829368D01*
X91158364Y-88772222D01*
X91140454Y-88723536D01*
X91226174Y-88629642D01*
X91299204Y-88617702D01*
X91426882Y-88525701D01*
X91457954Y-88353118D01*
X91418039Y-88133326D01*
X91298454Y-88109608D01*
X91161620Y-88215536D01*
X91056751Y-88289166D01*
X91034620Y-88215536D01*
X90946195Y-88112442D01*
X90822954Y-88088536D01*
X90650977Y-88044214D01*
X90611287Y-87982702D01*
X90699927Y-87896714D01*
X90822954Y-87876868D01*
X90885031Y-87870367D01*
X90933612Y-87835464D01*
X90970347Y-87749063D01*
X90996894Y-87588067D01*
X91014900Y-87329376D01*
X91026024Y-86949892D01*
X91031915Y-86426521D01*
X91034230Y-85736162D01*
X91034620Y-84919781D01*
X91034596Y-84912514D01*
X91246287Y-84912514D01*
X91246811Y-85777477D01*
X91249495Y-86454383D01*
X91256007Y-86966842D01*
X91268016Y-87338463D01*
X91287192Y-87592856D01*
X91315201Y-87753631D01*
X91353714Y-87844394D01*
X91404397Y-87888759D01*
X91457954Y-87907533D01*
X91619810Y-88021473D01*
X91669567Y-88277973D01*
X91669620Y-88290293D01*
X91689319Y-88510123D01*
X91791335Y-88600291D01*
X92040037Y-88617702D01*
X92293265Y-88639868D01*
X92396214Y-88730503D01*
X92410454Y-88845331D01*
X92419661Y-88949009D01*
X92473251Y-89011768D01*
X92610170Y-89039619D01*
X92869366Y-89038576D01*
X93289789Y-89014651D01*
X93442329Y-89004628D01*
X93898349Y-88981889D01*
X94506131Y-88962289D01*
X95205776Y-88947196D01*
X95937387Y-88937979D01*
X96455257Y-88935749D01*
X97154094Y-88933668D01*
X97667228Y-88926433D01*
X98020597Y-88911892D01*
X98240142Y-88887892D01*
X98351803Y-88852283D01*
X98381522Y-88802911D01*
X98375392Y-88776452D01*
X98380013Y-88673324D01*
X98525315Y-88626297D01*
X98749129Y-88617702D01*
X99025247Y-88605997D01*
X99149822Y-88541694D01*
X99182792Y-88381011D01*
X99183787Y-88300202D01*
X99217049Y-88067802D01*
X99340813Y-87985977D01*
X99395453Y-87982702D01*
X99456987Y-87976293D01*
X99505272Y-87941818D01*
X99541913Y-87856408D01*
X99568515Y-87697192D01*
X99586684Y-87441297D01*
X99598024Y-87065854D01*
X99604139Y-86547992D01*
X99606637Y-85864839D01*
X99607119Y-84993526D01*
X99607119Y-84966452D01*
X99607119Y-81950202D01*
X99342537Y-81950202D01*
X99162427Y-81921829D01*
X99089588Y-81794988D01*
X99077953Y-81586491D01*
X99057420Y-81337864D01*
X98954582Y-81228538D01*
X98733994Y-81189616D01*
X98476918Y-81126351D01*
X98367583Y-80975861D01*
X98356217Y-80918327D01*
X98322398Y-80680202D01*
X95419342Y-80680202D01*
X94560931Y-80680682D01*
X93890875Y-80683257D01*
X93385864Y-80689624D01*
X93022586Y-80701484D01*
X92777732Y-80720538D01*
X92627991Y-80748484D01*
X92550051Y-80787023D01*
X92520604Y-80837852D01*
X92516287Y-80891868D01*
X92485126Y-81024143D01*
X92355735Y-81086692D01*
X92074250Y-81103454D01*
X92040037Y-81103536D01*
X91747410Y-81111371D01*
X91608842Y-81165016D01*
X91566727Y-81309676D01*
X91563787Y-81477273D01*
X91518319Y-81777396D01*
X91405037Y-81911929D01*
X91357537Y-81955393D01*
X91320325Y-82060083D01*
X91292209Y-82248508D01*
X91271999Y-82543177D01*
X91258504Y-82966596D01*
X91250532Y-83541276D01*
X91246894Y-84289724D01*
X91246287Y-84912514D01*
X91034596Y-84912514D01*
X91031392Y-83946239D01*
X91021437Y-83173826D01*
X91004341Y-82592093D01*
X90979694Y-82190596D01*
X90947082Y-81958891D01*
X90915196Y-81888886D01*
X90874139Y-81794383D01*
X90968951Y-81718162D01*
X91165334Y-81666582D01*
X91247125Y-81686137D01*
X91321121Y-81644003D01*
X91352054Y-81439714D01*
X91352120Y-81427281D01*
X91313800Y-81192376D01*
X91219829Y-81101914D01*
X91150656Y-81068999D01*
X91201090Y-81022539D01*
X91333669Y-80866793D01*
X91404919Y-80733118D01*
X91476239Y-80589174D01*
X91514295Y-80641206D01*
X91536851Y-80759577D01*
X91609190Y-80926478D01*
X91789447Y-80991369D01*
X91941564Y-80997702D01*
X92196990Y-80951212D01*
X92309206Y-80844614D01*
X92260312Y-80727214D01*
X92066495Y-80653539D01*
X91905382Y-80618793D01*
X91930329Y-80577616D01*
X92092954Y-80513887D01*
X92267137Y-80487553D01*
X92610696Y-80467287D01*
X93093117Y-80452799D01*
X93683887Y-80443807D01*
X94352492Y-80440024D01*
X95068417Y-80441163D01*
G37*
D12*
%TO.C,J1*%
X90800000Y-55500000D02*
X90800000Y-53600000D01*
X90800000Y-59400000D02*
X90800000Y-57400000D01*
X100200000Y-53600000D02*
X90800000Y-53600000D01*
X100200000Y-55500000D02*
X100200000Y-53600000D01*
X100200000Y-59400000D02*
X100200000Y-57400000D01*
%TO.C,SW1*%
X98430000Y-66230000D02*
X98730000Y-66230000D01*
X98430000Y-70370000D02*
X98430000Y-66230000D01*
X98730000Y-70370000D02*
X98430000Y-70370000D01*
X101270000Y-66230000D02*
X101570000Y-66230000D01*
X101570000Y-66230000D02*
X101570000Y-70370000D01*
X101570000Y-70370000D02*
X101270000Y-70370000D01*
%TO.C,C16*%
X96840000Y-93025336D02*
X96840000Y-92809664D01*
X97560000Y-93025336D02*
X97560000Y-92809664D01*
%TO.C,C3*%
X89787836Y-85340000D02*
X89572164Y-85340000D01*
X89787836Y-86060000D02*
X89572164Y-86060000D01*
%TO.C,C13*%
X92640580Y-63490000D02*
X92359420Y-63490000D01*
X92640580Y-64510000D02*
X92359420Y-64510000D01*
%TO.C,C4*%
X90827836Y-80840000D02*
X90612164Y-80840000D01*
X90827836Y-81560000D02*
X90612164Y-81560000D01*
%TO.C,U1*%
X91890000Y-81327500D02*
X92540000Y-81327500D01*
X91890000Y-81977500D02*
X91890000Y-81327500D01*
X91890000Y-88547500D02*
X91890000Y-87897500D01*
X92540000Y-88547500D02*
X91890000Y-88547500D01*
X98460000Y-81327500D02*
X99110000Y-81327500D01*
X99110000Y-81327500D02*
X99110000Y-81977500D01*
X99110000Y-87897500D02*
X99110000Y-88547500D01*
X99110000Y-88547500D02*
X98460000Y-88547500D01*
X91360000Y-82337500D02*
X91030000Y-82577500D01*
X91030000Y-82097500D01*
X91360000Y-82337500D01*
G36*
X91360000Y-82337500D02*
G01*
X91030000Y-82577500D01*
X91030000Y-82097500D01*
X91360000Y-82337500D01*
G37*
%TO.C,C11*%
X98140000Y-79545336D02*
X98140000Y-79329664D01*
X98860000Y-79545336D02*
X98860000Y-79329664D01*
%TO.C,R5*%
X95653641Y-90257500D02*
X95346359Y-90257500D01*
X95653641Y-91017500D02*
X95346359Y-91017500D01*
%TO.C,J2*%
X85230000Y-54990000D02*
X86610000Y-54990000D01*
X85230000Y-56370000D02*
X85230000Y-54990000D01*
X85230000Y-57640000D02*
X85230000Y-106010000D01*
X85230000Y-57640000D02*
X87990000Y-57640000D01*
X85230000Y-106010000D02*
X87990000Y-106010000D01*
X87990000Y-57640000D02*
X87990000Y-106010000D01*
%TO.C,R4*%
X96820000Y-79136359D02*
X96820000Y-79443641D01*
X97580000Y-79136359D02*
X97580000Y-79443641D01*
%TO.C,C7*%
X97240000Y-75507836D02*
X97240000Y-75292164D01*
X97960000Y-75507836D02*
X97960000Y-75292164D01*
%TO.C,U3*%
X90889432Y-75302500D02*
X93685000Y-75302500D01*
X93685000Y-77572500D02*
X90465000Y-77572500D01*
X90595000Y-75297500D02*
X90455000Y-75107500D01*
X90735000Y-75107500D01*
X90595000Y-75297500D01*
G36*
X90595000Y-75297500D02*
G01*
X90455000Y-75107500D01*
X90735000Y-75107500D01*
X90595000Y-75297500D01*
G37*
%TO.C,C14*%
X93640580Y-69490000D02*
X93359420Y-69490000D01*
X93640580Y-70510000D02*
X93359420Y-70510000D01*
%TO.C,J3*%
X103010000Y-54990000D02*
X104390000Y-54990000D01*
X103010000Y-56370000D02*
X103010000Y-54990000D01*
X103010000Y-57640000D02*
X103010000Y-106010000D01*
X103010000Y-57640000D02*
X105770000Y-57640000D01*
X103010000Y-106010000D02*
X105770000Y-106010000D01*
X105770000Y-57640000D02*
X105770000Y-106010000D01*
%TO.C,Y1*%
X96560000Y-91227500D02*
X92440000Y-91227500D01*
X96560000Y-94647500D02*
X96560000Y-91227500D01*
%TO.C,R1*%
X97120000Y-63646359D02*
X97120000Y-63953641D01*
X97880000Y-63646359D02*
X97880000Y-63953641D01*
%TO.C,C5*%
X99140000Y-80245336D02*
X99140000Y-80029664D01*
X99860000Y-80245336D02*
X99860000Y-80029664D01*
%TO.C,R2*%
X94220000Y-63936359D02*
X94220000Y-64243641D01*
X94980000Y-63936359D02*
X94980000Y-64243641D01*
%TO.C,D1*%
X92700000Y-96600000D02*
X92700000Y-100600000D01*
X92700000Y-96600000D02*
X98300000Y-96600000D01*
X92700000Y-100600000D02*
X97700000Y-100600000D01*
X98300000Y-100000000D02*
X97700000Y-100600000D01*
X98300000Y-100000000D02*
X98300000Y-96600000D01*
%TO.C,C6*%
X96240000Y-76345336D02*
X96240000Y-76129664D01*
X96960000Y-76345336D02*
X96960000Y-76129664D01*
%TO.C,C12*%
X95140000Y-76345336D02*
X95140000Y-76129664D01*
X95860000Y-76345336D02*
X95860000Y-76129664D01*
%TO.C,C8*%
X100892164Y-81077500D02*
X101107836Y-81077500D01*
X100892164Y-81797500D02*
X101107836Y-81797500D01*
%TO.C,R7*%
X91036359Y-74020000D02*
X91343641Y-74020000D01*
X91036359Y-74780000D02*
X91343641Y-74780000D01*
%TO.C,R3*%
X95820000Y-79136359D02*
X95820000Y-79443641D01*
X96580000Y-79136359D02*
X96580000Y-79443641D01*
D11*
%TO.C,G\u002A\u002A\u002A*%
G36*
X100625369Y-101963985D02*
G01*
X100634333Y-102022333D01*
X100582336Y-102139100D01*
X100465441Y-102118178D01*
X100439079Y-102095191D01*
X100421956Y-101989649D01*
X100507770Y-101904075D01*
X100554663Y-101895333D01*
X100625369Y-101963985D01*
G37*
G36*
X101468487Y-101910563D02*
G01*
X101621764Y-101949502D01*
X101650333Y-101980000D01*
X101574186Y-102028297D01*
X101379491Y-102058953D01*
X101227000Y-102064667D01*
X100985512Y-102049437D01*
X100832235Y-102010498D01*
X100803666Y-101980000D01*
X100879813Y-101931702D01*
X101074508Y-101901047D01*
X101227000Y-101895333D01*
X101468487Y-101910563D01*
G37*
G36*
X100958514Y-96451908D02*
G01*
X100996048Y-96555661D01*
X101084995Y-96678044D01*
X101292980Y-96738619D01*
X101365756Y-96746161D01*
X101603726Y-96786586D01*
X101683963Y-96845023D01*
X101614712Y-96905926D01*
X101404214Y-96953751D01*
X101248166Y-96967924D01*
X100803666Y-96993516D01*
X100803666Y-96692758D01*
X100828395Y-96480905D01*
X100887534Y-96395260D01*
X100958514Y-96451908D01*
G37*
G36*
X101716900Y-90268947D02*
G01*
X101718304Y-90403342D01*
X101633400Y-90533066D01*
X101504784Y-90588637D01*
X101282611Y-90623514D01*
X101014474Y-90637863D01*
X100747969Y-90631846D01*
X100530689Y-90605627D01*
X100410231Y-90559369D01*
X100401164Y-90528833D01*
X100505980Y-90461293D01*
X100752560Y-90413937D01*
X100958553Y-90397793D01*
X101230793Y-90372767D01*
X101419782Y-90332668D01*
X101481000Y-90291960D01*
X101549637Y-90220409D01*
X101608000Y-90211333D01*
X101716900Y-90268947D01*
G37*
G36*
X101678364Y-101281874D02*
G01*
X101694462Y-101439518D01*
X101651269Y-101554917D01*
X101572790Y-101651297D01*
X101438614Y-101703536D01*
X101203887Y-101723916D01*
X101026465Y-101726000D01*
X100740330Y-101717998D01*
X100526562Y-101697154D01*
X100439079Y-101671857D01*
X100409451Y-101574485D01*
X100539280Y-101507968D01*
X100821033Y-101475100D01*
X100977996Y-101472000D01*
X101271322Y-101462074D01*
X101428097Y-101426925D01*
X101480232Y-101358496D01*
X101481000Y-101345000D01*
X101524066Y-101232289D01*
X101560669Y-101218000D01*
X101678364Y-101281874D01*
G37*
G36*
X101464872Y-93701224D02*
G01*
X101643891Y-93739991D01*
X101678769Y-93761903D01*
X101692918Y-93826411D01*
X101554935Y-93851258D01*
X101504858Y-93852000D01*
X101185308Y-93883303D01*
X101007225Y-93974035D01*
X100973000Y-94063667D01*
X101051425Y-94190566D01*
X101276468Y-94261819D01*
X101492921Y-94275333D01*
X101658191Y-94298821D01*
X101693441Y-94358706D01*
X101692666Y-94360000D01*
X101584287Y-94408878D01*
X101366058Y-94439464D01*
X101217135Y-94444667D01*
X100793930Y-94444667D01*
X100819965Y-94084833D01*
X100846000Y-93725000D01*
X101217336Y-93698403D01*
X101464872Y-93701224D01*
G37*
G36*
X101519038Y-90866979D02*
G01*
X101651404Y-90916368D01*
X101637619Y-90975675D01*
X101470039Y-91026079D01*
X101327611Y-91041956D01*
X101095098Y-91072832D01*
X100996316Y-91132419D01*
X100989638Y-91211290D01*
X101096287Y-91331302D01*
X101312360Y-91381536D01*
X101580275Y-91420116D01*
X101690077Y-91465917D01*
X101652285Y-91510776D01*
X101477419Y-91546533D01*
X101175998Y-91565026D01*
X101074599Y-91566000D01*
X100733101Y-91556320D01*
X100492369Y-91529813D01*
X100383534Y-91490273D01*
X100380333Y-91481333D01*
X100452622Y-91417093D01*
X100586635Y-91396667D01*
X100734628Y-91366445D01*
X100802050Y-91243081D01*
X100819468Y-91121500D01*
X100845259Y-90955468D01*
X100912332Y-90874750D01*
X101068569Y-90848613D01*
X101248166Y-90846333D01*
X101519038Y-90866979D01*
G37*
G36*
X101604783Y-99711747D02*
G01*
X101652044Y-99781865D01*
X101700116Y-99966951D01*
X101680148Y-100153731D01*
X101604733Y-100273179D01*
X101559961Y-100286667D01*
X101505883Y-100212705D01*
X101481158Y-100032931D01*
X101481000Y-100015733D01*
X101454614Y-99850196D01*
X101393948Y-99833253D01*
X101326737Y-99955927D01*
X101297853Y-100075000D01*
X101209925Y-100211230D01*
X101054176Y-100273816D01*
X100902628Y-100247573D01*
X100838925Y-100171762D01*
X100808631Y-99963953D01*
X100848102Y-99759592D01*
X100940942Y-99635019D01*
X100955526Y-99628845D01*
X101026420Y-99647939D01*
X101014164Y-99795036D01*
X101009847Y-99812713D01*
X100995411Y-99977551D01*
X101039309Y-100032667D01*
X101120780Y-99960809D01*
X101177101Y-99821000D01*
X101282497Y-99652108D01*
X101443982Y-99614131D01*
X101604783Y-99711747D01*
G37*
G36*
X101700078Y-92955474D02*
G01*
X101681860Y-93263440D01*
X101547447Y-93448769D01*
X101295507Y-93513243D01*
X101283287Y-93513333D01*
X101059834Y-93483920D01*
X100906602Y-93413046D01*
X100905266Y-93411733D01*
X100822295Y-93248576D01*
X100803666Y-93121288D01*
X100791326Y-93086965D01*
X100992304Y-93086965D01*
X101012416Y-93217310D01*
X101066495Y-93266582D01*
X101176199Y-93331346D01*
X101257231Y-93326760D01*
X101347075Y-93292608D01*
X101460064Y-93174754D01*
X101481000Y-93080941D01*
X101426972Y-92954415D01*
X101266676Y-92920667D01*
X101087027Y-92970856D01*
X100992304Y-93086965D01*
X100791326Y-93086965D01*
X100744928Y-92957906D01*
X100613166Y-92905388D01*
X100473376Y-92853123D01*
X100443833Y-92793667D01*
X100532350Y-92752157D01*
X100745721Y-92721966D01*
X101039551Y-92709102D01*
X101069400Y-92709000D01*
X101673800Y-92709000D01*
X101700078Y-92955474D01*
G37*
G36*
X101277474Y-97130195D02*
G01*
X101311292Y-97328768D01*
X101311666Y-97365667D01*
X101335334Y-97561496D01*
X101393537Y-97659427D01*
X101405942Y-97662000D01*
X101464728Y-97588322D01*
X101462392Y-97404272D01*
X101458216Y-97188301D01*
X101512498Y-97104706D01*
X101603337Y-97167917D01*
X101661983Y-97272757D01*
X101694711Y-97508655D01*
X101602063Y-97716898D01*
X101425583Y-97867752D01*
X101206815Y-97931477D01*
X100987306Y-97878338D01*
X100905266Y-97814400D01*
X100813867Y-97626785D01*
X100815899Y-97416599D01*
X100990739Y-97416599D01*
X101017976Y-97552515D01*
X101073406Y-97658574D01*
X101106502Y-97606347D01*
X101120587Y-97549540D01*
X101128382Y-97395649D01*
X101107484Y-97344929D01*
X101026825Y-97324748D01*
X100990739Y-97416599D01*
X100815899Y-97416599D01*
X100816078Y-97398139D01*
X100904412Y-97207658D01*
X100967433Y-97156979D01*
X101171176Y-97077976D01*
X101277474Y-97130195D01*
G37*
G36*
X101285582Y-100495899D02*
G01*
X101311666Y-100713679D01*
X101311666Y-100714997D01*
X101339460Y-100891120D01*
X101405942Y-100964000D01*
X101464843Y-100890522D01*
X101462939Y-100710000D01*
X101463612Y-100513429D01*
X101537996Y-100456000D01*
X101630589Y-100526440D01*
X101673062Y-100695784D01*
X101665016Y-100901064D01*
X101606051Y-101079315D01*
X101542403Y-101149502D01*
X101339253Y-101210145D01*
X101098922Y-101200541D01*
X100915200Y-101125564D01*
X100905266Y-101116400D01*
X100808301Y-100925336D01*
X100809967Y-100841997D01*
X100973000Y-100841997D01*
X101020338Y-100951424D01*
X101057666Y-100964000D01*
X101125791Y-100892874D01*
X101142333Y-100789670D01*
X101109740Y-100672600D01*
X101057666Y-100667667D01*
X100979762Y-100790169D01*
X100973000Y-100841997D01*
X100809967Y-100841997D01*
X100812762Y-100702237D01*
X100908814Y-100519368D01*
X100994166Y-100463213D01*
X101189069Y-100419801D01*
X101285582Y-100495899D01*
G37*
G36*
X101443062Y-91749889D02*
G01*
X101627070Y-91810849D01*
X101697236Y-91963744D01*
X101700229Y-91989333D01*
X101697423Y-92285651D01*
X101610911Y-92445207D01*
X101431744Y-92483179D01*
X101410232Y-92481089D01*
X101233422Y-92418815D01*
X101162076Y-92253745D01*
X101157876Y-92222167D01*
X101118553Y-92082599D01*
X101329405Y-92082599D01*
X101356643Y-92218515D01*
X101412072Y-92324574D01*
X101445169Y-92272347D01*
X101459253Y-92215540D01*
X101467048Y-92061649D01*
X101446150Y-92010929D01*
X101365492Y-91990748D01*
X101329405Y-92082599D01*
X101118553Y-92082599D01*
X101110218Y-92053015D01*
X101041459Y-91989333D01*
X100989554Y-92062024D01*
X101002633Y-92243333D01*
X101013803Y-92437180D01*
X100953744Y-92499452D01*
X100860111Y-92440889D01*
X100821277Y-92324619D01*
X100803749Y-92119169D01*
X100803666Y-92103835D01*
X100854245Y-91882614D01*
X101016362Y-91763527D01*
X101305591Y-91737954D01*
X101443062Y-91749889D01*
G37*
G36*
X101627907Y-94673959D02*
G01*
X101677241Y-94792420D01*
X101685114Y-95075364D01*
X101569926Y-95285879D01*
X101366051Y-95394118D01*
X101107864Y-95370237D01*
X101043647Y-95342537D01*
X100897640Y-95218665D01*
X100847302Y-95009770D01*
X100847071Y-94999202D01*
X100988834Y-94999202D01*
X101001433Y-95073975D01*
X101073477Y-95196187D01*
X101124266Y-95157187D01*
X101142333Y-94978067D01*
X101125313Y-94828035D01*
X101065990Y-94827521D01*
X101046424Y-94845375D01*
X100988834Y-94999202D01*
X100847071Y-94999202D01*
X100846000Y-94950166D01*
X100863792Y-94747999D01*
X100944142Y-94658005D01*
X101078833Y-94629543D01*
X101232994Y-94627194D01*
X101297922Y-94699311D01*
X101311641Y-94891648D01*
X101311666Y-94909706D01*
X101332724Y-95116924D01*
X101394813Y-95164278D01*
X101404862Y-95159062D01*
X101458412Y-95040370D01*
X101449312Y-94857731D01*
X101454085Y-94672410D01*
X101530556Y-94606298D01*
X101627907Y-94673959D01*
G37*
G36*
X101665498Y-95569753D02*
G01*
X101873574Y-95642289D01*
X101899743Y-95666802D01*
X101964476Y-95833612D01*
X101971156Y-96054663D01*
X101926673Y-96258110D01*
X101837915Y-96372104D01*
X101831902Y-96374345D01*
X101758721Y-96361629D01*
X101758685Y-96230263D01*
X101773359Y-96156093D01*
X101787912Y-95949293D01*
X101739956Y-95844730D01*
X101670523Y-95868263D01*
X101650333Y-95989070D01*
X101609565Y-96189543D01*
X101548733Y-96290400D01*
X101365361Y-96375319D01*
X101126751Y-96381793D01*
X100927728Y-96309821D01*
X100905266Y-96290400D01*
X100838389Y-96143487D01*
X100815036Y-95983749D01*
X100990654Y-95983749D01*
X101030811Y-96116046D01*
X101066495Y-96145248D01*
X101223745Y-96215070D01*
X101341548Y-96157131D01*
X101393255Y-96099375D01*
X101452956Y-95940566D01*
X101366175Y-95828784D01*
X101219345Y-95799333D01*
X101063143Y-95856351D01*
X100990654Y-95983749D01*
X100815036Y-95983749D01*
X100804648Y-95912693D01*
X100803666Y-95867067D01*
X100803666Y-95545333D01*
X101301299Y-95545333D01*
X101665498Y-95569753D01*
G37*
G36*
X101459833Y-98092546D02*
G01*
X101575587Y-98161395D01*
X101632524Y-98286936D01*
X101649905Y-98519532D01*
X101650333Y-98590605D01*
X101650333Y-99016667D01*
X101053242Y-99016667D01*
X100456150Y-99016667D01*
X100481742Y-98572167D01*
X100482148Y-98565111D01*
X100634333Y-98565111D01*
X100680106Y-98723735D01*
X100803666Y-98762667D01*
X100946271Y-98701936D01*
X100973000Y-98603700D01*
X100951893Y-98529833D01*
X101157876Y-98529833D01*
X101162787Y-98700678D01*
X101254625Y-98759581D01*
X101311666Y-98762667D01*
X101440525Y-98730988D01*
X101471578Y-98603837D01*
X101465457Y-98529833D01*
X101403536Y-98350921D01*
X101311666Y-98297000D01*
X101205359Y-98372779D01*
X101157876Y-98529833D01*
X100951893Y-98529833D01*
X100927716Y-98445225D01*
X100825543Y-98324888D01*
X100716998Y-98294794D01*
X100690043Y-98311846D01*
X100646085Y-98432346D01*
X100634333Y-98565111D01*
X100482148Y-98565111D01*
X100507333Y-98127667D01*
X100812931Y-98118852D01*
X101036595Y-98101430D01*
X101183699Y-98070305D01*
X101193931Y-98065293D01*
X101324235Y-98057444D01*
X101459833Y-98092546D01*
G37*
G36*
X101420307Y-102328290D02*
G01*
X101635025Y-102356041D01*
X101694301Y-102400235D01*
X101692666Y-102403333D01*
X101582349Y-102456133D01*
X101369589Y-102485909D01*
X101285503Y-102488316D01*
X100930666Y-102488633D01*
X101205833Y-102656405D01*
X101383893Y-102785030D01*
X101477037Y-102891465D01*
X101481000Y-102908066D01*
X101412754Y-102995906D01*
X101241631Y-103115735D01*
X101163500Y-103159569D01*
X100846000Y-103327183D01*
X101295496Y-103330925D01*
X101559398Y-103347259D01*
X101687871Y-103387720D01*
X101692666Y-103419333D01*
X101589946Y-103462324D01*
X101377299Y-103489973D01*
X101104037Y-103502322D01*
X100819468Y-103499411D01*
X100572906Y-103481282D01*
X100413661Y-103447977D01*
X100380333Y-103418233D01*
X100450132Y-103334991D01*
X100628262Y-103217441D01*
X100761333Y-103147362D01*
X100979685Y-103032777D01*
X101117524Y-102944098D01*
X101142333Y-102915483D01*
X101074221Y-102852742D01*
X100899961Y-102743354D01*
X100761333Y-102666589D01*
X100544036Y-102538206D01*
X100406082Y-102431506D01*
X100380333Y-102391568D01*
X100458324Y-102357825D01*
X100665688Y-102332366D01*
X100962513Y-102319455D01*
X101062663Y-102318667D01*
X101420307Y-102328290D01*
G37*
D12*
%TO.C,J4*%
X91580000Y-105770000D02*
X91580000Y-104390000D01*
X92960000Y-105770000D02*
X91580000Y-105770000D01*
X94230000Y-103010000D02*
X99420000Y-103010000D01*
X94230000Y-105770000D02*
X94230000Y-103010000D01*
X94230000Y-105770000D02*
X99420000Y-105770000D01*
X99420000Y-105770000D02*
X99420000Y-103010000D01*
%TO.C,C9*%
X101012164Y-85577500D02*
X101227836Y-85577500D01*
X101012164Y-86297500D02*
X101227836Y-86297500D01*
%TO.C,C1*%
X101008601Y-79419782D02*
X101161104Y-79267279D01*
X101517718Y-79928899D02*
X101670221Y-79776396D01*
%TO.C,R6*%
X99820000Y-72056359D02*
X99820000Y-72363641D01*
X100580000Y-72056359D02*
X100580000Y-72363641D01*
%TO.C,U2*%
X91990000Y-66302500D02*
X92990000Y-66302500D01*
X91990000Y-67822500D02*
X91990000Y-66302500D01*
X92040000Y-67822500D02*
X91990000Y-67822500D01*
X93940000Y-67822500D02*
X93160000Y-67822500D01*
X94110000Y-66302500D02*
X95110000Y-66302500D01*
X95110000Y-66302500D02*
X95110000Y-67822500D01*
X95110000Y-67822500D02*
X95060000Y-67822500D01*
X93500000Y-68602500D02*
X93170000Y-68362500D01*
X93500000Y-68122500D01*
X93500000Y-68602500D01*
G36*
X93500000Y-68602500D02*
G01*
X93170000Y-68362500D01*
X93500000Y-68122500D01*
X93500000Y-68602500D01*
G37*
%TO.C,C15*%
X91140000Y-92809664D02*
X91140000Y-93025336D01*
X91860000Y-92809664D02*
X91860000Y-93025336D01*
%TO.C,C17*%
X93327836Y-74040000D02*
X93112164Y-74040000D01*
X93327836Y-74760000D02*
X93112164Y-74760000D01*
%TO.C,C10*%
X97940000Y-90829664D02*
X97940000Y-91045336D01*
X98660000Y-90829664D02*
X98660000Y-91045336D01*
%TO.C,C2*%
X96840000Y-90829664D02*
X96840000Y-91045336D01*
X97560000Y-90829664D02*
X97560000Y-91045336D01*
%TD*%
M02*
